G04 #@! TF.GenerationSoftware,KiCad,Pcbnew,5.1.2-f72e74a~84~ubuntu18.04.1*
G04 #@! TF.CreationDate,2019-05-19T10:24:28+02:00*
G04 #@! TF.ProjectId,lowpower,6c6f7770-6f77-4657-922e-6b696361645f,rev?*
G04 #@! TF.SameCoordinates,Original*
G04 #@! TF.FileFunction,Legend,Top*
G04 #@! TF.FilePolarity,Positive*
%FSLAX46Y46*%
G04 Gerber Fmt 4.6, Leading zero omitted, Abs format (unit mm)*
G04 Created by KiCad (PCBNEW 5.1.2-f72e74a~84~ubuntu18.04.1) date 2019-05-19 10:24:28*
%MOMM*%
%LPD*%
G04 APERTURE LIST*
%ADD10C,0.150000*%
%ADD11C,0.120000*%
%ADD12C,0.152400*%
%ADD13C,0.100000*%
G04 APERTURE END LIST*
D10*
X75707976Y-44507380D02*
X76327023Y-44507380D01*
X75993690Y-44888333D01*
X76136547Y-44888333D01*
X76231785Y-44935952D01*
X76279404Y-44983571D01*
X76327023Y-45078809D01*
X76327023Y-45316904D01*
X76279404Y-45412142D01*
X76231785Y-45459761D01*
X76136547Y-45507380D01*
X75850833Y-45507380D01*
X75755595Y-45459761D01*
X75707976Y-45412142D01*
X76660357Y-44507380D02*
X77279404Y-44507380D01*
X76946071Y-44888333D01*
X77088928Y-44888333D01*
X77184166Y-44935952D01*
X77231785Y-44983571D01*
X77279404Y-45078809D01*
X77279404Y-45316904D01*
X77231785Y-45412142D01*
X77184166Y-45459761D01*
X77088928Y-45507380D01*
X76803214Y-45507380D01*
X76707976Y-45459761D01*
X76660357Y-45412142D01*
X60325000Y-46355000D02*
X92710000Y-46355000D01*
X60325000Y-50165000D02*
X60325000Y-45768579D01*
X92710000Y-50165000D02*
X92710000Y-45768579D01*
X92710000Y-46355000D02*
X91583496Y-46941421D01*
X92710000Y-46355000D02*
X91583496Y-45768579D01*
X60325000Y-46355000D02*
X61451504Y-46941421D01*
X60325000Y-46355000D02*
X61451504Y-45768579D01*
X99304285Y-71786785D02*
X98637619Y-71786785D01*
X99685238Y-71548690D02*
X98970952Y-71310595D01*
X98970952Y-71929642D01*
X99304285Y-72739166D02*
X98637619Y-72739166D01*
X99685238Y-72501071D02*
X98970952Y-72262976D01*
X98970952Y-72882023D01*
X97790000Y-50165000D02*
X97790000Y-93980000D01*
X93980000Y-50165000D02*
X98376421Y-50165000D01*
X93980000Y-93980000D02*
X98376421Y-93980000D01*
X97790000Y-93980000D02*
X97203579Y-92853496D01*
X97790000Y-93980000D02*
X98376421Y-92853496D01*
X97790000Y-50165000D02*
X97203579Y-51291504D01*
X97790000Y-50165000D02*
X98376421Y-51291504D01*
D11*
X80770000Y-62829221D02*
X80770000Y-63154779D01*
X81790000Y-62829221D02*
X81790000Y-63154779D01*
X70986000Y-62352000D02*
X71436000Y-62352000D01*
X69836000Y-61947000D02*
X70986000Y-62352000D01*
X70986000Y-60452000D02*
X71436000Y-60452000D01*
X69836000Y-60857000D02*
X70986000Y-60452000D01*
X69836000Y-63102000D02*
X69836000Y-59702000D01*
X61436000Y-63102000D02*
X69836000Y-63102000D01*
X61436000Y-59702000D02*
X61436000Y-63102000D01*
X69836000Y-59702000D02*
X61436000Y-59702000D01*
X82298000Y-74051279D02*
X82298000Y-73725721D01*
X81278000Y-74051279D02*
X81278000Y-73725721D01*
X70614000Y-88834279D02*
X70614000Y-88508721D01*
X69594000Y-88834279D02*
X69594000Y-88508721D01*
X83314000Y-88046779D02*
X83314000Y-87721221D01*
X82294000Y-88046779D02*
X82294000Y-87721221D01*
X91632000Y-60960000D02*
G75*
G03X91632000Y-60960000I-700000J0D01*
G01*
X90616000Y-52832000D02*
G75*
G03X90616000Y-52832000I-700000J0D01*
G01*
X82488000Y-60452000D02*
G75*
G03X82488000Y-60452000I-700000J0D01*
G01*
X85700000Y-53000000D02*
G75*
G03X85700000Y-53000000I-1200000J0D01*
G01*
X74940000Y-52340000D02*
X70640000Y-52340000D01*
X74940000Y-54340000D02*
X74940000Y-52340000D01*
X70640000Y-54340000D02*
X74940000Y-54340000D01*
X76773721Y-68455000D02*
X77099279Y-68455000D01*
X76773721Y-67435000D02*
X77099279Y-67435000D01*
X73662000Y-67726779D02*
X73662000Y-67401221D01*
X72642000Y-67726779D02*
X72642000Y-67401221D01*
X71880000Y-74233721D02*
X71880000Y-74559279D01*
X72900000Y-74233721D02*
X72900000Y-74559279D01*
X88824000Y-70590000D02*
X86944000Y-70590000D01*
X85774000Y-67470000D02*
X86824000Y-67470000D01*
X85774000Y-68620000D02*
X85774000Y-67470000D01*
X88944000Y-67470000D02*
X88944000Y-66480000D01*
X89994000Y-67470000D02*
X88944000Y-67470000D01*
X89994000Y-68620000D02*
X89994000Y-67470000D01*
X79480000Y-70950000D02*
X79480000Y-73830000D01*
X76360000Y-75000000D02*
X76360000Y-73950000D01*
X77510000Y-75000000D02*
X76360000Y-75000000D01*
X76360000Y-70830000D02*
X75370000Y-70830000D01*
X76360000Y-69780000D02*
X76360000Y-70830000D01*
X77510000Y-69780000D02*
X76360000Y-69780000D01*
X89816000Y-77194000D02*
X84936000Y-77194000D01*
X83766000Y-74074000D02*
X84816000Y-74074000D01*
X83766000Y-75224000D02*
X83766000Y-74074000D01*
X89936000Y-74074000D02*
X89936000Y-73084000D01*
X90986000Y-74074000D02*
X89936000Y-74074000D01*
X90986000Y-75224000D02*
X90986000Y-74074000D01*
D12*
X68937000Y-52588000D02*
X68367740Y-52113617D01*
X66252260Y-52113617D02*
X65683000Y-52588000D01*
X65683000Y-52588000D02*
X65683000Y-54092000D01*
X65683000Y-54092000D02*
X66252260Y-54566383D01*
X68367740Y-54566383D02*
X68937000Y-54092000D01*
X68937000Y-54092000D02*
X68937000Y-52588000D01*
D13*
X70665000Y-68554000D02*
X70315000Y-68179000D01*
X70315000Y-68179000D02*
X69215000Y-68179000D01*
X69215000Y-68179000D02*
X69215000Y-67129000D01*
X70190000Y-72029000D02*
X70665000Y-72029000D01*
X70665000Y-72029000D02*
X70665000Y-71629000D01*
X61415000Y-68554000D02*
X61415000Y-68179000D01*
X61415000Y-68179000D02*
X61765000Y-68179000D01*
X61815000Y-72029000D02*
X61415000Y-72029000D01*
X61415000Y-72029000D02*
X61415000Y-71654000D01*
D11*
X83700000Y-51500000D02*
G75*
G03X83700000Y-51500000I-1200000J0D01*
G01*
X79700000Y-51500000D02*
G75*
G03X79700000Y-51500000I-1200000J0D01*
G01*
X81700000Y-53000000D02*
G75*
G03X81700000Y-53000000I-1200000J0D01*
G01*
X81850000Y-58310000D02*
X83750000Y-58310000D01*
X83250000Y-55990000D02*
X81850000Y-55990000D01*
X84580000Y-56987221D02*
X84580000Y-57312779D01*
X85600000Y-56987221D02*
X85600000Y-57312779D01*
X77980000Y-55717221D02*
X77980000Y-56042779D01*
X76960000Y-55717221D02*
X76960000Y-56042779D01*
X79500000Y-56987221D02*
X79500000Y-57312779D01*
X80520000Y-56987221D02*
X80520000Y-57312779D01*
X87882000Y-55534779D02*
X87882000Y-55209221D01*
X88902000Y-55534779D02*
X88902000Y-55209221D01*
X83845000Y-83596000D02*
X83845000Y-80996000D01*
X90145000Y-78846000D02*
X90145000Y-79096000D01*
X83845000Y-78846000D02*
X90145000Y-78846000D01*
X83845000Y-79096000D02*
X83845000Y-78846000D01*
X90145000Y-80996000D02*
X90145000Y-83596000D01*
X83845000Y-85746000D02*
X83845000Y-85496000D01*
X90145000Y-85746000D02*
X83845000Y-85746000D01*
X90145000Y-85496000D02*
X90145000Y-85746000D01*
X79350000Y-90830000D02*
X79350000Y-91080000D01*
X79350000Y-91080000D02*
X73050000Y-91080000D01*
X73050000Y-91080000D02*
X73050000Y-90830000D01*
X79350000Y-86330000D02*
X79350000Y-88930000D01*
X73050000Y-84430000D02*
X73050000Y-84180000D01*
X73050000Y-84180000D02*
X79350000Y-84180000D01*
X79350000Y-84180000D02*
X79350000Y-84430000D01*
X73050000Y-88930000D02*
X73050000Y-86330000D01*
X62740000Y-57795279D02*
X62740000Y-57469721D01*
X61720000Y-57795279D02*
X61720000Y-57469721D01*
X64260000Y-57795279D02*
X64260000Y-57469721D01*
X65280000Y-57795279D02*
X65280000Y-57469721D01*
X69340000Y-56987221D02*
X69340000Y-57312779D01*
X70360000Y-56987221D02*
X70360000Y-57312779D01*
X63154779Y-65026000D02*
X62829221Y-65026000D01*
X63154779Y-64006000D02*
X62829221Y-64006000D01*
X68971279Y-64260000D02*
X68645721Y-64260000D01*
X68971279Y-65280000D02*
X68645721Y-65280000D01*
X87030779Y-65534000D02*
X86705221Y-65534000D01*
X87030779Y-64514000D02*
X86705221Y-64514000D01*
X60130000Y-84560000D02*
X60130000Y-76740000D01*
X69450000Y-78540000D02*
X69880000Y-78540000D01*
X60130000Y-84560000D02*
X62080000Y-84560000D01*
X64300000Y-84560000D02*
X67530000Y-84560000D01*
X69450000Y-82760000D02*
X69450000Y-83840000D01*
X69450000Y-77460000D02*
X69450000Y-78540000D01*
X64300000Y-76740000D02*
X67530000Y-76740000D01*
X60130000Y-76740000D02*
X62080000Y-76740000D01*
X80545000Y-64783500D02*
X80545000Y-67068500D01*
X82015000Y-64783500D02*
X80545000Y-64783500D01*
X82015000Y-67068500D02*
X82015000Y-64783500D01*
X84555000Y-67068500D02*
X84555000Y-64783500D01*
X84555000Y-64783500D02*
X83085000Y-64783500D01*
X83085000Y-64783500D02*
X83085000Y-67068500D01*
X85520000Y-59583000D02*
X85520000Y-59358000D01*
X85520000Y-59358000D02*
X85745000Y-59358000D01*
X89740000Y-63353000D02*
X89740000Y-63578000D01*
X89740000Y-63578000D02*
X89515000Y-63578000D01*
X89740000Y-59583000D02*
X89740000Y-59358000D01*
X89740000Y-59358000D02*
X89515000Y-59358000D01*
X85520000Y-63353000D02*
X85520000Y-63578000D01*
X67585000Y-56205000D02*
X67585000Y-57905000D01*
X65885000Y-56355000D02*
X65885000Y-57905000D01*
X74290000Y-76600000D02*
X74290000Y-77860000D01*
X74290000Y-83420000D02*
X74290000Y-82160000D01*
X78050000Y-76600000D02*
X74290000Y-76600000D01*
X80300000Y-83420000D02*
X74290000Y-83420000D01*
X84330000Y-70038279D02*
X84330000Y-69712721D01*
X83310000Y-70038279D02*
X83310000Y-69712721D01*
X89914000Y-55534779D02*
X89914000Y-55209221D01*
X90934000Y-55534779D02*
X90934000Y-55209221D01*
X63337221Y-55120000D02*
X63662779Y-55120000D01*
X63337221Y-54100000D02*
X63662779Y-54100000D01*
X80770000Y-70038279D02*
X80770000Y-69712721D01*
X81790000Y-70038279D02*
X81790000Y-69712721D01*
D10*
X83067142Y-63158666D02*
X83114761Y-63206285D01*
X83162380Y-63349142D01*
X83162380Y-63444380D01*
X83114761Y-63587238D01*
X83019523Y-63682476D01*
X82924285Y-63730095D01*
X82733809Y-63777714D01*
X82590952Y-63777714D01*
X82400476Y-63730095D01*
X82305238Y-63682476D01*
X82210000Y-63587238D01*
X82162380Y-63444380D01*
X82162380Y-63349142D01*
X82210000Y-63206285D01*
X82257619Y-63158666D01*
X83162380Y-62682476D02*
X83162380Y-62492000D01*
X83114761Y-62396761D01*
X83067142Y-62349142D01*
X82924285Y-62253904D01*
X82733809Y-62206285D01*
X82352857Y-62206285D01*
X82257619Y-62253904D01*
X82210000Y-62301523D01*
X82162380Y-62396761D01*
X82162380Y-62587238D01*
X82210000Y-62682476D01*
X82257619Y-62730095D01*
X82352857Y-62777714D01*
X82590952Y-62777714D01*
X82686190Y-62730095D01*
X82733809Y-62682476D01*
X82781428Y-62587238D01*
X82781428Y-62396761D01*
X82733809Y-62301523D01*
X82686190Y-62253904D01*
X82590952Y-62206285D01*
X71659809Y-58904190D02*
X71659809Y-59380380D01*
X71326476Y-58380380D02*
X71659809Y-58904190D01*
X71993142Y-58380380D01*
X72850285Y-59380380D02*
X72278857Y-59380380D01*
X72564571Y-59380380D02*
X72564571Y-58380380D01*
X72469333Y-58523238D01*
X72374095Y-58618476D01*
X72278857Y-58666095D01*
X82240380Y-77350857D02*
X81764190Y-77684190D01*
X82240380Y-77922285D02*
X81240380Y-77922285D01*
X81240380Y-77541333D01*
X81288000Y-77446095D01*
X81335619Y-77398476D01*
X81430857Y-77350857D01*
X81573714Y-77350857D01*
X81668952Y-77398476D01*
X81716571Y-77446095D01*
X81764190Y-77541333D01*
X81764190Y-77922285D01*
X82240380Y-76398476D02*
X82240380Y-76969904D01*
X82240380Y-76684190D02*
X81240380Y-76684190D01*
X81383238Y-76779428D01*
X81478476Y-76874666D01*
X81526095Y-76969904D01*
X81335619Y-76017523D02*
X81288000Y-75969904D01*
X81240380Y-75874666D01*
X81240380Y-75636571D01*
X81288000Y-75541333D01*
X81335619Y-75493714D01*
X81430857Y-75446095D01*
X81526095Y-75446095D01*
X81668952Y-75493714D01*
X82240380Y-76065142D01*
X82240380Y-75446095D01*
X69126380Y-89314357D02*
X68650190Y-89647690D01*
X69126380Y-89885785D02*
X68126380Y-89885785D01*
X68126380Y-89504833D01*
X68174000Y-89409595D01*
X68221619Y-89361976D01*
X68316857Y-89314357D01*
X68459714Y-89314357D01*
X68554952Y-89361976D01*
X68602571Y-89409595D01*
X68650190Y-89504833D01*
X68650190Y-89885785D01*
X69126380Y-88361976D02*
X69126380Y-88933404D01*
X69126380Y-88647690D02*
X68126380Y-88647690D01*
X68269238Y-88742928D01*
X68364476Y-88838166D01*
X68412095Y-88933404D01*
X69126380Y-87409595D02*
X69126380Y-87981023D01*
X69126380Y-87695309D02*
X68126380Y-87695309D01*
X68269238Y-87790547D01*
X68364476Y-87885785D01*
X68412095Y-87981023D01*
X83256380Y-91574857D02*
X82780190Y-91908190D01*
X83256380Y-92146285D02*
X82256380Y-92146285D01*
X82256380Y-91765333D01*
X82304000Y-91670095D01*
X82351619Y-91622476D01*
X82446857Y-91574857D01*
X82589714Y-91574857D01*
X82684952Y-91622476D01*
X82732571Y-91670095D01*
X82780190Y-91765333D01*
X82780190Y-92146285D01*
X83256380Y-90622476D02*
X83256380Y-91193904D01*
X83256380Y-90908190D02*
X82256380Y-90908190D01*
X82399238Y-91003428D01*
X82494476Y-91098666D01*
X82542095Y-91193904D01*
X82256380Y-90003428D02*
X82256380Y-89908190D01*
X82304000Y-89812952D01*
X82351619Y-89765333D01*
X82446857Y-89717714D01*
X82637333Y-89670095D01*
X82875428Y-89670095D01*
X83065904Y-89717714D01*
X83161142Y-89765333D01*
X83208761Y-89812952D01*
X83256380Y-89908190D01*
X83256380Y-90003428D01*
X83208761Y-90098666D01*
X83161142Y-90146285D01*
X83065904Y-90193904D01*
X82875428Y-90241523D01*
X82637333Y-90241523D01*
X82446857Y-90193904D01*
X82351619Y-90146285D01*
X82304000Y-90098666D01*
X82256380Y-90003428D01*
X90178095Y-58888380D02*
X90749523Y-58888380D01*
X90463809Y-59888380D02*
X90463809Y-58888380D01*
X91082857Y-59888380D02*
X91082857Y-58888380D01*
X91463809Y-58888380D01*
X91559047Y-58936000D01*
X91606666Y-58983619D01*
X91654285Y-59078857D01*
X91654285Y-59221714D01*
X91606666Y-59316952D01*
X91559047Y-59364571D01*
X91463809Y-59412190D01*
X91082857Y-59412190D01*
X91987619Y-58888380D02*
X92654285Y-58888380D01*
X92225714Y-59888380D01*
X89162095Y-50836380D02*
X89733523Y-50836380D01*
X89447809Y-51836380D02*
X89447809Y-50836380D01*
X90066857Y-51836380D02*
X90066857Y-50836380D01*
X90447809Y-50836380D01*
X90543047Y-50884000D01*
X90590666Y-50931619D01*
X90638285Y-51026857D01*
X90638285Y-51169714D01*
X90590666Y-51264952D01*
X90543047Y-51312571D01*
X90447809Y-51360190D01*
X90066857Y-51360190D01*
X91495428Y-50836380D02*
X91304952Y-50836380D01*
X91209714Y-50884000D01*
X91162095Y-50931619D01*
X91066857Y-51074476D01*
X91019238Y-51264952D01*
X91019238Y-51645904D01*
X91066857Y-51741142D01*
X91114476Y-51788761D01*
X91209714Y-51836380D01*
X91400190Y-51836380D01*
X91495428Y-51788761D01*
X91543047Y-51741142D01*
X91590666Y-51645904D01*
X91590666Y-51407809D01*
X91543047Y-51312571D01*
X91495428Y-51264952D01*
X91400190Y-51217333D01*
X91209714Y-51217333D01*
X91114476Y-51264952D01*
X91066857Y-51312571D01*
X91019238Y-51407809D01*
X80018095Y-61428380D02*
X80589523Y-61428380D01*
X80303809Y-62428380D02*
X80303809Y-61428380D01*
X80922857Y-62428380D02*
X80922857Y-61428380D01*
X81303809Y-61428380D01*
X81399047Y-61476000D01*
X81446666Y-61523619D01*
X81494285Y-61618857D01*
X81494285Y-61761714D01*
X81446666Y-61856952D01*
X81399047Y-61904571D01*
X81303809Y-61952190D01*
X80922857Y-61952190D01*
X82399047Y-61428380D02*
X81922857Y-61428380D01*
X81875238Y-61904571D01*
X81922857Y-61856952D01*
X82018095Y-61809333D01*
X82256190Y-61809333D01*
X82351428Y-61856952D01*
X82399047Y-61904571D01*
X82446666Y-61999809D01*
X82446666Y-62237904D01*
X82399047Y-62333142D01*
X82351428Y-62380761D01*
X82256190Y-62428380D01*
X82018095Y-62428380D01*
X81922857Y-62380761D01*
X81875238Y-62333142D01*
X86114095Y-51776380D02*
X86685523Y-51776380D01*
X86399809Y-52776380D02*
X86399809Y-51776380D01*
X87018857Y-52776380D02*
X87018857Y-51776380D01*
X87399809Y-51776380D01*
X87495047Y-51824000D01*
X87542666Y-51871619D01*
X87590285Y-51966857D01*
X87590285Y-52109714D01*
X87542666Y-52204952D01*
X87495047Y-52252571D01*
X87399809Y-52300190D01*
X87018857Y-52300190D01*
X88542666Y-52776380D02*
X87971238Y-52776380D01*
X88256952Y-52776380D02*
X88256952Y-51776380D01*
X88161714Y-51919238D01*
X88066476Y-52014476D01*
X87971238Y-52062095D01*
X71651904Y-55792380D02*
X71651904Y-54792380D01*
X71890000Y-54792380D01*
X72032857Y-54840000D01*
X72128095Y-54935238D01*
X72175714Y-55030476D01*
X72223333Y-55220952D01*
X72223333Y-55363809D01*
X72175714Y-55554285D01*
X72128095Y-55649523D01*
X72032857Y-55744761D01*
X71890000Y-55792380D01*
X71651904Y-55792380D01*
X72556666Y-54792380D02*
X73175714Y-54792380D01*
X72842380Y-55173333D01*
X72985238Y-55173333D01*
X73080476Y-55220952D01*
X73128095Y-55268571D01*
X73175714Y-55363809D01*
X73175714Y-55601904D01*
X73128095Y-55697142D01*
X73080476Y-55744761D01*
X72985238Y-55792380D01*
X72699523Y-55792380D01*
X72604285Y-55744761D01*
X72556666Y-55697142D01*
X76769833Y-66967380D02*
X76436500Y-66491190D01*
X76198404Y-66967380D02*
X76198404Y-65967380D01*
X76579357Y-65967380D01*
X76674595Y-66015000D01*
X76722214Y-66062619D01*
X76769833Y-66157857D01*
X76769833Y-66300714D01*
X76722214Y-66395952D01*
X76674595Y-66443571D01*
X76579357Y-66491190D01*
X76198404Y-66491190D01*
X77246023Y-66967380D02*
X77436500Y-66967380D01*
X77531738Y-66919761D01*
X77579357Y-66872142D01*
X77674595Y-66729285D01*
X77722214Y-66538809D01*
X77722214Y-66157857D01*
X77674595Y-66062619D01*
X77626976Y-66015000D01*
X77531738Y-65967380D01*
X77341261Y-65967380D01*
X77246023Y-66015000D01*
X77198404Y-66062619D01*
X77150785Y-66157857D01*
X77150785Y-66395952D01*
X77198404Y-66491190D01*
X77246023Y-66538809D01*
X77341261Y-66586428D01*
X77531738Y-66586428D01*
X77626976Y-66538809D01*
X77674595Y-66491190D01*
X77722214Y-66395952D01*
X72079142Y-67730666D02*
X72126761Y-67778285D01*
X72174380Y-67921142D01*
X72174380Y-68016380D01*
X72126761Y-68159238D01*
X72031523Y-68254476D01*
X71936285Y-68302095D01*
X71745809Y-68349714D01*
X71602952Y-68349714D01*
X71412476Y-68302095D01*
X71317238Y-68254476D01*
X71222000Y-68159238D01*
X71174380Y-68016380D01*
X71174380Y-67921142D01*
X71222000Y-67778285D01*
X71269619Y-67730666D01*
X71602952Y-67159238D02*
X71555333Y-67254476D01*
X71507714Y-67302095D01*
X71412476Y-67349714D01*
X71364857Y-67349714D01*
X71269619Y-67302095D01*
X71222000Y-67254476D01*
X71174380Y-67159238D01*
X71174380Y-66968761D01*
X71222000Y-66873523D01*
X71269619Y-66825904D01*
X71364857Y-66778285D01*
X71412476Y-66778285D01*
X71507714Y-66825904D01*
X71555333Y-66873523D01*
X71602952Y-66968761D01*
X71602952Y-67159238D01*
X71650571Y-67254476D01*
X71698190Y-67302095D01*
X71793428Y-67349714D01*
X71983904Y-67349714D01*
X72079142Y-67302095D01*
X72126761Y-67254476D01*
X72174380Y-67159238D01*
X72174380Y-66968761D01*
X72126761Y-66873523D01*
X72079142Y-66825904D01*
X71983904Y-66778285D01*
X71793428Y-66778285D01*
X71698190Y-66825904D01*
X71650571Y-66873523D01*
X71602952Y-66968761D01*
X74177142Y-74563166D02*
X74224761Y-74610785D01*
X74272380Y-74753642D01*
X74272380Y-74848880D01*
X74224761Y-74991738D01*
X74129523Y-75086976D01*
X74034285Y-75134595D01*
X73843809Y-75182214D01*
X73700952Y-75182214D01*
X73510476Y-75134595D01*
X73415238Y-75086976D01*
X73320000Y-74991738D01*
X73272380Y-74848880D01*
X73272380Y-74753642D01*
X73320000Y-74610785D01*
X73367619Y-74563166D01*
X73272380Y-74229833D02*
X73272380Y-73563166D01*
X74272380Y-73991738D01*
X89598666Y-66952761D02*
X89741523Y-67000380D01*
X89979619Y-67000380D01*
X90074857Y-66952761D01*
X90122476Y-66905142D01*
X90170095Y-66809904D01*
X90170095Y-66714666D01*
X90122476Y-66619428D01*
X90074857Y-66571809D01*
X89979619Y-66524190D01*
X89789142Y-66476571D01*
X89693904Y-66428952D01*
X89646285Y-66381333D01*
X89598666Y-66286095D01*
X89598666Y-66190857D01*
X89646285Y-66095619D01*
X89693904Y-66048000D01*
X89789142Y-66000380D01*
X90027238Y-66000380D01*
X90170095Y-66048000D01*
X90503428Y-66000380D02*
X90741523Y-67000380D01*
X90932000Y-66286095D01*
X91122476Y-67000380D01*
X91360571Y-66000380D01*
X91693904Y-66095619D02*
X91741523Y-66048000D01*
X91836761Y-66000380D01*
X92074857Y-66000380D01*
X92170095Y-66048000D01*
X92217714Y-66095619D01*
X92265333Y-66190857D01*
X92265333Y-66286095D01*
X92217714Y-66428952D01*
X91646285Y-67000380D01*
X92265333Y-67000380D01*
X74636380Y-69929333D02*
X75350666Y-69929333D01*
X75493523Y-69976952D01*
X75588761Y-70072190D01*
X75636380Y-70215047D01*
X75636380Y-70310285D01*
X74636380Y-69548380D02*
X74636380Y-68929333D01*
X75017333Y-69262666D01*
X75017333Y-69119809D01*
X75064952Y-69024571D01*
X75112571Y-68976952D01*
X75207809Y-68929333D01*
X75445904Y-68929333D01*
X75541142Y-68976952D01*
X75588761Y-69024571D01*
X75636380Y-69119809D01*
X75636380Y-69405523D01*
X75588761Y-69500761D01*
X75541142Y-69548380D01*
X91106666Y-72604380D02*
X91106666Y-73318666D01*
X91059047Y-73461523D01*
X90963809Y-73556761D01*
X90820952Y-73604380D01*
X90725714Y-73604380D01*
X92106666Y-73604380D02*
X91535238Y-73604380D01*
X91820952Y-73604380D02*
X91820952Y-72604380D01*
X91725714Y-72747238D01*
X91630476Y-72842476D01*
X91535238Y-72890095D01*
X66889333Y-51760380D02*
X66413142Y-51760380D01*
X66413142Y-50760380D01*
X67746476Y-51760380D02*
X67175047Y-51760380D01*
X67460761Y-51760380D02*
X67460761Y-50760380D01*
X67365523Y-50903238D01*
X67270285Y-50998476D01*
X67175047Y-51046095D01*
X72032761Y-71945333D02*
X72080380Y-71802476D01*
X72080380Y-71564380D01*
X72032761Y-71469142D01*
X71985142Y-71421523D01*
X71889904Y-71373904D01*
X71794666Y-71373904D01*
X71699428Y-71421523D01*
X71651809Y-71469142D01*
X71604190Y-71564380D01*
X71556571Y-71754857D01*
X71508952Y-71850095D01*
X71461333Y-71897714D01*
X71366095Y-71945333D01*
X71270857Y-71945333D01*
X71175619Y-71897714D01*
X71128000Y-71850095D01*
X71080380Y-71754857D01*
X71080380Y-71516761D01*
X71128000Y-71373904D01*
X71080380Y-71040571D02*
X72080380Y-70802476D01*
X71366095Y-70612000D01*
X72080380Y-70421523D01*
X71080380Y-70183428D01*
X72080380Y-69278666D02*
X72080380Y-69850095D01*
X72080380Y-69564380D02*
X71080380Y-69564380D01*
X71223238Y-69659619D01*
X71318476Y-69754857D01*
X71366095Y-69850095D01*
X84082095Y-50252380D02*
X84653523Y-50252380D01*
X84367809Y-51252380D02*
X84367809Y-50252380D01*
X84986857Y-51252380D02*
X84986857Y-50252380D01*
X85367809Y-50252380D01*
X85463047Y-50300000D01*
X85510666Y-50347619D01*
X85558285Y-50442857D01*
X85558285Y-50585714D01*
X85510666Y-50680952D01*
X85463047Y-50728571D01*
X85367809Y-50776190D01*
X84986857Y-50776190D01*
X85939238Y-50347619D02*
X85986857Y-50300000D01*
X86082095Y-50252380D01*
X86320190Y-50252380D01*
X86415428Y-50300000D01*
X86463047Y-50347619D01*
X86510666Y-50442857D01*
X86510666Y-50538095D01*
X86463047Y-50680952D01*
X85891619Y-51252380D01*
X86510666Y-51252380D01*
X74938095Y-50760380D02*
X75509523Y-50760380D01*
X75223809Y-51760380D02*
X75223809Y-50760380D01*
X75842857Y-51760380D02*
X75842857Y-50760380D01*
X76223809Y-50760380D01*
X76319047Y-50808000D01*
X76366666Y-50855619D01*
X76414285Y-50950857D01*
X76414285Y-51093714D01*
X76366666Y-51188952D01*
X76319047Y-51236571D01*
X76223809Y-51284190D01*
X75842857Y-51284190D01*
X77271428Y-51093714D02*
X77271428Y-51760380D01*
X77033333Y-50712761D02*
X76795238Y-51427047D01*
X77414285Y-51427047D01*
X76462095Y-53300380D02*
X77033523Y-53300380D01*
X76747809Y-54300380D02*
X76747809Y-53300380D01*
X77366857Y-54300380D02*
X77366857Y-53300380D01*
X77747809Y-53300380D01*
X77843047Y-53348000D01*
X77890666Y-53395619D01*
X77938285Y-53490857D01*
X77938285Y-53633714D01*
X77890666Y-53728952D01*
X77843047Y-53776571D01*
X77747809Y-53824190D01*
X77366857Y-53824190D01*
X78271619Y-53300380D02*
X78890666Y-53300380D01*
X78557333Y-53681333D01*
X78700190Y-53681333D01*
X78795428Y-53728952D01*
X78843047Y-53776571D01*
X78890666Y-53871809D01*
X78890666Y-54109904D01*
X78843047Y-54205142D01*
X78795428Y-54252761D01*
X78700190Y-54300380D01*
X78414476Y-54300380D01*
X78319238Y-54252761D01*
X78271619Y-54205142D01*
X83216761Y-59697619D02*
X83121523Y-59650000D01*
X83026285Y-59554761D01*
X82883428Y-59411904D01*
X82788190Y-59364285D01*
X82692952Y-59364285D01*
X82740571Y-59602380D02*
X82645333Y-59554761D01*
X82550095Y-59459523D01*
X82502476Y-59269047D01*
X82502476Y-58935714D01*
X82550095Y-58745238D01*
X82645333Y-58650000D01*
X82740571Y-58602380D01*
X82931047Y-58602380D01*
X83026285Y-58650000D01*
X83121523Y-58745238D01*
X83169142Y-58935714D01*
X83169142Y-59269047D01*
X83121523Y-59459523D01*
X83026285Y-59554761D01*
X82931047Y-59602380D01*
X82740571Y-59602380D01*
X84121523Y-59602380D02*
X83550095Y-59602380D01*
X83835809Y-59602380D02*
X83835809Y-58602380D01*
X83740571Y-58745238D01*
X83645333Y-58840476D01*
X83550095Y-58888095D01*
X86972380Y-57316666D02*
X86496190Y-57650000D01*
X86972380Y-57888095D02*
X85972380Y-57888095D01*
X85972380Y-57507142D01*
X86020000Y-57411904D01*
X86067619Y-57364285D01*
X86162857Y-57316666D01*
X86305714Y-57316666D01*
X86400952Y-57364285D01*
X86448571Y-57411904D01*
X86496190Y-57507142D01*
X86496190Y-57888095D01*
X85972380Y-56411904D02*
X85972380Y-56888095D01*
X86448571Y-56935714D01*
X86400952Y-56888095D01*
X86353333Y-56792857D01*
X86353333Y-56554761D01*
X86400952Y-56459523D01*
X86448571Y-56411904D01*
X86543809Y-56364285D01*
X86781904Y-56364285D01*
X86877142Y-56411904D01*
X86924761Y-56459523D01*
X86972380Y-56554761D01*
X86972380Y-56792857D01*
X86924761Y-56888095D01*
X86877142Y-56935714D01*
X76652380Y-55538666D02*
X76176190Y-55872000D01*
X76652380Y-56110095D02*
X75652380Y-56110095D01*
X75652380Y-55729142D01*
X75700000Y-55633904D01*
X75747619Y-55586285D01*
X75842857Y-55538666D01*
X75985714Y-55538666D01*
X76080952Y-55586285D01*
X76128571Y-55633904D01*
X76176190Y-55729142D01*
X76176190Y-56110095D01*
X75652380Y-54681523D02*
X75652380Y-54872000D01*
X75700000Y-54967238D01*
X75747619Y-55014857D01*
X75890476Y-55110095D01*
X76080952Y-55157714D01*
X76461904Y-55157714D01*
X76557142Y-55110095D01*
X76604761Y-55062476D01*
X76652380Y-54967238D01*
X76652380Y-54776761D01*
X76604761Y-54681523D01*
X76557142Y-54633904D01*
X76461904Y-54586285D01*
X76223809Y-54586285D01*
X76128571Y-54633904D01*
X76080952Y-54681523D01*
X76033333Y-54776761D01*
X76033333Y-54967238D01*
X76080952Y-55062476D01*
X76128571Y-55110095D01*
X76223809Y-55157714D01*
X78065333Y-58872380D02*
X77732000Y-58396190D01*
X77493904Y-58872380D02*
X77493904Y-57872380D01*
X77874857Y-57872380D01*
X77970095Y-57920000D01*
X78017714Y-57967619D01*
X78065333Y-58062857D01*
X78065333Y-58205714D01*
X78017714Y-58300952D01*
X77970095Y-58348571D01*
X77874857Y-58396190D01*
X77493904Y-58396190D01*
X78398666Y-57872380D02*
X79065333Y-57872380D01*
X78636761Y-58872380D01*
X87414380Y-55538666D02*
X86938190Y-55872000D01*
X87414380Y-56110095D02*
X86414380Y-56110095D01*
X86414380Y-55729142D01*
X86462000Y-55633904D01*
X86509619Y-55586285D01*
X86604857Y-55538666D01*
X86747714Y-55538666D01*
X86842952Y-55586285D01*
X86890571Y-55633904D01*
X86938190Y-55729142D01*
X86938190Y-56110095D01*
X86842952Y-54967238D02*
X86795333Y-55062476D01*
X86747714Y-55110095D01*
X86652476Y-55157714D01*
X86604857Y-55157714D01*
X86509619Y-55110095D01*
X86462000Y-55062476D01*
X86414380Y-54967238D01*
X86414380Y-54776761D01*
X86462000Y-54681523D01*
X86509619Y-54633904D01*
X86604857Y-54586285D01*
X86652476Y-54586285D01*
X86747714Y-54633904D01*
X86795333Y-54681523D01*
X86842952Y-54776761D01*
X86842952Y-54967238D01*
X86890571Y-55062476D01*
X86938190Y-55110095D01*
X87033428Y-55157714D01*
X87223904Y-55157714D01*
X87319142Y-55110095D01*
X87366761Y-55062476D01*
X87414380Y-54967238D01*
X87414380Y-54776761D01*
X87366761Y-54681523D01*
X87319142Y-54633904D01*
X87223904Y-54586285D01*
X87033428Y-54586285D01*
X86938190Y-54633904D01*
X86890571Y-54681523D01*
X86842952Y-54776761D01*
X84010666Y-87200761D02*
X84153523Y-87248380D01*
X84391619Y-87248380D01*
X84486857Y-87200761D01*
X84534476Y-87153142D01*
X84582095Y-87057904D01*
X84582095Y-86962666D01*
X84534476Y-86867428D01*
X84486857Y-86819809D01*
X84391619Y-86772190D01*
X84201142Y-86724571D01*
X84105904Y-86676952D01*
X84058285Y-86629333D01*
X84010666Y-86534095D01*
X84010666Y-86438857D01*
X84058285Y-86343619D01*
X84105904Y-86296000D01*
X84201142Y-86248380D01*
X84439238Y-86248380D01*
X84582095Y-86296000D01*
X84915428Y-86248380D02*
X85153523Y-87248380D01*
X85344000Y-86534095D01*
X85534476Y-87248380D01*
X85772571Y-86248380D01*
X86582095Y-86581714D02*
X86582095Y-87248380D01*
X86344000Y-86200761D02*
X86105904Y-86915047D01*
X86724952Y-86915047D01*
X74866666Y-92534761D02*
X75009523Y-92582380D01*
X75247619Y-92582380D01*
X75342857Y-92534761D01*
X75390476Y-92487142D01*
X75438095Y-92391904D01*
X75438095Y-92296666D01*
X75390476Y-92201428D01*
X75342857Y-92153809D01*
X75247619Y-92106190D01*
X75057142Y-92058571D01*
X74961904Y-92010952D01*
X74914285Y-91963333D01*
X74866666Y-91868095D01*
X74866666Y-91772857D01*
X74914285Y-91677619D01*
X74961904Y-91630000D01*
X75057142Y-91582380D01*
X75295238Y-91582380D01*
X75438095Y-91630000D01*
X75771428Y-91582380D02*
X76009523Y-92582380D01*
X76200000Y-91868095D01*
X76390476Y-92582380D01*
X76628571Y-91582380D01*
X76914285Y-91582380D02*
X77533333Y-91582380D01*
X77200000Y-91963333D01*
X77342857Y-91963333D01*
X77438095Y-92010952D01*
X77485714Y-92058571D01*
X77533333Y-92153809D01*
X77533333Y-92391904D01*
X77485714Y-92487142D01*
X77438095Y-92534761D01*
X77342857Y-92582380D01*
X77057142Y-92582380D01*
X76961904Y-92534761D01*
X76914285Y-92487142D01*
X61157142Y-57799166D02*
X61204761Y-57846785D01*
X61252380Y-57989642D01*
X61252380Y-58084880D01*
X61204761Y-58227738D01*
X61109523Y-58322976D01*
X61014285Y-58370595D01*
X60823809Y-58418214D01*
X60680952Y-58418214D01*
X60490476Y-58370595D01*
X60395238Y-58322976D01*
X60300000Y-58227738D01*
X60252380Y-58084880D01*
X60252380Y-57989642D01*
X60300000Y-57846785D01*
X60347619Y-57799166D01*
X61252380Y-56846785D02*
X61252380Y-57418214D01*
X61252380Y-57132500D02*
X60252380Y-57132500D01*
X60395238Y-57227738D01*
X60490476Y-57322976D01*
X60538095Y-57418214D01*
X63697142Y-57799166D02*
X63744761Y-57846785D01*
X63792380Y-57989642D01*
X63792380Y-58084880D01*
X63744761Y-58227738D01*
X63649523Y-58322976D01*
X63554285Y-58370595D01*
X63363809Y-58418214D01*
X63220952Y-58418214D01*
X63030476Y-58370595D01*
X62935238Y-58322976D01*
X62840000Y-58227738D01*
X62792380Y-58084880D01*
X62792380Y-57989642D01*
X62840000Y-57846785D01*
X62887619Y-57799166D01*
X62887619Y-57418214D02*
X62840000Y-57370595D01*
X62792380Y-57275357D01*
X62792380Y-57037261D01*
X62840000Y-56942023D01*
X62887619Y-56894404D01*
X62982857Y-56846785D01*
X63078095Y-56846785D01*
X63220952Y-56894404D01*
X63792380Y-57465833D01*
X63792380Y-56846785D01*
X71637142Y-57316666D02*
X71684761Y-57364285D01*
X71732380Y-57507142D01*
X71732380Y-57602380D01*
X71684761Y-57745238D01*
X71589523Y-57840476D01*
X71494285Y-57888095D01*
X71303809Y-57935714D01*
X71160952Y-57935714D01*
X70970476Y-57888095D01*
X70875238Y-57840476D01*
X70780000Y-57745238D01*
X70732380Y-57602380D01*
X70732380Y-57507142D01*
X70780000Y-57364285D01*
X70827619Y-57316666D01*
X70732380Y-56983333D02*
X70732380Y-56364285D01*
X71113333Y-56697619D01*
X71113333Y-56554761D01*
X71160952Y-56459523D01*
X71208571Y-56411904D01*
X71303809Y-56364285D01*
X71541904Y-56364285D01*
X71637142Y-56411904D01*
X71684761Y-56459523D01*
X71732380Y-56554761D01*
X71732380Y-56840476D01*
X71684761Y-56935714D01*
X71637142Y-56983333D01*
X65365333Y-64873142D02*
X65317714Y-64920761D01*
X65174857Y-64968380D01*
X65079619Y-64968380D01*
X64936761Y-64920761D01*
X64841523Y-64825523D01*
X64793904Y-64730285D01*
X64746285Y-64539809D01*
X64746285Y-64396952D01*
X64793904Y-64206476D01*
X64841523Y-64111238D01*
X64936761Y-64016000D01*
X65079619Y-63968380D01*
X65174857Y-63968380D01*
X65317714Y-64016000D01*
X65365333Y-64063619D01*
X66222476Y-64301714D02*
X66222476Y-64968380D01*
X65984380Y-63920761D02*
X65746285Y-64635047D01*
X66365333Y-64635047D01*
X70953333Y-64873142D02*
X70905714Y-64920761D01*
X70762857Y-64968380D01*
X70667619Y-64968380D01*
X70524761Y-64920761D01*
X70429523Y-64825523D01*
X70381904Y-64730285D01*
X70334285Y-64539809D01*
X70334285Y-64396952D01*
X70381904Y-64206476D01*
X70429523Y-64111238D01*
X70524761Y-64016000D01*
X70667619Y-63968380D01*
X70762857Y-63968380D01*
X70905714Y-64016000D01*
X70953333Y-64063619D01*
X71858095Y-63968380D02*
X71381904Y-63968380D01*
X71334285Y-64444571D01*
X71381904Y-64396952D01*
X71477142Y-64349333D01*
X71715238Y-64349333D01*
X71810476Y-64396952D01*
X71858095Y-64444571D01*
X71905714Y-64539809D01*
X71905714Y-64777904D01*
X71858095Y-64873142D01*
X71810476Y-64920761D01*
X71715238Y-64968380D01*
X71477142Y-64968380D01*
X71381904Y-64920761D01*
X71334285Y-64873142D01*
X89241333Y-65381142D02*
X89193714Y-65428761D01*
X89050857Y-65476380D01*
X88955619Y-65476380D01*
X88812761Y-65428761D01*
X88717523Y-65333523D01*
X88669904Y-65238285D01*
X88622285Y-65047809D01*
X88622285Y-64904952D01*
X88669904Y-64714476D01*
X88717523Y-64619238D01*
X88812761Y-64524000D01*
X88955619Y-64476380D01*
X89050857Y-64476380D01*
X89193714Y-64524000D01*
X89241333Y-64571619D01*
X90098476Y-64476380D02*
X89908000Y-64476380D01*
X89812761Y-64524000D01*
X89765142Y-64571619D01*
X89669904Y-64714476D01*
X89622285Y-64904952D01*
X89622285Y-65285904D01*
X89669904Y-65381142D01*
X89717523Y-65428761D01*
X89812761Y-65476380D01*
X90003238Y-65476380D01*
X90098476Y-65428761D01*
X90146095Y-65381142D01*
X90193714Y-65285904D01*
X90193714Y-65047809D01*
X90146095Y-64952571D01*
X90098476Y-64904952D01*
X90003238Y-64857333D01*
X89812761Y-64857333D01*
X89717523Y-64904952D01*
X89669904Y-64952571D01*
X89622285Y-65047809D01*
X70492380Y-80983333D02*
X71206666Y-80983333D01*
X71349523Y-81030952D01*
X71444761Y-81126190D01*
X71492380Y-81269047D01*
X71492380Y-81364285D01*
X70587619Y-80554761D02*
X70540000Y-80507142D01*
X70492380Y-80411904D01*
X70492380Y-80173809D01*
X70540000Y-80078571D01*
X70587619Y-80030952D01*
X70682857Y-79983333D01*
X70778095Y-79983333D01*
X70920952Y-80030952D01*
X71492380Y-80602380D01*
X71492380Y-79983333D01*
X80208380Y-66778095D02*
X79208380Y-66778095D01*
X79208380Y-66540000D01*
X79256000Y-66397142D01*
X79351238Y-66301904D01*
X79446476Y-66254285D01*
X79636952Y-66206666D01*
X79779809Y-66206666D01*
X79970285Y-66254285D01*
X80065523Y-66301904D01*
X80160761Y-66397142D01*
X80208380Y-66540000D01*
X80208380Y-66778095D01*
X80208380Y-65254285D02*
X80208380Y-65825714D01*
X80208380Y-65540000D02*
X79208380Y-65540000D01*
X79351238Y-65635238D01*
X79446476Y-65730476D01*
X79494095Y-65825714D01*
X84272380Y-64238095D02*
X83272380Y-64238095D01*
X83272380Y-64000000D01*
X83320000Y-63857142D01*
X83415238Y-63761904D01*
X83510476Y-63714285D01*
X83700952Y-63666666D01*
X83843809Y-63666666D01*
X84034285Y-63714285D01*
X84129523Y-63761904D01*
X84224761Y-63857142D01*
X84272380Y-64000000D01*
X84272380Y-64238095D01*
X83367619Y-63285714D02*
X83320000Y-63238095D01*
X83272380Y-63142857D01*
X83272380Y-62904761D01*
X83320000Y-62809523D01*
X83367619Y-62761904D01*
X83462857Y-62714285D01*
X83558095Y-62714285D01*
X83700952Y-62761904D01*
X84272380Y-63333333D01*
X84272380Y-62714285D01*
X83782380Y-62229904D02*
X84591904Y-62229904D01*
X84687142Y-62182285D01*
X84734761Y-62134666D01*
X84782380Y-62039428D01*
X84782380Y-61848952D01*
X84734761Y-61753714D01*
X84687142Y-61706095D01*
X84591904Y-61658476D01*
X83782380Y-61658476D01*
X84782380Y-60658476D02*
X84782380Y-61229904D01*
X84782380Y-60944190D02*
X83782380Y-60944190D01*
X83925238Y-61039428D01*
X84020476Y-61134666D01*
X84068095Y-61229904D01*
X68187380Y-57911904D02*
X68996904Y-57911904D01*
X69092142Y-57864285D01*
X69139761Y-57816666D01*
X69187380Y-57721428D01*
X69187380Y-57530952D01*
X69139761Y-57435714D01*
X69092142Y-57388095D01*
X68996904Y-57340476D01*
X68187380Y-57340476D01*
X68282619Y-56911904D02*
X68235000Y-56864285D01*
X68187380Y-56769047D01*
X68187380Y-56530952D01*
X68235000Y-56435714D01*
X68282619Y-56388095D01*
X68377857Y-56340476D01*
X68473095Y-56340476D01*
X68615952Y-56388095D01*
X69187380Y-56959523D01*
X69187380Y-56340476D01*
X71882095Y-76668380D02*
X71882095Y-77477904D01*
X71929714Y-77573142D01*
X71977333Y-77620761D01*
X72072571Y-77668380D01*
X72263047Y-77668380D01*
X72358285Y-77620761D01*
X72405904Y-77573142D01*
X72453523Y-77477904D01*
X72453523Y-76668380D01*
X72834476Y-76668380D02*
X73453523Y-76668380D01*
X73120190Y-77049333D01*
X73263047Y-77049333D01*
X73358285Y-77096952D01*
X73405904Y-77144571D01*
X73453523Y-77239809D01*
X73453523Y-77477904D01*
X73405904Y-77573142D01*
X73358285Y-77620761D01*
X73263047Y-77668380D01*
X72977333Y-77668380D01*
X72882095Y-77620761D01*
X72834476Y-77573142D01*
X83653333Y-72588380D02*
X83320000Y-72112190D01*
X83081904Y-72588380D02*
X83081904Y-71588380D01*
X83462857Y-71588380D01*
X83558095Y-71636000D01*
X83605714Y-71683619D01*
X83653333Y-71778857D01*
X83653333Y-71921714D01*
X83605714Y-72016952D01*
X83558095Y-72064571D01*
X83462857Y-72112190D01*
X83081904Y-72112190D01*
X84510476Y-71921714D02*
X84510476Y-72588380D01*
X84272380Y-71540761D02*
X84034285Y-72255047D01*
X84653333Y-72255047D01*
X92400380Y-55538666D02*
X91924190Y-55872000D01*
X92400380Y-56110095D02*
X91400380Y-56110095D01*
X91400380Y-55729142D01*
X91448000Y-55633904D01*
X91495619Y-55586285D01*
X91590857Y-55538666D01*
X91733714Y-55538666D01*
X91828952Y-55586285D01*
X91876571Y-55633904D01*
X91924190Y-55729142D01*
X91924190Y-56110095D01*
X92400380Y-54586285D02*
X92400380Y-55157714D01*
X92400380Y-54872000D02*
X91400380Y-54872000D01*
X91543238Y-54967238D01*
X91638476Y-55062476D01*
X91686095Y-55157714D01*
X63333333Y-53632380D02*
X63000000Y-53156190D01*
X62761904Y-53632380D02*
X62761904Y-52632380D01*
X63142857Y-52632380D01*
X63238095Y-52680000D01*
X63285714Y-52727619D01*
X63333333Y-52822857D01*
X63333333Y-52965714D01*
X63285714Y-53060952D01*
X63238095Y-53108571D01*
X63142857Y-53156190D01*
X62761904Y-53156190D01*
X63714285Y-52727619D02*
X63761904Y-52680000D01*
X63857142Y-52632380D01*
X64095238Y-52632380D01*
X64190476Y-52680000D01*
X64238095Y-52727619D01*
X64285714Y-52822857D01*
X64285714Y-52918095D01*
X64238095Y-53060952D01*
X63666666Y-53632380D01*
X64285714Y-53632380D01*
X79589333Y-69032380D02*
X79256000Y-68556190D01*
X79017904Y-69032380D02*
X79017904Y-68032380D01*
X79398857Y-68032380D01*
X79494095Y-68080000D01*
X79541714Y-68127619D01*
X79589333Y-68222857D01*
X79589333Y-68365714D01*
X79541714Y-68460952D01*
X79494095Y-68508571D01*
X79398857Y-68556190D01*
X79017904Y-68556190D01*
X79922666Y-68032380D02*
X80541714Y-68032380D01*
X80208380Y-68413333D01*
X80351238Y-68413333D01*
X80446476Y-68460952D01*
X80494095Y-68508571D01*
X80541714Y-68603809D01*
X80541714Y-68841904D01*
X80494095Y-68937142D01*
X80446476Y-68984761D01*
X80351238Y-69032380D01*
X80065523Y-69032380D01*
X79970285Y-68984761D01*
X79922666Y-68937142D01*
M02*
