G04 #@! TF.GenerationSoftware,KiCad,Pcbnew,5.1.2-f72e74a~84~ubuntu18.04.1*
G04 #@! TF.CreationDate,2019-05-19T10:24:28+02:00*
G04 #@! TF.ProjectId,lowpower,6c6f7770-6f77-4657-922e-6b696361645f,rev?*
G04 #@! TF.SameCoordinates,Original*
G04 #@! TF.FileFunction,Soldermask,Top*
G04 #@! TF.FilePolarity,Negative*
%FSLAX46Y46*%
G04 Gerber Fmt 4.6, Leading zero omitted, Abs format (unit mm)*
G04 Created by KiCad (PCBNEW 5.1.2-f72e74a~84~ubuntu18.04.1) date 2019-05-19 10:24:28*
%MOMM*%
%LPD*%
G04 APERTURE LIST*
%ADD10C,0.100000*%
G04 APERTURE END LIST*
D10*
G36*
X88316441Y-88379599D02*
G01*
X88481579Y-88412447D01*
X88782042Y-88536903D01*
X89052451Y-88717585D01*
X89282415Y-88947549D01*
X89429114Y-89167099D01*
X89463098Y-89217960D01*
X89587553Y-89518422D01*
X89650539Y-89835069D01*
X89651000Y-89837391D01*
X89651000Y-90162609D01*
X89587553Y-90481579D01*
X89463097Y-90782042D01*
X89282415Y-91052451D01*
X89052451Y-91282415D01*
X88782042Y-91463097D01*
X88481579Y-91587553D01*
X88375256Y-91608702D01*
X88162611Y-91651000D01*
X87837389Y-91651000D01*
X87624744Y-91608702D01*
X87518421Y-91587553D01*
X87217958Y-91463097D01*
X86947549Y-91282415D01*
X86717585Y-91052451D01*
X86536903Y-90782042D01*
X86412447Y-90481579D01*
X86349000Y-90162609D01*
X86349000Y-89837391D01*
X86349462Y-89835069D01*
X86412447Y-89518422D01*
X86536902Y-89217960D01*
X86570886Y-89167099D01*
X86717585Y-88947549D01*
X86947549Y-88717585D01*
X87217958Y-88536903D01*
X87518421Y-88412447D01*
X87683559Y-88379599D01*
X87837389Y-88349000D01*
X88162611Y-88349000D01*
X88316441Y-88379599D01*
X88316441Y-88379599D01*
G37*
G36*
X65316441Y-88379599D02*
G01*
X65481579Y-88412447D01*
X65782042Y-88536903D01*
X66052451Y-88717585D01*
X66282415Y-88947549D01*
X66429114Y-89167099D01*
X66463098Y-89217960D01*
X66587553Y-89518422D01*
X66650539Y-89835069D01*
X66651000Y-89837391D01*
X66651000Y-90162609D01*
X66587553Y-90481579D01*
X66463097Y-90782042D01*
X66282415Y-91052451D01*
X66052451Y-91282415D01*
X65782042Y-91463097D01*
X65481579Y-91587553D01*
X65375256Y-91608702D01*
X65162611Y-91651000D01*
X64837389Y-91651000D01*
X64624744Y-91608702D01*
X64518421Y-91587553D01*
X64217958Y-91463097D01*
X63947549Y-91282415D01*
X63717585Y-91052451D01*
X63536903Y-90782042D01*
X63412447Y-90481579D01*
X63349000Y-90162609D01*
X63349000Y-89837391D01*
X63349462Y-89835069D01*
X63412447Y-89518422D01*
X63536902Y-89217960D01*
X63570886Y-89167099D01*
X63717585Y-88947549D01*
X63947549Y-88717585D01*
X64217958Y-88536903D01*
X64518421Y-88412447D01*
X64683559Y-88379599D01*
X64837389Y-88349000D01*
X65162611Y-88349000D01*
X65316441Y-88379599D01*
X65316441Y-88379599D01*
G37*
G36*
X81001000Y-90581000D02*
G01*
X79349000Y-90581000D01*
X79349000Y-89179000D01*
X81001000Y-89179000D01*
X81001000Y-90581000D01*
X81001000Y-90581000D01*
G37*
G36*
X73051000Y-90581000D02*
G01*
X71399000Y-90581000D01*
X71399000Y-89179000D01*
X73051000Y-89179000D01*
X73051000Y-90581000D01*
X73051000Y-90581000D01*
G37*
G36*
X70483591Y-88974585D02*
G01*
X70517569Y-88984893D01*
X70548890Y-89001634D01*
X70576339Y-89024161D01*
X70598866Y-89051610D01*
X70615607Y-89082931D01*
X70625915Y-89116909D01*
X70630000Y-89158390D01*
X70630000Y-89759610D01*
X70625915Y-89801091D01*
X70615607Y-89835069D01*
X70598866Y-89866390D01*
X70576339Y-89893839D01*
X70548890Y-89916366D01*
X70517569Y-89933107D01*
X70483591Y-89943415D01*
X70442110Y-89947500D01*
X69765890Y-89947500D01*
X69724409Y-89943415D01*
X69690431Y-89933107D01*
X69659110Y-89916366D01*
X69631661Y-89893839D01*
X69609134Y-89866390D01*
X69592393Y-89835069D01*
X69582085Y-89801091D01*
X69578000Y-89759610D01*
X69578000Y-89158390D01*
X69582085Y-89116909D01*
X69592393Y-89082931D01*
X69609134Y-89051610D01*
X69631661Y-89024161D01*
X69659110Y-89001634D01*
X69690431Y-88984893D01*
X69724409Y-88974585D01*
X69765890Y-88970500D01*
X70442110Y-88970500D01*
X70483591Y-88974585D01*
X70483591Y-88974585D01*
G37*
G36*
X83183591Y-88187085D02*
G01*
X83217569Y-88197393D01*
X83248890Y-88214134D01*
X83276339Y-88236661D01*
X83298866Y-88264110D01*
X83315607Y-88295431D01*
X83325915Y-88329409D01*
X83330000Y-88370890D01*
X83330000Y-88972110D01*
X83325915Y-89013591D01*
X83315607Y-89047569D01*
X83298866Y-89078890D01*
X83276339Y-89106339D01*
X83248890Y-89128866D01*
X83217569Y-89145607D01*
X83183591Y-89155915D01*
X83142110Y-89160000D01*
X82465890Y-89160000D01*
X82424409Y-89155915D01*
X82390431Y-89145607D01*
X82359110Y-89128866D01*
X82331661Y-89106339D01*
X82309134Y-89078890D01*
X82292393Y-89047569D01*
X82282085Y-89013591D01*
X82278000Y-88972110D01*
X82278000Y-88370890D01*
X82282085Y-88329409D01*
X82292393Y-88295431D01*
X82309134Y-88264110D01*
X82331661Y-88236661D01*
X82359110Y-88214134D01*
X82390431Y-88197393D01*
X82424409Y-88187085D01*
X82465890Y-88183000D01*
X83142110Y-88183000D01*
X83183591Y-88187085D01*
X83183591Y-88187085D01*
G37*
G36*
X70483591Y-87399585D02*
G01*
X70517569Y-87409893D01*
X70548890Y-87426634D01*
X70576339Y-87449161D01*
X70598866Y-87476610D01*
X70615607Y-87507931D01*
X70625915Y-87541909D01*
X70630000Y-87583390D01*
X70630000Y-88184610D01*
X70625915Y-88226091D01*
X70615607Y-88260069D01*
X70598866Y-88291390D01*
X70576339Y-88318839D01*
X70548890Y-88341366D01*
X70517569Y-88358107D01*
X70483591Y-88368415D01*
X70442110Y-88372500D01*
X69765890Y-88372500D01*
X69724409Y-88368415D01*
X69690431Y-88358107D01*
X69659110Y-88341366D01*
X69631661Y-88318839D01*
X69609134Y-88291390D01*
X69592393Y-88260069D01*
X69582085Y-88226091D01*
X69578000Y-88184610D01*
X69578000Y-87583390D01*
X69582085Y-87541909D01*
X69592393Y-87507931D01*
X69609134Y-87476610D01*
X69631661Y-87449161D01*
X69659110Y-87426634D01*
X69690431Y-87409893D01*
X69724409Y-87399585D01*
X69765890Y-87395500D01*
X70442110Y-87395500D01*
X70483591Y-87399585D01*
X70483591Y-87399585D01*
G37*
G36*
X83183591Y-86612085D02*
G01*
X83217569Y-86622393D01*
X83248890Y-86639134D01*
X83276339Y-86661661D01*
X83298866Y-86689110D01*
X83315607Y-86720431D01*
X83325915Y-86754409D01*
X83330000Y-86795890D01*
X83330000Y-87397110D01*
X83325915Y-87438591D01*
X83315607Y-87472569D01*
X83298866Y-87503890D01*
X83276339Y-87531339D01*
X83248890Y-87553866D01*
X83217569Y-87570607D01*
X83183591Y-87580915D01*
X83142110Y-87585000D01*
X82465890Y-87585000D01*
X82424409Y-87580915D01*
X82390431Y-87570607D01*
X82359110Y-87553866D01*
X82331661Y-87531339D01*
X82309134Y-87503890D01*
X82292393Y-87472569D01*
X82282085Y-87438591D01*
X82278000Y-87397110D01*
X82278000Y-86795890D01*
X82282085Y-86754409D01*
X82292393Y-86720431D01*
X82309134Y-86689110D01*
X82331661Y-86661661D01*
X82359110Y-86639134D01*
X82390431Y-86622393D01*
X82424409Y-86612085D01*
X82465890Y-86608000D01*
X83142110Y-86608000D01*
X83183591Y-86612085D01*
X83183591Y-86612085D01*
G37*
G36*
X64091000Y-86151000D02*
G01*
X62289000Y-86151000D01*
X62289000Y-84049000D01*
X64091000Y-84049000D01*
X64091000Y-86151000D01*
X64091000Y-86151000D01*
G37*
G36*
X69541000Y-86151000D02*
G01*
X67739000Y-86151000D01*
X67739000Y-84049000D01*
X69541000Y-84049000D01*
X69541000Y-86151000D01*
X69541000Y-86151000D01*
G37*
G36*
X73051000Y-86081000D02*
G01*
X71399000Y-86081000D01*
X71399000Y-84679000D01*
X73051000Y-84679000D01*
X73051000Y-86081000D01*
X73051000Y-86081000D01*
G37*
G36*
X81001000Y-86081000D02*
G01*
X79349000Y-86081000D01*
X79349000Y-84679000D01*
X81001000Y-84679000D01*
X81001000Y-86081000D01*
X81001000Y-86081000D01*
G37*
G36*
X83846000Y-85247000D02*
G01*
X82194000Y-85247000D01*
X82194000Y-83845000D01*
X83846000Y-83845000D01*
X83846000Y-85247000D01*
X83846000Y-85247000D01*
G37*
G36*
X91796000Y-85247000D02*
G01*
X90144000Y-85247000D01*
X90144000Y-83845000D01*
X91796000Y-83845000D01*
X91796000Y-85247000D01*
X91796000Y-85247000D01*
G37*
G36*
X66200721Y-82320174D02*
G01*
X66300995Y-82361709D01*
X66300996Y-82361710D01*
X66391242Y-82422010D01*
X66467990Y-82498758D01*
X66467991Y-82498760D01*
X66528291Y-82589005D01*
X66569826Y-82689279D01*
X66591000Y-82795730D01*
X66591000Y-82904270D01*
X66569826Y-83010721D01*
X66528291Y-83110995D01*
X66498345Y-83155812D01*
X66467990Y-83201242D01*
X66391242Y-83277990D01*
X66345812Y-83308345D01*
X66300995Y-83338291D01*
X66200721Y-83379826D01*
X66094270Y-83401000D01*
X65985730Y-83401000D01*
X65879279Y-83379826D01*
X65779005Y-83338291D01*
X65734188Y-83308345D01*
X65688758Y-83277990D01*
X65612010Y-83201242D01*
X65581655Y-83155812D01*
X65551709Y-83110995D01*
X65510174Y-83010721D01*
X65489000Y-82904270D01*
X65489000Y-82795730D01*
X65510174Y-82689279D01*
X65551709Y-82589005D01*
X65612009Y-82498760D01*
X65612010Y-82498758D01*
X65688758Y-82422010D01*
X65779004Y-82361710D01*
X65779005Y-82361709D01*
X65879279Y-82320174D01*
X65985730Y-82299000D01*
X66094270Y-82299000D01*
X66200721Y-82320174D01*
X66200721Y-82320174D01*
G37*
G36*
X80401000Y-83111000D02*
G01*
X78299000Y-83111000D01*
X78299000Y-81509000D01*
X80401000Y-81509000D01*
X80401000Y-83111000D01*
X80401000Y-83111000D01*
G37*
G36*
X69791000Y-82551000D02*
G01*
X67689000Y-82551000D01*
X67689000Y-78749000D01*
X69791000Y-78749000D01*
X69791000Y-82551000D01*
X69791000Y-82551000D01*
G37*
G36*
X74101000Y-81961000D02*
G01*
X71999000Y-81961000D01*
X71999000Y-78059000D01*
X74101000Y-78059000D01*
X74101000Y-81961000D01*
X74101000Y-81961000D01*
G37*
G36*
X80401000Y-80811000D02*
G01*
X78299000Y-80811000D01*
X78299000Y-79209000D01*
X80401000Y-79209000D01*
X80401000Y-80811000D01*
X80401000Y-80811000D01*
G37*
G36*
X91796000Y-80747000D02*
G01*
X90144000Y-80747000D01*
X90144000Y-79345000D01*
X91796000Y-79345000D01*
X91796000Y-80747000D01*
X91796000Y-80747000D01*
G37*
G36*
X83846000Y-80747000D02*
G01*
X82194000Y-80747000D01*
X82194000Y-79345000D01*
X83846000Y-79345000D01*
X83846000Y-80747000D01*
X83846000Y-80747000D01*
G37*
G36*
X66200721Y-77920174D02*
G01*
X66300995Y-77961709D01*
X66300996Y-77961710D01*
X66391242Y-78022010D01*
X66467990Y-78098758D01*
X66467991Y-78098760D01*
X66528291Y-78189005D01*
X66569826Y-78289279D01*
X66591000Y-78395730D01*
X66591000Y-78504270D01*
X66569826Y-78610721D01*
X66528291Y-78710995D01*
X66528290Y-78710996D01*
X66467990Y-78801242D01*
X66391242Y-78877990D01*
X66345812Y-78908345D01*
X66300995Y-78938291D01*
X66200721Y-78979826D01*
X66094270Y-79001000D01*
X65985730Y-79001000D01*
X65879279Y-78979826D01*
X65779005Y-78938291D01*
X65734188Y-78908345D01*
X65688758Y-78877990D01*
X65612010Y-78801242D01*
X65551710Y-78710996D01*
X65551709Y-78710995D01*
X65510174Y-78610721D01*
X65489000Y-78504270D01*
X65489000Y-78395730D01*
X65510174Y-78289279D01*
X65551709Y-78189005D01*
X65612009Y-78098760D01*
X65612010Y-78098758D01*
X65688758Y-78022010D01*
X65779004Y-77961710D01*
X65779005Y-77961709D01*
X65879279Y-77920174D01*
X65985730Y-77899000D01*
X66094270Y-77899000D01*
X66200721Y-77920174D01*
X66200721Y-77920174D01*
G37*
G36*
X80401000Y-78511000D02*
G01*
X78299000Y-78511000D01*
X78299000Y-76909000D01*
X80401000Y-76909000D01*
X80401000Y-78511000D01*
X80401000Y-78511000D01*
G37*
G36*
X91167242Y-75437404D02*
G01*
X91204337Y-75448657D01*
X91238515Y-75466925D01*
X91268481Y-75491519D01*
X91293075Y-75521485D01*
X91311343Y-75555663D01*
X91322596Y-75592758D01*
X91327000Y-75637474D01*
X91327000Y-77130526D01*
X91322596Y-77175242D01*
X91311343Y-77212337D01*
X91293075Y-77246515D01*
X91268481Y-77276481D01*
X91238515Y-77301075D01*
X91204337Y-77319343D01*
X91167242Y-77330596D01*
X91122526Y-77335000D01*
X90229474Y-77335000D01*
X90184758Y-77330596D01*
X90147663Y-77319343D01*
X90113485Y-77301075D01*
X90083519Y-77276481D01*
X90058925Y-77246515D01*
X90040657Y-77212337D01*
X90029404Y-77175242D01*
X90025000Y-77130526D01*
X90025000Y-75637474D01*
X90029404Y-75592758D01*
X90040657Y-75555663D01*
X90058925Y-75521485D01*
X90083519Y-75491519D01*
X90113485Y-75466925D01*
X90147663Y-75448657D01*
X90184758Y-75437404D01*
X90229474Y-75433000D01*
X91122526Y-75433000D01*
X91167242Y-75437404D01*
X91167242Y-75437404D01*
G37*
G36*
X84567242Y-75437404D02*
G01*
X84604337Y-75448657D01*
X84638515Y-75466925D01*
X84668481Y-75491519D01*
X84693075Y-75521485D01*
X84711343Y-75555663D01*
X84722596Y-75592758D01*
X84727000Y-75637474D01*
X84727000Y-77130526D01*
X84722596Y-77175242D01*
X84711343Y-77212337D01*
X84693075Y-77246515D01*
X84668481Y-77276481D01*
X84638515Y-77301075D01*
X84604337Y-77319343D01*
X84567242Y-77330596D01*
X84522526Y-77335000D01*
X83629474Y-77335000D01*
X83584758Y-77330596D01*
X83547663Y-77319343D01*
X83513485Y-77301075D01*
X83483519Y-77276481D01*
X83458925Y-77246515D01*
X83440657Y-77212337D01*
X83429404Y-77175242D01*
X83425000Y-77130526D01*
X83425000Y-75637474D01*
X83429404Y-75592758D01*
X83440657Y-75555663D01*
X83458925Y-75521485D01*
X83483519Y-75491519D01*
X83513485Y-75466925D01*
X83547663Y-75448657D01*
X83584758Y-75437404D01*
X83629474Y-75433000D01*
X84522526Y-75433000D01*
X84567242Y-75437404D01*
X84567242Y-75437404D01*
G37*
G36*
X69541000Y-77251000D02*
G01*
X67739000Y-77251000D01*
X67739000Y-75149000D01*
X69541000Y-75149000D01*
X69541000Y-77251000D01*
X69541000Y-77251000D01*
G37*
G36*
X64091000Y-77251000D02*
G01*
X62289000Y-77251000D01*
X62289000Y-75149000D01*
X64091000Y-75149000D01*
X64091000Y-77251000D01*
X64091000Y-77251000D01*
G37*
G36*
X72769591Y-74699585D02*
G01*
X72803569Y-74709893D01*
X72834890Y-74726634D01*
X72862339Y-74749161D01*
X72884866Y-74776610D01*
X72901607Y-74807931D01*
X72911915Y-74841909D01*
X72916000Y-74883390D01*
X72916000Y-75484610D01*
X72911915Y-75526091D01*
X72901607Y-75560069D01*
X72884866Y-75591390D01*
X72862339Y-75618839D01*
X72834890Y-75641366D01*
X72803569Y-75658107D01*
X72769591Y-75668415D01*
X72728110Y-75672500D01*
X72051890Y-75672500D01*
X72010409Y-75668415D01*
X71976431Y-75658107D01*
X71945110Y-75641366D01*
X71917661Y-75618839D01*
X71895134Y-75591390D01*
X71878393Y-75560069D01*
X71868085Y-75526091D01*
X71864000Y-75484610D01*
X71864000Y-74883390D01*
X71868085Y-74841909D01*
X71878393Y-74807931D01*
X71895134Y-74776610D01*
X71917661Y-74749161D01*
X71945110Y-74726634D01*
X71976431Y-74709893D01*
X72010409Y-74699585D01*
X72051890Y-74695500D01*
X72728110Y-74695500D01*
X72769591Y-74699585D01*
X72769591Y-74699585D01*
G37*
G36*
X79461242Y-74043404D02*
G01*
X79498337Y-74054657D01*
X79532515Y-74072925D01*
X79562481Y-74097519D01*
X79587075Y-74127485D01*
X79605343Y-74161663D01*
X79616596Y-74198758D01*
X79621000Y-74243474D01*
X79621000Y-75136526D01*
X79616596Y-75181242D01*
X79605343Y-75218337D01*
X79587075Y-75252515D01*
X79562481Y-75282481D01*
X79532515Y-75307075D01*
X79498337Y-75325343D01*
X79461242Y-75336596D01*
X79416526Y-75341000D01*
X77923474Y-75341000D01*
X77878758Y-75336596D01*
X77841663Y-75325343D01*
X77807485Y-75307075D01*
X77777519Y-75282481D01*
X77752925Y-75252515D01*
X77734657Y-75218337D01*
X77723404Y-75181242D01*
X77719000Y-75136526D01*
X77719000Y-74243474D01*
X77723404Y-74198758D01*
X77734657Y-74161663D01*
X77752925Y-74127485D01*
X77777519Y-74097519D01*
X77807485Y-74072925D01*
X77841663Y-74054657D01*
X77878758Y-74043404D01*
X77923474Y-74039000D01*
X79416526Y-74039000D01*
X79461242Y-74043404D01*
X79461242Y-74043404D01*
G37*
G36*
X82167591Y-74191585D02*
G01*
X82201569Y-74201893D01*
X82232890Y-74218634D01*
X82260339Y-74241161D01*
X82282866Y-74268610D01*
X82299607Y-74299931D01*
X82309915Y-74333909D01*
X82314000Y-74375390D01*
X82314000Y-74976610D01*
X82309915Y-75018091D01*
X82299607Y-75052069D01*
X82282866Y-75083390D01*
X82260339Y-75110839D01*
X82232890Y-75133366D01*
X82201569Y-75150107D01*
X82167591Y-75160415D01*
X82126110Y-75164500D01*
X81449890Y-75164500D01*
X81408409Y-75160415D01*
X81374431Y-75150107D01*
X81343110Y-75133366D01*
X81315661Y-75110839D01*
X81293134Y-75083390D01*
X81276393Y-75052069D01*
X81266085Y-75018091D01*
X81262000Y-74976610D01*
X81262000Y-74375390D01*
X81266085Y-74333909D01*
X81276393Y-74299931D01*
X81293134Y-74268610D01*
X81315661Y-74241161D01*
X81343110Y-74218634D01*
X81374431Y-74201893D01*
X81408409Y-74191585D01*
X81449890Y-74187500D01*
X82126110Y-74187500D01*
X82167591Y-74191585D01*
X82167591Y-74191585D01*
G37*
G36*
X85635928Y-73035764D02*
G01*
X85657009Y-73042160D01*
X85676445Y-73052548D01*
X85693476Y-73066524D01*
X85707452Y-73083555D01*
X85717840Y-73102991D01*
X85724236Y-73124072D01*
X85727000Y-73152140D01*
X85727000Y-74565860D01*
X85724236Y-74593928D01*
X85717840Y-74615009D01*
X85707452Y-74634445D01*
X85693476Y-74651476D01*
X85676445Y-74665452D01*
X85657009Y-74675840D01*
X85635928Y-74682236D01*
X85607860Y-74685000D01*
X85144140Y-74685000D01*
X85116072Y-74682236D01*
X85094991Y-74675840D01*
X85075555Y-74665452D01*
X85058524Y-74651476D01*
X85044548Y-74634445D01*
X85034160Y-74615009D01*
X85027764Y-74593928D01*
X85025000Y-74565860D01*
X85025000Y-73152140D01*
X85027764Y-73124072D01*
X85034160Y-73102991D01*
X85044548Y-73083555D01*
X85058524Y-73066524D01*
X85075555Y-73052548D01*
X85094991Y-73042160D01*
X85116072Y-73035764D01*
X85144140Y-73033000D01*
X85607860Y-73033000D01*
X85635928Y-73035764D01*
X85635928Y-73035764D01*
G37*
G36*
X86635928Y-73035764D02*
G01*
X86657009Y-73042160D01*
X86676445Y-73052548D01*
X86693476Y-73066524D01*
X86707452Y-73083555D01*
X86717840Y-73102991D01*
X86724236Y-73124072D01*
X86727000Y-73152140D01*
X86727000Y-74565860D01*
X86724236Y-74593928D01*
X86717840Y-74615009D01*
X86707452Y-74634445D01*
X86693476Y-74651476D01*
X86676445Y-74665452D01*
X86657009Y-74675840D01*
X86635928Y-74682236D01*
X86607860Y-74685000D01*
X86144140Y-74685000D01*
X86116072Y-74682236D01*
X86094991Y-74675840D01*
X86075555Y-74665452D01*
X86058524Y-74651476D01*
X86044548Y-74634445D01*
X86034160Y-74615009D01*
X86027764Y-74593928D01*
X86025000Y-74565860D01*
X86025000Y-73152140D01*
X86027764Y-73124072D01*
X86034160Y-73102991D01*
X86044548Y-73083555D01*
X86058524Y-73066524D01*
X86075555Y-73052548D01*
X86094991Y-73042160D01*
X86116072Y-73035764D01*
X86144140Y-73033000D01*
X86607860Y-73033000D01*
X86635928Y-73035764D01*
X86635928Y-73035764D01*
G37*
G36*
X87635928Y-73035764D02*
G01*
X87657009Y-73042160D01*
X87676445Y-73052548D01*
X87693476Y-73066524D01*
X87707452Y-73083555D01*
X87717840Y-73102991D01*
X87724236Y-73124072D01*
X87727000Y-73152140D01*
X87727000Y-74565860D01*
X87724236Y-74593928D01*
X87717840Y-74615009D01*
X87707452Y-74634445D01*
X87693476Y-74651476D01*
X87676445Y-74665452D01*
X87657009Y-74675840D01*
X87635928Y-74682236D01*
X87607860Y-74685000D01*
X87144140Y-74685000D01*
X87116072Y-74682236D01*
X87094991Y-74675840D01*
X87075555Y-74665452D01*
X87058524Y-74651476D01*
X87044548Y-74634445D01*
X87034160Y-74615009D01*
X87027764Y-74593928D01*
X87025000Y-74565860D01*
X87025000Y-73152140D01*
X87027764Y-73124072D01*
X87034160Y-73102991D01*
X87044548Y-73083555D01*
X87058524Y-73066524D01*
X87075555Y-73052548D01*
X87094991Y-73042160D01*
X87116072Y-73035764D01*
X87144140Y-73033000D01*
X87607860Y-73033000D01*
X87635928Y-73035764D01*
X87635928Y-73035764D01*
G37*
G36*
X89635928Y-73035764D02*
G01*
X89657009Y-73042160D01*
X89676445Y-73052548D01*
X89693476Y-73066524D01*
X89707452Y-73083555D01*
X89717840Y-73102991D01*
X89724236Y-73124072D01*
X89727000Y-73152140D01*
X89727000Y-74565860D01*
X89724236Y-74593928D01*
X89717840Y-74615009D01*
X89707452Y-74634445D01*
X89693476Y-74651476D01*
X89676445Y-74665452D01*
X89657009Y-74675840D01*
X89635928Y-74682236D01*
X89607860Y-74685000D01*
X89144140Y-74685000D01*
X89116072Y-74682236D01*
X89094991Y-74675840D01*
X89075555Y-74665452D01*
X89058524Y-74651476D01*
X89044548Y-74634445D01*
X89034160Y-74615009D01*
X89027764Y-74593928D01*
X89025000Y-74565860D01*
X89025000Y-73152140D01*
X89027764Y-73124072D01*
X89034160Y-73102991D01*
X89044548Y-73083555D01*
X89058524Y-73066524D01*
X89075555Y-73052548D01*
X89094991Y-73042160D01*
X89116072Y-73035764D01*
X89144140Y-73033000D01*
X89607860Y-73033000D01*
X89635928Y-73035764D01*
X89635928Y-73035764D01*
G37*
G36*
X88635928Y-73035764D02*
G01*
X88657009Y-73042160D01*
X88676445Y-73052548D01*
X88693476Y-73066524D01*
X88707452Y-73083555D01*
X88717840Y-73102991D01*
X88724236Y-73124072D01*
X88727000Y-73152140D01*
X88727000Y-74565860D01*
X88724236Y-74593928D01*
X88717840Y-74615009D01*
X88707452Y-74634445D01*
X88693476Y-74651476D01*
X88676445Y-74665452D01*
X88657009Y-74675840D01*
X88635928Y-74682236D01*
X88607860Y-74685000D01*
X88144140Y-74685000D01*
X88116072Y-74682236D01*
X88094991Y-74675840D01*
X88075555Y-74665452D01*
X88058524Y-74651476D01*
X88044548Y-74634445D01*
X88034160Y-74615009D01*
X88027764Y-74593928D01*
X88025000Y-74565860D01*
X88025000Y-73152140D01*
X88027764Y-73124072D01*
X88034160Y-73102991D01*
X88044548Y-73083555D01*
X88058524Y-73066524D01*
X88075555Y-73052548D01*
X88094991Y-73042160D01*
X88116072Y-73035764D01*
X88144140Y-73033000D01*
X88607860Y-73033000D01*
X88635928Y-73035764D01*
X88635928Y-73035764D01*
G37*
G36*
X64191000Y-74155000D02*
G01*
X62889000Y-74155000D01*
X62889000Y-71553000D01*
X64191000Y-71553000D01*
X64191000Y-74155000D01*
X64191000Y-74155000D01*
G37*
G36*
X66691000Y-74155000D02*
G01*
X65389000Y-74155000D01*
X65389000Y-71553000D01*
X66691000Y-71553000D01*
X66691000Y-74155000D01*
X66691000Y-74155000D01*
G37*
G36*
X69191000Y-74155000D02*
G01*
X67889000Y-74155000D01*
X67889000Y-71553000D01*
X69191000Y-71553000D01*
X69191000Y-74155000D01*
X69191000Y-74155000D01*
G37*
G36*
X72769591Y-73124585D02*
G01*
X72803569Y-73134893D01*
X72834890Y-73151634D01*
X72862339Y-73174161D01*
X72884866Y-73201610D01*
X72901607Y-73232931D01*
X72911915Y-73266909D01*
X72916000Y-73308390D01*
X72916000Y-73909610D01*
X72911915Y-73951091D01*
X72901607Y-73985069D01*
X72884866Y-74016390D01*
X72862339Y-74043839D01*
X72834890Y-74066366D01*
X72803569Y-74083107D01*
X72769591Y-74093415D01*
X72728110Y-74097500D01*
X72051890Y-74097500D01*
X72010409Y-74093415D01*
X71976431Y-74083107D01*
X71945110Y-74066366D01*
X71917661Y-74043839D01*
X71895134Y-74016390D01*
X71878393Y-73985069D01*
X71868085Y-73951091D01*
X71864000Y-73909610D01*
X71864000Y-73308390D01*
X71868085Y-73266909D01*
X71878393Y-73232931D01*
X71895134Y-73201610D01*
X71917661Y-73174161D01*
X71945110Y-73151634D01*
X71976431Y-73134893D01*
X72010409Y-73124585D01*
X72051890Y-73120500D01*
X72728110Y-73120500D01*
X72769591Y-73124585D01*
X72769591Y-73124585D01*
G37*
G36*
X76879928Y-73041764D02*
G01*
X76901009Y-73048160D01*
X76920445Y-73058548D01*
X76937476Y-73072524D01*
X76951452Y-73089555D01*
X76961840Y-73108991D01*
X76968236Y-73130072D01*
X76971000Y-73158140D01*
X76971000Y-73621860D01*
X76968236Y-73649928D01*
X76961840Y-73671009D01*
X76951452Y-73690445D01*
X76937476Y-73707476D01*
X76920445Y-73721452D01*
X76901009Y-73731840D01*
X76879928Y-73738236D01*
X76851860Y-73741000D01*
X75438140Y-73741000D01*
X75410072Y-73738236D01*
X75388991Y-73731840D01*
X75369555Y-73721452D01*
X75352524Y-73707476D01*
X75338548Y-73690445D01*
X75328160Y-73671009D01*
X75321764Y-73649928D01*
X75319000Y-73621860D01*
X75319000Y-73158140D01*
X75321764Y-73130072D01*
X75328160Y-73108991D01*
X75338548Y-73089555D01*
X75352524Y-73072524D01*
X75369555Y-73058548D01*
X75388991Y-73048160D01*
X75410072Y-73041764D01*
X75438140Y-73039000D01*
X76851860Y-73039000D01*
X76879928Y-73041764D01*
X76879928Y-73041764D01*
G37*
G36*
X82167591Y-72616585D02*
G01*
X82201569Y-72626893D01*
X82232890Y-72643634D01*
X82260339Y-72666161D01*
X82282866Y-72693610D01*
X82299607Y-72724931D01*
X82309915Y-72758909D01*
X82314000Y-72800390D01*
X82314000Y-73401610D01*
X82309915Y-73443091D01*
X82299607Y-73477069D01*
X82282866Y-73508390D01*
X82260339Y-73535839D01*
X82232890Y-73558366D01*
X82201569Y-73575107D01*
X82167591Y-73585415D01*
X82126110Y-73589500D01*
X81449890Y-73589500D01*
X81408409Y-73585415D01*
X81374431Y-73575107D01*
X81343110Y-73558366D01*
X81315661Y-73535839D01*
X81293134Y-73508390D01*
X81276393Y-73477069D01*
X81266085Y-73443091D01*
X81262000Y-73401610D01*
X81262000Y-72800390D01*
X81266085Y-72758909D01*
X81276393Y-72724931D01*
X81293134Y-72693610D01*
X81315661Y-72666161D01*
X81343110Y-72643634D01*
X81374431Y-72626893D01*
X81408409Y-72616585D01*
X81449890Y-72612500D01*
X82126110Y-72612500D01*
X82167591Y-72616585D01*
X82167591Y-72616585D01*
G37*
G36*
X76879928Y-72041764D02*
G01*
X76901009Y-72048160D01*
X76920445Y-72058548D01*
X76937476Y-72072524D01*
X76951452Y-72089555D01*
X76961840Y-72108991D01*
X76968236Y-72130072D01*
X76971000Y-72158140D01*
X76971000Y-72621860D01*
X76968236Y-72649928D01*
X76961840Y-72671009D01*
X76951452Y-72690445D01*
X76937476Y-72707476D01*
X76920445Y-72721452D01*
X76901009Y-72731840D01*
X76879928Y-72738236D01*
X76851860Y-72741000D01*
X75438140Y-72741000D01*
X75410072Y-72738236D01*
X75388991Y-72731840D01*
X75369555Y-72721452D01*
X75352524Y-72707476D01*
X75338548Y-72690445D01*
X75328160Y-72671009D01*
X75321764Y-72649928D01*
X75319000Y-72621860D01*
X75319000Y-72158140D01*
X75321764Y-72130072D01*
X75328160Y-72108991D01*
X75338548Y-72089555D01*
X75352524Y-72072524D01*
X75369555Y-72058548D01*
X75388991Y-72048160D01*
X75410072Y-72041764D01*
X75438140Y-72039000D01*
X76851860Y-72039000D01*
X76879928Y-72041764D01*
X76879928Y-72041764D01*
G37*
G36*
X76879928Y-71041764D02*
G01*
X76901009Y-71048160D01*
X76920445Y-71058548D01*
X76937476Y-71072524D01*
X76951452Y-71089555D01*
X76961840Y-71108991D01*
X76968236Y-71130072D01*
X76971000Y-71158140D01*
X76971000Y-71621860D01*
X76968236Y-71649928D01*
X76961840Y-71671009D01*
X76951452Y-71690445D01*
X76937476Y-71707476D01*
X76920445Y-71721452D01*
X76901009Y-71731840D01*
X76879928Y-71738236D01*
X76851860Y-71741000D01*
X75438140Y-71741000D01*
X75410072Y-71738236D01*
X75388991Y-71731840D01*
X75369555Y-71721452D01*
X75352524Y-71707476D01*
X75338548Y-71690445D01*
X75328160Y-71671009D01*
X75321764Y-71649928D01*
X75319000Y-71621860D01*
X75319000Y-71158140D01*
X75321764Y-71130072D01*
X75328160Y-71108991D01*
X75338548Y-71089555D01*
X75352524Y-71072524D01*
X75369555Y-71058548D01*
X75388991Y-71048160D01*
X75410072Y-71041764D01*
X75438140Y-71039000D01*
X76851860Y-71039000D01*
X76879928Y-71041764D01*
X76879928Y-71041764D01*
G37*
G36*
X84199591Y-70178585D02*
G01*
X84233569Y-70188893D01*
X84264890Y-70205634D01*
X84292339Y-70228161D01*
X84314866Y-70255610D01*
X84331607Y-70286931D01*
X84341915Y-70320909D01*
X84346000Y-70362390D01*
X84346000Y-70963610D01*
X84341915Y-71005091D01*
X84331607Y-71039069D01*
X84314866Y-71070390D01*
X84292339Y-71097839D01*
X84264890Y-71120366D01*
X84233569Y-71137107D01*
X84199591Y-71147415D01*
X84158110Y-71151500D01*
X83481890Y-71151500D01*
X83440409Y-71147415D01*
X83406431Y-71137107D01*
X83375110Y-71120366D01*
X83347661Y-71097839D01*
X83325134Y-71070390D01*
X83308393Y-71039069D01*
X83298085Y-71005091D01*
X83294000Y-70963610D01*
X83294000Y-70362390D01*
X83298085Y-70320909D01*
X83308393Y-70286931D01*
X83325134Y-70255610D01*
X83347661Y-70228161D01*
X83375110Y-70205634D01*
X83406431Y-70188893D01*
X83440409Y-70178585D01*
X83481890Y-70174500D01*
X84158110Y-70174500D01*
X84199591Y-70178585D01*
X84199591Y-70178585D01*
G37*
G36*
X81659591Y-70178585D02*
G01*
X81693569Y-70188893D01*
X81724890Y-70205634D01*
X81752339Y-70228161D01*
X81774866Y-70255610D01*
X81791607Y-70286931D01*
X81801915Y-70320909D01*
X81806000Y-70362390D01*
X81806000Y-70963610D01*
X81801915Y-71005091D01*
X81791607Y-71039069D01*
X81774866Y-71070390D01*
X81752339Y-71097839D01*
X81724890Y-71120366D01*
X81693569Y-71137107D01*
X81659591Y-71147415D01*
X81618110Y-71151500D01*
X80941890Y-71151500D01*
X80900409Y-71147415D01*
X80866431Y-71137107D01*
X80835110Y-71120366D01*
X80807661Y-71097839D01*
X80785134Y-71070390D01*
X80768393Y-71039069D01*
X80758085Y-71005091D01*
X80754000Y-70963610D01*
X80754000Y-70362390D01*
X80758085Y-70320909D01*
X80768393Y-70286931D01*
X80785134Y-70255610D01*
X80807661Y-70228161D01*
X80835110Y-70205634D01*
X80866431Y-70188893D01*
X80900409Y-70178585D01*
X80941890Y-70174500D01*
X81618110Y-70174500D01*
X81659591Y-70178585D01*
X81659591Y-70178585D01*
G37*
G36*
X79461242Y-69443404D02*
G01*
X79498337Y-69454657D01*
X79532515Y-69472925D01*
X79562481Y-69497519D01*
X79587075Y-69527485D01*
X79605343Y-69561663D01*
X79616596Y-69598758D01*
X79621000Y-69643474D01*
X79621000Y-70536526D01*
X79616596Y-70581242D01*
X79605343Y-70618337D01*
X79587075Y-70652515D01*
X79562481Y-70682481D01*
X79532515Y-70707075D01*
X79498337Y-70725343D01*
X79461242Y-70736596D01*
X79416526Y-70741000D01*
X77923474Y-70741000D01*
X77878758Y-70736596D01*
X77841663Y-70725343D01*
X77807485Y-70707075D01*
X77777519Y-70682481D01*
X77752925Y-70652515D01*
X77734657Y-70618337D01*
X77723404Y-70581242D01*
X77719000Y-70536526D01*
X77719000Y-69643474D01*
X77723404Y-69598758D01*
X77734657Y-69561663D01*
X77752925Y-69527485D01*
X77777519Y-69497519D01*
X77807485Y-69472925D01*
X77841663Y-69454657D01*
X77878758Y-69443404D01*
X77923474Y-69439000D01*
X79416526Y-69439000D01*
X79461242Y-69443404D01*
X79461242Y-69443404D01*
G37*
G36*
X86575242Y-68833404D02*
G01*
X86612337Y-68844657D01*
X86646515Y-68862925D01*
X86676481Y-68887519D01*
X86701075Y-68917485D01*
X86719343Y-68951663D01*
X86730596Y-68988758D01*
X86735000Y-69033474D01*
X86735000Y-70526526D01*
X86730596Y-70571242D01*
X86719343Y-70608337D01*
X86701075Y-70642515D01*
X86676481Y-70672481D01*
X86646515Y-70697075D01*
X86612337Y-70715343D01*
X86575242Y-70726596D01*
X86530526Y-70731000D01*
X85637474Y-70731000D01*
X85592758Y-70726596D01*
X85555663Y-70715343D01*
X85521485Y-70697075D01*
X85491519Y-70672481D01*
X85466925Y-70642515D01*
X85448657Y-70608337D01*
X85437404Y-70571242D01*
X85433000Y-70526526D01*
X85433000Y-69033474D01*
X85437404Y-68988758D01*
X85448657Y-68951663D01*
X85466925Y-68917485D01*
X85491519Y-68887519D01*
X85521485Y-68862925D01*
X85555663Y-68844657D01*
X85592758Y-68833404D01*
X85637474Y-68829000D01*
X86530526Y-68829000D01*
X86575242Y-68833404D01*
X86575242Y-68833404D01*
G37*
G36*
X90175242Y-68833404D02*
G01*
X90212337Y-68844657D01*
X90246515Y-68862925D01*
X90276481Y-68887519D01*
X90301075Y-68917485D01*
X90319343Y-68951663D01*
X90330596Y-68988758D01*
X90335000Y-69033474D01*
X90335000Y-70526526D01*
X90330596Y-70571242D01*
X90319343Y-70608337D01*
X90301075Y-70642515D01*
X90276481Y-70672481D01*
X90246515Y-70697075D01*
X90212337Y-70715343D01*
X90175242Y-70726596D01*
X90130526Y-70731000D01*
X89237474Y-70731000D01*
X89192758Y-70726596D01*
X89155663Y-70715343D01*
X89121485Y-70697075D01*
X89091519Y-70672481D01*
X89066925Y-70642515D01*
X89048657Y-70608337D01*
X89037404Y-70571242D01*
X89033000Y-70526526D01*
X89033000Y-69033474D01*
X89037404Y-68988758D01*
X89048657Y-68951663D01*
X89066925Y-68917485D01*
X89091519Y-68887519D01*
X89121485Y-68862925D01*
X89155663Y-68844657D01*
X89192758Y-68833404D01*
X89237474Y-68829000D01*
X90130526Y-68829000D01*
X90175242Y-68833404D01*
X90175242Y-68833404D01*
G37*
G36*
X81659591Y-68603585D02*
G01*
X81693569Y-68613893D01*
X81724890Y-68630634D01*
X81752339Y-68653161D01*
X81774866Y-68680610D01*
X81791607Y-68711931D01*
X81801915Y-68745909D01*
X81806000Y-68787390D01*
X81806000Y-69388610D01*
X81801915Y-69430091D01*
X81791607Y-69464069D01*
X81774866Y-69495390D01*
X81752339Y-69522839D01*
X81724890Y-69545366D01*
X81693569Y-69562107D01*
X81659591Y-69572415D01*
X81618110Y-69576500D01*
X80941890Y-69576500D01*
X80900409Y-69572415D01*
X80866431Y-69562107D01*
X80835110Y-69545366D01*
X80807661Y-69522839D01*
X80785134Y-69495390D01*
X80768393Y-69464069D01*
X80758085Y-69430091D01*
X80754000Y-69388610D01*
X80754000Y-68787390D01*
X80758085Y-68745909D01*
X80768393Y-68711931D01*
X80785134Y-68680610D01*
X80807661Y-68653161D01*
X80835110Y-68630634D01*
X80866431Y-68613893D01*
X80900409Y-68603585D01*
X80941890Y-68599500D01*
X81618110Y-68599500D01*
X81659591Y-68603585D01*
X81659591Y-68603585D01*
G37*
G36*
X84199591Y-68603585D02*
G01*
X84233569Y-68613893D01*
X84264890Y-68630634D01*
X84292339Y-68653161D01*
X84314866Y-68680610D01*
X84331607Y-68711931D01*
X84341915Y-68745909D01*
X84346000Y-68787390D01*
X84346000Y-69388610D01*
X84341915Y-69430091D01*
X84331607Y-69464069D01*
X84314866Y-69495390D01*
X84292339Y-69522839D01*
X84264890Y-69545366D01*
X84233569Y-69562107D01*
X84199591Y-69572415D01*
X84158110Y-69576500D01*
X83481890Y-69576500D01*
X83440409Y-69572415D01*
X83406431Y-69562107D01*
X83375110Y-69545366D01*
X83347661Y-69522839D01*
X83325134Y-69495390D01*
X83308393Y-69464069D01*
X83298085Y-69430091D01*
X83294000Y-69388610D01*
X83294000Y-68787390D01*
X83298085Y-68745909D01*
X83308393Y-68711931D01*
X83325134Y-68680610D01*
X83347661Y-68653161D01*
X83375110Y-68630634D01*
X83406431Y-68613893D01*
X83440409Y-68603585D01*
X83481890Y-68599500D01*
X84158110Y-68599500D01*
X84199591Y-68603585D01*
X84199591Y-68603585D01*
G37*
G36*
X73531591Y-67867085D02*
G01*
X73565569Y-67877393D01*
X73596890Y-67894134D01*
X73624339Y-67916661D01*
X73646866Y-67944110D01*
X73663607Y-67975431D01*
X73673915Y-68009409D01*
X73678000Y-68050890D01*
X73678000Y-68652110D01*
X73673915Y-68693591D01*
X73663607Y-68727569D01*
X73646866Y-68758890D01*
X73624339Y-68786339D01*
X73596890Y-68808866D01*
X73565569Y-68825607D01*
X73531591Y-68835915D01*
X73490110Y-68840000D01*
X72813890Y-68840000D01*
X72772409Y-68835915D01*
X72738431Y-68825607D01*
X72707110Y-68808866D01*
X72679661Y-68786339D01*
X72657134Y-68758890D01*
X72640393Y-68727569D01*
X72630085Y-68693591D01*
X72626000Y-68652110D01*
X72626000Y-68050890D01*
X72630085Y-68009409D01*
X72640393Y-67975431D01*
X72657134Y-67944110D01*
X72679661Y-67916661D01*
X72707110Y-67894134D01*
X72738431Y-67877393D01*
X72772409Y-67867085D01*
X72813890Y-67863000D01*
X73490110Y-67863000D01*
X73531591Y-67867085D01*
X73531591Y-67867085D01*
G37*
G36*
X64191000Y-68655000D02*
G01*
X62889000Y-68655000D01*
X62889000Y-66053000D01*
X64191000Y-66053000D01*
X64191000Y-68655000D01*
X64191000Y-68655000D01*
G37*
G36*
X69191000Y-68655000D02*
G01*
X67889000Y-68655000D01*
X67889000Y-66053000D01*
X69191000Y-66053000D01*
X69191000Y-68655000D01*
X69191000Y-68655000D01*
G37*
G36*
X66691000Y-68655000D02*
G01*
X65389000Y-68655000D01*
X65389000Y-66053000D01*
X66691000Y-66053000D01*
X66691000Y-68655000D01*
X66691000Y-68655000D01*
G37*
G36*
X76491091Y-67423085D02*
G01*
X76525069Y-67433393D01*
X76556390Y-67450134D01*
X76583839Y-67472661D01*
X76606366Y-67500110D01*
X76623107Y-67531431D01*
X76633415Y-67565409D01*
X76637500Y-67606890D01*
X76637500Y-68283110D01*
X76633415Y-68324591D01*
X76623107Y-68358569D01*
X76606366Y-68389890D01*
X76583839Y-68417339D01*
X76556390Y-68439866D01*
X76525069Y-68456607D01*
X76491091Y-68466915D01*
X76449610Y-68471000D01*
X75848390Y-68471000D01*
X75806909Y-68466915D01*
X75772931Y-68456607D01*
X75741610Y-68439866D01*
X75714161Y-68417339D01*
X75691634Y-68389890D01*
X75674893Y-68358569D01*
X75664585Y-68324591D01*
X75660500Y-68283110D01*
X75660500Y-67606890D01*
X75664585Y-67565409D01*
X75674893Y-67531431D01*
X75691634Y-67500110D01*
X75714161Y-67472661D01*
X75741610Y-67450134D01*
X75772931Y-67433393D01*
X75806909Y-67423085D01*
X75848390Y-67419000D01*
X76449610Y-67419000D01*
X76491091Y-67423085D01*
X76491091Y-67423085D01*
G37*
G36*
X78066091Y-67423085D02*
G01*
X78100069Y-67433393D01*
X78131390Y-67450134D01*
X78158839Y-67472661D01*
X78181366Y-67500110D01*
X78198107Y-67531431D01*
X78208415Y-67565409D01*
X78212500Y-67606890D01*
X78212500Y-68283110D01*
X78208415Y-68324591D01*
X78198107Y-68358569D01*
X78181366Y-68389890D01*
X78158839Y-68417339D01*
X78131390Y-68439866D01*
X78100069Y-68456607D01*
X78066091Y-68466915D01*
X78024610Y-68471000D01*
X77423390Y-68471000D01*
X77381909Y-68466915D01*
X77347931Y-68456607D01*
X77316610Y-68439866D01*
X77289161Y-68417339D01*
X77266634Y-68389890D01*
X77249893Y-68358569D01*
X77239585Y-68324591D01*
X77235500Y-68283110D01*
X77235500Y-67606890D01*
X77239585Y-67565409D01*
X77249893Y-67531431D01*
X77266634Y-67500110D01*
X77289161Y-67472661D01*
X77316610Y-67450134D01*
X77347931Y-67433393D01*
X77381909Y-67423085D01*
X77423390Y-67419000D01*
X78024610Y-67419000D01*
X78066091Y-67423085D01*
X78066091Y-67423085D01*
G37*
G36*
X87643928Y-66431764D02*
G01*
X87665009Y-66438160D01*
X87684445Y-66448548D01*
X87701476Y-66462524D01*
X87715452Y-66479555D01*
X87725840Y-66498991D01*
X87732236Y-66520072D01*
X87735000Y-66548140D01*
X87735000Y-67961860D01*
X87732236Y-67989928D01*
X87725840Y-68011009D01*
X87715452Y-68030445D01*
X87701476Y-68047476D01*
X87684445Y-68061452D01*
X87665009Y-68071840D01*
X87643928Y-68078236D01*
X87615860Y-68081000D01*
X87152140Y-68081000D01*
X87124072Y-68078236D01*
X87102991Y-68071840D01*
X87083555Y-68061452D01*
X87066524Y-68047476D01*
X87052548Y-68030445D01*
X87042160Y-68011009D01*
X87035764Y-67989928D01*
X87033000Y-67961860D01*
X87033000Y-66548140D01*
X87035764Y-66520072D01*
X87042160Y-66498991D01*
X87052548Y-66479555D01*
X87066524Y-66462524D01*
X87083555Y-66448548D01*
X87102991Y-66438160D01*
X87124072Y-66431764D01*
X87152140Y-66429000D01*
X87615860Y-66429000D01*
X87643928Y-66431764D01*
X87643928Y-66431764D01*
G37*
G36*
X88643928Y-66431764D02*
G01*
X88665009Y-66438160D01*
X88684445Y-66448548D01*
X88701476Y-66462524D01*
X88715452Y-66479555D01*
X88725840Y-66498991D01*
X88732236Y-66520072D01*
X88735000Y-66548140D01*
X88735000Y-67961860D01*
X88732236Y-67989928D01*
X88725840Y-68011009D01*
X88715452Y-68030445D01*
X88701476Y-68047476D01*
X88684445Y-68061452D01*
X88665009Y-68071840D01*
X88643928Y-68078236D01*
X88615860Y-68081000D01*
X88152140Y-68081000D01*
X88124072Y-68078236D01*
X88102991Y-68071840D01*
X88083555Y-68061452D01*
X88066524Y-68047476D01*
X88052548Y-68030445D01*
X88042160Y-68011009D01*
X88035764Y-67989928D01*
X88033000Y-67961860D01*
X88033000Y-66548140D01*
X88035764Y-66520072D01*
X88042160Y-66498991D01*
X88052548Y-66479555D01*
X88066524Y-66462524D01*
X88083555Y-66448548D01*
X88102991Y-66438160D01*
X88124072Y-66431764D01*
X88152140Y-66429000D01*
X88615860Y-66429000D01*
X88643928Y-66431764D01*
X88643928Y-66431764D01*
G37*
G36*
X81659591Y-66571585D02*
G01*
X81693569Y-66581893D01*
X81724890Y-66598634D01*
X81752339Y-66621161D01*
X81774866Y-66648610D01*
X81791607Y-66679931D01*
X81801915Y-66713909D01*
X81806000Y-66755390D01*
X81806000Y-67356610D01*
X81801915Y-67398091D01*
X81791607Y-67432069D01*
X81774866Y-67463390D01*
X81752339Y-67490839D01*
X81724890Y-67513366D01*
X81693569Y-67530107D01*
X81659591Y-67540415D01*
X81618110Y-67544500D01*
X80941890Y-67544500D01*
X80900409Y-67540415D01*
X80866431Y-67530107D01*
X80835110Y-67513366D01*
X80807661Y-67490839D01*
X80785134Y-67463390D01*
X80768393Y-67432069D01*
X80758085Y-67398091D01*
X80754000Y-67356610D01*
X80754000Y-66755390D01*
X80758085Y-66713909D01*
X80768393Y-66679931D01*
X80785134Y-66648610D01*
X80807661Y-66621161D01*
X80835110Y-66598634D01*
X80866431Y-66581893D01*
X80900409Y-66571585D01*
X80941890Y-66567500D01*
X81618110Y-66567500D01*
X81659591Y-66571585D01*
X81659591Y-66571585D01*
G37*
G36*
X84199591Y-66571585D02*
G01*
X84233569Y-66581893D01*
X84264890Y-66598634D01*
X84292339Y-66621161D01*
X84314866Y-66648610D01*
X84331607Y-66679931D01*
X84341915Y-66713909D01*
X84346000Y-66755390D01*
X84346000Y-67356610D01*
X84341915Y-67398091D01*
X84331607Y-67432069D01*
X84314866Y-67463390D01*
X84292339Y-67490839D01*
X84264890Y-67513366D01*
X84233569Y-67530107D01*
X84199591Y-67540415D01*
X84158110Y-67544500D01*
X83481890Y-67544500D01*
X83440409Y-67540415D01*
X83406431Y-67530107D01*
X83375110Y-67513366D01*
X83347661Y-67490839D01*
X83325134Y-67463390D01*
X83308393Y-67432069D01*
X83298085Y-67398091D01*
X83294000Y-67356610D01*
X83294000Y-66755390D01*
X83298085Y-66713909D01*
X83308393Y-66679931D01*
X83325134Y-66648610D01*
X83347661Y-66621161D01*
X83375110Y-66598634D01*
X83406431Y-66581893D01*
X83440409Y-66571585D01*
X83481890Y-66567500D01*
X84158110Y-66567500D01*
X84199591Y-66571585D01*
X84199591Y-66571585D01*
G37*
G36*
X73531591Y-66292085D02*
G01*
X73565569Y-66302393D01*
X73596890Y-66319134D01*
X73624339Y-66341661D01*
X73646866Y-66369110D01*
X73663607Y-66400431D01*
X73673915Y-66434409D01*
X73678000Y-66475890D01*
X73678000Y-67077110D01*
X73673915Y-67118591D01*
X73663607Y-67152569D01*
X73646866Y-67183890D01*
X73624339Y-67211339D01*
X73596890Y-67233866D01*
X73565569Y-67250607D01*
X73531591Y-67260915D01*
X73490110Y-67265000D01*
X72813890Y-67265000D01*
X72772409Y-67260915D01*
X72738431Y-67250607D01*
X72707110Y-67233866D01*
X72679661Y-67211339D01*
X72657134Y-67183890D01*
X72640393Y-67152569D01*
X72630085Y-67118591D01*
X72626000Y-67077110D01*
X72626000Y-66475890D01*
X72630085Y-66434409D01*
X72640393Y-66400431D01*
X72657134Y-66369110D01*
X72679661Y-66341661D01*
X72707110Y-66319134D01*
X72738431Y-66302393D01*
X72772409Y-66292085D01*
X72813890Y-66288000D01*
X73490110Y-66288000D01*
X73531591Y-66292085D01*
X73531591Y-66292085D01*
G37*
G36*
X81659591Y-64996585D02*
G01*
X81693569Y-65006893D01*
X81724890Y-65023634D01*
X81752339Y-65046161D01*
X81774866Y-65073610D01*
X81791607Y-65104931D01*
X81801915Y-65138909D01*
X81806000Y-65180390D01*
X81806000Y-65781610D01*
X81801915Y-65823091D01*
X81791607Y-65857069D01*
X81774866Y-65888390D01*
X81752339Y-65915839D01*
X81724890Y-65938366D01*
X81693569Y-65955107D01*
X81659591Y-65965415D01*
X81618110Y-65969500D01*
X80941890Y-65969500D01*
X80900409Y-65965415D01*
X80866431Y-65955107D01*
X80835110Y-65938366D01*
X80807661Y-65915839D01*
X80785134Y-65888390D01*
X80768393Y-65857069D01*
X80758085Y-65823091D01*
X80754000Y-65781610D01*
X80754000Y-65180390D01*
X80758085Y-65138909D01*
X80768393Y-65104931D01*
X80785134Y-65073610D01*
X80807661Y-65046161D01*
X80835110Y-65023634D01*
X80866431Y-65006893D01*
X80900409Y-64996585D01*
X80941890Y-64992500D01*
X81618110Y-64992500D01*
X81659591Y-64996585D01*
X81659591Y-64996585D01*
G37*
G36*
X84199591Y-64996585D02*
G01*
X84233569Y-65006893D01*
X84264890Y-65023634D01*
X84292339Y-65046161D01*
X84314866Y-65073610D01*
X84331607Y-65104931D01*
X84341915Y-65138909D01*
X84346000Y-65180390D01*
X84346000Y-65781610D01*
X84341915Y-65823091D01*
X84331607Y-65857069D01*
X84314866Y-65888390D01*
X84292339Y-65915839D01*
X84264890Y-65938366D01*
X84233569Y-65955107D01*
X84199591Y-65965415D01*
X84158110Y-65969500D01*
X83481890Y-65969500D01*
X83440409Y-65965415D01*
X83406431Y-65955107D01*
X83375110Y-65938366D01*
X83347661Y-65915839D01*
X83325134Y-65888390D01*
X83308393Y-65857069D01*
X83298085Y-65823091D01*
X83294000Y-65781610D01*
X83294000Y-65180390D01*
X83298085Y-65138909D01*
X83308393Y-65104931D01*
X83325134Y-65073610D01*
X83347661Y-65046161D01*
X83375110Y-65023634D01*
X83406431Y-65006893D01*
X83440409Y-64996585D01*
X83481890Y-64992500D01*
X84158110Y-64992500D01*
X84199591Y-64996585D01*
X84199591Y-64996585D01*
G37*
G36*
X86422591Y-64502085D02*
G01*
X86456569Y-64512393D01*
X86487890Y-64529134D01*
X86515339Y-64551661D01*
X86537866Y-64579110D01*
X86554607Y-64610431D01*
X86564915Y-64644409D01*
X86569000Y-64685890D01*
X86569000Y-65362110D01*
X86564915Y-65403591D01*
X86554607Y-65437569D01*
X86537866Y-65468890D01*
X86515339Y-65496339D01*
X86487890Y-65518866D01*
X86456569Y-65535607D01*
X86422591Y-65545915D01*
X86381110Y-65550000D01*
X85779890Y-65550000D01*
X85738409Y-65545915D01*
X85704431Y-65535607D01*
X85673110Y-65518866D01*
X85645661Y-65496339D01*
X85623134Y-65468890D01*
X85606393Y-65437569D01*
X85596085Y-65403591D01*
X85592000Y-65362110D01*
X85592000Y-64685890D01*
X85596085Y-64644409D01*
X85606393Y-64610431D01*
X85623134Y-64579110D01*
X85645661Y-64551661D01*
X85673110Y-64529134D01*
X85704431Y-64512393D01*
X85738409Y-64502085D01*
X85779890Y-64498000D01*
X86381110Y-64498000D01*
X86422591Y-64502085D01*
X86422591Y-64502085D01*
G37*
G36*
X87997591Y-64502085D02*
G01*
X88031569Y-64512393D01*
X88062890Y-64529134D01*
X88090339Y-64551661D01*
X88112866Y-64579110D01*
X88129607Y-64610431D01*
X88139915Y-64644409D01*
X88144000Y-64685890D01*
X88144000Y-65362110D01*
X88139915Y-65403591D01*
X88129607Y-65437569D01*
X88112866Y-65468890D01*
X88090339Y-65496339D01*
X88062890Y-65518866D01*
X88031569Y-65535607D01*
X87997591Y-65545915D01*
X87956110Y-65550000D01*
X87354890Y-65550000D01*
X87313409Y-65545915D01*
X87279431Y-65535607D01*
X87248110Y-65518866D01*
X87220661Y-65496339D01*
X87198134Y-65468890D01*
X87181393Y-65437569D01*
X87171085Y-65403591D01*
X87167000Y-65362110D01*
X87167000Y-64685890D01*
X87171085Y-64644409D01*
X87181393Y-64610431D01*
X87198134Y-64579110D01*
X87220661Y-64551661D01*
X87248110Y-64529134D01*
X87279431Y-64512393D01*
X87313409Y-64502085D01*
X87354890Y-64498000D01*
X87956110Y-64498000D01*
X87997591Y-64502085D01*
X87997591Y-64502085D01*
G37*
G36*
X69938091Y-64248085D02*
G01*
X69972069Y-64258393D01*
X70003390Y-64275134D01*
X70030839Y-64297661D01*
X70053366Y-64325110D01*
X70070107Y-64356431D01*
X70080415Y-64390409D01*
X70084500Y-64431890D01*
X70084500Y-65108110D01*
X70080415Y-65149591D01*
X70070107Y-65183569D01*
X70053366Y-65214890D01*
X70030839Y-65242339D01*
X70003390Y-65264866D01*
X69972069Y-65281607D01*
X69938091Y-65291915D01*
X69896610Y-65296000D01*
X69295390Y-65296000D01*
X69253909Y-65291915D01*
X69219931Y-65281607D01*
X69188610Y-65264866D01*
X69161161Y-65242339D01*
X69138634Y-65214890D01*
X69121893Y-65183569D01*
X69111585Y-65149591D01*
X69107500Y-65108110D01*
X69107500Y-64431890D01*
X69111585Y-64390409D01*
X69121893Y-64356431D01*
X69138634Y-64325110D01*
X69161161Y-64297661D01*
X69188610Y-64275134D01*
X69219931Y-64258393D01*
X69253909Y-64248085D01*
X69295390Y-64244000D01*
X69896610Y-64244000D01*
X69938091Y-64248085D01*
X69938091Y-64248085D01*
G37*
G36*
X68363091Y-64248085D02*
G01*
X68397069Y-64258393D01*
X68428390Y-64275134D01*
X68455839Y-64297661D01*
X68478366Y-64325110D01*
X68495107Y-64356431D01*
X68505415Y-64390409D01*
X68509500Y-64431890D01*
X68509500Y-65108110D01*
X68505415Y-65149591D01*
X68495107Y-65183569D01*
X68478366Y-65214890D01*
X68455839Y-65242339D01*
X68428390Y-65264866D01*
X68397069Y-65281607D01*
X68363091Y-65291915D01*
X68321610Y-65296000D01*
X67720390Y-65296000D01*
X67678909Y-65291915D01*
X67644931Y-65281607D01*
X67613610Y-65264866D01*
X67586161Y-65242339D01*
X67563634Y-65214890D01*
X67546893Y-65183569D01*
X67536585Y-65149591D01*
X67532500Y-65108110D01*
X67532500Y-64431890D01*
X67536585Y-64390409D01*
X67546893Y-64356431D01*
X67563634Y-64325110D01*
X67586161Y-64297661D01*
X67613610Y-64275134D01*
X67644931Y-64258393D01*
X67678909Y-64248085D01*
X67720390Y-64244000D01*
X68321610Y-64244000D01*
X68363091Y-64248085D01*
X68363091Y-64248085D01*
G37*
G36*
X62546591Y-63994085D02*
G01*
X62580569Y-64004393D01*
X62611890Y-64021134D01*
X62639339Y-64043661D01*
X62661866Y-64071110D01*
X62678607Y-64102431D01*
X62688915Y-64136409D01*
X62693000Y-64177890D01*
X62693000Y-64854110D01*
X62688915Y-64895591D01*
X62678607Y-64929569D01*
X62661866Y-64960890D01*
X62639339Y-64988339D01*
X62611890Y-65010866D01*
X62580569Y-65027607D01*
X62546591Y-65037915D01*
X62505110Y-65042000D01*
X61903890Y-65042000D01*
X61862409Y-65037915D01*
X61828431Y-65027607D01*
X61797110Y-65010866D01*
X61769661Y-64988339D01*
X61747134Y-64960890D01*
X61730393Y-64929569D01*
X61720085Y-64895591D01*
X61716000Y-64854110D01*
X61716000Y-64177890D01*
X61720085Y-64136409D01*
X61730393Y-64102431D01*
X61747134Y-64071110D01*
X61769661Y-64043661D01*
X61797110Y-64021134D01*
X61828431Y-64004393D01*
X61862409Y-63994085D01*
X61903890Y-63990000D01*
X62505110Y-63990000D01*
X62546591Y-63994085D01*
X62546591Y-63994085D01*
G37*
G36*
X64121591Y-63994085D02*
G01*
X64155569Y-64004393D01*
X64186890Y-64021134D01*
X64214339Y-64043661D01*
X64236866Y-64071110D01*
X64253607Y-64102431D01*
X64263915Y-64136409D01*
X64268000Y-64177890D01*
X64268000Y-64854110D01*
X64263915Y-64895591D01*
X64253607Y-64929569D01*
X64236866Y-64960890D01*
X64214339Y-64988339D01*
X64186890Y-65010866D01*
X64155569Y-65027607D01*
X64121591Y-65037915D01*
X64080110Y-65042000D01*
X63478890Y-65042000D01*
X63437409Y-65037915D01*
X63403431Y-65027607D01*
X63372110Y-65010866D01*
X63344661Y-64988339D01*
X63322134Y-64960890D01*
X63305393Y-64929569D01*
X63295085Y-64895591D01*
X63291000Y-64854110D01*
X63291000Y-64177890D01*
X63295085Y-64136409D01*
X63305393Y-64102431D01*
X63322134Y-64071110D01*
X63344661Y-64043661D01*
X63372110Y-64021134D01*
X63403431Y-64004393D01*
X63437409Y-63994085D01*
X63478890Y-63990000D01*
X64080110Y-63990000D01*
X64121591Y-63994085D01*
X64121591Y-63994085D01*
G37*
G36*
X81659591Y-63295085D02*
G01*
X81693569Y-63305393D01*
X81724890Y-63322134D01*
X81752339Y-63344661D01*
X81774866Y-63372110D01*
X81791607Y-63403431D01*
X81801915Y-63437409D01*
X81806000Y-63478890D01*
X81806000Y-64080110D01*
X81801915Y-64121591D01*
X81791607Y-64155569D01*
X81774866Y-64186890D01*
X81752339Y-64214339D01*
X81724890Y-64236866D01*
X81693569Y-64253607D01*
X81659591Y-64263915D01*
X81618110Y-64268000D01*
X80941890Y-64268000D01*
X80900409Y-64263915D01*
X80866431Y-64253607D01*
X80835110Y-64236866D01*
X80807661Y-64214339D01*
X80785134Y-64186890D01*
X80768393Y-64155569D01*
X80758085Y-64121591D01*
X80754000Y-64080110D01*
X80754000Y-63478890D01*
X80758085Y-63437409D01*
X80768393Y-63403431D01*
X80785134Y-63372110D01*
X80807661Y-63344661D01*
X80835110Y-63322134D01*
X80866431Y-63305393D01*
X80900409Y-63295085D01*
X80941890Y-63291000D01*
X81618110Y-63291000D01*
X81659591Y-63295085D01*
X81659591Y-63295085D01*
G37*
G36*
X76859807Y-60618225D02*
G01*
X76981579Y-60642447D01*
X77134403Y-60705749D01*
X77251580Y-60754285D01*
X77282042Y-60766903D01*
X77552451Y-60947585D01*
X77782415Y-61177549D01*
X77963097Y-61447958D01*
X78087553Y-61748421D01*
X78098543Y-61803670D01*
X78151000Y-62067389D01*
X78151000Y-62392611D01*
X78112841Y-62584448D01*
X78087553Y-62711579D01*
X78010325Y-62898024D01*
X77966961Y-63002715D01*
X77963097Y-63012042D01*
X77782415Y-63282451D01*
X77552451Y-63512415D01*
X77282042Y-63693097D01*
X76981579Y-63817553D01*
X76907008Y-63832386D01*
X76662611Y-63881000D01*
X76337389Y-63881000D01*
X76092992Y-63832386D01*
X76018421Y-63817553D01*
X75717958Y-63693097D01*
X75447549Y-63512415D01*
X75217585Y-63282451D01*
X75036903Y-63012042D01*
X75033040Y-63002715D01*
X74989675Y-62898024D01*
X74912447Y-62711579D01*
X74887159Y-62584448D01*
X74849000Y-62392611D01*
X74849000Y-62067389D01*
X74901457Y-61803670D01*
X74912447Y-61748421D01*
X75036903Y-61447958D01*
X75217585Y-61177549D01*
X75447549Y-60947585D01*
X75717958Y-60766903D01*
X75748421Y-60754285D01*
X75865597Y-60705749D01*
X76018421Y-60642447D01*
X76140193Y-60618225D01*
X76337389Y-60579000D01*
X76662611Y-60579000D01*
X76859807Y-60618225D01*
X76859807Y-60618225D01*
G37*
G36*
X86213126Y-59066698D02*
G01*
X86213730Y-59066757D01*
X86234460Y-59070881D01*
X86252842Y-59078495D01*
X86269386Y-59089550D01*
X86270996Y-59091160D01*
X86289938Y-59106705D01*
X86311549Y-59118256D01*
X86334998Y-59125369D01*
X86359384Y-59127771D01*
X86383770Y-59125369D01*
X86407219Y-59118256D01*
X86428830Y-59106705D01*
X86447772Y-59091160D01*
X86456012Y-59082067D01*
X86461896Y-59074897D01*
X86465669Y-59071800D01*
X86469971Y-59069501D01*
X86474645Y-59068083D01*
X86485641Y-59067000D01*
X86774359Y-59067000D01*
X86785355Y-59068083D01*
X86790029Y-59069501D01*
X86794330Y-59071800D01*
X86800702Y-59077029D01*
X86821076Y-59090643D01*
X86843715Y-59100020D01*
X86867749Y-59104800D01*
X86892253Y-59104800D01*
X86916286Y-59100019D01*
X86938925Y-59090642D01*
X86959298Y-59077029D01*
X86965670Y-59071800D01*
X86969971Y-59069501D01*
X86974645Y-59068083D01*
X86985641Y-59067000D01*
X87274359Y-59067000D01*
X87285355Y-59068083D01*
X87290029Y-59069501D01*
X87294330Y-59071800D01*
X87300702Y-59077029D01*
X87321076Y-59090643D01*
X87343715Y-59100020D01*
X87367749Y-59104800D01*
X87392253Y-59104800D01*
X87416286Y-59100019D01*
X87438925Y-59090642D01*
X87459298Y-59077029D01*
X87465670Y-59071800D01*
X87469971Y-59069501D01*
X87474645Y-59068083D01*
X87485641Y-59067000D01*
X87774359Y-59067000D01*
X87785355Y-59068083D01*
X87790029Y-59069501D01*
X87794330Y-59071800D01*
X87800702Y-59077029D01*
X87821076Y-59090643D01*
X87843715Y-59100020D01*
X87867749Y-59104800D01*
X87892253Y-59104800D01*
X87916286Y-59100019D01*
X87938925Y-59090642D01*
X87959298Y-59077029D01*
X87965670Y-59071800D01*
X87969971Y-59069501D01*
X87974645Y-59068083D01*
X87985641Y-59067000D01*
X88274359Y-59067000D01*
X88285355Y-59068083D01*
X88290029Y-59069501D01*
X88294330Y-59071800D01*
X88300702Y-59077029D01*
X88321076Y-59090643D01*
X88343715Y-59100020D01*
X88367749Y-59104800D01*
X88392253Y-59104800D01*
X88416286Y-59100019D01*
X88438925Y-59090642D01*
X88459298Y-59077029D01*
X88465670Y-59071800D01*
X88469971Y-59069501D01*
X88474645Y-59068083D01*
X88485641Y-59067000D01*
X88774359Y-59067000D01*
X88785355Y-59068083D01*
X88790029Y-59069501D01*
X88794331Y-59071800D01*
X88798104Y-59074897D01*
X88803988Y-59082067D01*
X88821314Y-59099395D01*
X88841688Y-59113009D01*
X88864327Y-59122387D01*
X88888360Y-59127169D01*
X88912864Y-59127170D01*
X88936897Y-59122390D01*
X88959536Y-59113013D01*
X88979911Y-59099400D01*
X88989004Y-59091160D01*
X88990614Y-59089550D01*
X89007158Y-59078495D01*
X89025540Y-59070881D01*
X89046270Y-59066757D01*
X89046874Y-59066698D01*
X89058062Y-59066148D01*
X89201938Y-59066148D01*
X89213126Y-59066698D01*
X89213730Y-59066757D01*
X89234460Y-59070881D01*
X89252842Y-59078495D01*
X89269386Y-59089550D01*
X89283450Y-59103614D01*
X89294505Y-59120158D01*
X89302119Y-59138540D01*
X89306243Y-59159270D01*
X89306302Y-59159874D01*
X89306852Y-59171062D01*
X89306852Y-59639938D01*
X89306302Y-59651131D01*
X89305874Y-59655476D01*
X89305874Y-59679980D01*
X89310654Y-59704013D01*
X89320031Y-59726652D01*
X89333645Y-59747027D01*
X89350972Y-59764354D01*
X89371346Y-59777968D01*
X89393985Y-59787345D01*
X89418018Y-59792126D01*
X89442524Y-59792126D01*
X89446869Y-59791698D01*
X89458062Y-59791148D01*
X89926938Y-59791148D01*
X89938126Y-59791698D01*
X89938730Y-59791757D01*
X89959460Y-59795881D01*
X89977842Y-59803495D01*
X89994386Y-59814550D01*
X90008450Y-59828614D01*
X90019505Y-59845158D01*
X90027119Y-59863540D01*
X90031243Y-59884270D01*
X90031302Y-59884874D01*
X90031852Y-59896062D01*
X90031852Y-60039938D01*
X90031302Y-60051126D01*
X90031243Y-60051730D01*
X90027119Y-60072460D01*
X90019505Y-60090842D01*
X90008450Y-60107386D01*
X90006840Y-60108996D01*
X89991295Y-60127938D01*
X89979744Y-60149549D01*
X89972631Y-60172998D01*
X89970229Y-60197384D01*
X89972631Y-60221770D01*
X89979744Y-60245219D01*
X89991295Y-60266830D01*
X90006840Y-60285772D01*
X90015933Y-60294012D01*
X90023103Y-60299896D01*
X90026200Y-60303669D01*
X90028499Y-60307971D01*
X90029917Y-60312645D01*
X90031000Y-60323641D01*
X90031000Y-60612359D01*
X90029917Y-60623355D01*
X90028499Y-60628029D01*
X90026200Y-60632330D01*
X90020971Y-60638702D01*
X90007357Y-60659076D01*
X89997980Y-60681715D01*
X89993200Y-60705749D01*
X89993200Y-60730253D01*
X89997981Y-60754286D01*
X90007358Y-60776925D01*
X90020971Y-60797298D01*
X90026200Y-60803670D01*
X90028499Y-60807971D01*
X90029917Y-60812645D01*
X90031000Y-60823641D01*
X90031000Y-61112359D01*
X90029917Y-61123355D01*
X90028499Y-61128029D01*
X90026200Y-61132330D01*
X90020971Y-61138702D01*
X90007357Y-61159076D01*
X89997980Y-61181715D01*
X89993200Y-61205749D01*
X89993200Y-61230253D01*
X89997981Y-61254286D01*
X90007358Y-61276925D01*
X90020971Y-61297298D01*
X90026200Y-61303670D01*
X90028499Y-61307971D01*
X90029917Y-61312645D01*
X90031000Y-61323641D01*
X90031000Y-61612359D01*
X90029917Y-61623355D01*
X90028499Y-61628029D01*
X90026200Y-61632330D01*
X90020971Y-61638702D01*
X90007357Y-61659076D01*
X89997980Y-61681715D01*
X89993200Y-61705749D01*
X89993200Y-61730253D01*
X89997981Y-61754286D01*
X90007358Y-61776925D01*
X90020971Y-61797298D01*
X90026200Y-61803670D01*
X90028499Y-61807971D01*
X90029917Y-61812645D01*
X90031000Y-61823641D01*
X90031000Y-62112359D01*
X90029917Y-62123355D01*
X90028499Y-62128029D01*
X90026200Y-62132330D01*
X90020971Y-62138702D01*
X90007357Y-62159076D01*
X89997980Y-62181715D01*
X89993200Y-62205749D01*
X89993200Y-62230253D01*
X89997981Y-62254286D01*
X90007358Y-62276925D01*
X90020971Y-62297298D01*
X90026200Y-62303670D01*
X90028499Y-62307971D01*
X90029917Y-62312645D01*
X90031000Y-62323641D01*
X90031000Y-62612359D01*
X90029917Y-62623355D01*
X90028499Y-62628029D01*
X90026200Y-62632331D01*
X90023103Y-62636104D01*
X90015933Y-62641988D01*
X89998605Y-62659314D01*
X89984991Y-62679688D01*
X89975613Y-62702327D01*
X89970831Y-62726360D01*
X89970830Y-62750864D01*
X89975610Y-62774897D01*
X89984987Y-62797536D01*
X89998600Y-62817911D01*
X90006840Y-62827004D01*
X90008450Y-62828614D01*
X90019505Y-62845158D01*
X90027119Y-62863540D01*
X90031243Y-62884270D01*
X90031302Y-62884874D01*
X90031852Y-62896062D01*
X90031852Y-63039938D01*
X90031302Y-63051126D01*
X90031243Y-63051730D01*
X90027119Y-63072460D01*
X90019505Y-63090842D01*
X90008450Y-63107386D01*
X89994386Y-63121450D01*
X89977842Y-63132505D01*
X89959460Y-63140119D01*
X89938730Y-63144243D01*
X89938126Y-63144302D01*
X89926938Y-63144852D01*
X89458062Y-63144852D01*
X89446869Y-63144302D01*
X89442524Y-63143874D01*
X89418020Y-63143874D01*
X89393987Y-63148654D01*
X89371348Y-63158031D01*
X89350973Y-63171645D01*
X89333646Y-63188972D01*
X89320032Y-63209346D01*
X89310655Y-63231985D01*
X89305874Y-63256018D01*
X89305874Y-63280524D01*
X89306302Y-63284869D01*
X89306852Y-63296062D01*
X89306852Y-63764938D01*
X89306302Y-63776126D01*
X89306243Y-63776730D01*
X89302119Y-63797460D01*
X89294505Y-63815842D01*
X89283450Y-63832386D01*
X89269386Y-63846450D01*
X89252842Y-63857505D01*
X89234460Y-63865119D01*
X89213730Y-63869243D01*
X89213126Y-63869302D01*
X89201938Y-63869852D01*
X89058062Y-63869852D01*
X89046874Y-63869302D01*
X89046270Y-63869243D01*
X89025540Y-63865119D01*
X89007158Y-63857505D01*
X88990614Y-63846450D01*
X88989004Y-63844840D01*
X88970062Y-63829295D01*
X88948451Y-63817744D01*
X88925002Y-63810631D01*
X88900616Y-63808229D01*
X88876230Y-63810631D01*
X88852781Y-63817744D01*
X88831170Y-63829295D01*
X88812228Y-63844840D01*
X88803988Y-63853933D01*
X88798104Y-63861103D01*
X88794331Y-63864200D01*
X88790029Y-63866499D01*
X88785355Y-63867917D01*
X88774359Y-63869000D01*
X88485641Y-63869000D01*
X88474645Y-63867917D01*
X88469971Y-63866499D01*
X88465670Y-63864200D01*
X88459298Y-63858971D01*
X88438924Y-63845357D01*
X88416285Y-63835980D01*
X88392251Y-63831200D01*
X88367747Y-63831200D01*
X88343714Y-63835981D01*
X88321075Y-63845358D01*
X88300702Y-63858971D01*
X88294330Y-63864200D01*
X88290029Y-63866499D01*
X88285355Y-63867917D01*
X88274359Y-63869000D01*
X87985641Y-63869000D01*
X87974645Y-63867917D01*
X87969971Y-63866499D01*
X87965670Y-63864200D01*
X87959298Y-63858971D01*
X87938924Y-63845357D01*
X87916285Y-63835980D01*
X87892251Y-63831200D01*
X87867747Y-63831200D01*
X87843714Y-63835981D01*
X87821075Y-63845358D01*
X87800702Y-63858971D01*
X87794330Y-63864200D01*
X87790029Y-63866499D01*
X87785355Y-63867917D01*
X87774359Y-63869000D01*
X87485641Y-63869000D01*
X87474645Y-63867917D01*
X87469971Y-63866499D01*
X87465670Y-63864200D01*
X87459298Y-63858971D01*
X87438924Y-63845357D01*
X87416285Y-63835980D01*
X87392251Y-63831200D01*
X87367747Y-63831200D01*
X87343714Y-63835981D01*
X87321075Y-63845358D01*
X87300702Y-63858971D01*
X87294330Y-63864200D01*
X87290029Y-63866499D01*
X87285355Y-63867917D01*
X87274359Y-63869000D01*
X86985641Y-63869000D01*
X86974645Y-63867917D01*
X86969971Y-63866499D01*
X86965670Y-63864200D01*
X86959298Y-63858971D01*
X86938924Y-63845357D01*
X86916285Y-63835980D01*
X86892251Y-63831200D01*
X86867747Y-63831200D01*
X86843714Y-63835981D01*
X86821075Y-63845358D01*
X86800702Y-63858971D01*
X86794330Y-63864200D01*
X86790029Y-63866499D01*
X86785355Y-63867917D01*
X86774359Y-63869000D01*
X86485641Y-63869000D01*
X86474645Y-63867917D01*
X86469971Y-63866499D01*
X86465669Y-63864200D01*
X86461896Y-63861103D01*
X86456012Y-63853933D01*
X86438686Y-63836605D01*
X86418312Y-63822991D01*
X86395673Y-63813613D01*
X86371640Y-63808831D01*
X86347136Y-63808830D01*
X86323103Y-63813610D01*
X86300464Y-63822987D01*
X86280089Y-63836600D01*
X86270996Y-63844840D01*
X86269386Y-63846450D01*
X86252842Y-63857505D01*
X86234460Y-63865119D01*
X86213730Y-63869243D01*
X86213126Y-63869302D01*
X86201938Y-63869852D01*
X86058062Y-63869852D01*
X86046874Y-63869302D01*
X86046270Y-63869243D01*
X86025540Y-63865119D01*
X86007158Y-63857505D01*
X85990614Y-63846450D01*
X85976550Y-63832386D01*
X85965495Y-63815842D01*
X85957881Y-63797460D01*
X85953757Y-63776730D01*
X85953698Y-63776126D01*
X85953148Y-63764938D01*
X85953148Y-63296062D01*
X85953698Y-63284869D01*
X85954126Y-63280524D01*
X85954126Y-63256020D01*
X85949346Y-63231987D01*
X85939969Y-63209348D01*
X85926355Y-63188973D01*
X85909028Y-63171646D01*
X85888654Y-63158032D01*
X85866015Y-63148655D01*
X85841982Y-63143874D01*
X85817476Y-63143874D01*
X85813131Y-63144302D01*
X85801938Y-63144852D01*
X85333062Y-63144852D01*
X85321874Y-63144302D01*
X85321270Y-63144243D01*
X85300540Y-63140119D01*
X85282158Y-63132505D01*
X85265614Y-63121450D01*
X85251550Y-63107386D01*
X85240495Y-63090842D01*
X85232881Y-63072460D01*
X85228757Y-63051730D01*
X85228698Y-63051126D01*
X85228148Y-63039938D01*
X85228148Y-62896062D01*
X85228698Y-62884874D01*
X85228757Y-62884270D01*
X85232881Y-62863540D01*
X85240495Y-62845158D01*
X85251550Y-62828614D01*
X85253160Y-62827004D01*
X85268705Y-62808062D01*
X85280256Y-62786451D01*
X85287369Y-62763002D01*
X85289771Y-62738616D01*
X85287369Y-62714230D01*
X85280256Y-62690781D01*
X85268705Y-62669170D01*
X85253160Y-62650228D01*
X85244067Y-62641988D01*
X85236897Y-62636104D01*
X85233800Y-62632331D01*
X85231501Y-62628029D01*
X85230083Y-62623355D01*
X85229000Y-62612359D01*
X85229000Y-62323641D01*
X85230083Y-62312645D01*
X85231501Y-62307971D01*
X85233800Y-62303670D01*
X85239029Y-62297298D01*
X85252643Y-62276924D01*
X85262020Y-62254285D01*
X85266800Y-62230251D01*
X85266800Y-62205747D01*
X85262019Y-62181714D01*
X85252642Y-62159075D01*
X85239029Y-62138702D01*
X85233800Y-62132330D01*
X85231501Y-62128029D01*
X85230083Y-62123355D01*
X85229000Y-62112359D01*
X85229000Y-61823641D01*
X85230083Y-61812645D01*
X85231501Y-61807971D01*
X85233800Y-61803670D01*
X85239029Y-61797298D01*
X85252643Y-61776924D01*
X85262020Y-61754285D01*
X85266800Y-61730251D01*
X85266800Y-61705747D01*
X85262019Y-61681714D01*
X85252642Y-61659075D01*
X85239029Y-61638702D01*
X85233800Y-61632330D01*
X85231501Y-61628029D01*
X85230083Y-61623355D01*
X85229000Y-61612359D01*
X85229000Y-61323641D01*
X85230083Y-61312645D01*
X85231501Y-61307971D01*
X85233800Y-61303670D01*
X85239029Y-61297298D01*
X85252643Y-61276924D01*
X85262020Y-61254285D01*
X85266800Y-61230251D01*
X85266800Y-61205747D01*
X85262019Y-61181714D01*
X85252642Y-61159075D01*
X85239029Y-61138702D01*
X85233800Y-61132330D01*
X85231501Y-61128029D01*
X85230083Y-61123355D01*
X85229000Y-61112359D01*
X85229000Y-60823641D01*
X85230083Y-60812645D01*
X85231501Y-60807971D01*
X85233800Y-60803670D01*
X85239029Y-60797298D01*
X85252643Y-60776924D01*
X85262020Y-60754285D01*
X85266800Y-60730251D01*
X85266800Y-60705747D01*
X85262019Y-60681714D01*
X85252642Y-60659075D01*
X85239029Y-60638702D01*
X85233800Y-60632330D01*
X85231501Y-60628029D01*
X85230083Y-60623355D01*
X85229000Y-60612359D01*
X85229000Y-60323641D01*
X85230083Y-60312645D01*
X85231501Y-60307971D01*
X85233800Y-60303669D01*
X85236897Y-60299896D01*
X85244067Y-60294012D01*
X85261395Y-60276686D01*
X85275009Y-60256312D01*
X85284387Y-60233673D01*
X85289169Y-60209640D01*
X85289170Y-60185136D01*
X85285810Y-60168242D01*
X86018123Y-60168242D01*
X86020524Y-60192628D01*
X86027637Y-60216077D01*
X86039188Y-60237688D01*
X86054733Y-60256630D01*
X86073674Y-60272176D01*
X86095285Y-60283727D01*
X86130867Y-60292641D01*
X86135355Y-60293083D01*
X86140029Y-60294501D01*
X86144331Y-60296800D01*
X86148104Y-60299896D01*
X86151200Y-60303669D01*
X86153499Y-60307971D01*
X86154917Y-60312645D01*
X86156000Y-60323641D01*
X86156000Y-60612359D01*
X86154917Y-60623355D01*
X86153499Y-60628029D01*
X86151200Y-60632330D01*
X86145971Y-60638702D01*
X86132357Y-60659076D01*
X86122980Y-60681715D01*
X86118200Y-60705749D01*
X86118200Y-60730253D01*
X86122981Y-60754286D01*
X86132358Y-60776925D01*
X86145971Y-60797298D01*
X86151200Y-60803670D01*
X86153499Y-60807971D01*
X86154917Y-60812645D01*
X86156000Y-60823641D01*
X86156000Y-61112359D01*
X86154917Y-61123355D01*
X86153499Y-61128029D01*
X86151200Y-61132330D01*
X86145971Y-61138702D01*
X86132357Y-61159076D01*
X86122980Y-61181715D01*
X86118200Y-61205749D01*
X86118200Y-61230253D01*
X86122981Y-61254286D01*
X86132358Y-61276925D01*
X86145971Y-61297298D01*
X86151200Y-61303670D01*
X86153499Y-61307971D01*
X86154917Y-61312645D01*
X86156000Y-61323641D01*
X86156000Y-61612359D01*
X86154917Y-61623355D01*
X86153499Y-61628029D01*
X86151200Y-61632330D01*
X86145971Y-61638702D01*
X86132357Y-61659076D01*
X86122980Y-61681715D01*
X86118200Y-61705749D01*
X86118200Y-61730253D01*
X86122981Y-61754286D01*
X86132358Y-61776925D01*
X86145971Y-61797298D01*
X86151200Y-61803670D01*
X86153499Y-61807971D01*
X86154917Y-61812645D01*
X86156000Y-61823641D01*
X86156000Y-62112359D01*
X86154917Y-62123355D01*
X86153499Y-62128029D01*
X86151200Y-62132330D01*
X86145971Y-62138702D01*
X86132357Y-62159076D01*
X86122980Y-62181715D01*
X86118200Y-62205749D01*
X86118200Y-62230253D01*
X86122981Y-62254286D01*
X86132358Y-62276925D01*
X86145971Y-62297298D01*
X86151200Y-62303670D01*
X86153499Y-62307971D01*
X86154917Y-62312645D01*
X86156000Y-62323641D01*
X86156000Y-62612359D01*
X86154917Y-62623355D01*
X86153499Y-62628029D01*
X86151200Y-62632331D01*
X86148104Y-62636104D01*
X86144331Y-62639200D01*
X86140029Y-62641499D01*
X86135355Y-62642917D01*
X86130867Y-62643359D01*
X86106834Y-62648140D01*
X86084196Y-62657518D01*
X86063821Y-62671132D01*
X86046495Y-62688459D01*
X86032881Y-62708834D01*
X86023505Y-62731473D01*
X86018725Y-62755507D01*
X86018725Y-62780011D01*
X86023506Y-62804044D01*
X86039190Y-62837204D01*
X86044506Y-62845159D01*
X86052119Y-62863540D01*
X86056000Y-62883050D01*
X86056000Y-62904197D01*
X86055874Y-62905476D01*
X86055874Y-62929980D01*
X86060654Y-62954013D01*
X86070031Y-62976652D01*
X86083645Y-62997027D01*
X86100972Y-63014354D01*
X86121346Y-63027968D01*
X86143985Y-63037345D01*
X86168018Y-63042126D01*
X86192524Y-63042126D01*
X86193803Y-63042000D01*
X86214950Y-63042000D01*
X86234460Y-63045881D01*
X86252841Y-63053494D01*
X86260796Y-63058810D01*
X86282407Y-63070361D01*
X86305856Y-63077475D01*
X86330242Y-63079877D01*
X86354628Y-63077476D01*
X86378077Y-63070363D01*
X86399688Y-63058812D01*
X86418630Y-63043267D01*
X86434176Y-63024326D01*
X86445727Y-63002715D01*
X86454641Y-62967133D01*
X86455083Y-62962645D01*
X86456501Y-62957971D01*
X86458800Y-62953669D01*
X86461896Y-62949896D01*
X86465669Y-62946800D01*
X86469971Y-62944501D01*
X86474645Y-62943083D01*
X86485641Y-62942000D01*
X86774359Y-62942000D01*
X86785355Y-62943083D01*
X86790029Y-62944501D01*
X86794330Y-62946800D01*
X86800702Y-62952029D01*
X86821076Y-62965643D01*
X86843715Y-62975020D01*
X86867749Y-62979800D01*
X86892253Y-62979800D01*
X86916286Y-62975019D01*
X86938925Y-62965642D01*
X86959298Y-62952029D01*
X86965670Y-62946800D01*
X86969971Y-62944501D01*
X86974645Y-62943083D01*
X86985641Y-62942000D01*
X87274359Y-62942000D01*
X87285355Y-62943083D01*
X87290029Y-62944501D01*
X87294330Y-62946800D01*
X87300702Y-62952029D01*
X87321076Y-62965643D01*
X87343715Y-62975020D01*
X87367749Y-62979800D01*
X87392253Y-62979800D01*
X87416286Y-62975019D01*
X87438925Y-62965642D01*
X87459298Y-62952029D01*
X87465670Y-62946800D01*
X87469971Y-62944501D01*
X87474645Y-62943083D01*
X87485641Y-62942000D01*
X87774359Y-62942000D01*
X87785355Y-62943083D01*
X87790029Y-62944501D01*
X87794330Y-62946800D01*
X87800702Y-62952029D01*
X87821076Y-62965643D01*
X87843715Y-62975020D01*
X87867749Y-62979800D01*
X87892253Y-62979800D01*
X87916286Y-62975019D01*
X87938925Y-62965642D01*
X87959298Y-62952029D01*
X87965670Y-62946800D01*
X87969971Y-62944501D01*
X87974645Y-62943083D01*
X87985641Y-62942000D01*
X88274359Y-62942000D01*
X88285355Y-62943083D01*
X88290029Y-62944501D01*
X88294330Y-62946800D01*
X88300702Y-62952029D01*
X88321076Y-62965643D01*
X88343715Y-62975020D01*
X88367749Y-62979800D01*
X88392253Y-62979800D01*
X88416286Y-62975019D01*
X88438925Y-62965642D01*
X88459298Y-62952029D01*
X88465670Y-62946800D01*
X88469971Y-62944501D01*
X88474645Y-62943083D01*
X88485641Y-62942000D01*
X88774359Y-62942000D01*
X88785355Y-62943083D01*
X88790029Y-62944501D01*
X88794331Y-62946800D01*
X88798104Y-62949896D01*
X88801200Y-62953669D01*
X88803499Y-62957971D01*
X88804917Y-62962645D01*
X88805359Y-62967133D01*
X88810140Y-62991166D01*
X88819518Y-63013804D01*
X88833132Y-63034179D01*
X88850459Y-63051505D01*
X88870834Y-63065119D01*
X88893473Y-63074495D01*
X88917507Y-63079275D01*
X88942011Y-63079275D01*
X88966044Y-63074494D01*
X88999204Y-63058810D01*
X89007159Y-63053494D01*
X89025540Y-63045881D01*
X89045050Y-63042000D01*
X89066197Y-63042000D01*
X89067476Y-63042126D01*
X89091980Y-63042126D01*
X89116013Y-63037346D01*
X89138652Y-63027969D01*
X89159027Y-63014355D01*
X89176354Y-62997028D01*
X89189968Y-62976654D01*
X89199345Y-62954015D01*
X89204126Y-62929982D01*
X89204126Y-62905476D01*
X89204000Y-62904197D01*
X89204000Y-62883050D01*
X89207881Y-62863540D01*
X89215494Y-62845159D01*
X89220810Y-62837204D01*
X89232361Y-62815593D01*
X89239475Y-62792144D01*
X89241877Y-62767758D01*
X89239476Y-62743372D01*
X89232363Y-62719923D01*
X89220812Y-62698312D01*
X89205267Y-62679370D01*
X89186326Y-62663824D01*
X89164715Y-62652273D01*
X89129133Y-62643359D01*
X89124645Y-62642917D01*
X89119971Y-62641499D01*
X89115669Y-62639200D01*
X89111896Y-62636104D01*
X89108800Y-62632331D01*
X89106501Y-62628029D01*
X89105083Y-62623355D01*
X89104000Y-62612359D01*
X89104000Y-62323641D01*
X89105083Y-62312645D01*
X89106501Y-62307971D01*
X89108800Y-62303670D01*
X89114029Y-62297298D01*
X89127643Y-62276924D01*
X89137020Y-62254285D01*
X89141800Y-62230251D01*
X89141800Y-62205747D01*
X89137019Y-62181714D01*
X89127642Y-62159075D01*
X89114029Y-62138702D01*
X89108800Y-62132330D01*
X89106501Y-62128029D01*
X89105083Y-62123355D01*
X89104000Y-62112359D01*
X89104000Y-61823641D01*
X89105083Y-61812645D01*
X89106501Y-61807971D01*
X89108800Y-61803670D01*
X89114029Y-61797298D01*
X89127643Y-61776924D01*
X89137020Y-61754285D01*
X89141800Y-61730251D01*
X89141800Y-61705747D01*
X89137019Y-61681714D01*
X89127642Y-61659075D01*
X89114029Y-61638702D01*
X89108800Y-61632330D01*
X89106501Y-61628029D01*
X89105083Y-61623355D01*
X89104000Y-61612359D01*
X89104000Y-61323641D01*
X89105083Y-61312645D01*
X89106501Y-61307971D01*
X89108800Y-61303670D01*
X89114029Y-61297298D01*
X89127643Y-61276924D01*
X89137020Y-61254285D01*
X89141800Y-61230251D01*
X89141800Y-61205747D01*
X89137019Y-61181714D01*
X89127642Y-61159075D01*
X89114029Y-61138702D01*
X89108800Y-61132330D01*
X89106501Y-61128029D01*
X89105083Y-61123355D01*
X89104000Y-61112359D01*
X89104000Y-60823641D01*
X89105083Y-60812645D01*
X89106501Y-60807971D01*
X89108800Y-60803670D01*
X89114029Y-60797298D01*
X89127643Y-60776924D01*
X89137020Y-60754285D01*
X89141800Y-60730251D01*
X89141800Y-60705747D01*
X89137019Y-60681714D01*
X89127642Y-60659075D01*
X89114029Y-60638702D01*
X89108800Y-60632330D01*
X89106501Y-60628029D01*
X89105083Y-60623355D01*
X89104000Y-60612359D01*
X89104000Y-60323641D01*
X89105083Y-60312645D01*
X89106501Y-60307971D01*
X89108800Y-60303669D01*
X89111896Y-60299896D01*
X89115669Y-60296800D01*
X89119971Y-60294501D01*
X89124645Y-60293083D01*
X89129133Y-60292641D01*
X89153166Y-60287860D01*
X89175804Y-60278482D01*
X89196179Y-60264868D01*
X89213505Y-60247541D01*
X89227119Y-60227166D01*
X89236495Y-60204527D01*
X89241275Y-60180493D01*
X89241275Y-60155989D01*
X89236494Y-60131956D01*
X89220810Y-60098796D01*
X89215494Y-60090841D01*
X89207881Y-60072460D01*
X89204000Y-60052950D01*
X89204000Y-60031803D01*
X89204126Y-60030524D01*
X89204126Y-60006020D01*
X89199346Y-59981987D01*
X89189969Y-59959348D01*
X89176355Y-59938973D01*
X89159028Y-59921646D01*
X89138654Y-59908032D01*
X89116015Y-59898655D01*
X89091982Y-59893874D01*
X89067476Y-59893874D01*
X89066197Y-59894000D01*
X89045050Y-59894000D01*
X89025540Y-59890119D01*
X89007159Y-59882506D01*
X88999204Y-59877190D01*
X88977593Y-59865639D01*
X88954144Y-59858525D01*
X88929758Y-59856123D01*
X88905372Y-59858524D01*
X88881923Y-59865637D01*
X88860312Y-59877188D01*
X88841370Y-59892733D01*
X88825824Y-59911674D01*
X88814273Y-59933285D01*
X88805359Y-59968867D01*
X88804917Y-59973355D01*
X88803499Y-59978029D01*
X88801200Y-59982331D01*
X88798104Y-59986104D01*
X88794331Y-59989200D01*
X88790029Y-59991499D01*
X88785355Y-59992917D01*
X88774359Y-59994000D01*
X88485641Y-59994000D01*
X88474645Y-59992917D01*
X88469971Y-59991499D01*
X88465670Y-59989200D01*
X88459298Y-59983971D01*
X88438924Y-59970357D01*
X88416285Y-59960980D01*
X88392251Y-59956200D01*
X88367747Y-59956200D01*
X88343714Y-59960981D01*
X88321075Y-59970358D01*
X88300702Y-59983971D01*
X88294330Y-59989200D01*
X88290029Y-59991499D01*
X88285355Y-59992917D01*
X88274359Y-59994000D01*
X87985641Y-59994000D01*
X87974645Y-59992917D01*
X87969971Y-59991499D01*
X87965670Y-59989200D01*
X87959298Y-59983971D01*
X87938924Y-59970357D01*
X87916285Y-59960980D01*
X87892251Y-59956200D01*
X87867747Y-59956200D01*
X87843714Y-59960981D01*
X87821075Y-59970358D01*
X87800702Y-59983971D01*
X87794330Y-59989200D01*
X87790029Y-59991499D01*
X87785355Y-59992917D01*
X87774359Y-59994000D01*
X87485641Y-59994000D01*
X87474645Y-59992917D01*
X87469971Y-59991499D01*
X87465670Y-59989200D01*
X87459298Y-59983971D01*
X87438924Y-59970357D01*
X87416285Y-59960980D01*
X87392251Y-59956200D01*
X87367747Y-59956200D01*
X87343714Y-59960981D01*
X87321075Y-59970358D01*
X87300702Y-59983971D01*
X87294330Y-59989200D01*
X87290029Y-59991499D01*
X87285355Y-59992917D01*
X87274359Y-59994000D01*
X86985641Y-59994000D01*
X86974645Y-59992917D01*
X86969971Y-59991499D01*
X86965670Y-59989200D01*
X86959298Y-59983971D01*
X86938924Y-59970357D01*
X86916285Y-59960980D01*
X86892251Y-59956200D01*
X86867747Y-59956200D01*
X86843714Y-59960981D01*
X86821075Y-59970358D01*
X86800702Y-59983971D01*
X86794330Y-59989200D01*
X86790029Y-59991499D01*
X86785355Y-59992917D01*
X86774359Y-59994000D01*
X86485641Y-59994000D01*
X86474645Y-59992917D01*
X86469971Y-59991499D01*
X86465669Y-59989200D01*
X86461896Y-59986104D01*
X86458800Y-59982331D01*
X86456501Y-59978029D01*
X86455083Y-59973355D01*
X86454641Y-59968867D01*
X86449860Y-59944834D01*
X86440482Y-59922196D01*
X86426868Y-59901821D01*
X86409541Y-59884495D01*
X86389166Y-59870881D01*
X86366527Y-59861505D01*
X86342493Y-59856725D01*
X86317989Y-59856725D01*
X86293956Y-59861506D01*
X86260796Y-59877190D01*
X86252841Y-59882506D01*
X86234460Y-59890119D01*
X86214950Y-59894000D01*
X86193803Y-59894000D01*
X86192524Y-59893874D01*
X86168020Y-59893874D01*
X86143987Y-59898654D01*
X86121348Y-59908031D01*
X86100973Y-59921645D01*
X86083646Y-59938972D01*
X86070032Y-59959346D01*
X86060655Y-59981985D01*
X86055874Y-60006018D01*
X86055874Y-60030524D01*
X86056000Y-60031803D01*
X86056000Y-60052950D01*
X86052119Y-60072460D01*
X86044506Y-60090841D01*
X86039190Y-60098796D01*
X86027639Y-60120407D01*
X86020525Y-60143856D01*
X86018123Y-60168242D01*
X85285810Y-60168242D01*
X85284390Y-60161103D01*
X85275013Y-60138464D01*
X85261400Y-60118089D01*
X85253160Y-60108996D01*
X85251550Y-60107386D01*
X85240495Y-60090842D01*
X85232881Y-60072460D01*
X85228757Y-60051730D01*
X85228698Y-60051126D01*
X85228148Y-60039938D01*
X85228148Y-59896062D01*
X85228698Y-59884874D01*
X85228757Y-59884270D01*
X85232881Y-59863540D01*
X85240495Y-59845158D01*
X85251550Y-59828614D01*
X85265614Y-59814550D01*
X85282158Y-59803495D01*
X85300540Y-59795881D01*
X85321270Y-59791757D01*
X85321874Y-59791698D01*
X85333062Y-59791148D01*
X85801938Y-59791148D01*
X85813131Y-59791698D01*
X85817476Y-59792126D01*
X85841980Y-59792126D01*
X85866013Y-59787346D01*
X85888652Y-59777969D01*
X85909027Y-59764355D01*
X85926354Y-59747028D01*
X85939968Y-59726654D01*
X85949345Y-59704015D01*
X85954126Y-59679982D01*
X85954126Y-59655476D01*
X85953698Y-59651131D01*
X85953148Y-59639938D01*
X85953148Y-59171062D01*
X85953698Y-59159874D01*
X85953757Y-59159270D01*
X85957881Y-59138540D01*
X85965495Y-59120158D01*
X85976550Y-59103614D01*
X85990614Y-59089550D01*
X86007158Y-59078495D01*
X86025540Y-59070881D01*
X86046270Y-59066757D01*
X86046874Y-59066698D01*
X86058062Y-59066148D01*
X86201938Y-59066148D01*
X86213126Y-59066698D01*
X86213126Y-59066698D01*
G37*
G36*
X72296721Y-61822174D02*
G01*
X72396995Y-61863709D01*
X72396996Y-61863710D01*
X72487242Y-61924010D01*
X72563990Y-62000758D01*
X72563991Y-62000760D01*
X72624291Y-62091005D01*
X72665826Y-62191279D01*
X72687000Y-62297730D01*
X72687000Y-62406270D01*
X72665826Y-62512721D01*
X72624291Y-62612995D01*
X72613484Y-62629169D01*
X72563990Y-62703242D01*
X72487242Y-62779990D01*
X72469052Y-62792144D01*
X72396995Y-62840291D01*
X72296721Y-62881826D01*
X72190270Y-62903000D01*
X72081730Y-62903000D01*
X71975279Y-62881826D01*
X71875005Y-62840291D01*
X71802948Y-62792144D01*
X71784758Y-62779990D01*
X71708010Y-62703242D01*
X71658516Y-62629169D01*
X71647709Y-62612995D01*
X71606174Y-62512721D01*
X71585000Y-62406270D01*
X71585000Y-62297730D01*
X71606174Y-62191279D01*
X71647709Y-62091005D01*
X71708009Y-62000760D01*
X71708010Y-62000758D01*
X71784758Y-61924010D01*
X71875004Y-61863710D01*
X71875005Y-61863709D01*
X71975279Y-61822174D01*
X72081730Y-61801000D01*
X72190270Y-61801000D01*
X72296721Y-61822174D01*
X72296721Y-61822174D01*
G37*
G36*
X81659591Y-61720085D02*
G01*
X81693569Y-61730393D01*
X81724890Y-61747134D01*
X81752339Y-61769661D01*
X81774866Y-61797110D01*
X81791607Y-61828431D01*
X81801915Y-61862409D01*
X81806000Y-61903890D01*
X81806000Y-62505110D01*
X81801915Y-62546591D01*
X81791607Y-62580569D01*
X81774866Y-62611890D01*
X81752339Y-62639339D01*
X81724890Y-62661866D01*
X81693569Y-62678607D01*
X81659591Y-62688915D01*
X81618110Y-62693000D01*
X80941890Y-62693000D01*
X80900409Y-62688915D01*
X80866431Y-62678607D01*
X80835110Y-62661866D01*
X80807661Y-62639339D01*
X80785134Y-62611890D01*
X80768393Y-62580569D01*
X80758085Y-62546591D01*
X80754000Y-62505110D01*
X80754000Y-61903890D01*
X80758085Y-61862409D01*
X80768393Y-61828431D01*
X80785134Y-61797110D01*
X80807661Y-61769661D01*
X80835110Y-61747134D01*
X80866431Y-61730393D01*
X80900409Y-61720085D01*
X80941890Y-61716000D01*
X81618110Y-61716000D01*
X81659591Y-61720085D01*
X81659591Y-61720085D01*
G37*
G36*
X91092721Y-60430174D02*
G01*
X91192995Y-60471709D01*
X91192996Y-60471710D01*
X91283242Y-60532010D01*
X91359990Y-60608758D01*
X91369743Y-60623355D01*
X91420291Y-60699005D01*
X91461826Y-60799279D01*
X91483000Y-60905730D01*
X91483000Y-61014270D01*
X91461826Y-61120721D01*
X91420291Y-61220995D01*
X91390345Y-61265812D01*
X91359990Y-61311242D01*
X91283242Y-61387990D01*
X91237812Y-61418345D01*
X91192995Y-61448291D01*
X91092721Y-61489826D01*
X90986270Y-61511000D01*
X90877730Y-61511000D01*
X90771279Y-61489826D01*
X90671005Y-61448291D01*
X90626188Y-61418345D01*
X90580758Y-61387990D01*
X90504010Y-61311242D01*
X90473655Y-61265812D01*
X90443709Y-61220995D01*
X90402174Y-61120721D01*
X90381000Y-61014270D01*
X90381000Y-60905730D01*
X90402174Y-60799279D01*
X90443709Y-60699005D01*
X90494257Y-60623355D01*
X90504010Y-60608758D01*
X90580758Y-60532010D01*
X90671004Y-60471710D01*
X90671005Y-60471709D01*
X90771279Y-60430174D01*
X90877730Y-60409000D01*
X90986270Y-60409000D01*
X91092721Y-60430174D01*
X91092721Y-60430174D01*
G37*
G36*
X81948721Y-59922174D02*
G01*
X82048995Y-59963709D01*
X82091798Y-59992309D01*
X82139242Y-60024010D01*
X82215990Y-60100758D01*
X82227489Y-60117968D01*
X82276291Y-60191005D01*
X82317826Y-60291279D01*
X82339000Y-60397730D01*
X82339000Y-60506270D01*
X82317826Y-60612721D01*
X82276291Y-60712995D01*
X82248702Y-60754285D01*
X82215990Y-60803242D01*
X82139242Y-60879990D01*
X82139227Y-60880000D01*
X82048995Y-60940291D01*
X81948721Y-60981826D01*
X81842270Y-61003000D01*
X81733730Y-61003000D01*
X81627279Y-60981826D01*
X81527005Y-60940291D01*
X81436773Y-60880000D01*
X81436758Y-60879990D01*
X81360010Y-60803242D01*
X81327298Y-60754285D01*
X81299709Y-60712995D01*
X81258174Y-60612721D01*
X81237000Y-60506270D01*
X81237000Y-60397730D01*
X81258174Y-60291279D01*
X81299709Y-60191005D01*
X81348511Y-60117968D01*
X81360010Y-60100758D01*
X81436758Y-60024010D01*
X81484202Y-59992309D01*
X81527005Y-59963709D01*
X81627279Y-59922174D01*
X81733730Y-59901000D01*
X81842270Y-59901000D01*
X81948721Y-59922174D01*
X81948721Y-59922174D01*
G37*
G36*
X72296721Y-59922174D02*
G01*
X72396995Y-59963709D01*
X72439798Y-59992309D01*
X72487242Y-60024010D01*
X72563990Y-60100758D01*
X72575489Y-60117968D01*
X72624291Y-60191005D01*
X72665826Y-60291279D01*
X72687000Y-60397730D01*
X72687000Y-60506270D01*
X72665826Y-60612721D01*
X72624291Y-60712995D01*
X72596702Y-60754285D01*
X72563990Y-60803242D01*
X72487242Y-60879990D01*
X72487227Y-60880000D01*
X72396995Y-60940291D01*
X72296721Y-60981826D01*
X72190270Y-61003000D01*
X72081730Y-61003000D01*
X71975279Y-60981826D01*
X71875005Y-60940291D01*
X71784773Y-60880000D01*
X71784758Y-60879990D01*
X71708010Y-60803242D01*
X71675298Y-60754285D01*
X71647709Y-60712995D01*
X71606174Y-60612721D01*
X71585000Y-60506270D01*
X71585000Y-60397730D01*
X71606174Y-60291279D01*
X71647709Y-60191005D01*
X71696511Y-60117968D01*
X71708010Y-60100758D01*
X71784758Y-60024010D01*
X71832202Y-59992309D01*
X71875005Y-59963709D01*
X71975279Y-59922174D01*
X72081730Y-59901000D01*
X72190270Y-59901000D01*
X72296721Y-59922174D01*
X72296721Y-59922174D01*
G37*
G36*
X62609591Y-57935585D02*
G01*
X62643569Y-57945893D01*
X62674890Y-57962634D01*
X62702339Y-57985161D01*
X62724866Y-58012610D01*
X62741607Y-58043931D01*
X62751915Y-58077909D01*
X62756000Y-58119390D01*
X62756000Y-58720610D01*
X62751915Y-58762091D01*
X62741607Y-58796069D01*
X62724866Y-58827390D01*
X62702339Y-58854839D01*
X62674890Y-58877366D01*
X62643569Y-58894107D01*
X62609591Y-58904415D01*
X62568110Y-58908500D01*
X61891890Y-58908500D01*
X61850409Y-58904415D01*
X61816431Y-58894107D01*
X61785110Y-58877366D01*
X61757661Y-58854839D01*
X61735134Y-58827390D01*
X61718393Y-58796069D01*
X61708085Y-58762091D01*
X61704000Y-58720610D01*
X61704000Y-58119390D01*
X61708085Y-58077909D01*
X61718393Y-58043931D01*
X61735134Y-58012610D01*
X61757661Y-57985161D01*
X61785110Y-57962634D01*
X61816431Y-57945893D01*
X61850409Y-57935585D01*
X61891890Y-57931500D01*
X62568110Y-57931500D01*
X62609591Y-57935585D01*
X62609591Y-57935585D01*
G37*
G36*
X65149591Y-57935585D02*
G01*
X65183569Y-57945893D01*
X65214890Y-57962634D01*
X65242339Y-57985161D01*
X65264866Y-58012610D01*
X65281607Y-58043931D01*
X65291915Y-58077909D01*
X65296000Y-58119390D01*
X65296000Y-58720610D01*
X65291915Y-58762091D01*
X65281607Y-58796069D01*
X65264866Y-58827390D01*
X65242339Y-58854839D01*
X65214890Y-58877366D01*
X65183569Y-58894107D01*
X65149591Y-58904415D01*
X65108110Y-58908500D01*
X64431890Y-58908500D01*
X64390409Y-58904415D01*
X64356431Y-58894107D01*
X64325110Y-58877366D01*
X64297661Y-58854839D01*
X64275134Y-58827390D01*
X64258393Y-58796069D01*
X64248085Y-58762091D01*
X64244000Y-58720610D01*
X64244000Y-58119390D01*
X64248085Y-58077909D01*
X64258393Y-58043931D01*
X64275134Y-58012610D01*
X64297661Y-57985161D01*
X64325110Y-57962634D01*
X64356431Y-57945893D01*
X64390409Y-57935585D01*
X64431890Y-57931500D01*
X65108110Y-57931500D01*
X65149591Y-57935585D01*
X65149591Y-57935585D01*
G37*
G36*
X80389591Y-57453085D02*
G01*
X80423569Y-57463393D01*
X80454890Y-57480134D01*
X80482339Y-57502661D01*
X80504866Y-57530110D01*
X80521607Y-57561431D01*
X80531915Y-57595409D01*
X80536000Y-57636890D01*
X80536000Y-58238110D01*
X80531915Y-58279591D01*
X80521607Y-58313569D01*
X80504866Y-58344890D01*
X80482339Y-58372339D01*
X80454890Y-58394866D01*
X80423569Y-58411607D01*
X80389591Y-58421915D01*
X80348110Y-58426000D01*
X79671890Y-58426000D01*
X79630409Y-58421915D01*
X79596431Y-58411607D01*
X79565110Y-58394866D01*
X79537661Y-58372339D01*
X79515134Y-58344890D01*
X79498393Y-58313569D01*
X79488085Y-58279591D01*
X79484000Y-58238110D01*
X79484000Y-57636890D01*
X79488085Y-57595409D01*
X79498393Y-57561431D01*
X79515134Y-57530110D01*
X79537661Y-57502661D01*
X79565110Y-57480134D01*
X79596431Y-57463393D01*
X79630409Y-57453085D01*
X79671890Y-57449000D01*
X80348110Y-57449000D01*
X80389591Y-57453085D01*
X80389591Y-57453085D01*
G37*
G36*
X70229591Y-57453085D02*
G01*
X70263569Y-57463393D01*
X70294890Y-57480134D01*
X70322339Y-57502661D01*
X70344866Y-57530110D01*
X70361607Y-57561431D01*
X70371915Y-57595409D01*
X70376000Y-57636890D01*
X70376000Y-58238110D01*
X70371915Y-58279591D01*
X70361607Y-58313569D01*
X70344866Y-58344890D01*
X70322339Y-58372339D01*
X70294890Y-58394866D01*
X70263569Y-58411607D01*
X70229591Y-58421915D01*
X70188110Y-58426000D01*
X69511890Y-58426000D01*
X69470409Y-58421915D01*
X69436431Y-58411607D01*
X69405110Y-58394866D01*
X69377661Y-58372339D01*
X69355134Y-58344890D01*
X69338393Y-58313569D01*
X69328085Y-58279591D01*
X69324000Y-58238110D01*
X69324000Y-57636890D01*
X69328085Y-57595409D01*
X69338393Y-57561431D01*
X69355134Y-57530110D01*
X69377661Y-57502661D01*
X69405110Y-57480134D01*
X69436431Y-57463393D01*
X69470409Y-57453085D01*
X69511890Y-57449000D01*
X70188110Y-57449000D01*
X70229591Y-57453085D01*
X70229591Y-57453085D01*
G37*
G36*
X85469591Y-57453085D02*
G01*
X85503569Y-57463393D01*
X85534890Y-57480134D01*
X85562339Y-57502661D01*
X85584866Y-57530110D01*
X85601607Y-57561431D01*
X85611915Y-57595409D01*
X85616000Y-57636890D01*
X85616000Y-58238110D01*
X85611915Y-58279591D01*
X85601607Y-58313569D01*
X85584866Y-58344890D01*
X85562339Y-58372339D01*
X85534890Y-58394866D01*
X85503569Y-58411607D01*
X85469591Y-58421915D01*
X85428110Y-58426000D01*
X84751890Y-58426000D01*
X84710409Y-58421915D01*
X84676431Y-58411607D01*
X84645110Y-58394866D01*
X84617661Y-58372339D01*
X84595134Y-58344890D01*
X84578393Y-58313569D01*
X84568085Y-58279591D01*
X84564000Y-58238110D01*
X84564000Y-57636890D01*
X84568085Y-57595409D01*
X84578393Y-57561431D01*
X84595134Y-57530110D01*
X84617661Y-57502661D01*
X84645110Y-57480134D01*
X84676431Y-57463393D01*
X84710409Y-57453085D01*
X84751890Y-57449000D01*
X85428110Y-57449000D01*
X85469591Y-57453085D01*
X85469591Y-57453085D01*
G37*
G36*
X67426000Y-58151000D02*
G01*
X66044000Y-58151000D01*
X66044000Y-57299000D01*
X66919001Y-57299000D01*
X66943387Y-57296598D01*
X66966836Y-57289485D01*
X66988447Y-57277934D01*
X67007389Y-57262389D01*
X67022934Y-57243447D01*
X67034485Y-57221836D01*
X67041598Y-57198387D01*
X67044000Y-57174001D01*
X67044000Y-57125999D01*
X67041598Y-57101613D01*
X67034485Y-57078164D01*
X67022934Y-57056553D01*
X67007389Y-57037611D01*
X66988447Y-57022066D01*
X66966836Y-57010515D01*
X66943387Y-57003402D01*
X66919001Y-57001000D01*
X66044000Y-57001000D01*
X66044000Y-56149000D01*
X67426000Y-56149000D01*
X67426000Y-58151000D01*
X67426000Y-58151000D01*
G37*
G36*
X83876000Y-58051000D02*
G01*
X83124000Y-58051000D01*
X83124000Y-56249000D01*
X83876000Y-56249000D01*
X83876000Y-58051000D01*
X83876000Y-58051000D01*
G37*
G36*
X81976000Y-58051000D02*
G01*
X81224000Y-58051000D01*
X81224000Y-56249000D01*
X81976000Y-56249000D01*
X81976000Y-58051000D01*
X81976000Y-58051000D01*
G37*
G36*
X65149591Y-56360585D02*
G01*
X65183569Y-56370893D01*
X65214890Y-56387634D01*
X65242339Y-56410161D01*
X65264866Y-56437610D01*
X65281607Y-56468931D01*
X65291915Y-56502909D01*
X65296000Y-56544390D01*
X65296000Y-57145610D01*
X65291915Y-57187091D01*
X65281607Y-57221069D01*
X65264866Y-57252390D01*
X65242339Y-57279839D01*
X65214890Y-57302366D01*
X65183569Y-57319107D01*
X65149591Y-57329415D01*
X65108110Y-57333500D01*
X64431890Y-57333500D01*
X64390409Y-57329415D01*
X64356431Y-57319107D01*
X64325110Y-57302366D01*
X64297661Y-57279839D01*
X64275134Y-57252390D01*
X64258393Y-57221069D01*
X64248085Y-57187091D01*
X64244000Y-57145610D01*
X64244000Y-56544390D01*
X64248085Y-56502909D01*
X64258393Y-56468931D01*
X64275134Y-56437610D01*
X64297661Y-56410161D01*
X64325110Y-56387634D01*
X64356431Y-56370893D01*
X64390409Y-56360585D01*
X64431890Y-56356500D01*
X65108110Y-56356500D01*
X65149591Y-56360585D01*
X65149591Y-56360585D01*
G37*
G36*
X62609591Y-56360585D02*
G01*
X62643569Y-56370893D01*
X62674890Y-56387634D01*
X62702339Y-56410161D01*
X62724866Y-56437610D01*
X62741607Y-56468931D01*
X62751915Y-56502909D01*
X62756000Y-56544390D01*
X62756000Y-57145610D01*
X62751915Y-57187091D01*
X62741607Y-57221069D01*
X62724866Y-57252390D01*
X62702339Y-57279839D01*
X62674890Y-57302366D01*
X62643569Y-57319107D01*
X62609591Y-57329415D01*
X62568110Y-57333500D01*
X61891890Y-57333500D01*
X61850409Y-57329415D01*
X61816431Y-57319107D01*
X61785110Y-57302366D01*
X61757661Y-57279839D01*
X61735134Y-57252390D01*
X61718393Y-57221069D01*
X61708085Y-57187091D01*
X61704000Y-57145610D01*
X61704000Y-56544390D01*
X61708085Y-56502909D01*
X61718393Y-56468931D01*
X61735134Y-56437610D01*
X61757661Y-56410161D01*
X61785110Y-56387634D01*
X61816431Y-56370893D01*
X61850409Y-56360585D01*
X61891890Y-56356500D01*
X62568110Y-56356500D01*
X62609591Y-56360585D01*
X62609591Y-56360585D01*
G37*
G36*
X77849591Y-56183085D02*
G01*
X77883569Y-56193393D01*
X77914890Y-56210134D01*
X77942339Y-56232661D01*
X77964866Y-56260110D01*
X77981607Y-56291431D01*
X77991915Y-56325409D01*
X77996000Y-56366890D01*
X77996000Y-56968110D01*
X77991915Y-57009591D01*
X77981607Y-57043569D01*
X77964866Y-57074890D01*
X77942339Y-57102339D01*
X77914890Y-57124866D01*
X77883569Y-57141607D01*
X77849591Y-57151915D01*
X77808110Y-57156000D01*
X77131890Y-57156000D01*
X77090409Y-57151915D01*
X77056431Y-57141607D01*
X77025110Y-57124866D01*
X76997661Y-57102339D01*
X76975134Y-57074890D01*
X76958393Y-57043569D01*
X76948085Y-57009591D01*
X76944000Y-56968110D01*
X76944000Y-56366890D01*
X76948085Y-56325409D01*
X76958393Y-56291431D01*
X76975134Y-56260110D01*
X76997661Y-56232661D01*
X77025110Y-56210134D01*
X77056431Y-56193393D01*
X77090409Y-56183085D01*
X77131890Y-56179000D01*
X77808110Y-56179000D01*
X77849591Y-56183085D01*
X77849591Y-56183085D01*
G37*
G36*
X85469591Y-55878085D02*
G01*
X85503569Y-55888393D01*
X85534890Y-55905134D01*
X85562339Y-55927661D01*
X85584866Y-55955110D01*
X85601607Y-55986431D01*
X85611915Y-56020409D01*
X85616000Y-56061890D01*
X85616000Y-56663110D01*
X85611915Y-56704591D01*
X85601607Y-56738569D01*
X85584866Y-56769890D01*
X85562339Y-56797339D01*
X85534890Y-56819866D01*
X85503569Y-56836607D01*
X85469591Y-56846915D01*
X85428110Y-56851000D01*
X84751890Y-56851000D01*
X84710409Y-56846915D01*
X84676431Y-56836607D01*
X84645110Y-56819866D01*
X84617661Y-56797339D01*
X84595134Y-56769890D01*
X84578393Y-56738569D01*
X84568085Y-56704591D01*
X84564000Y-56663110D01*
X84564000Y-56061890D01*
X84568085Y-56020409D01*
X84578393Y-55986431D01*
X84595134Y-55955110D01*
X84617661Y-55927661D01*
X84645110Y-55905134D01*
X84676431Y-55888393D01*
X84710409Y-55878085D01*
X84751890Y-55874000D01*
X85428110Y-55874000D01*
X85469591Y-55878085D01*
X85469591Y-55878085D01*
G37*
G36*
X80389591Y-55878085D02*
G01*
X80423569Y-55888393D01*
X80454890Y-55905134D01*
X80482339Y-55927661D01*
X80504866Y-55955110D01*
X80521607Y-55986431D01*
X80531915Y-56020409D01*
X80536000Y-56061890D01*
X80536000Y-56663110D01*
X80531915Y-56704591D01*
X80521607Y-56738569D01*
X80504866Y-56769890D01*
X80482339Y-56797339D01*
X80454890Y-56819866D01*
X80423569Y-56836607D01*
X80389591Y-56846915D01*
X80348110Y-56851000D01*
X79671890Y-56851000D01*
X79630409Y-56846915D01*
X79596431Y-56836607D01*
X79565110Y-56819866D01*
X79537661Y-56797339D01*
X79515134Y-56769890D01*
X79498393Y-56738569D01*
X79488085Y-56704591D01*
X79484000Y-56663110D01*
X79484000Y-56061890D01*
X79488085Y-56020409D01*
X79498393Y-55986431D01*
X79515134Y-55955110D01*
X79537661Y-55927661D01*
X79565110Y-55905134D01*
X79596431Y-55888393D01*
X79630409Y-55878085D01*
X79671890Y-55874000D01*
X80348110Y-55874000D01*
X80389591Y-55878085D01*
X80389591Y-55878085D01*
G37*
G36*
X70229591Y-55878085D02*
G01*
X70263569Y-55888393D01*
X70294890Y-55905134D01*
X70322339Y-55927661D01*
X70344866Y-55955110D01*
X70361607Y-55986431D01*
X70371915Y-56020409D01*
X70376000Y-56061890D01*
X70376000Y-56663110D01*
X70371915Y-56704591D01*
X70361607Y-56738569D01*
X70344866Y-56769890D01*
X70322339Y-56797339D01*
X70294890Y-56819866D01*
X70263569Y-56836607D01*
X70229591Y-56846915D01*
X70188110Y-56851000D01*
X69511890Y-56851000D01*
X69470409Y-56846915D01*
X69436431Y-56836607D01*
X69405110Y-56819866D01*
X69377661Y-56797339D01*
X69355134Y-56769890D01*
X69338393Y-56738569D01*
X69328085Y-56704591D01*
X69324000Y-56663110D01*
X69324000Y-56061890D01*
X69328085Y-56020409D01*
X69338393Y-55986431D01*
X69355134Y-55955110D01*
X69377661Y-55927661D01*
X69405110Y-55905134D01*
X69436431Y-55888393D01*
X69470409Y-55878085D01*
X69511890Y-55874000D01*
X70188110Y-55874000D01*
X70229591Y-55878085D01*
X70229591Y-55878085D01*
G37*
G36*
X90803591Y-55675085D02*
G01*
X90837569Y-55685393D01*
X90868890Y-55702134D01*
X90896339Y-55724661D01*
X90918866Y-55752110D01*
X90935607Y-55783431D01*
X90945915Y-55817409D01*
X90950000Y-55858890D01*
X90950000Y-56460110D01*
X90945915Y-56501591D01*
X90935607Y-56535569D01*
X90918866Y-56566890D01*
X90896339Y-56594339D01*
X90868890Y-56616866D01*
X90837569Y-56633607D01*
X90803591Y-56643915D01*
X90762110Y-56648000D01*
X90085890Y-56648000D01*
X90044409Y-56643915D01*
X90010431Y-56633607D01*
X89979110Y-56616866D01*
X89951661Y-56594339D01*
X89929134Y-56566890D01*
X89912393Y-56535569D01*
X89902085Y-56501591D01*
X89898000Y-56460110D01*
X89898000Y-55858890D01*
X89902085Y-55817409D01*
X89912393Y-55783431D01*
X89929134Y-55752110D01*
X89951661Y-55724661D01*
X89979110Y-55702134D01*
X90010431Y-55685393D01*
X90044409Y-55675085D01*
X90085890Y-55671000D01*
X90762110Y-55671000D01*
X90803591Y-55675085D01*
X90803591Y-55675085D01*
G37*
G36*
X88771591Y-55675085D02*
G01*
X88805569Y-55685393D01*
X88836890Y-55702134D01*
X88864339Y-55724661D01*
X88886866Y-55752110D01*
X88903607Y-55783431D01*
X88913915Y-55817409D01*
X88918000Y-55858890D01*
X88918000Y-56460110D01*
X88913915Y-56501591D01*
X88903607Y-56535569D01*
X88886866Y-56566890D01*
X88864339Y-56594339D01*
X88836890Y-56616866D01*
X88805569Y-56633607D01*
X88771591Y-56643915D01*
X88730110Y-56648000D01*
X88053890Y-56648000D01*
X88012409Y-56643915D01*
X87978431Y-56633607D01*
X87947110Y-56616866D01*
X87919661Y-56594339D01*
X87897134Y-56566890D01*
X87880393Y-56535569D01*
X87870085Y-56501591D01*
X87866000Y-56460110D01*
X87866000Y-55858890D01*
X87870085Y-55817409D01*
X87880393Y-55783431D01*
X87897134Y-55752110D01*
X87919661Y-55724661D01*
X87947110Y-55702134D01*
X87978431Y-55685393D01*
X88012409Y-55675085D01*
X88053890Y-55671000D01*
X88730110Y-55671000D01*
X88771591Y-55675085D01*
X88771591Y-55675085D01*
G37*
G36*
X77849591Y-54608085D02*
G01*
X77883569Y-54618393D01*
X77914890Y-54635134D01*
X77942339Y-54657661D01*
X77964866Y-54685110D01*
X77981607Y-54716431D01*
X77991915Y-54750409D01*
X77996000Y-54791890D01*
X77996000Y-55393110D01*
X77991915Y-55434591D01*
X77981607Y-55468569D01*
X77964866Y-55499890D01*
X77942339Y-55527339D01*
X77914890Y-55549866D01*
X77883569Y-55566607D01*
X77849591Y-55576915D01*
X77808110Y-55581000D01*
X77131890Y-55581000D01*
X77090409Y-55576915D01*
X77056431Y-55566607D01*
X77025110Y-55549866D01*
X76997661Y-55527339D01*
X76975134Y-55499890D01*
X76958393Y-55468569D01*
X76948085Y-55434591D01*
X76944000Y-55393110D01*
X76944000Y-54791890D01*
X76948085Y-54750409D01*
X76958393Y-54716431D01*
X76975134Y-54685110D01*
X76997661Y-54657661D01*
X77025110Y-54635134D01*
X77056431Y-54618393D01*
X77090409Y-54608085D01*
X77131890Y-54604000D01*
X77808110Y-54604000D01*
X77849591Y-54608085D01*
X77849591Y-54608085D01*
G37*
G36*
X64629591Y-54088085D02*
G01*
X64663569Y-54098393D01*
X64694890Y-54115134D01*
X64722339Y-54137661D01*
X64744866Y-54165110D01*
X64761607Y-54196431D01*
X64771915Y-54230409D01*
X64776000Y-54271890D01*
X64776000Y-54948110D01*
X64771915Y-54989591D01*
X64761607Y-55023569D01*
X64744866Y-55054890D01*
X64722339Y-55082339D01*
X64694890Y-55104866D01*
X64663569Y-55121607D01*
X64629591Y-55131915D01*
X64588110Y-55136000D01*
X63986890Y-55136000D01*
X63945409Y-55131915D01*
X63911431Y-55121607D01*
X63880110Y-55104866D01*
X63852661Y-55082339D01*
X63830134Y-55054890D01*
X63813393Y-55023569D01*
X63803085Y-54989591D01*
X63799000Y-54948110D01*
X63799000Y-54271890D01*
X63803085Y-54230409D01*
X63813393Y-54196431D01*
X63830134Y-54165110D01*
X63852661Y-54137661D01*
X63880110Y-54115134D01*
X63911431Y-54098393D01*
X63945409Y-54088085D01*
X63986890Y-54084000D01*
X64588110Y-54084000D01*
X64629591Y-54088085D01*
X64629591Y-54088085D01*
G37*
G36*
X63054591Y-54088085D02*
G01*
X63088569Y-54098393D01*
X63119890Y-54115134D01*
X63147339Y-54137661D01*
X63169866Y-54165110D01*
X63186607Y-54196431D01*
X63196915Y-54230409D01*
X63201000Y-54271890D01*
X63201000Y-54948110D01*
X63196915Y-54989591D01*
X63186607Y-55023569D01*
X63169866Y-55054890D01*
X63147339Y-55082339D01*
X63119890Y-55104866D01*
X63088569Y-55121607D01*
X63054591Y-55131915D01*
X63013110Y-55136000D01*
X62411890Y-55136000D01*
X62370409Y-55131915D01*
X62336431Y-55121607D01*
X62305110Y-55104866D01*
X62277661Y-55082339D01*
X62255134Y-55054890D01*
X62238393Y-55023569D01*
X62228085Y-54989591D01*
X62224000Y-54948110D01*
X62224000Y-54271890D01*
X62228085Y-54230409D01*
X62238393Y-54196431D01*
X62255134Y-54165110D01*
X62277661Y-54137661D01*
X62305110Y-54115134D01*
X62336431Y-54098393D01*
X62370409Y-54088085D01*
X62411890Y-54084000D01*
X63013110Y-54084000D01*
X63054591Y-54088085D01*
X63054591Y-54088085D01*
G37*
G36*
X90803591Y-54100085D02*
G01*
X90837569Y-54110393D01*
X90868890Y-54127134D01*
X90896339Y-54149661D01*
X90918866Y-54177110D01*
X90935607Y-54208431D01*
X90945915Y-54242409D01*
X90950000Y-54283890D01*
X90950000Y-54885110D01*
X90945915Y-54926591D01*
X90935607Y-54960569D01*
X90918866Y-54991890D01*
X90896339Y-55019339D01*
X90868890Y-55041866D01*
X90837569Y-55058607D01*
X90803591Y-55068915D01*
X90762110Y-55073000D01*
X90085890Y-55073000D01*
X90044409Y-55068915D01*
X90010431Y-55058607D01*
X89979110Y-55041866D01*
X89951661Y-55019339D01*
X89929134Y-54991890D01*
X89912393Y-54960569D01*
X89902085Y-54926591D01*
X89898000Y-54885110D01*
X89898000Y-54283890D01*
X89902085Y-54242409D01*
X89912393Y-54208431D01*
X89929134Y-54177110D01*
X89951661Y-54149661D01*
X89979110Y-54127134D01*
X90010431Y-54110393D01*
X90044409Y-54100085D01*
X90085890Y-54096000D01*
X90762110Y-54096000D01*
X90803591Y-54100085D01*
X90803591Y-54100085D01*
G37*
G36*
X88771591Y-54100085D02*
G01*
X88805569Y-54110393D01*
X88836890Y-54127134D01*
X88864339Y-54149661D01*
X88886866Y-54177110D01*
X88903607Y-54208431D01*
X88913915Y-54242409D01*
X88918000Y-54283890D01*
X88918000Y-54885110D01*
X88913915Y-54926591D01*
X88903607Y-54960569D01*
X88886866Y-54991890D01*
X88864339Y-55019339D01*
X88836890Y-55041866D01*
X88805569Y-55058607D01*
X88771591Y-55068915D01*
X88730110Y-55073000D01*
X88053890Y-55073000D01*
X88012409Y-55068915D01*
X87978431Y-55058607D01*
X87947110Y-55041866D01*
X87919661Y-55019339D01*
X87897134Y-54991890D01*
X87880393Y-54960569D01*
X87870085Y-54926591D01*
X87866000Y-54885110D01*
X87866000Y-54283890D01*
X87870085Y-54242409D01*
X87880393Y-54208431D01*
X87897134Y-54177110D01*
X87919661Y-54149661D01*
X87947110Y-54127134D01*
X87978431Y-54110393D01*
X88012409Y-54100085D01*
X88053890Y-54096000D01*
X88730110Y-54096000D01*
X88771591Y-54100085D01*
X88771591Y-54100085D01*
G37*
G36*
X68086000Y-54691000D02*
G01*
X66534000Y-54691000D01*
X66534000Y-53689000D01*
X68086000Y-53689000D01*
X68086000Y-54691000D01*
X68086000Y-54691000D01*
G37*
G36*
X71341000Y-54241000D02*
G01*
X69939000Y-54241000D01*
X69939000Y-52439000D01*
X71341000Y-52439000D01*
X71341000Y-54241000D01*
X71341000Y-54241000D01*
G37*
G36*
X74841000Y-54241000D02*
G01*
X73439000Y-54241000D01*
X73439000Y-52439000D01*
X74841000Y-52439000D01*
X74841000Y-54241000D01*
X74841000Y-54241000D01*
G37*
G36*
X84806564Y-51989389D02*
G01*
X84997833Y-52068615D01*
X84997835Y-52068616D01*
X85169973Y-52183635D01*
X85316365Y-52330027D01*
X85417082Y-52480760D01*
X85431385Y-52502167D01*
X85510611Y-52693436D01*
X85551000Y-52896484D01*
X85551000Y-53103516D01*
X85510611Y-53306564D01*
X85478950Y-53383000D01*
X85431384Y-53497835D01*
X85316365Y-53669973D01*
X85169973Y-53816365D01*
X84997835Y-53931384D01*
X84997834Y-53931385D01*
X84997833Y-53931385D01*
X84806564Y-54010611D01*
X84603516Y-54051000D01*
X84396484Y-54051000D01*
X84193436Y-54010611D01*
X84002167Y-53931385D01*
X84002166Y-53931385D01*
X84002165Y-53931384D01*
X83830027Y-53816365D01*
X83683635Y-53669973D01*
X83568616Y-53497835D01*
X83521050Y-53383000D01*
X83489389Y-53306564D01*
X83449000Y-53103516D01*
X83449000Y-52896484D01*
X83489389Y-52693436D01*
X83568615Y-52502167D01*
X83582919Y-52480760D01*
X83683635Y-52330027D01*
X83830027Y-52183635D01*
X84002165Y-52068616D01*
X84002167Y-52068615D01*
X84193436Y-51989389D01*
X84396484Y-51949000D01*
X84603516Y-51949000D01*
X84806564Y-51989389D01*
X84806564Y-51989389D01*
G37*
G36*
X80806564Y-51989389D02*
G01*
X80997833Y-52068615D01*
X80997835Y-52068616D01*
X81169973Y-52183635D01*
X81316365Y-52330027D01*
X81417082Y-52480760D01*
X81431385Y-52502167D01*
X81510611Y-52693436D01*
X81551000Y-52896484D01*
X81551000Y-53103516D01*
X81510611Y-53306564D01*
X81478950Y-53383000D01*
X81431384Y-53497835D01*
X81316365Y-53669973D01*
X81169973Y-53816365D01*
X80997835Y-53931384D01*
X80997834Y-53931385D01*
X80997833Y-53931385D01*
X80806564Y-54010611D01*
X80603516Y-54051000D01*
X80396484Y-54051000D01*
X80193436Y-54010611D01*
X80002167Y-53931385D01*
X80002166Y-53931385D01*
X80002165Y-53931384D01*
X79830027Y-53816365D01*
X79683635Y-53669973D01*
X79568616Y-53497835D01*
X79521050Y-53383000D01*
X79489389Y-53306564D01*
X79449000Y-53103516D01*
X79449000Y-52896484D01*
X79489389Y-52693436D01*
X79568615Y-52502167D01*
X79582919Y-52480760D01*
X79683635Y-52330027D01*
X79830027Y-52183635D01*
X80002165Y-52068616D01*
X80002167Y-52068615D01*
X80193436Y-51989389D01*
X80396484Y-51949000D01*
X80603516Y-51949000D01*
X80806564Y-51989389D01*
X80806564Y-51989389D01*
G37*
G36*
X90076721Y-52302174D02*
G01*
X90176995Y-52343709D01*
X90176996Y-52343710D01*
X90267242Y-52404010D01*
X90343990Y-52480758D01*
X90358295Y-52502167D01*
X90404291Y-52571005D01*
X90445826Y-52671279D01*
X90467000Y-52777730D01*
X90467000Y-52886270D01*
X90445826Y-52992721D01*
X90404291Y-53092995D01*
X90404290Y-53092996D01*
X90343990Y-53183242D01*
X90267242Y-53259990D01*
X90221812Y-53290345D01*
X90176995Y-53320291D01*
X90076721Y-53361826D01*
X89970270Y-53383000D01*
X89861730Y-53383000D01*
X89755279Y-53361826D01*
X89655005Y-53320291D01*
X89610188Y-53290345D01*
X89564758Y-53259990D01*
X89488010Y-53183242D01*
X89427710Y-53092996D01*
X89427709Y-53092995D01*
X89386174Y-52992721D01*
X89365000Y-52886270D01*
X89365000Y-52777730D01*
X89386174Y-52671279D01*
X89427709Y-52571005D01*
X89473705Y-52502167D01*
X89488010Y-52480758D01*
X89564758Y-52404010D01*
X89655004Y-52343710D01*
X89655005Y-52343709D01*
X89755279Y-52302174D01*
X89861730Y-52281000D01*
X89970270Y-52281000D01*
X90076721Y-52302174D01*
X90076721Y-52302174D01*
G37*
G36*
X68086000Y-52991000D02*
G01*
X66534000Y-52991000D01*
X66534000Y-51989000D01*
X68086000Y-51989000D01*
X68086000Y-52991000D01*
X68086000Y-52991000D01*
G37*
G36*
X78806564Y-50489389D02*
G01*
X78997833Y-50568615D01*
X78997835Y-50568616D01*
X79169973Y-50683635D01*
X79316365Y-50830027D01*
X79431385Y-51002167D01*
X79510611Y-51193436D01*
X79551000Y-51396484D01*
X79551000Y-51603516D01*
X79510611Y-51806564D01*
X79434882Y-51989390D01*
X79431384Y-51997835D01*
X79316365Y-52169973D01*
X79169973Y-52316365D01*
X78997835Y-52431384D01*
X78997834Y-52431385D01*
X78997833Y-52431385D01*
X78806564Y-52510611D01*
X78603516Y-52551000D01*
X78396484Y-52551000D01*
X78193436Y-52510611D01*
X78002167Y-52431385D01*
X78002166Y-52431385D01*
X78002165Y-52431384D01*
X77830027Y-52316365D01*
X77683635Y-52169973D01*
X77568616Y-51997835D01*
X77565118Y-51989390D01*
X77489389Y-51806564D01*
X77449000Y-51603516D01*
X77449000Y-51396484D01*
X77489389Y-51193436D01*
X77568615Y-51002167D01*
X77683635Y-50830027D01*
X77830027Y-50683635D01*
X78002165Y-50568616D01*
X78002167Y-50568615D01*
X78193436Y-50489389D01*
X78396484Y-50449000D01*
X78603516Y-50449000D01*
X78806564Y-50489389D01*
X78806564Y-50489389D01*
G37*
G36*
X82806564Y-50489389D02*
G01*
X82997833Y-50568615D01*
X82997835Y-50568616D01*
X83169973Y-50683635D01*
X83316365Y-50830027D01*
X83431385Y-51002167D01*
X83510611Y-51193436D01*
X83551000Y-51396484D01*
X83551000Y-51603516D01*
X83510611Y-51806564D01*
X83434882Y-51989390D01*
X83431384Y-51997835D01*
X83316365Y-52169973D01*
X83169973Y-52316365D01*
X82997835Y-52431384D01*
X82997834Y-52431385D01*
X82997833Y-52431385D01*
X82806564Y-52510611D01*
X82603516Y-52551000D01*
X82396484Y-52551000D01*
X82193436Y-52510611D01*
X82002167Y-52431385D01*
X82002166Y-52431385D01*
X82002165Y-52431384D01*
X81830027Y-52316365D01*
X81683635Y-52169973D01*
X81568616Y-51997835D01*
X81565118Y-51989390D01*
X81489389Y-51806564D01*
X81449000Y-51603516D01*
X81449000Y-51396484D01*
X81489389Y-51193436D01*
X81568615Y-51002167D01*
X81683635Y-50830027D01*
X81830027Y-50683635D01*
X82002165Y-50568616D01*
X82002167Y-50568615D01*
X82193436Y-50489389D01*
X82396484Y-50449000D01*
X82603516Y-50449000D01*
X82806564Y-50489389D01*
X82806564Y-50489389D01*
G37*
M02*
