G04 #@! TF.GenerationSoftware,KiCad,Pcbnew,5.1.2-f72e74a~84~ubuntu18.04.1*
G04 #@! TF.CreationDate,2019-05-19T10:24:28+02:00*
G04 #@! TF.ProjectId,lowpower,6c6f7770-6f77-4657-922e-6b696361645f,rev?*
G04 #@! TF.SameCoordinates,Original*
G04 #@! TF.FileFunction,Paste,Top*
G04 #@! TF.FilePolarity,Positive*
%FSLAX46Y46*%
G04 Gerber Fmt 4.6, Leading zero omitted, Abs format (unit mm)*
G04 Created by KiCad (PCBNEW 5.1.2-f72e74a~84~ubuntu18.04.1) date 2019-05-19 10:24:28*
%MOMM*%
%LPD*%
G04 APERTURE LIST*
%ADD10C,0.100000*%
%ADD11C,0.875000*%
%ADD12R,1.300000X1.700000*%
%ADD13C,1.200000*%
%ADD14C,0.600000*%
%ADD15R,1.450000X0.900000*%
%ADD16R,1.200000X2.500000*%
%ADD17R,0.650000X0.400000*%
%ADD18R,1.550000X1.300000*%
%ADD19R,2.000000X0.500000*%
%ADD20R,1.700000X2.000000*%
%ADD21C,0.143934*%
%ADD22C,0.250000*%
%ADD23R,0.280000X0.850000*%
%ADD24R,0.280000X0.750000*%
%ADD25R,2.000000X3.800000*%
%ADD26R,2.000000X1.500000*%
G04 APERTURE END LIST*
D10*
G36*
X81557691Y-63343053D02*
G01*
X81578926Y-63346203D01*
X81599750Y-63351419D01*
X81619962Y-63358651D01*
X81639368Y-63367830D01*
X81657781Y-63378866D01*
X81675024Y-63391654D01*
X81690930Y-63406070D01*
X81705346Y-63421976D01*
X81718134Y-63439219D01*
X81729170Y-63457632D01*
X81738349Y-63477038D01*
X81745581Y-63497250D01*
X81750797Y-63518074D01*
X81753947Y-63539309D01*
X81755000Y-63560750D01*
X81755000Y-63998250D01*
X81753947Y-64019691D01*
X81750797Y-64040926D01*
X81745581Y-64061750D01*
X81738349Y-64081962D01*
X81729170Y-64101368D01*
X81718134Y-64119781D01*
X81705346Y-64137024D01*
X81690930Y-64152930D01*
X81675024Y-64167346D01*
X81657781Y-64180134D01*
X81639368Y-64191170D01*
X81619962Y-64200349D01*
X81599750Y-64207581D01*
X81578926Y-64212797D01*
X81557691Y-64215947D01*
X81536250Y-64217000D01*
X81023750Y-64217000D01*
X81002309Y-64215947D01*
X80981074Y-64212797D01*
X80960250Y-64207581D01*
X80940038Y-64200349D01*
X80920632Y-64191170D01*
X80902219Y-64180134D01*
X80884976Y-64167346D01*
X80869070Y-64152930D01*
X80854654Y-64137024D01*
X80841866Y-64119781D01*
X80830830Y-64101368D01*
X80821651Y-64081962D01*
X80814419Y-64061750D01*
X80809203Y-64040926D01*
X80806053Y-64019691D01*
X80805000Y-63998250D01*
X80805000Y-63560750D01*
X80806053Y-63539309D01*
X80809203Y-63518074D01*
X80814419Y-63497250D01*
X80821651Y-63477038D01*
X80830830Y-63457632D01*
X80841866Y-63439219D01*
X80854654Y-63421976D01*
X80869070Y-63406070D01*
X80884976Y-63391654D01*
X80902219Y-63378866D01*
X80920632Y-63367830D01*
X80940038Y-63358651D01*
X80960250Y-63351419D01*
X80981074Y-63346203D01*
X81002309Y-63343053D01*
X81023750Y-63342000D01*
X81536250Y-63342000D01*
X81557691Y-63343053D01*
X81557691Y-63343053D01*
G37*
D11*
X81280000Y-63779500D03*
D10*
G36*
X81557691Y-61768053D02*
G01*
X81578926Y-61771203D01*
X81599750Y-61776419D01*
X81619962Y-61783651D01*
X81639368Y-61792830D01*
X81657781Y-61803866D01*
X81675024Y-61816654D01*
X81690930Y-61831070D01*
X81705346Y-61846976D01*
X81718134Y-61864219D01*
X81729170Y-61882632D01*
X81738349Y-61902038D01*
X81745581Y-61922250D01*
X81750797Y-61943074D01*
X81753947Y-61964309D01*
X81755000Y-61985750D01*
X81755000Y-62423250D01*
X81753947Y-62444691D01*
X81750797Y-62465926D01*
X81745581Y-62486750D01*
X81738349Y-62506962D01*
X81729170Y-62526368D01*
X81718134Y-62544781D01*
X81705346Y-62562024D01*
X81690930Y-62577930D01*
X81675024Y-62592346D01*
X81657781Y-62605134D01*
X81639368Y-62616170D01*
X81619962Y-62625349D01*
X81599750Y-62632581D01*
X81578926Y-62637797D01*
X81557691Y-62640947D01*
X81536250Y-62642000D01*
X81023750Y-62642000D01*
X81002309Y-62640947D01*
X80981074Y-62637797D01*
X80960250Y-62632581D01*
X80940038Y-62625349D01*
X80920632Y-62616170D01*
X80902219Y-62605134D01*
X80884976Y-62592346D01*
X80869070Y-62577930D01*
X80854654Y-62562024D01*
X80841866Y-62544781D01*
X80830830Y-62526368D01*
X80821651Y-62506962D01*
X80814419Y-62486750D01*
X80809203Y-62465926D01*
X80806053Y-62444691D01*
X80805000Y-62423250D01*
X80805000Y-61985750D01*
X80806053Y-61964309D01*
X80809203Y-61943074D01*
X80814419Y-61922250D01*
X80821651Y-61902038D01*
X80830830Y-61882632D01*
X80841866Y-61864219D01*
X80854654Y-61846976D01*
X80869070Y-61831070D01*
X80884976Y-61816654D01*
X80902219Y-61803866D01*
X80920632Y-61792830D01*
X80940038Y-61783651D01*
X80960250Y-61776419D01*
X80981074Y-61771203D01*
X81002309Y-61768053D01*
X81023750Y-61767000D01*
X81536250Y-61767000D01*
X81557691Y-61768053D01*
X81557691Y-61768053D01*
G37*
D11*
X81280000Y-62204500D03*
D10*
G36*
X82065691Y-72664553D02*
G01*
X82086926Y-72667703D01*
X82107750Y-72672919D01*
X82127962Y-72680151D01*
X82147368Y-72689330D01*
X82165781Y-72700366D01*
X82183024Y-72713154D01*
X82198930Y-72727570D01*
X82213346Y-72743476D01*
X82226134Y-72760719D01*
X82237170Y-72779132D01*
X82246349Y-72798538D01*
X82253581Y-72818750D01*
X82258797Y-72839574D01*
X82261947Y-72860809D01*
X82263000Y-72882250D01*
X82263000Y-73319750D01*
X82261947Y-73341191D01*
X82258797Y-73362426D01*
X82253581Y-73383250D01*
X82246349Y-73403462D01*
X82237170Y-73422868D01*
X82226134Y-73441281D01*
X82213346Y-73458524D01*
X82198930Y-73474430D01*
X82183024Y-73488846D01*
X82165781Y-73501634D01*
X82147368Y-73512670D01*
X82127962Y-73521849D01*
X82107750Y-73529081D01*
X82086926Y-73534297D01*
X82065691Y-73537447D01*
X82044250Y-73538500D01*
X81531750Y-73538500D01*
X81510309Y-73537447D01*
X81489074Y-73534297D01*
X81468250Y-73529081D01*
X81448038Y-73521849D01*
X81428632Y-73512670D01*
X81410219Y-73501634D01*
X81392976Y-73488846D01*
X81377070Y-73474430D01*
X81362654Y-73458524D01*
X81349866Y-73441281D01*
X81338830Y-73422868D01*
X81329651Y-73403462D01*
X81322419Y-73383250D01*
X81317203Y-73362426D01*
X81314053Y-73341191D01*
X81313000Y-73319750D01*
X81313000Y-72882250D01*
X81314053Y-72860809D01*
X81317203Y-72839574D01*
X81322419Y-72818750D01*
X81329651Y-72798538D01*
X81338830Y-72779132D01*
X81349866Y-72760719D01*
X81362654Y-72743476D01*
X81377070Y-72727570D01*
X81392976Y-72713154D01*
X81410219Y-72700366D01*
X81428632Y-72689330D01*
X81448038Y-72680151D01*
X81468250Y-72672919D01*
X81489074Y-72667703D01*
X81510309Y-72664553D01*
X81531750Y-72663500D01*
X82044250Y-72663500D01*
X82065691Y-72664553D01*
X82065691Y-72664553D01*
G37*
D11*
X81788000Y-73101000D03*
D10*
G36*
X82065691Y-74239553D02*
G01*
X82086926Y-74242703D01*
X82107750Y-74247919D01*
X82127962Y-74255151D01*
X82147368Y-74264330D01*
X82165781Y-74275366D01*
X82183024Y-74288154D01*
X82198930Y-74302570D01*
X82213346Y-74318476D01*
X82226134Y-74335719D01*
X82237170Y-74354132D01*
X82246349Y-74373538D01*
X82253581Y-74393750D01*
X82258797Y-74414574D01*
X82261947Y-74435809D01*
X82263000Y-74457250D01*
X82263000Y-74894750D01*
X82261947Y-74916191D01*
X82258797Y-74937426D01*
X82253581Y-74958250D01*
X82246349Y-74978462D01*
X82237170Y-74997868D01*
X82226134Y-75016281D01*
X82213346Y-75033524D01*
X82198930Y-75049430D01*
X82183024Y-75063846D01*
X82165781Y-75076634D01*
X82147368Y-75087670D01*
X82127962Y-75096849D01*
X82107750Y-75104081D01*
X82086926Y-75109297D01*
X82065691Y-75112447D01*
X82044250Y-75113500D01*
X81531750Y-75113500D01*
X81510309Y-75112447D01*
X81489074Y-75109297D01*
X81468250Y-75104081D01*
X81448038Y-75096849D01*
X81428632Y-75087670D01*
X81410219Y-75076634D01*
X81392976Y-75063846D01*
X81377070Y-75049430D01*
X81362654Y-75033524D01*
X81349866Y-75016281D01*
X81338830Y-74997868D01*
X81329651Y-74978462D01*
X81322419Y-74958250D01*
X81317203Y-74937426D01*
X81314053Y-74916191D01*
X81313000Y-74894750D01*
X81313000Y-74457250D01*
X81314053Y-74435809D01*
X81317203Y-74414574D01*
X81322419Y-74393750D01*
X81329651Y-74373538D01*
X81338830Y-74354132D01*
X81349866Y-74335719D01*
X81362654Y-74318476D01*
X81377070Y-74302570D01*
X81392976Y-74288154D01*
X81410219Y-74275366D01*
X81428632Y-74264330D01*
X81448038Y-74255151D01*
X81468250Y-74247919D01*
X81489074Y-74242703D01*
X81510309Y-74239553D01*
X81531750Y-74238500D01*
X82044250Y-74238500D01*
X82065691Y-74239553D01*
X82065691Y-74239553D01*
G37*
D11*
X81788000Y-74676000D03*
D10*
G36*
X70381691Y-87447553D02*
G01*
X70402926Y-87450703D01*
X70423750Y-87455919D01*
X70443962Y-87463151D01*
X70463368Y-87472330D01*
X70481781Y-87483366D01*
X70499024Y-87496154D01*
X70514930Y-87510570D01*
X70529346Y-87526476D01*
X70542134Y-87543719D01*
X70553170Y-87562132D01*
X70562349Y-87581538D01*
X70569581Y-87601750D01*
X70574797Y-87622574D01*
X70577947Y-87643809D01*
X70579000Y-87665250D01*
X70579000Y-88102750D01*
X70577947Y-88124191D01*
X70574797Y-88145426D01*
X70569581Y-88166250D01*
X70562349Y-88186462D01*
X70553170Y-88205868D01*
X70542134Y-88224281D01*
X70529346Y-88241524D01*
X70514930Y-88257430D01*
X70499024Y-88271846D01*
X70481781Y-88284634D01*
X70463368Y-88295670D01*
X70443962Y-88304849D01*
X70423750Y-88312081D01*
X70402926Y-88317297D01*
X70381691Y-88320447D01*
X70360250Y-88321500D01*
X69847750Y-88321500D01*
X69826309Y-88320447D01*
X69805074Y-88317297D01*
X69784250Y-88312081D01*
X69764038Y-88304849D01*
X69744632Y-88295670D01*
X69726219Y-88284634D01*
X69708976Y-88271846D01*
X69693070Y-88257430D01*
X69678654Y-88241524D01*
X69665866Y-88224281D01*
X69654830Y-88205868D01*
X69645651Y-88186462D01*
X69638419Y-88166250D01*
X69633203Y-88145426D01*
X69630053Y-88124191D01*
X69629000Y-88102750D01*
X69629000Y-87665250D01*
X69630053Y-87643809D01*
X69633203Y-87622574D01*
X69638419Y-87601750D01*
X69645651Y-87581538D01*
X69654830Y-87562132D01*
X69665866Y-87543719D01*
X69678654Y-87526476D01*
X69693070Y-87510570D01*
X69708976Y-87496154D01*
X69726219Y-87483366D01*
X69744632Y-87472330D01*
X69764038Y-87463151D01*
X69784250Y-87455919D01*
X69805074Y-87450703D01*
X69826309Y-87447553D01*
X69847750Y-87446500D01*
X70360250Y-87446500D01*
X70381691Y-87447553D01*
X70381691Y-87447553D01*
G37*
D11*
X70104000Y-87884000D03*
D10*
G36*
X70381691Y-89022553D02*
G01*
X70402926Y-89025703D01*
X70423750Y-89030919D01*
X70443962Y-89038151D01*
X70463368Y-89047330D01*
X70481781Y-89058366D01*
X70499024Y-89071154D01*
X70514930Y-89085570D01*
X70529346Y-89101476D01*
X70542134Y-89118719D01*
X70553170Y-89137132D01*
X70562349Y-89156538D01*
X70569581Y-89176750D01*
X70574797Y-89197574D01*
X70577947Y-89218809D01*
X70579000Y-89240250D01*
X70579000Y-89677750D01*
X70577947Y-89699191D01*
X70574797Y-89720426D01*
X70569581Y-89741250D01*
X70562349Y-89761462D01*
X70553170Y-89780868D01*
X70542134Y-89799281D01*
X70529346Y-89816524D01*
X70514930Y-89832430D01*
X70499024Y-89846846D01*
X70481781Y-89859634D01*
X70463368Y-89870670D01*
X70443962Y-89879849D01*
X70423750Y-89887081D01*
X70402926Y-89892297D01*
X70381691Y-89895447D01*
X70360250Y-89896500D01*
X69847750Y-89896500D01*
X69826309Y-89895447D01*
X69805074Y-89892297D01*
X69784250Y-89887081D01*
X69764038Y-89879849D01*
X69744632Y-89870670D01*
X69726219Y-89859634D01*
X69708976Y-89846846D01*
X69693070Y-89832430D01*
X69678654Y-89816524D01*
X69665866Y-89799281D01*
X69654830Y-89780868D01*
X69645651Y-89761462D01*
X69638419Y-89741250D01*
X69633203Y-89720426D01*
X69630053Y-89699191D01*
X69629000Y-89677750D01*
X69629000Y-89240250D01*
X69630053Y-89218809D01*
X69633203Y-89197574D01*
X69638419Y-89176750D01*
X69645651Y-89156538D01*
X69654830Y-89137132D01*
X69665866Y-89118719D01*
X69678654Y-89101476D01*
X69693070Y-89085570D01*
X69708976Y-89071154D01*
X69726219Y-89058366D01*
X69744632Y-89047330D01*
X69764038Y-89038151D01*
X69784250Y-89030919D01*
X69805074Y-89025703D01*
X69826309Y-89022553D01*
X69847750Y-89021500D01*
X70360250Y-89021500D01*
X70381691Y-89022553D01*
X70381691Y-89022553D01*
G37*
D11*
X70104000Y-89459000D03*
D10*
G36*
X83081691Y-86660053D02*
G01*
X83102926Y-86663203D01*
X83123750Y-86668419D01*
X83143962Y-86675651D01*
X83163368Y-86684830D01*
X83181781Y-86695866D01*
X83199024Y-86708654D01*
X83214930Y-86723070D01*
X83229346Y-86738976D01*
X83242134Y-86756219D01*
X83253170Y-86774632D01*
X83262349Y-86794038D01*
X83269581Y-86814250D01*
X83274797Y-86835074D01*
X83277947Y-86856309D01*
X83279000Y-86877750D01*
X83279000Y-87315250D01*
X83277947Y-87336691D01*
X83274797Y-87357926D01*
X83269581Y-87378750D01*
X83262349Y-87398962D01*
X83253170Y-87418368D01*
X83242134Y-87436781D01*
X83229346Y-87454024D01*
X83214930Y-87469930D01*
X83199024Y-87484346D01*
X83181781Y-87497134D01*
X83163368Y-87508170D01*
X83143962Y-87517349D01*
X83123750Y-87524581D01*
X83102926Y-87529797D01*
X83081691Y-87532947D01*
X83060250Y-87534000D01*
X82547750Y-87534000D01*
X82526309Y-87532947D01*
X82505074Y-87529797D01*
X82484250Y-87524581D01*
X82464038Y-87517349D01*
X82444632Y-87508170D01*
X82426219Y-87497134D01*
X82408976Y-87484346D01*
X82393070Y-87469930D01*
X82378654Y-87454024D01*
X82365866Y-87436781D01*
X82354830Y-87418368D01*
X82345651Y-87398962D01*
X82338419Y-87378750D01*
X82333203Y-87357926D01*
X82330053Y-87336691D01*
X82329000Y-87315250D01*
X82329000Y-86877750D01*
X82330053Y-86856309D01*
X82333203Y-86835074D01*
X82338419Y-86814250D01*
X82345651Y-86794038D01*
X82354830Y-86774632D01*
X82365866Y-86756219D01*
X82378654Y-86738976D01*
X82393070Y-86723070D01*
X82408976Y-86708654D01*
X82426219Y-86695866D01*
X82444632Y-86684830D01*
X82464038Y-86675651D01*
X82484250Y-86668419D01*
X82505074Y-86663203D01*
X82526309Y-86660053D01*
X82547750Y-86659000D01*
X83060250Y-86659000D01*
X83081691Y-86660053D01*
X83081691Y-86660053D01*
G37*
D11*
X82804000Y-87096500D03*
D10*
G36*
X83081691Y-88235053D02*
G01*
X83102926Y-88238203D01*
X83123750Y-88243419D01*
X83143962Y-88250651D01*
X83163368Y-88259830D01*
X83181781Y-88270866D01*
X83199024Y-88283654D01*
X83214930Y-88298070D01*
X83229346Y-88313976D01*
X83242134Y-88331219D01*
X83253170Y-88349632D01*
X83262349Y-88369038D01*
X83269581Y-88389250D01*
X83274797Y-88410074D01*
X83277947Y-88431309D01*
X83279000Y-88452750D01*
X83279000Y-88890250D01*
X83277947Y-88911691D01*
X83274797Y-88932926D01*
X83269581Y-88953750D01*
X83262349Y-88973962D01*
X83253170Y-88993368D01*
X83242134Y-89011781D01*
X83229346Y-89029024D01*
X83214930Y-89044930D01*
X83199024Y-89059346D01*
X83181781Y-89072134D01*
X83163368Y-89083170D01*
X83143962Y-89092349D01*
X83123750Y-89099581D01*
X83102926Y-89104797D01*
X83081691Y-89107947D01*
X83060250Y-89109000D01*
X82547750Y-89109000D01*
X82526309Y-89107947D01*
X82505074Y-89104797D01*
X82484250Y-89099581D01*
X82464038Y-89092349D01*
X82444632Y-89083170D01*
X82426219Y-89072134D01*
X82408976Y-89059346D01*
X82393070Y-89044930D01*
X82378654Y-89029024D01*
X82365866Y-89011781D01*
X82354830Y-88993368D01*
X82345651Y-88973962D01*
X82338419Y-88953750D01*
X82333203Y-88932926D01*
X82330053Y-88911691D01*
X82329000Y-88890250D01*
X82329000Y-88452750D01*
X82330053Y-88431309D01*
X82333203Y-88410074D01*
X82338419Y-88389250D01*
X82345651Y-88369038D01*
X82354830Y-88349632D01*
X82365866Y-88331219D01*
X82378654Y-88313976D01*
X82393070Y-88298070D01*
X82408976Y-88283654D01*
X82426219Y-88270866D01*
X82444632Y-88259830D01*
X82464038Y-88250651D01*
X82484250Y-88243419D01*
X82505074Y-88238203D01*
X82526309Y-88235053D01*
X82547750Y-88234000D01*
X83060250Y-88234000D01*
X83081691Y-88235053D01*
X83081691Y-88235053D01*
G37*
D11*
X82804000Y-88671500D03*
D12*
X70640000Y-53340000D03*
X74140000Y-53340000D03*
D10*
G36*
X77964191Y-67471053D02*
G01*
X77985426Y-67474203D01*
X78006250Y-67479419D01*
X78026462Y-67486651D01*
X78045868Y-67495830D01*
X78064281Y-67506866D01*
X78081524Y-67519654D01*
X78097430Y-67534070D01*
X78111846Y-67549976D01*
X78124634Y-67567219D01*
X78135670Y-67585632D01*
X78144849Y-67605038D01*
X78152081Y-67625250D01*
X78157297Y-67646074D01*
X78160447Y-67667309D01*
X78161500Y-67688750D01*
X78161500Y-68201250D01*
X78160447Y-68222691D01*
X78157297Y-68243926D01*
X78152081Y-68264750D01*
X78144849Y-68284962D01*
X78135670Y-68304368D01*
X78124634Y-68322781D01*
X78111846Y-68340024D01*
X78097430Y-68355930D01*
X78081524Y-68370346D01*
X78064281Y-68383134D01*
X78045868Y-68394170D01*
X78026462Y-68403349D01*
X78006250Y-68410581D01*
X77985426Y-68415797D01*
X77964191Y-68418947D01*
X77942750Y-68420000D01*
X77505250Y-68420000D01*
X77483809Y-68418947D01*
X77462574Y-68415797D01*
X77441750Y-68410581D01*
X77421538Y-68403349D01*
X77402132Y-68394170D01*
X77383719Y-68383134D01*
X77366476Y-68370346D01*
X77350570Y-68355930D01*
X77336154Y-68340024D01*
X77323366Y-68322781D01*
X77312330Y-68304368D01*
X77303151Y-68284962D01*
X77295919Y-68264750D01*
X77290703Y-68243926D01*
X77287553Y-68222691D01*
X77286500Y-68201250D01*
X77286500Y-67688750D01*
X77287553Y-67667309D01*
X77290703Y-67646074D01*
X77295919Y-67625250D01*
X77303151Y-67605038D01*
X77312330Y-67585632D01*
X77323366Y-67567219D01*
X77336154Y-67549976D01*
X77350570Y-67534070D01*
X77366476Y-67519654D01*
X77383719Y-67506866D01*
X77402132Y-67495830D01*
X77421538Y-67486651D01*
X77441750Y-67479419D01*
X77462574Y-67474203D01*
X77483809Y-67471053D01*
X77505250Y-67470000D01*
X77942750Y-67470000D01*
X77964191Y-67471053D01*
X77964191Y-67471053D01*
G37*
D11*
X77724000Y-67945000D03*
D10*
G36*
X76389191Y-67471053D02*
G01*
X76410426Y-67474203D01*
X76431250Y-67479419D01*
X76451462Y-67486651D01*
X76470868Y-67495830D01*
X76489281Y-67506866D01*
X76506524Y-67519654D01*
X76522430Y-67534070D01*
X76536846Y-67549976D01*
X76549634Y-67567219D01*
X76560670Y-67585632D01*
X76569849Y-67605038D01*
X76577081Y-67625250D01*
X76582297Y-67646074D01*
X76585447Y-67667309D01*
X76586500Y-67688750D01*
X76586500Y-68201250D01*
X76585447Y-68222691D01*
X76582297Y-68243926D01*
X76577081Y-68264750D01*
X76569849Y-68284962D01*
X76560670Y-68304368D01*
X76549634Y-68322781D01*
X76536846Y-68340024D01*
X76522430Y-68355930D01*
X76506524Y-68370346D01*
X76489281Y-68383134D01*
X76470868Y-68394170D01*
X76451462Y-68403349D01*
X76431250Y-68410581D01*
X76410426Y-68415797D01*
X76389191Y-68418947D01*
X76367750Y-68420000D01*
X75930250Y-68420000D01*
X75908809Y-68418947D01*
X75887574Y-68415797D01*
X75866750Y-68410581D01*
X75846538Y-68403349D01*
X75827132Y-68394170D01*
X75808719Y-68383134D01*
X75791476Y-68370346D01*
X75775570Y-68355930D01*
X75761154Y-68340024D01*
X75748366Y-68322781D01*
X75737330Y-68304368D01*
X75728151Y-68284962D01*
X75720919Y-68264750D01*
X75715703Y-68243926D01*
X75712553Y-68222691D01*
X75711500Y-68201250D01*
X75711500Y-67688750D01*
X75712553Y-67667309D01*
X75715703Y-67646074D01*
X75720919Y-67625250D01*
X75728151Y-67605038D01*
X75737330Y-67585632D01*
X75748366Y-67567219D01*
X75761154Y-67549976D01*
X75775570Y-67534070D01*
X75791476Y-67519654D01*
X75808719Y-67506866D01*
X75827132Y-67495830D01*
X75846538Y-67486651D01*
X75866750Y-67479419D01*
X75887574Y-67474203D01*
X75908809Y-67471053D01*
X75930250Y-67470000D01*
X76367750Y-67470000D01*
X76389191Y-67471053D01*
X76389191Y-67471053D01*
G37*
D11*
X76149000Y-67945000D03*
D10*
G36*
X73429691Y-66340053D02*
G01*
X73450926Y-66343203D01*
X73471750Y-66348419D01*
X73491962Y-66355651D01*
X73511368Y-66364830D01*
X73529781Y-66375866D01*
X73547024Y-66388654D01*
X73562930Y-66403070D01*
X73577346Y-66418976D01*
X73590134Y-66436219D01*
X73601170Y-66454632D01*
X73610349Y-66474038D01*
X73617581Y-66494250D01*
X73622797Y-66515074D01*
X73625947Y-66536309D01*
X73627000Y-66557750D01*
X73627000Y-66995250D01*
X73625947Y-67016691D01*
X73622797Y-67037926D01*
X73617581Y-67058750D01*
X73610349Y-67078962D01*
X73601170Y-67098368D01*
X73590134Y-67116781D01*
X73577346Y-67134024D01*
X73562930Y-67149930D01*
X73547024Y-67164346D01*
X73529781Y-67177134D01*
X73511368Y-67188170D01*
X73491962Y-67197349D01*
X73471750Y-67204581D01*
X73450926Y-67209797D01*
X73429691Y-67212947D01*
X73408250Y-67214000D01*
X72895750Y-67214000D01*
X72874309Y-67212947D01*
X72853074Y-67209797D01*
X72832250Y-67204581D01*
X72812038Y-67197349D01*
X72792632Y-67188170D01*
X72774219Y-67177134D01*
X72756976Y-67164346D01*
X72741070Y-67149930D01*
X72726654Y-67134024D01*
X72713866Y-67116781D01*
X72702830Y-67098368D01*
X72693651Y-67078962D01*
X72686419Y-67058750D01*
X72681203Y-67037926D01*
X72678053Y-67016691D01*
X72677000Y-66995250D01*
X72677000Y-66557750D01*
X72678053Y-66536309D01*
X72681203Y-66515074D01*
X72686419Y-66494250D01*
X72693651Y-66474038D01*
X72702830Y-66454632D01*
X72713866Y-66436219D01*
X72726654Y-66418976D01*
X72741070Y-66403070D01*
X72756976Y-66388654D01*
X72774219Y-66375866D01*
X72792632Y-66364830D01*
X72812038Y-66355651D01*
X72832250Y-66348419D01*
X72853074Y-66343203D01*
X72874309Y-66340053D01*
X72895750Y-66339000D01*
X73408250Y-66339000D01*
X73429691Y-66340053D01*
X73429691Y-66340053D01*
G37*
D11*
X73152000Y-66776500D03*
D10*
G36*
X73429691Y-67915053D02*
G01*
X73450926Y-67918203D01*
X73471750Y-67923419D01*
X73491962Y-67930651D01*
X73511368Y-67939830D01*
X73529781Y-67950866D01*
X73547024Y-67963654D01*
X73562930Y-67978070D01*
X73577346Y-67993976D01*
X73590134Y-68011219D01*
X73601170Y-68029632D01*
X73610349Y-68049038D01*
X73617581Y-68069250D01*
X73622797Y-68090074D01*
X73625947Y-68111309D01*
X73627000Y-68132750D01*
X73627000Y-68570250D01*
X73625947Y-68591691D01*
X73622797Y-68612926D01*
X73617581Y-68633750D01*
X73610349Y-68653962D01*
X73601170Y-68673368D01*
X73590134Y-68691781D01*
X73577346Y-68709024D01*
X73562930Y-68724930D01*
X73547024Y-68739346D01*
X73529781Y-68752134D01*
X73511368Y-68763170D01*
X73491962Y-68772349D01*
X73471750Y-68779581D01*
X73450926Y-68784797D01*
X73429691Y-68787947D01*
X73408250Y-68789000D01*
X72895750Y-68789000D01*
X72874309Y-68787947D01*
X72853074Y-68784797D01*
X72832250Y-68779581D01*
X72812038Y-68772349D01*
X72792632Y-68763170D01*
X72774219Y-68752134D01*
X72756976Y-68739346D01*
X72741070Y-68724930D01*
X72726654Y-68709024D01*
X72713866Y-68691781D01*
X72702830Y-68673368D01*
X72693651Y-68653962D01*
X72686419Y-68633750D01*
X72681203Y-68612926D01*
X72678053Y-68591691D01*
X72677000Y-68570250D01*
X72677000Y-68132750D01*
X72678053Y-68111309D01*
X72681203Y-68090074D01*
X72686419Y-68069250D01*
X72693651Y-68049038D01*
X72702830Y-68029632D01*
X72713866Y-68011219D01*
X72726654Y-67993976D01*
X72741070Y-67978070D01*
X72756976Y-67963654D01*
X72774219Y-67950866D01*
X72792632Y-67939830D01*
X72812038Y-67930651D01*
X72832250Y-67923419D01*
X72853074Y-67918203D01*
X72874309Y-67915053D01*
X72895750Y-67914000D01*
X73408250Y-67914000D01*
X73429691Y-67915053D01*
X73429691Y-67915053D01*
G37*
D11*
X73152000Y-68351500D03*
D10*
G36*
X72667691Y-74747553D02*
G01*
X72688926Y-74750703D01*
X72709750Y-74755919D01*
X72729962Y-74763151D01*
X72749368Y-74772330D01*
X72767781Y-74783366D01*
X72785024Y-74796154D01*
X72800930Y-74810570D01*
X72815346Y-74826476D01*
X72828134Y-74843719D01*
X72839170Y-74862132D01*
X72848349Y-74881538D01*
X72855581Y-74901750D01*
X72860797Y-74922574D01*
X72863947Y-74943809D01*
X72865000Y-74965250D01*
X72865000Y-75402750D01*
X72863947Y-75424191D01*
X72860797Y-75445426D01*
X72855581Y-75466250D01*
X72848349Y-75486462D01*
X72839170Y-75505868D01*
X72828134Y-75524281D01*
X72815346Y-75541524D01*
X72800930Y-75557430D01*
X72785024Y-75571846D01*
X72767781Y-75584634D01*
X72749368Y-75595670D01*
X72729962Y-75604849D01*
X72709750Y-75612081D01*
X72688926Y-75617297D01*
X72667691Y-75620447D01*
X72646250Y-75621500D01*
X72133750Y-75621500D01*
X72112309Y-75620447D01*
X72091074Y-75617297D01*
X72070250Y-75612081D01*
X72050038Y-75604849D01*
X72030632Y-75595670D01*
X72012219Y-75584634D01*
X71994976Y-75571846D01*
X71979070Y-75557430D01*
X71964654Y-75541524D01*
X71951866Y-75524281D01*
X71940830Y-75505868D01*
X71931651Y-75486462D01*
X71924419Y-75466250D01*
X71919203Y-75445426D01*
X71916053Y-75424191D01*
X71915000Y-75402750D01*
X71915000Y-74965250D01*
X71916053Y-74943809D01*
X71919203Y-74922574D01*
X71924419Y-74901750D01*
X71931651Y-74881538D01*
X71940830Y-74862132D01*
X71951866Y-74843719D01*
X71964654Y-74826476D01*
X71979070Y-74810570D01*
X71994976Y-74796154D01*
X72012219Y-74783366D01*
X72030632Y-74772330D01*
X72050038Y-74763151D01*
X72070250Y-74755919D01*
X72091074Y-74750703D01*
X72112309Y-74747553D01*
X72133750Y-74746500D01*
X72646250Y-74746500D01*
X72667691Y-74747553D01*
X72667691Y-74747553D01*
G37*
D11*
X72390000Y-75184000D03*
D10*
G36*
X72667691Y-73172553D02*
G01*
X72688926Y-73175703D01*
X72709750Y-73180919D01*
X72729962Y-73188151D01*
X72749368Y-73197330D01*
X72767781Y-73208366D01*
X72785024Y-73221154D01*
X72800930Y-73235570D01*
X72815346Y-73251476D01*
X72828134Y-73268719D01*
X72839170Y-73287132D01*
X72848349Y-73306538D01*
X72855581Y-73326750D01*
X72860797Y-73347574D01*
X72863947Y-73368809D01*
X72865000Y-73390250D01*
X72865000Y-73827750D01*
X72863947Y-73849191D01*
X72860797Y-73870426D01*
X72855581Y-73891250D01*
X72848349Y-73911462D01*
X72839170Y-73930868D01*
X72828134Y-73949281D01*
X72815346Y-73966524D01*
X72800930Y-73982430D01*
X72785024Y-73996846D01*
X72767781Y-74009634D01*
X72749368Y-74020670D01*
X72729962Y-74029849D01*
X72709750Y-74037081D01*
X72688926Y-74042297D01*
X72667691Y-74045447D01*
X72646250Y-74046500D01*
X72133750Y-74046500D01*
X72112309Y-74045447D01*
X72091074Y-74042297D01*
X72070250Y-74037081D01*
X72050038Y-74029849D01*
X72030632Y-74020670D01*
X72012219Y-74009634D01*
X71994976Y-73996846D01*
X71979070Y-73982430D01*
X71964654Y-73966524D01*
X71951866Y-73949281D01*
X71940830Y-73930868D01*
X71931651Y-73911462D01*
X71924419Y-73891250D01*
X71919203Y-73870426D01*
X71916053Y-73849191D01*
X71915000Y-73827750D01*
X71915000Y-73390250D01*
X71916053Y-73368809D01*
X71919203Y-73347574D01*
X71924419Y-73326750D01*
X71931651Y-73306538D01*
X71940830Y-73287132D01*
X71951866Y-73268719D01*
X71964654Y-73251476D01*
X71979070Y-73235570D01*
X71994976Y-73221154D01*
X72012219Y-73208366D01*
X72030632Y-73197330D01*
X72050038Y-73188151D01*
X72070250Y-73180919D01*
X72091074Y-73175703D01*
X72112309Y-73172553D01*
X72133750Y-73171500D01*
X72646250Y-73171500D01*
X72667691Y-73172553D01*
X72667691Y-73172553D01*
G37*
D11*
X72390000Y-73609000D03*
D10*
G36*
X86458505Y-68881204D02*
G01*
X86482773Y-68884804D01*
X86506572Y-68890765D01*
X86529671Y-68899030D01*
X86551850Y-68909520D01*
X86572893Y-68922132D01*
X86592599Y-68936747D01*
X86610777Y-68953223D01*
X86627253Y-68971401D01*
X86641868Y-68991107D01*
X86654480Y-69012150D01*
X86664970Y-69034329D01*
X86673235Y-69057428D01*
X86679196Y-69081227D01*
X86682796Y-69105495D01*
X86684000Y-69129999D01*
X86684000Y-70430001D01*
X86682796Y-70454505D01*
X86679196Y-70478773D01*
X86673235Y-70502572D01*
X86664970Y-70525671D01*
X86654480Y-70547850D01*
X86641868Y-70568893D01*
X86627253Y-70588599D01*
X86610777Y-70606777D01*
X86592599Y-70623253D01*
X86572893Y-70637868D01*
X86551850Y-70650480D01*
X86529671Y-70660970D01*
X86506572Y-70669235D01*
X86482773Y-70675196D01*
X86458505Y-70678796D01*
X86434001Y-70680000D01*
X85733999Y-70680000D01*
X85709495Y-70678796D01*
X85685227Y-70675196D01*
X85661428Y-70669235D01*
X85638329Y-70660970D01*
X85616150Y-70650480D01*
X85595107Y-70637868D01*
X85575401Y-70623253D01*
X85557223Y-70606777D01*
X85540747Y-70588599D01*
X85526132Y-70568893D01*
X85513520Y-70547850D01*
X85503030Y-70525671D01*
X85494765Y-70502572D01*
X85488804Y-70478773D01*
X85485204Y-70454505D01*
X85484000Y-70430001D01*
X85484000Y-69129999D01*
X85485204Y-69105495D01*
X85488804Y-69081227D01*
X85494765Y-69057428D01*
X85503030Y-69034329D01*
X85513520Y-69012150D01*
X85526132Y-68991107D01*
X85540747Y-68971401D01*
X85557223Y-68953223D01*
X85575401Y-68936747D01*
X85595107Y-68922132D01*
X85616150Y-68909520D01*
X85638329Y-68899030D01*
X85661428Y-68890765D01*
X85685227Y-68884804D01*
X85709495Y-68881204D01*
X85733999Y-68880000D01*
X86434001Y-68880000D01*
X86458505Y-68881204D01*
X86458505Y-68881204D01*
G37*
D13*
X86084000Y-69780000D03*
D10*
G36*
X90058505Y-68881204D02*
G01*
X90082773Y-68884804D01*
X90106572Y-68890765D01*
X90129671Y-68899030D01*
X90151850Y-68909520D01*
X90172893Y-68922132D01*
X90192599Y-68936747D01*
X90210777Y-68953223D01*
X90227253Y-68971401D01*
X90241868Y-68991107D01*
X90254480Y-69012150D01*
X90264970Y-69034329D01*
X90273235Y-69057428D01*
X90279196Y-69081227D01*
X90282796Y-69105495D01*
X90284000Y-69129999D01*
X90284000Y-70430001D01*
X90282796Y-70454505D01*
X90279196Y-70478773D01*
X90273235Y-70502572D01*
X90264970Y-70525671D01*
X90254480Y-70547850D01*
X90241868Y-70568893D01*
X90227253Y-70588599D01*
X90210777Y-70606777D01*
X90192599Y-70623253D01*
X90172893Y-70637868D01*
X90151850Y-70650480D01*
X90129671Y-70660970D01*
X90106572Y-70669235D01*
X90082773Y-70675196D01*
X90058505Y-70678796D01*
X90034001Y-70680000D01*
X89333999Y-70680000D01*
X89309495Y-70678796D01*
X89285227Y-70675196D01*
X89261428Y-70669235D01*
X89238329Y-70660970D01*
X89216150Y-70650480D01*
X89195107Y-70637868D01*
X89175401Y-70623253D01*
X89157223Y-70606777D01*
X89140747Y-70588599D01*
X89126132Y-70568893D01*
X89113520Y-70547850D01*
X89103030Y-70525671D01*
X89094765Y-70502572D01*
X89088804Y-70478773D01*
X89085204Y-70454505D01*
X89084000Y-70430001D01*
X89084000Y-69129999D01*
X89085204Y-69105495D01*
X89088804Y-69081227D01*
X89094765Y-69057428D01*
X89103030Y-69034329D01*
X89113520Y-69012150D01*
X89126132Y-68991107D01*
X89140747Y-68971401D01*
X89157223Y-68953223D01*
X89175401Y-68936747D01*
X89195107Y-68922132D01*
X89216150Y-68909520D01*
X89238329Y-68899030D01*
X89261428Y-68890765D01*
X89285227Y-68884804D01*
X89309495Y-68881204D01*
X89333999Y-68880000D01*
X90034001Y-68880000D01*
X90058505Y-68881204D01*
X90058505Y-68881204D01*
G37*
D13*
X89684000Y-69780000D03*
D10*
G36*
X87548703Y-66480722D02*
G01*
X87563264Y-66482882D01*
X87577543Y-66486459D01*
X87591403Y-66491418D01*
X87604710Y-66497712D01*
X87617336Y-66505280D01*
X87629159Y-66514048D01*
X87640066Y-66523934D01*
X87649952Y-66534841D01*
X87658720Y-66546664D01*
X87666288Y-66559290D01*
X87672582Y-66572597D01*
X87677541Y-66586457D01*
X87681118Y-66600736D01*
X87683278Y-66615297D01*
X87684000Y-66630000D01*
X87684000Y-67880000D01*
X87683278Y-67894703D01*
X87681118Y-67909264D01*
X87677541Y-67923543D01*
X87672582Y-67937403D01*
X87666288Y-67950710D01*
X87658720Y-67963336D01*
X87649952Y-67975159D01*
X87640066Y-67986066D01*
X87629159Y-67995952D01*
X87617336Y-68004720D01*
X87604710Y-68012288D01*
X87591403Y-68018582D01*
X87577543Y-68023541D01*
X87563264Y-68027118D01*
X87548703Y-68029278D01*
X87534000Y-68030000D01*
X87234000Y-68030000D01*
X87219297Y-68029278D01*
X87204736Y-68027118D01*
X87190457Y-68023541D01*
X87176597Y-68018582D01*
X87163290Y-68012288D01*
X87150664Y-68004720D01*
X87138841Y-67995952D01*
X87127934Y-67986066D01*
X87118048Y-67975159D01*
X87109280Y-67963336D01*
X87101712Y-67950710D01*
X87095418Y-67937403D01*
X87090459Y-67923543D01*
X87086882Y-67909264D01*
X87084722Y-67894703D01*
X87084000Y-67880000D01*
X87084000Y-66630000D01*
X87084722Y-66615297D01*
X87086882Y-66600736D01*
X87090459Y-66586457D01*
X87095418Y-66572597D01*
X87101712Y-66559290D01*
X87109280Y-66546664D01*
X87118048Y-66534841D01*
X87127934Y-66523934D01*
X87138841Y-66514048D01*
X87150664Y-66505280D01*
X87163290Y-66497712D01*
X87176597Y-66491418D01*
X87190457Y-66486459D01*
X87204736Y-66482882D01*
X87219297Y-66480722D01*
X87234000Y-66480000D01*
X87534000Y-66480000D01*
X87548703Y-66480722D01*
X87548703Y-66480722D01*
G37*
D14*
X87384000Y-67255000D03*
D10*
G36*
X88548703Y-66480722D02*
G01*
X88563264Y-66482882D01*
X88577543Y-66486459D01*
X88591403Y-66491418D01*
X88604710Y-66497712D01*
X88617336Y-66505280D01*
X88629159Y-66514048D01*
X88640066Y-66523934D01*
X88649952Y-66534841D01*
X88658720Y-66546664D01*
X88666288Y-66559290D01*
X88672582Y-66572597D01*
X88677541Y-66586457D01*
X88681118Y-66600736D01*
X88683278Y-66615297D01*
X88684000Y-66630000D01*
X88684000Y-67880000D01*
X88683278Y-67894703D01*
X88681118Y-67909264D01*
X88677541Y-67923543D01*
X88672582Y-67937403D01*
X88666288Y-67950710D01*
X88658720Y-67963336D01*
X88649952Y-67975159D01*
X88640066Y-67986066D01*
X88629159Y-67995952D01*
X88617336Y-68004720D01*
X88604710Y-68012288D01*
X88591403Y-68018582D01*
X88577543Y-68023541D01*
X88563264Y-68027118D01*
X88548703Y-68029278D01*
X88534000Y-68030000D01*
X88234000Y-68030000D01*
X88219297Y-68029278D01*
X88204736Y-68027118D01*
X88190457Y-68023541D01*
X88176597Y-68018582D01*
X88163290Y-68012288D01*
X88150664Y-68004720D01*
X88138841Y-67995952D01*
X88127934Y-67986066D01*
X88118048Y-67975159D01*
X88109280Y-67963336D01*
X88101712Y-67950710D01*
X88095418Y-67937403D01*
X88090459Y-67923543D01*
X88086882Y-67909264D01*
X88084722Y-67894703D01*
X88084000Y-67880000D01*
X88084000Y-66630000D01*
X88084722Y-66615297D01*
X88086882Y-66600736D01*
X88090459Y-66586457D01*
X88095418Y-66572597D01*
X88101712Y-66559290D01*
X88109280Y-66546664D01*
X88118048Y-66534841D01*
X88127934Y-66523934D01*
X88138841Y-66514048D01*
X88150664Y-66505280D01*
X88163290Y-66497712D01*
X88176597Y-66491418D01*
X88190457Y-66486459D01*
X88204736Y-66482882D01*
X88219297Y-66480722D01*
X88234000Y-66480000D01*
X88534000Y-66480000D01*
X88548703Y-66480722D01*
X88548703Y-66480722D01*
G37*
D14*
X88384000Y-67255000D03*
D10*
G36*
X79344505Y-74091204D02*
G01*
X79368773Y-74094804D01*
X79392572Y-74100765D01*
X79415671Y-74109030D01*
X79437850Y-74119520D01*
X79458893Y-74132132D01*
X79478599Y-74146747D01*
X79496777Y-74163223D01*
X79513253Y-74181401D01*
X79527868Y-74201107D01*
X79540480Y-74222150D01*
X79550970Y-74244329D01*
X79559235Y-74267428D01*
X79565196Y-74291227D01*
X79568796Y-74315495D01*
X79570000Y-74339999D01*
X79570000Y-75040001D01*
X79568796Y-75064505D01*
X79565196Y-75088773D01*
X79559235Y-75112572D01*
X79550970Y-75135671D01*
X79540480Y-75157850D01*
X79527868Y-75178893D01*
X79513253Y-75198599D01*
X79496777Y-75216777D01*
X79478599Y-75233253D01*
X79458893Y-75247868D01*
X79437850Y-75260480D01*
X79415671Y-75270970D01*
X79392572Y-75279235D01*
X79368773Y-75285196D01*
X79344505Y-75288796D01*
X79320001Y-75290000D01*
X78019999Y-75290000D01*
X77995495Y-75288796D01*
X77971227Y-75285196D01*
X77947428Y-75279235D01*
X77924329Y-75270970D01*
X77902150Y-75260480D01*
X77881107Y-75247868D01*
X77861401Y-75233253D01*
X77843223Y-75216777D01*
X77826747Y-75198599D01*
X77812132Y-75178893D01*
X77799520Y-75157850D01*
X77789030Y-75135671D01*
X77780765Y-75112572D01*
X77774804Y-75088773D01*
X77771204Y-75064505D01*
X77770000Y-75040001D01*
X77770000Y-74339999D01*
X77771204Y-74315495D01*
X77774804Y-74291227D01*
X77780765Y-74267428D01*
X77789030Y-74244329D01*
X77799520Y-74222150D01*
X77812132Y-74201107D01*
X77826747Y-74181401D01*
X77843223Y-74163223D01*
X77861401Y-74146747D01*
X77881107Y-74132132D01*
X77902150Y-74119520D01*
X77924329Y-74109030D01*
X77947428Y-74100765D01*
X77971227Y-74094804D01*
X77995495Y-74091204D01*
X78019999Y-74090000D01*
X79320001Y-74090000D01*
X79344505Y-74091204D01*
X79344505Y-74091204D01*
G37*
D13*
X78670000Y-74690000D03*
D10*
G36*
X79344505Y-69491204D02*
G01*
X79368773Y-69494804D01*
X79392572Y-69500765D01*
X79415671Y-69509030D01*
X79437850Y-69519520D01*
X79458893Y-69532132D01*
X79478599Y-69546747D01*
X79496777Y-69563223D01*
X79513253Y-69581401D01*
X79527868Y-69601107D01*
X79540480Y-69622150D01*
X79550970Y-69644329D01*
X79559235Y-69667428D01*
X79565196Y-69691227D01*
X79568796Y-69715495D01*
X79570000Y-69739999D01*
X79570000Y-70440001D01*
X79568796Y-70464505D01*
X79565196Y-70488773D01*
X79559235Y-70512572D01*
X79550970Y-70535671D01*
X79540480Y-70557850D01*
X79527868Y-70578893D01*
X79513253Y-70598599D01*
X79496777Y-70616777D01*
X79478599Y-70633253D01*
X79458893Y-70647868D01*
X79437850Y-70660480D01*
X79415671Y-70670970D01*
X79392572Y-70679235D01*
X79368773Y-70685196D01*
X79344505Y-70688796D01*
X79320001Y-70690000D01*
X78019999Y-70690000D01*
X77995495Y-70688796D01*
X77971227Y-70685196D01*
X77947428Y-70679235D01*
X77924329Y-70670970D01*
X77902150Y-70660480D01*
X77881107Y-70647868D01*
X77861401Y-70633253D01*
X77843223Y-70616777D01*
X77826747Y-70598599D01*
X77812132Y-70578893D01*
X77799520Y-70557850D01*
X77789030Y-70535671D01*
X77780765Y-70512572D01*
X77774804Y-70488773D01*
X77771204Y-70464505D01*
X77770000Y-70440001D01*
X77770000Y-69739999D01*
X77771204Y-69715495D01*
X77774804Y-69691227D01*
X77780765Y-69667428D01*
X77789030Y-69644329D01*
X77799520Y-69622150D01*
X77812132Y-69601107D01*
X77826747Y-69581401D01*
X77843223Y-69563223D01*
X77861401Y-69546747D01*
X77881107Y-69532132D01*
X77902150Y-69519520D01*
X77924329Y-69509030D01*
X77947428Y-69500765D01*
X77971227Y-69494804D01*
X77995495Y-69491204D01*
X78019999Y-69490000D01*
X79320001Y-69490000D01*
X79344505Y-69491204D01*
X79344505Y-69491204D01*
G37*
D13*
X78670000Y-70090000D03*
D10*
G36*
X76784703Y-73090722D02*
G01*
X76799264Y-73092882D01*
X76813543Y-73096459D01*
X76827403Y-73101418D01*
X76840710Y-73107712D01*
X76853336Y-73115280D01*
X76865159Y-73124048D01*
X76876066Y-73133934D01*
X76885952Y-73144841D01*
X76894720Y-73156664D01*
X76902288Y-73169290D01*
X76908582Y-73182597D01*
X76913541Y-73196457D01*
X76917118Y-73210736D01*
X76919278Y-73225297D01*
X76920000Y-73240000D01*
X76920000Y-73540000D01*
X76919278Y-73554703D01*
X76917118Y-73569264D01*
X76913541Y-73583543D01*
X76908582Y-73597403D01*
X76902288Y-73610710D01*
X76894720Y-73623336D01*
X76885952Y-73635159D01*
X76876066Y-73646066D01*
X76865159Y-73655952D01*
X76853336Y-73664720D01*
X76840710Y-73672288D01*
X76827403Y-73678582D01*
X76813543Y-73683541D01*
X76799264Y-73687118D01*
X76784703Y-73689278D01*
X76770000Y-73690000D01*
X75520000Y-73690000D01*
X75505297Y-73689278D01*
X75490736Y-73687118D01*
X75476457Y-73683541D01*
X75462597Y-73678582D01*
X75449290Y-73672288D01*
X75436664Y-73664720D01*
X75424841Y-73655952D01*
X75413934Y-73646066D01*
X75404048Y-73635159D01*
X75395280Y-73623336D01*
X75387712Y-73610710D01*
X75381418Y-73597403D01*
X75376459Y-73583543D01*
X75372882Y-73569264D01*
X75370722Y-73554703D01*
X75370000Y-73540000D01*
X75370000Y-73240000D01*
X75370722Y-73225297D01*
X75372882Y-73210736D01*
X75376459Y-73196457D01*
X75381418Y-73182597D01*
X75387712Y-73169290D01*
X75395280Y-73156664D01*
X75404048Y-73144841D01*
X75413934Y-73133934D01*
X75424841Y-73124048D01*
X75436664Y-73115280D01*
X75449290Y-73107712D01*
X75462597Y-73101418D01*
X75476457Y-73096459D01*
X75490736Y-73092882D01*
X75505297Y-73090722D01*
X75520000Y-73090000D01*
X76770000Y-73090000D01*
X76784703Y-73090722D01*
X76784703Y-73090722D01*
G37*
D14*
X76145000Y-73390000D03*
D10*
G36*
X76784703Y-72090722D02*
G01*
X76799264Y-72092882D01*
X76813543Y-72096459D01*
X76827403Y-72101418D01*
X76840710Y-72107712D01*
X76853336Y-72115280D01*
X76865159Y-72124048D01*
X76876066Y-72133934D01*
X76885952Y-72144841D01*
X76894720Y-72156664D01*
X76902288Y-72169290D01*
X76908582Y-72182597D01*
X76913541Y-72196457D01*
X76917118Y-72210736D01*
X76919278Y-72225297D01*
X76920000Y-72240000D01*
X76920000Y-72540000D01*
X76919278Y-72554703D01*
X76917118Y-72569264D01*
X76913541Y-72583543D01*
X76908582Y-72597403D01*
X76902288Y-72610710D01*
X76894720Y-72623336D01*
X76885952Y-72635159D01*
X76876066Y-72646066D01*
X76865159Y-72655952D01*
X76853336Y-72664720D01*
X76840710Y-72672288D01*
X76827403Y-72678582D01*
X76813543Y-72683541D01*
X76799264Y-72687118D01*
X76784703Y-72689278D01*
X76770000Y-72690000D01*
X75520000Y-72690000D01*
X75505297Y-72689278D01*
X75490736Y-72687118D01*
X75476457Y-72683541D01*
X75462597Y-72678582D01*
X75449290Y-72672288D01*
X75436664Y-72664720D01*
X75424841Y-72655952D01*
X75413934Y-72646066D01*
X75404048Y-72635159D01*
X75395280Y-72623336D01*
X75387712Y-72610710D01*
X75381418Y-72597403D01*
X75376459Y-72583543D01*
X75372882Y-72569264D01*
X75370722Y-72554703D01*
X75370000Y-72540000D01*
X75370000Y-72240000D01*
X75370722Y-72225297D01*
X75372882Y-72210736D01*
X75376459Y-72196457D01*
X75381418Y-72182597D01*
X75387712Y-72169290D01*
X75395280Y-72156664D01*
X75404048Y-72144841D01*
X75413934Y-72133934D01*
X75424841Y-72124048D01*
X75436664Y-72115280D01*
X75449290Y-72107712D01*
X75462597Y-72101418D01*
X75476457Y-72096459D01*
X75490736Y-72092882D01*
X75505297Y-72090722D01*
X75520000Y-72090000D01*
X76770000Y-72090000D01*
X76784703Y-72090722D01*
X76784703Y-72090722D01*
G37*
D14*
X76145000Y-72390000D03*
D10*
G36*
X76784703Y-71090722D02*
G01*
X76799264Y-71092882D01*
X76813543Y-71096459D01*
X76827403Y-71101418D01*
X76840710Y-71107712D01*
X76853336Y-71115280D01*
X76865159Y-71124048D01*
X76876066Y-71133934D01*
X76885952Y-71144841D01*
X76894720Y-71156664D01*
X76902288Y-71169290D01*
X76908582Y-71182597D01*
X76913541Y-71196457D01*
X76917118Y-71210736D01*
X76919278Y-71225297D01*
X76920000Y-71240000D01*
X76920000Y-71540000D01*
X76919278Y-71554703D01*
X76917118Y-71569264D01*
X76913541Y-71583543D01*
X76908582Y-71597403D01*
X76902288Y-71610710D01*
X76894720Y-71623336D01*
X76885952Y-71635159D01*
X76876066Y-71646066D01*
X76865159Y-71655952D01*
X76853336Y-71664720D01*
X76840710Y-71672288D01*
X76827403Y-71678582D01*
X76813543Y-71683541D01*
X76799264Y-71687118D01*
X76784703Y-71689278D01*
X76770000Y-71690000D01*
X75520000Y-71690000D01*
X75505297Y-71689278D01*
X75490736Y-71687118D01*
X75476457Y-71683541D01*
X75462597Y-71678582D01*
X75449290Y-71672288D01*
X75436664Y-71664720D01*
X75424841Y-71655952D01*
X75413934Y-71646066D01*
X75404048Y-71635159D01*
X75395280Y-71623336D01*
X75387712Y-71610710D01*
X75381418Y-71597403D01*
X75376459Y-71583543D01*
X75372882Y-71569264D01*
X75370722Y-71554703D01*
X75370000Y-71540000D01*
X75370000Y-71240000D01*
X75370722Y-71225297D01*
X75372882Y-71210736D01*
X75376459Y-71196457D01*
X75381418Y-71182597D01*
X75387712Y-71169290D01*
X75395280Y-71156664D01*
X75404048Y-71144841D01*
X75413934Y-71133934D01*
X75424841Y-71124048D01*
X75436664Y-71115280D01*
X75449290Y-71107712D01*
X75462597Y-71101418D01*
X75476457Y-71096459D01*
X75490736Y-71092882D01*
X75505297Y-71090722D01*
X75520000Y-71090000D01*
X76770000Y-71090000D01*
X76784703Y-71090722D01*
X76784703Y-71090722D01*
G37*
D14*
X76145000Y-71390000D03*
D10*
G36*
X84450505Y-75485204D02*
G01*
X84474773Y-75488804D01*
X84498572Y-75494765D01*
X84521671Y-75503030D01*
X84543850Y-75513520D01*
X84564893Y-75526132D01*
X84584599Y-75540747D01*
X84602777Y-75557223D01*
X84619253Y-75575401D01*
X84633868Y-75595107D01*
X84646480Y-75616150D01*
X84656970Y-75638329D01*
X84665235Y-75661428D01*
X84671196Y-75685227D01*
X84674796Y-75709495D01*
X84676000Y-75733999D01*
X84676000Y-77034001D01*
X84674796Y-77058505D01*
X84671196Y-77082773D01*
X84665235Y-77106572D01*
X84656970Y-77129671D01*
X84646480Y-77151850D01*
X84633868Y-77172893D01*
X84619253Y-77192599D01*
X84602777Y-77210777D01*
X84584599Y-77227253D01*
X84564893Y-77241868D01*
X84543850Y-77254480D01*
X84521671Y-77264970D01*
X84498572Y-77273235D01*
X84474773Y-77279196D01*
X84450505Y-77282796D01*
X84426001Y-77284000D01*
X83725999Y-77284000D01*
X83701495Y-77282796D01*
X83677227Y-77279196D01*
X83653428Y-77273235D01*
X83630329Y-77264970D01*
X83608150Y-77254480D01*
X83587107Y-77241868D01*
X83567401Y-77227253D01*
X83549223Y-77210777D01*
X83532747Y-77192599D01*
X83518132Y-77172893D01*
X83505520Y-77151850D01*
X83495030Y-77129671D01*
X83486765Y-77106572D01*
X83480804Y-77082773D01*
X83477204Y-77058505D01*
X83476000Y-77034001D01*
X83476000Y-75733999D01*
X83477204Y-75709495D01*
X83480804Y-75685227D01*
X83486765Y-75661428D01*
X83495030Y-75638329D01*
X83505520Y-75616150D01*
X83518132Y-75595107D01*
X83532747Y-75575401D01*
X83549223Y-75557223D01*
X83567401Y-75540747D01*
X83587107Y-75526132D01*
X83608150Y-75513520D01*
X83630329Y-75503030D01*
X83653428Y-75494765D01*
X83677227Y-75488804D01*
X83701495Y-75485204D01*
X83725999Y-75484000D01*
X84426001Y-75484000D01*
X84450505Y-75485204D01*
X84450505Y-75485204D01*
G37*
D13*
X84076000Y-76384000D03*
D10*
G36*
X91050505Y-75485204D02*
G01*
X91074773Y-75488804D01*
X91098572Y-75494765D01*
X91121671Y-75503030D01*
X91143850Y-75513520D01*
X91164893Y-75526132D01*
X91184599Y-75540747D01*
X91202777Y-75557223D01*
X91219253Y-75575401D01*
X91233868Y-75595107D01*
X91246480Y-75616150D01*
X91256970Y-75638329D01*
X91265235Y-75661428D01*
X91271196Y-75685227D01*
X91274796Y-75709495D01*
X91276000Y-75733999D01*
X91276000Y-77034001D01*
X91274796Y-77058505D01*
X91271196Y-77082773D01*
X91265235Y-77106572D01*
X91256970Y-77129671D01*
X91246480Y-77151850D01*
X91233868Y-77172893D01*
X91219253Y-77192599D01*
X91202777Y-77210777D01*
X91184599Y-77227253D01*
X91164893Y-77241868D01*
X91143850Y-77254480D01*
X91121671Y-77264970D01*
X91098572Y-77273235D01*
X91074773Y-77279196D01*
X91050505Y-77282796D01*
X91026001Y-77284000D01*
X90325999Y-77284000D01*
X90301495Y-77282796D01*
X90277227Y-77279196D01*
X90253428Y-77273235D01*
X90230329Y-77264970D01*
X90208150Y-77254480D01*
X90187107Y-77241868D01*
X90167401Y-77227253D01*
X90149223Y-77210777D01*
X90132747Y-77192599D01*
X90118132Y-77172893D01*
X90105520Y-77151850D01*
X90095030Y-77129671D01*
X90086765Y-77106572D01*
X90080804Y-77082773D01*
X90077204Y-77058505D01*
X90076000Y-77034001D01*
X90076000Y-75733999D01*
X90077204Y-75709495D01*
X90080804Y-75685227D01*
X90086765Y-75661428D01*
X90095030Y-75638329D01*
X90105520Y-75616150D01*
X90118132Y-75595107D01*
X90132747Y-75575401D01*
X90149223Y-75557223D01*
X90167401Y-75540747D01*
X90187107Y-75526132D01*
X90208150Y-75513520D01*
X90230329Y-75503030D01*
X90253428Y-75494765D01*
X90277227Y-75488804D01*
X90301495Y-75485204D01*
X90325999Y-75484000D01*
X91026001Y-75484000D01*
X91050505Y-75485204D01*
X91050505Y-75485204D01*
G37*
D13*
X90676000Y-76384000D03*
D10*
G36*
X85540703Y-73084722D02*
G01*
X85555264Y-73086882D01*
X85569543Y-73090459D01*
X85583403Y-73095418D01*
X85596710Y-73101712D01*
X85609336Y-73109280D01*
X85621159Y-73118048D01*
X85632066Y-73127934D01*
X85641952Y-73138841D01*
X85650720Y-73150664D01*
X85658288Y-73163290D01*
X85664582Y-73176597D01*
X85669541Y-73190457D01*
X85673118Y-73204736D01*
X85675278Y-73219297D01*
X85676000Y-73234000D01*
X85676000Y-74484000D01*
X85675278Y-74498703D01*
X85673118Y-74513264D01*
X85669541Y-74527543D01*
X85664582Y-74541403D01*
X85658288Y-74554710D01*
X85650720Y-74567336D01*
X85641952Y-74579159D01*
X85632066Y-74590066D01*
X85621159Y-74599952D01*
X85609336Y-74608720D01*
X85596710Y-74616288D01*
X85583403Y-74622582D01*
X85569543Y-74627541D01*
X85555264Y-74631118D01*
X85540703Y-74633278D01*
X85526000Y-74634000D01*
X85226000Y-74634000D01*
X85211297Y-74633278D01*
X85196736Y-74631118D01*
X85182457Y-74627541D01*
X85168597Y-74622582D01*
X85155290Y-74616288D01*
X85142664Y-74608720D01*
X85130841Y-74599952D01*
X85119934Y-74590066D01*
X85110048Y-74579159D01*
X85101280Y-74567336D01*
X85093712Y-74554710D01*
X85087418Y-74541403D01*
X85082459Y-74527543D01*
X85078882Y-74513264D01*
X85076722Y-74498703D01*
X85076000Y-74484000D01*
X85076000Y-73234000D01*
X85076722Y-73219297D01*
X85078882Y-73204736D01*
X85082459Y-73190457D01*
X85087418Y-73176597D01*
X85093712Y-73163290D01*
X85101280Y-73150664D01*
X85110048Y-73138841D01*
X85119934Y-73127934D01*
X85130841Y-73118048D01*
X85142664Y-73109280D01*
X85155290Y-73101712D01*
X85168597Y-73095418D01*
X85182457Y-73090459D01*
X85196736Y-73086882D01*
X85211297Y-73084722D01*
X85226000Y-73084000D01*
X85526000Y-73084000D01*
X85540703Y-73084722D01*
X85540703Y-73084722D01*
G37*
D14*
X85376000Y-73859000D03*
D10*
G36*
X86540703Y-73084722D02*
G01*
X86555264Y-73086882D01*
X86569543Y-73090459D01*
X86583403Y-73095418D01*
X86596710Y-73101712D01*
X86609336Y-73109280D01*
X86621159Y-73118048D01*
X86632066Y-73127934D01*
X86641952Y-73138841D01*
X86650720Y-73150664D01*
X86658288Y-73163290D01*
X86664582Y-73176597D01*
X86669541Y-73190457D01*
X86673118Y-73204736D01*
X86675278Y-73219297D01*
X86676000Y-73234000D01*
X86676000Y-74484000D01*
X86675278Y-74498703D01*
X86673118Y-74513264D01*
X86669541Y-74527543D01*
X86664582Y-74541403D01*
X86658288Y-74554710D01*
X86650720Y-74567336D01*
X86641952Y-74579159D01*
X86632066Y-74590066D01*
X86621159Y-74599952D01*
X86609336Y-74608720D01*
X86596710Y-74616288D01*
X86583403Y-74622582D01*
X86569543Y-74627541D01*
X86555264Y-74631118D01*
X86540703Y-74633278D01*
X86526000Y-74634000D01*
X86226000Y-74634000D01*
X86211297Y-74633278D01*
X86196736Y-74631118D01*
X86182457Y-74627541D01*
X86168597Y-74622582D01*
X86155290Y-74616288D01*
X86142664Y-74608720D01*
X86130841Y-74599952D01*
X86119934Y-74590066D01*
X86110048Y-74579159D01*
X86101280Y-74567336D01*
X86093712Y-74554710D01*
X86087418Y-74541403D01*
X86082459Y-74527543D01*
X86078882Y-74513264D01*
X86076722Y-74498703D01*
X86076000Y-74484000D01*
X86076000Y-73234000D01*
X86076722Y-73219297D01*
X86078882Y-73204736D01*
X86082459Y-73190457D01*
X86087418Y-73176597D01*
X86093712Y-73163290D01*
X86101280Y-73150664D01*
X86110048Y-73138841D01*
X86119934Y-73127934D01*
X86130841Y-73118048D01*
X86142664Y-73109280D01*
X86155290Y-73101712D01*
X86168597Y-73095418D01*
X86182457Y-73090459D01*
X86196736Y-73086882D01*
X86211297Y-73084722D01*
X86226000Y-73084000D01*
X86526000Y-73084000D01*
X86540703Y-73084722D01*
X86540703Y-73084722D01*
G37*
D14*
X86376000Y-73859000D03*
D10*
G36*
X87540703Y-73084722D02*
G01*
X87555264Y-73086882D01*
X87569543Y-73090459D01*
X87583403Y-73095418D01*
X87596710Y-73101712D01*
X87609336Y-73109280D01*
X87621159Y-73118048D01*
X87632066Y-73127934D01*
X87641952Y-73138841D01*
X87650720Y-73150664D01*
X87658288Y-73163290D01*
X87664582Y-73176597D01*
X87669541Y-73190457D01*
X87673118Y-73204736D01*
X87675278Y-73219297D01*
X87676000Y-73234000D01*
X87676000Y-74484000D01*
X87675278Y-74498703D01*
X87673118Y-74513264D01*
X87669541Y-74527543D01*
X87664582Y-74541403D01*
X87658288Y-74554710D01*
X87650720Y-74567336D01*
X87641952Y-74579159D01*
X87632066Y-74590066D01*
X87621159Y-74599952D01*
X87609336Y-74608720D01*
X87596710Y-74616288D01*
X87583403Y-74622582D01*
X87569543Y-74627541D01*
X87555264Y-74631118D01*
X87540703Y-74633278D01*
X87526000Y-74634000D01*
X87226000Y-74634000D01*
X87211297Y-74633278D01*
X87196736Y-74631118D01*
X87182457Y-74627541D01*
X87168597Y-74622582D01*
X87155290Y-74616288D01*
X87142664Y-74608720D01*
X87130841Y-74599952D01*
X87119934Y-74590066D01*
X87110048Y-74579159D01*
X87101280Y-74567336D01*
X87093712Y-74554710D01*
X87087418Y-74541403D01*
X87082459Y-74527543D01*
X87078882Y-74513264D01*
X87076722Y-74498703D01*
X87076000Y-74484000D01*
X87076000Y-73234000D01*
X87076722Y-73219297D01*
X87078882Y-73204736D01*
X87082459Y-73190457D01*
X87087418Y-73176597D01*
X87093712Y-73163290D01*
X87101280Y-73150664D01*
X87110048Y-73138841D01*
X87119934Y-73127934D01*
X87130841Y-73118048D01*
X87142664Y-73109280D01*
X87155290Y-73101712D01*
X87168597Y-73095418D01*
X87182457Y-73090459D01*
X87196736Y-73086882D01*
X87211297Y-73084722D01*
X87226000Y-73084000D01*
X87526000Y-73084000D01*
X87540703Y-73084722D01*
X87540703Y-73084722D01*
G37*
D14*
X87376000Y-73859000D03*
D10*
G36*
X88540703Y-73084722D02*
G01*
X88555264Y-73086882D01*
X88569543Y-73090459D01*
X88583403Y-73095418D01*
X88596710Y-73101712D01*
X88609336Y-73109280D01*
X88621159Y-73118048D01*
X88632066Y-73127934D01*
X88641952Y-73138841D01*
X88650720Y-73150664D01*
X88658288Y-73163290D01*
X88664582Y-73176597D01*
X88669541Y-73190457D01*
X88673118Y-73204736D01*
X88675278Y-73219297D01*
X88676000Y-73234000D01*
X88676000Y-74484000D01*
X88675278Y-74498703D01*
X88673118Y-74513264D01*
X88669541Y-74527543D01*
X88664582Y-74541403D01*
X88658288Y-74554710D01*
X88650720Y-74567336D01*
X88641952Y-74579159D01*
X88632066Y-74590066D01*
X88621159Y-74599952D01*
X88609336Y-74608720D01*
X88596710Y-74616288D01*
X88583403Y-74622582D01*
X88569543Y-74627541D01*
X88555264Y-74631118D01*
X88540703Y-74633278D01*
X88526000Y-74634000D01*
X88226000Y-74634000D01*
X88211297Y-74633278D01*
X88196736Y-74631118D01*
X88182457Y-74627541D01*
X88168597Y-74622582D01*
X88155290Y-74616288D01*
X88142664Y-74608720D01*
X88130841Y-74599952D01*
X88119934Y-74590066D01*
X88110048Y-74579159D01*
X88101280Y-74567336D01*
X88093712Y-74554710D01*
X88087418Y-74541403D01*
X88082459Y-74527543D01*
X88078882Y-74513264D01*
X88076722Y-74498703D01*
X88076000Y-74484000D01*
X88076000Y-73234000D01*
X88076722Y-73219297D01*
X88078882Y-73204736D01*
X88082459Y-73190457D01*
X88087418Y-73176597D01*
X88093712Y-73163290D01*
X88101280Y-73150664D01*
X88110048Y-73138841D01*
X88119934Y-73127934D01*
X88130841Y-73118048D01*
X88142664Y-73109280D01*
X88155290Y-73101712D01*
X88168597Y-73095418D01*
X88182457Y-73090459D01*
X88196736Y-73086882D01*
X88211297Y-73084722D01*
X88226000Y-73084000D01*
X88526000Y-73084000D01*
X88540703Y-73084722D01*
X88540703Y-73084722D01*
G37*
D14*
X88376000Y-73859000D03*
D10*
G36*
X89540703Y-73084722D02*
G01*
X89555264Y-73086882D01*
X89569543Y-73090459D01*
X89583403Y-73095418D01*
X89596710Y-73101712D01*
X89609336Y-73109280D01*
X89621159Y-73118048D01*
X89632066Y-73127934D01*
X89641952Y-73138841D01*
X89650720Y-73150664D01*
X89658288Y-73163290D01*
X89664582Y-73176597D01*
X89669541Y-73190457D01*
X89673118Y-73204736D01*
X89675278Y-73219297D01*
X89676000Y-73234000D01*
X89676000Y-74484000D01*
X89675278Y-74498703D01*
X89673118Y-74513264D01*
X89669541Y-74527543D01*
X89664582Y-74541403D01*
X89658288Y-74554710D01*
X89650720Y-74567336D01*
X89641952Y-74579159D01*
X89632066Y-74590066D01*
X89621159Y-74599952D01*
X89609336Y-74608720D01*
X89596710Y-74616288D01*
X89583403Y-74622582D01*
X89569543Y-74627541D01*
X89555264Y-74631118D01*
X89540703Y-74633278D01*
X89526000Y-74634000D01*
X89226000Y-74634000D01*
X89211297Y-74633278D01*
X89196736Y-74631118D01*
X89182457Y-74627541D01*
X89168597Y-74622582D01*
X89155290Y-74616288D01*
X89142664Y-74608720D01*
X89130841Y-74599952D01*
X89119934Y-74590066D01*
X89110048Y-74579159D01*
X89101280Y-74567336D01*
X89093712Y-74554710D01*
X89087418Y-74541403D01*
X89082459Y-74527543D01*
X89078882Y-74513264D01*
X89076722Y-74498703D01*
X89076000Y-74484000D01*
X89076000Y-73234000D01*
X89076722Y-73219297D01*
X89078882Y-73204736D01*
X89082459Y-73190457D01*
X89087418Y-73176597D01*
X89093712Y-73163290D01*
X89101280Y-73150664D01*
X89110048Y-73138841D01*
X89119934Y-73127934D01*
X89130841Y-73118048D01*
X89142664Y-73109280D01*
X89155290Y-73101712D01*
X89168597Y-73095418D01*
X89182457Y-73090459D01*
X89196736Y-73086882D01*
X89211297Y-73084722D01*
X89226000Y-73084000D01*
X89526000Y-73084000D01*
X89540703Y-73084722D01*
X89540703Y-73084722D01*
G37*
D14*
X89376000Y-73859000D03*
D15*
X67310000Y-52490000D03*
X67310000Y-54190000D03*
D16*
X63540000Y-67354000D03*
X66040000Y-67354000D03*
X68540000Y-67354000D03*
X68540000Y-72854000D03*
X66040000Y-72854000D03*
X63540000Y-72854000D03*
D17*
X83500000Y-57800000D03*
X83500000Y-56500000D03*
X81600000Y-57150000D03*
X83500000Y-57150000D03*
X81600000Y-56500000D03*
X81600000Y-57800000D03*
D10*
G36*
X85367691Y-57501053D02*
G01*
X85388926Y-57504203D01*
X85409750Y-57509419D01*
X85429962Y-57516651D01*
X85449368Y-57525830D01*
X85467781Y-57536866D01*
X85485024Y-57549654D01*
X85500930Y-57564070D01*
X85515346Y-57579976D01*
X85528134Y-57597219D01*
X85539170Y-57615632D01*
X85548349Y-57635038D01*
X85555581Y-57655250D01*
X85560797Y-57676074D01*
X85563947Y-57697309D01*
X85565000Y-57718750D01*
X85565000Y-58156250D01*
X85563947Y-58177691D01*
X85560797Y-58198926D01*
X85555581Y-58219750D01*
X85548349Y-58239962D01*
X85539170Y-58259368D01*
X85528134Y-58277781D01*
X85515346Y-58295024D01*
X85500930Y-58310930D01*
X85485024Y-58325346D01*
X85467781Y-58338134D01*
X85449368Y-58349170D01*
X85429962Y-58358349D01*
X85409750Y-58365581D01*
X85388926Y-58370797D01*
X85367691Y-58373947D01*
X85346250Y-58375000D01*
X84833750Y-58375000D01*
X84812309Y-58373947D01*
X84791074Y-58370797D01*
X84770250Y-58365581D01*
X84750038Y-58358349D01*
X84730632Y-58349170D01*
X84712219Y-58338134D01*
X84694976Y-58325346D01*
X84679070Y-58310930D01*
X84664654Y-58295024D01*
X84651866Y-58277781D01*
X84640830Y-58259368D01*
X84631651Y-58239962D01*
X84624419Y-58219750D01*
X84619203Y-58198926D01*
X84616053Y-58177691D01*
X84615000Y-58156250D01*
X84615000Y-57718750D01*
X84616053Y-57697309D01*
X84619203Y-57676074D01*
X84624419Y-57655250D01*
X84631651Y-57635038D01*
X84640830Y-57615632D01*
X84651866Y-57597219D01*
X84664654Y-57579976D01*
X84679070Y-57564070D01*
X84694976Y-57549654D01*
X84712219Y-57536866D01*
X84730632Y-57525830D01*
X84750038Y-57516651D01*
X84770250Y-57509419D01*
X84791074Y-57504203D01*
X84812309Y-57501053D01*
X84833750Y-57500000D01*
X85346250Y-57500000D01*
X85367691Y-57501053D01*
X85367691Y-57501053D01*
G37*
D11*
X85090000Y-57937500D03*
D10*
G36*
X85367691Y-55926053D02*
G01*
X85388926Y-55929203D01*
X85409750Y-55934419D01*
X85429962Y-55941651D01*
X85449368Y-55950830D01*
X85467781Y-55961866D01*
X85485024Y-55974654D01*
X85500930Y-55989070D01*
X85515346Y-56004976D01*
X85528134Y-56022219D01*
X85539170Y-56040632D01*
X85548349Y-56060038D01*
X85555581Y-56080250D01*
X85560797Y-56101074D01*
X85563947Y-56122309D01*
X85565000Y-56143750D01*
X85565000Y-56581250D01*
X85563947Y-56602691D01*
X85560797Y-56623926D01*
X85555581Y-56644750D01*
X85548349Y-56664962D01*
X85539170Y-56684368D01*
X85528134Y-56702781D01*
X85515346Y-56720024D01*
X85500930Y-56735930D01*
X85485024Y-56750346D01*
X85467781Y-56763134D01*
X85449368Y-56774170D01*
X85429962Y-56783349D01*
X85409750Y-56790581D01*
X85388926Y-56795797D01*
X85367691Y-56798947D01*
X85346250Y-56800000D01*
X84833750Y-56800000D01*
X84812309Y-56798947D01*
X84791074Y-56795797D01*
X84770250Y-56790581D01*
X84750038Y-56783349D01*
X84730632Y-56774170D01*
X84712219Y-56763134D01*
X84694976Y-56750346D01*
X84679070Y-56735930D01*
X84664654Y-56720024D01*
X84651866Y-56702781D01*
X84640830Y-56684368D01*
X84631651Y-56664962D01*
X84624419Y-56644750D01*
X84619203Y-56623926D01*
X84616053Y-56602691D01*
X84615000Y-56581250D01*
X84615000Y-56143750D01*
X84616053Y-56122309D01*
X84619203Y-56101074D01*
X84624419Y-56080250D01*
X84631651Y-56060038D01*
X84640830Y-56040632D01*
X84651866Y-56022219D01*
X84664654Y-56004976D01*
X84679070Y-55989070D01*
X84694976Y-55974654D01*
X84712219Y-55961866D01*
X84730632Y-55950830D01*
X84750038Y-55941651D01*
X84770250Y-55934419D01*
X84791074Y-55929203D01*
X84812309Y-55926053D01*
X84833750Y-55925000D01*
X85346250Y-55925000D01*
X85367691Y-55926053D01*
X85367691Y-55926053D01*
G37*
D11*
X85090000Y-56362500D03*
D10*
G36*
X77747691Y-54656053D02*
G01*
X77768926Y-54659203D01*
X77789750Y-54664419D01*
X77809962Y-54671651D01*
X77829368Y-54680830D01*
X77847781Y-54691866D01*
X77865024Y-54704654D01*
X77880930Y-54719070D01*
X77895346Y-54734976D01*
X77908134Y-54752219D01*
X77919170Y-54770632D01*
X77928349Y-54790038D01*
X77935581Y-54810250D01*
X77940797Y-54831074D01*
X77943947Y-54852309D01*
X77945000Y-54873750D01*
X77945000Y-55311250D01*
X77943947Y-55332691D01*
X77940797Y-55353926D01*
X77935581Y-55374750D01*
X77928349Y-55394962D01*
X77919170Y-55414368D01*
X77908134Y-55432781D01*
X77895346Y-55450024D01*
X77880930Y-55465930D01*
X77865024Y-55480346D01*
X77847781Y-55493134D01*
X77829368Y-55504170D01*
X77809962Y-55513349D01*
X77789750Y-55520581D01*
X77768926Y-55525797D01*
X77747691Y-55528947D01*
X77726250Y-55530000D01*
X77213750Y-55530000D01*
X77192309Y-55528947D01*
X77171074Y-55525797D01*
X77150250Y-55520581D01*
X77130038Y-55513349D01*
X77110632Y-55504170D01*
X77092219Y-55493134D01*
X77074976Y-55480346D01*
X77059070Y-55465930D01*
X77044654Y-55450024D01*
X77031866Y-55432781D01*
X77020830Y-55414368D01*
X77011651Y-55394962D01*
X77004419Y-55374750D01*
X76999203Y-55353926D01*
X76996053Y-55332691D01*
X76995000Y-55311250D01*
X76995000Y-54873750D01*
X76996053Y-54852309D01*
X76999203Y-54831074D01*
X77004419Y-54810250D01*
X77011651Y-54790038D01*
X77020830Y-54770632D01*
X77031866Y-54752219D01*
X77044654Y-54734976D01*
X77059070Y-54719070D01*
X77074976Y-54704654D01*
X77092219Y-54691866D01*
X77110632Y-54680830D01*
X77130038Y-54671651D01*
X77150250Y-54664419D01*
X77171074Y-54659203D01*
X77192309Y-54656053D01*
X77213750Y-54655000D01*
X77726250Y-54655000D01*
X77747691Y-54656053D01*
X77747691Y-54656053D01*
G37*
D11*
X77470000Y-55092500D03*
D10*
G36*
X77747691Y-56231053D02*
G01*
X77768926Y-56234203D01*
X77789750Y-56239419D01*
X77809962Y-56246651D01*
X77829368Y-56255830D01*
X77847781Y-56266866D01*
X77865024Y-56279654D01*
X77880930Y-56294070D01*
X77895346Y-56309976D01*
X77908134Y-56327219D01*
X77919170Y-56345632D01*
X77928349Y-56365038D01*
X77935581Y-56385250D01*
X77940797Y-56406074D01*
X77943947Y-56427309D01*
X77945000Y-56448750D01*
X77945000Y-56886250D01*
X77943947Y-56907691D01*
X77940797Y-56928926D01*
X77935581Y-56949750D01*
X77928349Y-56969962D01*
X77919170Y-56989368D01*
X77908134Y-57007781D01*
X77895346Y-57025024D01*
X77880930Y-57040930D01*
X77865024Y-57055346D01*
X77847781Y-57068134D01*
X77829368Y-57079170D01*
X77809962Y-57088349D01*
X77789750Y-57095581D01*
X77768926Y-57100797D01*
X77747691Y-57103947D01*
X77726250Y-57105000D01*
X77213750Y-57105000D01*
X77192309Y-57103947D01*
X77171074Y-57100797D01*
X77150250Y-57095581D01*
X77130038Y-57088349D01*
X77110632Y-57079170D01*
X77092219Y-57068134D01*
X77074976Y-57055346D01*
X77059070Y-57040930D01*
X77044654Y-57025024D01*
X77031866Y-57007781D01*
X77020830Y-56989368D01*
X77011651Y-56969962D01*
X77004419Y-56949750D01*
X76999203Y-56928926D01*
X76996053Y-56907691D01*
X76995000Y-56886250D01*
X76995000Y-56448750D01*
X76996053Y-56427309D01*
X76999203Y-56406074D01*
X77004419Y-56385250D01*
X77011651Y-56365038D01*
X77020830Y-56345632D01*
X77031866Y-56327219D01*
X77044654Y-56309976D01*
X77059070Y-56294070D01*
X77074976Y-56279654D01*
X77092219Y-56266866D01*
X77110632Y-56255830D01*
X77130038Y-56246651D01*
X77150250Y-56239419D01*
X77171074Y-56234203D01*
X77192309Y-56231053D01*
X77213750Y-56230000D01*
X77726250Y-56230000D01*
X77747691Y-56231053D01*
X77747691Y-56231053D01*
G37*
D11*
X77470000Y-56667500D03*
D10*
G36*
X80287691Y-57501053D02*
G01*
X80308926Y-57504203D01*
X80329750Y-57509419D01*
X80349962Y-57516651D01*
X80369368Y-57525830D01*
X80387781Y-57536866D01*
X80405024Y-57549654D01*
X80420930Y-57564070D01*
X80435346Y-57579976D01*
X80448134Y-57597219D01*
X80459170Y-57615632D01*
X80468349Y-57635038D01*
X80475581Y-57655250D01*
X80480797Y-57676074D01*
X80483947Y-57697309D01*
X80485000Y-57718750D01*
X80485000Y-58156250D01*
X80483947Y-58177691D01*
X80480797Y-58198926D01*
X80475581Y-58219750D01*
X80468349Y-58239962D01*
X80459170Y-58259368D01*
X80448134Y-58277781D01*
X80435346Y-58295024D01*
X80420930Y-58310930D01*
X80405024Y-58325346D01*
X80387781Y-58338134D01*
X80369368Y-58349170D01*
X80349962Y-58358349D01*
X80329750Y-58365581D01*
X80308926Y-58370797D01*
X80287691Y-58373947D01*
X80266250Y-58375000D01*
X79753750Y-58375000D01*
X79732309Y-58373947D01*
X79711074Y-58370797D01*
X79690250Y-58365581D01*
X79670038Y-58358349D01*
X79650632Y-58349170D01*
X79632219Y-58338134D01*
X79614976Y-58325346D01*
X79599070Y-58310930D01*
X79584654Y-58295024D01*
X79571866Y-58277781D01*
X79560830Y-58259368D01*
X79551651Y-58239962D01*
X79544419Y-58219750D01*
X79539203Y-58198926D01*
X79536053Y-58177691D01*
X79535000Y-58156250D01*
X79535000Y-57718750D01*
X79536053Y-57697309D01*
X79539203Y-57676074D01*
X79544419Y-57655250D01*
X79551651Y-57635038D01*
X79560830Y-57615632D01*
X79571866Y-57597219D01*
X79584654Y-57579976D01*
X79599070Y-57564070D01*
X79614976Y-57549654D01*
X79632219Y-57536866D01*
X79650632Y-57525830D01*
X79670038Y-57516651D01*
X79690250Y-57509419D01*
X79711074Y-57504203D01*
X79732309Y-57501053D01*
X79753750Y-57500000D01*
X80266250Y-57500000D01*
X80287691Y-57501053D01*
X80287691Y-57501053D01*
G37*
D11*
X80010000Y-57937500D03*
D10*
G36*
X80287691Y-55926053D02*
G01*
X80308926Y-55929203D01*
X80329750Y-55934419D01*
X80349962Y-55941651D01*
X80369368Y-55950830D01*
X80387781Y-55961866D01*
X80405024Y-55974654D01*
X80420930Y-55989070D01*
X80435346Y-56004976D01*
X80448134Y-56022219D01*
X80459170Y-56040632D01*
X80468349Y-56060038D01*
X80475581Y-56080250D01*
X80480797Y-56101074D01*
X80483947Y-56122309D01*
X80485000Y-56143750D01*
X80485000Y-56581250D01*
X80483947Y-56602691D01*
X80480797Y-56623926D01*
X80475581Y-56644750D01*
X80468349Y-56664962D01*
X80459170Y-56684368D01*
X80448134Y-56702781D01*
X80435346Y-56720024D01*
X80420930Y-56735930D01*
X80405024Y-56750346D01*
X80387781Y-56763134D01*
X80369368Y-56774170D01*
X80349962Y-56783349D01*
X80329750Y-56790581D01*
X80308926Y-56795797D01*
X80287691Y-56798947D01*
X80266250Y-56800000D01*
X79753750Y-56800000D01*
X79732309Y-56798947D01*
X79711074Y-56795797D01*
X79690250Y-56790581D01*
X79670038Y-56783349D01*
X79650632Y-56774170D01*
X79632219Y-56763134D01*
X79614976Y-56750346D01*
X79599070Y-56735930D01*
X79584654Y-56720024D01*
X79571866Y-56702781D01*
X79560830Y-56684368D01*
X79551651Y-56664962D01*
X79544419Y-56644750D01*
X79539203Y-56623926D01*
X79536053Y-56602691D01*
X79535000Y-56581250D01*
X79535000Y-56143750D01*
X79536053Y-56122309D01*
X79539203Y-56101074D01*
X79544419Y-56080250D01*
X79551651Y-56060038D01*
X79560830Y-56040632D01*
X79571866Y-56022219D01*
X79584654Y-56004976D01*
X79599070Y-55989070D01*
X79614976Y-55974654D01*
X79632219Y-55961866D01*
X79650632Y-55950830D01*
X79670038Y-55941651D01*
X79690250Y-55934419D01*
X79711074Y-55929203D01*
X79732309Y-55926053D01*
X79753750Y-55925000D01*
X80266250Y-55925000D01*
X80287691Y-55926053D01*
X80287691Y-55926053D01*
G37*
D11*
X80010000Y-56362500D03*
D10*
G36*
X88669691Y-55723053D02*
G01*
X88690926Y-55726203D01*
X88711750Y-55731419D01*
X88731962Y-55738651D01*
X88751368Y-55747830D01*
X88769781Y-55758866D01*
X88787024Y-55771654D01*
X88802930Y-55786070D01*
X88817346Y-55801976D01*
X88830134Y-55819219D01*
X88841170Y-55837632D01*
X88850349Y-55857038D01*
X88857581Y-55877250D01*
X88862797Y-55898074D01*
X88865947Y-55919309D01*
X88867000Y-55940750D01*
X88867000Y-56378250D01*
X88865947Y-56399691D01*
X88862797Y-56420926D01*
X88857581Y-56441750D01*
X88850349Y-56461962D01*
X88841170Y-56481368D01*
X88830134Y-56499781D01*
X88817346Y-56517024D01*
X88802930Y-56532930D01*
X88787024Y-56547346D01*
X88769781Y-56560134D01*
X88751368Y-56571170D01*
X88731962Y-56580349D01*
X88711750Y-56587581D01*
X88690926Y-56592797D01*
X88669691Y-56595947D01*
X88648250Y-56597000D01*
X88135750Y-56597000D01*
X88114309Y-56595947D01*
X88093074Y-56592797D01*
X88072250Y-56587581D01*
X88052038Y-56580349D01*
X88032632Y-56571170D01*
X88014219Y-56560134D01*
X87996976Y-56547346D01*
X87981070Y-56532930D01*
X87966654Y-56517024D01*
X87953866Y-56499781D01*
X87942830Y-56481368D01*
X87933651Y-56461962D01*
X87926419Y-56441750D01*
X87921203Y-56420926D01*
X87918053Y-56399691D01*
X87917000Y-56378250D01*
X87917000Y-55940750D01*
X87918053Y-55919309D01*
X87921203Y-55898074D01*
X87926419Y-55877250D01*
X87933651Y-55857038D01*
X87942830Y-55837632D01*
X87953866Y-55819219D01*
X87966654Y-55801976D01*
X87981070Y-55786070D01*
X87996976Y-55771654D01*
X88014219Y-55758866D01*
X88032632Y-55747830D01*
X88052038Y-55738651D01*
X88072250Y-55731419D01*
X88093074Y-55726203D01*
X88114309Y-55723053D01*
X88135750Y-55722000D01*
X88648250Y-55722000D01*
X88669691Y-55723053D01*
X88669691Y-55723053D01*
G37*
D11*
X88392000Y-56159500D03*
D10*
G36*
X88669691Y-54148053D02*
G01*
X88690926Y-54151203D01*
X88711750Y-54156419D01*
X88731962Y-54163651D01*
X88751368Y-54172830D01*
X88769781Y-54183866D01*
X88787024Y-54196654D01*
X88802930Y-54211070D01*
X88817346Y-54226976D01*
X88830134Y-54244219D01*
X88841170Y-54262632D01*
X88850349Y-54282038D01*
X88857581Y-54302250D01*
X88862797Y-54323074D01*
X88865947Y-54344309D01*
X88867000Y-54365750D01*
X88867000Y-54803250D01*
X88865947Y-54824691D01*
X88862797Y-54845926D01*
X88857581Y-54866750D01*
X88850349Y-54886962D01*
X88841170Y-54906368D01*
X88830134Y-54924781D01*
X88817346Y-54942024D01*
X88802930Y-54957930D01*
X88787024Y-54972346D01*
X88769781Y-54985134D01*
X88751368Y-54996170D01*
X88731962Y-55005349D01*
X88711750Y-55012581D01*
X88690926Y-55017797D01*
X88669691Y-55020947D01*
X88648250Y-55022000D01*
X88135750Y-55022000D01*
X88114309Y-55020947D01*
X88093074Y-55017797D01*
X88072250Y-55012581D01*
X88052038Y-55005349D01*
X88032632Y-54996170D01*
X88014219Y-54985134D01*
X87996976Y-54972346D01*
X87981070Y-54957930D01*
X87966654Y-54942024D01*
X87953866Y-54924781D01*
X87942830Y-54906368D01*
X87933651Y-54886962D01*
X87926419Y-54866750D01*
X87921203Y-54845926D01*
X87918053Y-54824691D01*
X87917000Y-54803250D01*
X87917000Y-54365750D01*
X87918053Y-54344309D01*
X87921203Y-54323074D01*
X87926419Y-54302250D01*
X87933651Y-54282038D01*
X87942830Y-54262632D01*
X87953866Y-54244219D01*
X87966654Y-54226976D01*
X87981070Y-54211070D01*
X87996976Y-54196654D01*
X88014219Y-54183866D01*
X88032632Y-54172830D01*
X88052038Y-54163651D01*
X88072250Y-54156419D01*
X88093074Y-54151203D01*
X88114309Y-54148053D01*
X88135750Y-54147000D01*
X88648250Y-54147000D01*
X88669691Y-54148053D01*
X88669691Y-54148053D01*
G37*
D11*
X88392000Y-54584500D03*
D18*
X83020000Y-80046000D03*
X90970000Y-80046000D03*
X83020000Y-84546000D03*
X90970000Y-84546000D03*
X80175000Y-89880000D03*
X72225000Y-89880000D03*
X80175000Y-85380000D03*
X72225000Y-85380000D03*
D10*
G36*
X62507691Y-56408553D02*
G01*
X62528926Y-56411703D01*
X62549750Y-56416919D01*
X62569962Y-56424151D01*
X62589368Y-56433330D01*
X62607781Y-56444366D01*
X62625024Y-56457154D01*
X62640930Y-56471570D01*
X62655346Y-56487476D01*
X62668134Y-56504719D01*
X62679170Y-56523132D01*
X62688349Y-56542538D01*
X62695581Y-56562750D01*
X62700797Y-56583574D01*
X62703947Y-56604809D01*
X62705000Y-56626250D01*
X62705000Y-57063750D01*
X62703947Y-57085191D01*
X62700797Y-57106426D01*
X62695581Y-57127250D01*
X62688349Y-57147462D01*
X62679170Y-57166868D01*
X62668134Y-57185281D01*
X62655346Y-57202524D01*
X62640930Y-57218430D01*
X62625024Y-57232846D01*
X62607781Y-57245634D01*
X62589368Y-57256670D01*
X62569962Y-57265849D01*
X62549750Y-57273081D01*
X62528926Y-57278297D01*
X62507691Y-57281447D01*
X62486250Y-57282500D01*
X61973750Y-57282500D01*
X61952309Y-57281447D01*
X61931074Y-57278297D01*
X61910250Y-57273081D01*
X61890038Y-57265849D01*
X61870632Y-57256670D01*
X61852219Y-57245634D01*
X61834976Y-57232846D01*
X61819070Y-57218430D01*
X61804654Y-57202524D01*
X61791866Y-57185281D01*
X61780830Y-57166868D01*
X61771651Y-57147462D01*
X61764419Y-57127250D01*
X61759203Y-57106426D01*
X61756053Y-57085191D01*
X61755000Y-57063750D01*
X61755000Y-56626250D01*
X61756053Y-56604809D01*
X61759203Y-56583574D01*
X61764419Y-56562750D01*
X61771651Y-56542538D01*
X61780830Y-56523132D01*
X61791866Y-56504719D01*
X61804654Y-56487476D01*
X61819070Y-56471570D01*
X61834976Y-56457154D01*
X61852219Y-56444366D01*
X61870632Y-56433330D01*
X61890038Y-56424151D01*
X61910250Y-56416919D01*
X61931074Y-56411703D01*
X61952309Y-56408553D01*
X61973750Y-56407500D01*
X62486250Y-56407500D01*
X62507691Y-56408553D01*
X62507691Y-56408553D01*
G37*
D11*
X62230000Y-56845000D03*
D10*
G36*
X62507691Y-57983553D02*
G01*
X62528926Y-57986703D01*
X62549750Y-57991919D01*
X62569962Y-57999151D01*
X62589368Y-58008330D01*
X62607781Y-58019366D01*
X62625024Y-58032154D01*
X62640930Y-58046570D01*
X62655346Y-58062476D01*
X62668134Y-58079719D01*
X62679170Y-58098132D01*
X62688349Y-58117538D01*
X62695581Y-58137750D01*
X62700797Y-58158574D01*
X62703947Y-58179809D01*
X62705000Y-58201250D01*
X62705000Y-58638750D01*
X62703947Y-58660191D01*
X62700797Y-58681426D01*
X62695581Y-58702250D01*
X62688349Y-58722462D01*
X62679170Y-58741868D01*
X62668134Y-58760281D01*
X62655346Y-58777524D01*
X62640930Y-58793430D01*
X62625024Y-58807846D01*
X62607781Y-58820634D01*
X62589368Y-58831670D01*
X62569962Y-58840849D01*
X62549750Y-58848081D01*
X62528926Y-58853297D01*
X62507691Y-58856447D01*
X62486250Y-58857500D01*
X61973750Y-58857500D01*
X61952309Y-58856447D01*
X61931074Y-58853297D01*
X61910250Y-58848081D01*
X61890038Y-58840849D01*
X61870632Y-58831670D01*
X61852219Y-58820634D01*
X61834976Y-58807846D01*
X61819070Y-58793430D01*
X61804654Y-58777524D01*
X61791866Y-58760281D01*
X61780830Y-58741868D01*
X61771651Y-58722462D01*
X61764419Y-58702250D01*
X61759203Y-58681426D01*
X61756053Y-58660191D01*
X61755000Y-58638750D01*
X61755000Y-58201250D01*
X61756053Y-58179809D01*
X61759203Y-58158574D01*
X61764419Y-58137750D01*
X61771651Y-58117538D01*
X61780830Y-58098132D01*
X61791866Y-58079719D01*
X61804654Y-58062476D01*
X61819070Y-58046570D01*
X61834976Y-58032154D01*
X61852219Y-58019366D01*
X61870632Y-58008330D01*
X61890038Y-57999151D01*
X61910250Y-57991919D01*
X61931074Y-57986703D01*
X61952309Y-57983553D01*
X61973750Y-57982500D01*
X62486250Y-57982500D01*
X62507691Y-57983553D01*
X62507691Y-57983553D01*
G37*
D11*
X62230000Y-58420000D03*
D10*
G36*
X65047691Y-57983553D02*
G01*
X65068926Y-57986703D01*
X65089750Y-57991919D01*
X65109962Y-57999151D01*
X65129368Y-58008330D01*
X65147781Y-58019366D01*
X65165024Y-58032154D01*
X65180930Y-58046570D01*
X65195346Y-58062476D01*
X65208134Y-58079719D01*
X65219170Y-58098132D01*
X65228349Y-58117538D01*
X65235581Y-58137750D01*
X65240797Y-58158574D01*
X65243947Y-58179809D01*
X65245000Y-58201250D01*
X65245000Y-58638750D01*
X65243947Y-58660191D01*
X65240797Y-58681426D01*
X65235581Y-58702250D01*
X65228349Y-58722462D01*
X65219170Y-58741868D01*
X65208134Y-58760281D01*
X65195346Y-58777524D01*
X65180930Y-58793430D01*
X65165024Y-58807846D01*
X65147781Y-58820634D01*
X65129368Y-58831670D01*
X65109962Y-58840849D01*
X65089750Y-58848081D01*
X65068926Y-58853297D01*
X65047691Y-58856447D01*
X65026250Y-58857500D01*
X64513750Y-58857500D01*
X64492309Y-58856447D01*
X64471074Y-58853297D01*
X64450250Y-58848081D01*
X64430038Y-58840849D01*
X64410632Y-58831670D01*
X64392219Y-58820634D01*
X64374976Y-58807846D01*
X64359070Y-58793430D01*
X64344654Y-58777524D01*
X64331866Y-58760281D01*
X64320830Y-58741868D01*
X64311651Y-58722462D01*
X64304419Y-58702250D01*
X64299203Y-58681426D01*
X64296053Y-58660191D01*
X64295000Y-58638750D01*
X64295000Y-58201250D01*
X64296053Y-58179809D01*
X64299203Y-58158574D01*
X64304419Y-58137750D01*
X64311651Y-58117538D01*
X64320830Y-58098132D01*
X64331866Y-58079719D01*
X64344654Y-58062476D01*
X64359070Y-58046570D01*
X64374976Y-58032154D01*
X64392219Y-58019366D01*
X64410632Y-58008330D01*
X64430038Y-57999151D01*
X64450250Y-57991919D01*
X64471074Y-57986703D01*
X64492309Y-57983553D01*
X64513750Y-57982500D01*
X65026250Y-57982500D01*
X65047691Y-57983553D01*
X65047691Y-57983553D01*
G37*
D11*
X64770000Y-58420000D03*
D10*
G36*
X65047691Y-56408553D02*
G01*
X65068926Y-56411703D01*
X65089750Y-56416919D01*
X65109962Y-56424151D01*
X65129368Y-56433330D01*
X65147781Y-56444366D01*
X65165024Y-56457154D01*
X65180930Y-56471570D01*
X65195346Y-56487476D01*
X65208134Y-56504719D01*
X65219170Y-56523132D01*
X65228349Y-56542538D01*
X65235581Y-56562750D01*
X65240797Y-56583574D01*
X65243947Y-56604809D01*
X65245000Y-56626250D01*
X65245000Y-57063750D01*
X65243947Y-57085191D01*
X65240797Y-57106426D01*
X65235581Y-57127250D01*
X65228349Y-57147462D01*
X65219170Y-57166868D01*
X65208134Y-57185281D01*
X65195346Y-57202524D01*
X65180930Y-57218430D01*
X65165024Y-57232846D01*
X65147781Y-57245634D01*
X65129368Y-57256670D01*
X65109962Y-57265849D01*
X65089750Y-57273081D01*
X65068926Y-57278297D01*
X65047691Y-57281447D01*
X65026250Y-57282500D01*
X64513750Y-57282500D01*
X64492309Y-57281447D01*
X64471074Y-57278297D01*
X64450250Y-57273081D01*
X64430038Y-57265849D01*
X64410632Y-57256670D01*
X64392219Y-57245634D01*
X64374976Y-57232846D01*
X64359070Y-57218430D01*
X64344654Y-57202524D01*
X64331866Y-57185281D01*
X64320830Y-57166868D01*
X64311651Y-57147462D01*
X64304419Y-57127250D01*
X64299203Y-57106426D01*
X64296053Y-57085191D01*
X64295000Y-57063750D01*
X64295000Y-56626250D01*
X64296053Y-56604809D01*
X64299203Y-56583574D01*
X64304419Y-56562750D01*
X64311651Y-56542538D01*
X64320830Y-56523132D01*
X64331866Y-56504719D01*
X64344654Y-56487476D01*
X64359070Y-56471570D01*
X64374976Y-56457154D01*
X64392219Y-56444366D01*
X64410632Y-56433330D01*
X64430038Y-56424151D01*
X64450250Y-56416919D01*
X64471074Y-56411703D01*
X64492309Y-56408553D01*
X64513750Y-56407500D01*
X65026250Y-56407500D01*
X65047691Y-56408553D01*
X65047691Y-56408553D01*
G37*
D11*
X64770000Y-56845000D03*
D10*
G36*
X70127691Y-57501053D02*
G01*
X70148926Y-57504203D01*
X70169750Y-57509419D01*
X70189962Y-57516651D01*
X70209368Y-57525830D01*
X70227781Y-57536866D01*
X70245024Y-57549654D01*
X70260930Y-57564070D01*
X70275346Y-57579976D01*
X70288134Y-57597219D01*
X70299170Y-57615632D01*
X70308349Y-57635038D01*
X70315581Y-57655250D01*
X70320797Y-57676074D01*
X70323947Y-57697309D01*
X70325000Y-57718750D01*
X70325000Y-58156250D01*
X70323947Y-58177691D01*
X70320797Y-58198926D01*
X70315581Y-58219750D01*
X70308349Y-58239962D01*
X70299170Y-58259368D01*
X70288134Y-58277781D01*
X70275346Y-58295024D01*
X70260930Y-58310930D01*
X70245024Y-58325346D01*
X70227781Y-58338134D01*
X70209368Y-58349170D01*
X70189962Y-58358349D01*
X70169750Y-58365581D01*
X70148926Y-58370797D01*
X70127691Y-58373947D01*
X70106250Y-58375000D01*
X69593750Y-58375000D01*
X69572309Y-58373947D01*
X69551074Y-58370797D01*
X69530250Y-58365581D01*
X69510038Y-58358349D01*
X69490632Y-58349170D01*
X69472219Y-58338134D01*
X69454976Y-58325346D01*
X69439070Y-58310930D01*
X69424654Y-58295024D01*
X69411866Y-58277781D01*
X69400830Y-58259368D01*
X69391651Y-58239962D01*
X69384419Y-58219750D01*
X69379203Y-58198926D01*
X69376053Y-58177691D01*
X69375000Y-58156250D01*
X69375000Y-57718750D01*
X69376053Y-57697309D01*
X69379203Y-57676074D01*
X69384419Y-57655250D01*
X69391651Y-57635038D01*
X69400830Y-57615632D01*
X69411866Y-57597219D01*
X69424654Y-57579976D01*
X69439070Y-57564070D01*
X69454976Y-57549654D01*
X69472219Y-57536866D01*
X69490632Y-57525830D01*
X69510038Y-57516651D01*
X69530250Y-57509419D01*
X69551074Y-57504203D01*
X69572309Y-57501053D01*
X69593750Y-57500000D01*
X70106250Y-57500000D01*
X70127691Y-57501053D01*
X70127691Y-57501053D01*
G37*
D11*
X69850000Y-57937500D03*
D10*
G36*
X70127691Y-55926053D02*
G01*
X70148926Y-55929203D01*
X70169750Y-55934419D01*
X70189962Y-55941651D01*
X70209368Y-55950830D01*
X70227781Y-55961866D01*
X70245024Y-55974654D01*
X70260930Y-55989070D01*
X70275346Y-56004976D01*
X70288134Y-56022219D01*
X70299170Y-56040632D01*
X70308349Y-56060038D01*
X70315581Y-56080250D01*
X70320797Y-56101074D01*
X70323947Y-56122309D01*
X70325000Y-56143750D01*
X70325000Y-56581250D01*
X70323947Y-56602691D01*
X70320797Y-56623926D01*
X70315581Y-56644750D01*
X70308349Y-56664962D01*
X70299170Y-56684368D01*
X70288134Y-56702781D01*
X70275346Y-56720024D01*
X70260930Y-56735930D01*
X70245024Y-56750346D01*
X70227781Y-56763134D01*
X70209368Y-56774170D01*
X70189962Y-56783349D01*
X70169750Y-56790581D01*
X70148926Y-56795797D01*
X70127691Y-56798947D01*
X70106250Y-56800000D01*
X69593750Y-56800000D01*
X69572309Y-56798947D01*
X69551074Y-56795797D01*
X69530250Y-56790581D01*
X69510038Y-56783349D01*
X69490632Y-56774170D01*
X69472219Y-56763134D01*
X69454976Y-56750346D01*
X69439070Y-56735930D01*
X69424654Y-56720024D01*
X69411866Y-56702781D01*
X69400830Y-56684368D01*
X69391651Y-56664962D01*
X69384419Y-56644750D01*
X69379203Y-56623926D01*
X69376053Y-56602691D01*
X69375000Y-56581250D01*
X69375000Y-56143750D01*
X69376053Y-56122309D01*
X69379203Y-56101074D01*
X69384419Y-56080250D01*
X69391651Y-56060038D01*
X69400830Y-56040632D01*
X69411866Y-56022219D01*
X69424654Y-56004976D01*
X69439070Y-55989070D01*
X69454976Y-55974654D01*
X69472219Y-55961866D01*
X69490632Y-55950830D01*
X69510038Y-55941651D01*
X69530250Y-55934419D01*
X69551074Y-55929203D01*
X69572309Y-55926053D01*
X69593750Y-55925000D01*
X70106250Y-55925000D01*
X70127691Y-55926053D01*
X70127691Y-55926053D01*
G37*
D11*
X69850000Y-56362500D03*
D10*
G36*
X64019691Y-64042053D02*
G01*
X64040926Y-64045203D01*
X64061750Y-64050419D01*
X64081962Y-64057651D01*
X64101368Y-64066830D01*
X64119781Y-64077866D01*
X64137024Y-64090654D01*
X64152930Y-64105070D01*
X64167346Y-64120976D01*
X64180134Y-64138219D01*
X64191170Y-64156632D01*
X64200349Y-64176038D01*
X64207581Y-64196250D01*
X64212797Y-64217074D01*
X64215947Y-64238309D01*
X64217000Y-64259750D01*
X64217000Y-64772250D01*
X64215947Y-64793691D01*
X64212797Y-64814926D01*
X64207581Y-64835750D01*
X64200349Y-64855962D01*
X64191170Y-64875368D01*
X64180134Y-64893781D01*
X64167346Y-64911024D01*
X64152930Y-64926930D01*
X64137024Y-64941346D01*
X64119781Y-64954134D01*
X64101368Y-64965170D01*
X64081962Y-64974349D01*
X64061750Y-64981581D01*
X64040926Y-64986797D01*
X64019691Y-64989947D01*
X63998250Y-64991000D01*
X63560750Y-64991000D01*
X63539309Y-64989947D01*
X63518074Y-64986797D01*
X63497250Y-64981581D01*
X63477038Y-64974349D01*
X63457632Y-64965170D01*
X63439219Y-64954134D01*
X63421976Y-64941346D01*
X63406070Y-64926930D01*
X63391654Y-64911024D01*
X63378866Y-64893781D01*
X63367830Y-64875368D01*
X63358651Y-64855962D01*
X63351419Y-64835750D01*
X63346203Y-64814926D01*
X63343053Y-64793691D01*
X63342000Y-64772250D01*
X63342000Y-64259750D01*
X63343053Y-64238309D01*
X63346203Y-64217074D01*
X63351419Y-64196250D01*
X63358651Y-64176038D01*
X63367830Y-64156632D01*
X63378866Y-64138219D01*
X63391654Y-64120976D01*
X63406070Y-64105070D01*
X63421976Y-64090654D01*
X63439219Y-64077866D01*
X63457632Y-64066830D01*
X63477038Y-64057651D01*
X63497250Y-64050419D01*
X63518074Y-64045203D01*
X63539309Y-64042053D01*
X63560750Y-64041000D01*
X63998250Y-64041000D01*
X64019691Y-64042053D01*
X64019691Y-64042053D01*
G37*
D11*
X63779500Y-64516000D03*
D10*
G36*
X62444691Y-64042053D02*
G01*
X62465926Y-64045203D01*
X62486750Y-64050419D01*
X62506962Y-64057651D01*
X62526368Y-64066830D01*
X62544781Y-64077866D01*
X62562024Y-64090654D01*
X62577930Y-64105070D01*
X62592346Y-64120976D01*
X62605134Y-64138219D01*
X62616170Y-64156632D01*
X62625349Y-64176038D01*
X62632581Y-64196250D01*
X62637797Y-64217074D01*
X62640947Y-64238309D01*
X62642000Y-64259750D01*
X62642000Y-64772250D01*
X62640947Y-64793691D01*
X62637797Y-64814926D01*
X62632581Y-64835750D01*
X62625349Y-64855962D01*
X62616170Y-64875368D01*
X62605134Y-64893781D01*
X62592346Y-64911024D01*
X62577930Y-64926930D01*
X62562024Y-64941346D01*
X62544781Y-64954134D01*
X62526368Y-64965170D01*
X62506962Y-64974349D01*
X62486750Y-64981581D01*
X62465926Y-64986797D01*
X62444691Y-64989947D01*
X62423250Y-64991000D01*
X61985750Y-64991000D01*
X61964309Y-64989947D01*
X61943074Y-64986797D01*
X61922250Y-64981581D01*
X61902038Y-64974349D01*
X61882632Y-64965170D01*
X61864219Y-64954134D01*
X61846976Y-64941346D01*
X61831070Y-64926930D01*
X61816654Y-64911024D01*
X61803866Y-64893781D01*
X61792830Y-64875368D01*
X61783651Y-64855962D01*
X61776419Y-64835750D01*
X61771203Y-64814926D01*
X61768053Y-64793691D01*
X61767000Y-64772250D01*
X61767000Y-64259750D01*
X61768053Y-64238309D01*
X61771203Y-64217074D01*
X61776419Y-64196250D01*
X61783651Y-64176038D01*
X61792830Y-64156632D01*
X61803866Y-64138219D01*
X61816654Y-64120976D01*
X61831070Y-64105070D01*
X61846976Y-64090654D01*
X61864219Y-64077866D01*
X61882632Y-64066830D01*
X61902038Y-64057651D01*
X61922250Y-64050419D01*
X61943074Y-64045203D01*
X61964309Y-64042053D01*
X61985750Y-64041000D01*
X62423250Y-64041000D01*
X62444691Y-64042053D01*
X62444691Y-64042053D01*
G37*
D11*
X62204500Y-64516000D03*
D10*
G36*
X68261191Y-64296053D02*
G01*
X68282426Y-64299203D01*
X68303250Y-64304419D01*
X68323462Y-64311651D01*
X68342868Y-64320830D01*
X68361281Y-64331866D01*
X68378524Y-64344654D01*
X68394430Y-64359070D01*
X68408846Y-64374976D01*
X68421634Y-64392219D01*
X68432670Y-64410632D01*
X68441849Y-64430038D01*
X68449081Y-64450250D01*
X68454297Y-64471074D01*
X68457447Y-64492309D01*
X68458500Y-64513750D01*
X68458500Y-65026250D01*
X68457447Y-65047691D01*
X68454297Y-65068926D01*
X68449081Y-65089750D01*
X68441849Y-65109962D01*
X68432670Y-65129368D01*
X68421634Y-65147781D01*
X68408846Y-65165024D01*
X68394430Y-65180930D01*
X68378524Y-65195346D01*
X68361281Y-65208134D01*
X68342868Y-65219170D01*
X68323462Y-65228349D01*
X68303250Y-65235581D01*
X68282426Y-65240797D01*
X68261191Y-65243947D01*
X68239750Y-65245000D01*
X67802250Y-65245000D01*
X67780809Y-65243947D01*
X67759574Y-65240797D01*
X67738750Y-65235581D01*
X67718538Y-65228349D01*
X67699132Y-65219170D01*
X67680719Y-65208134D01*
X67663476Y-65195346D01*
X67647570Y-65180930D01*
X67633154Y-65165024D01*
X67620366Y-65147781D01*
X67609330Y-65129368D01*
X67600151Y-65109962D01*
X67592919Y-65089750D01*
X67587703Y-65068926D01*
X67584553Y-65047691D01*
X67583500Y-65026250D01*
X67583500Y-64513750D01*
X67584553Y-64492309D01*
X67587703Y-64471074D01*
X67592919Y-64450250D01*
X67600151Y-64430038D01*
X67609330Y-64410632D01*
X67620366Y-64392219D01*
X67633154Y-64374976D01*
X67647570Y-64359070D01*
X67663476Y-64344654D01*
X67680719Y-64331866D01*
X67699132Y-64320830D01*
X67718538Y-64311651D01*
X67738750Y-64304419D01*
X67759574Y-64299203D01*
X67780809Y-64296053D01*
X67802250Y-64295000D01*
X68239750Y-64295000D01*
X68261191Y-64296053D01*
X68261191Y-64296053D01*
G37*
D11*
X68021000Y-64770000D03*
D10*
G36*
X69836191Y-64296053D02*
G01*
X69857426Y-64299203D01*
X69878250Y-64304419D01*
X69898462Y-64311651D01*
X69917868Y-64320830D01*
X69936281Y-64331866D01*
X69953524Y-64344654D01*
X69969430Y-64359070D01*
X69983846Y-64374976D01*
X69996634Y-64392219D01*
X70007670Y-64410632D01*
X70016849Y-64430038D01*
X70024081Y-64450250D01*
X70029297Y-64471074D01*
X70032447Y-64492309D01*
X70033500Y-64513750D01*
X70033500Y-65026250D01*
X70032447Y-65047691D01*
X70029297Y-65068926D01*
X70024081Y-65089750D01*
X70016849Y-65109962D01*
X70007670Y-65129368D01*
X69996634Y-65147781D01*
X69983846Y-65165024D01*
X69969430Y-65180930D01*
X69953524Y-65195346D01*
X69936281Y-65208134D01*
X69917868Y-65219170D01*
X69898462Y-65228349D01*
X69878250Y-65235581D01*
X69857426Y-65240797D01*
X69836191Y-65243947D01*
X69814750Y-65245000D01*
X69377250Y-65245000D01*
X69355809Y-65243947D01*
X69334574Y-65240797D01*
X69313750Y-65235581D01*
X69293538Y-65228349D01*
X69274132Y-65219170D01*
X69255719Y-65208134D01*
X69238476Y-65195346D01*
X69222570Y-65180930D01*
X69208154Y-65165024D01*
X69195366Y-65147781D01*
X69184330Y-65129368D01*
X69175151Y-65109962D01*
X69167919Y-65089750D01*
X69162703Y-65068926D01*
X69159553Y-65047691D01*
X69158500Y-65026250D01*
X69158500Y-64513750D01*
X69159553Y-64492309D01*
X69162703Y-64471074D01*
X69167919Y-64450250D01*
X69175151Y-64430038D01*
X69184330Y-64410632D01*
X69195366Y-64392219D01*
X69208154Y-64374976D01*
X69222570Y-64359070D01*
X69238476Y-64344654D01*
X69255719Y-64331866D01*
X69274132Y-64320830D01*
X69293538Y-64311651D01*
X69313750Y-64304419D01*
X69334574Y-64299203D01*
X69355809Y-64296053D01*
X69377250Y-64295000D01*
X69814750Y-64295000D01*
X69836191Y-64296053D01*
X69836191Y-64296053D01*
G37*
D11*
X69596000Y-64770000D03*
D10*
G36*
X87895691Y-64550053D02*
G01*
X87916926Y-64553203D01*
X87937750Y-64558419D01*
X87957962Y-64565651D01*
X87977368Y-64574830D01*
X87995781Y-64585866D01*
X88013024Y-64598654D01*
X88028930Y-64613070D01*
X88043346Y-64628976D01*
X88056134Y-64646219D01*
X88067170Y-64664632D01*
X88076349Y-64684038D01*
X88083581Y-64704250D01*
X88088797Y-64725074D01*
X88091947Y-64746309D01*
X88093000Y-64767750D01*
X88093000Y-65280250D01*
X88091947Y-65301691D01*
X88088797Y-65322926D01*
X88083581Y-65343750D01*
X88076349Y-65363962D01*
X88067170Y-65383368D01*
X88056134Y-65401781D01*
X88043346Y-65419024D01*
X88028930Y-65434930D01*
X88013024Y-65449346D01*
X87995781Y-65462134D01*
X87977368Y-65473170D01*
X87957962Y-65482349D01*
X87937750Y-65489581D01*
X87916926Y-65494797D01*
X87895691Y-65497947D01*
X87874250Y-65499000D01*
X87436750Y-65499000D01*
X87415309Y-65497947D01*
X87394074Y-65494797D01*
X87373250Y-65489581D01*
X87353038Y-65482349D01*
X87333632Y-65473170D01*
X87315219Y-65462134D01*
X87297976Y-65449346D01*
X87282070Y-65434930D01*
X87267654Y-65419024D01*
X87254866Y-65401781D01*
X87243830Y-65383368D01*
X87234651Y-65363962D01*
X87227419Y-65343750D01*
X87222203Y-65322926D01*
X87219053Y-65301691D01*
X87218000Y-65280250D01*
X87218000Y-64767750D01*
X87219053Y-64746309D01*
X87222203Y-64725074D01*
X87227419Y-64704250D01*
X87234651Y-64684038D01*
X87243830Y-64664632D01*
X87254866Y-64646219D01*
X87267654Y-64628976D01*
X87282070Y-64613070D01*
X87297976Y-64598654D01*
X87315219Y-64585866D01*
X87333632Y-64574830D01*
X87353038Y-64565651D01*
X87373250Y-64558419D01*
X87394074Y-64553203D01*
X87415309Y-64550053D01*
X87436750Y-64549000D01*
X87874250Y-64549000D01*
X87895691Y-64550053D01*
X87895691Y-64550053D01*
G37*
D11*
X87655500Y-65024000D03*
D10*
G36*
X86320691Y-64550053D02*
G01*
X86341926Y-64553203D01*
X86362750Y-64558419D01*
X86382962Y-64565651D01*
X86402368Y-64574830D01*
X86420781Y-64585866D01*
X86438024Y-64598654D01*
X86453930Y-64613070D01*
X86468346Y-64628976D01*
X86481134Y-64646219D01*
X86492170Y-64664632D01*
X86501349Y-64684038D01*
X86508581Y-64704250D01*
X86513797Y-64725074D01*
X86516947Y-64746309D01*
X86518000Y-64767750D01*
X86518000Y-65280250D01*
X86516947Y-65301691D01*
X86513797Y-65322926D01*
X86508581Y-65343750D01*
X86501349Y-65363962D01*
X86492170Y-65383368D01*
X86481134Y-65401781D01*
X86468346Y-65419024D01*
X86453930Y-65434930D01*
X86438024Y-65449346D01*
X86420781Y-65462134D01*
X86402368Y-65473170D01*
X86382962Y-65482349D01*
X86362750Y-65489581D01*
X86341926Y-65494797D01*
X86320691Y-65497947D01*
X86299250Y-65499000D01*
X85861750Y-65499000D01*
X85840309Y-65497947D01*
X85819074Y-65494797D01*
X85798250Y-65489581D01*
X85778038Y-65482349D01*
X85758632Y-65473170D01*
X85740219Y-65462134D01*
X85722976Y-65449346D01*
X85707070Y-65434930D01*
X85692654Y-65419024D01*
X85679866Y-65401781D01*
X85668830Y-65383368D01*
X85659651Y-65363962D01*
X85652419Y-65343750D01*
X85647203Y-65322926D01*
X85644053Y-65301691D01*
X85643000Y-65280250D01*
X85643000Y-64767750D01*
X85644053Y-64746309D01*
X85647203Y-64725074D01*
X85652419Y-64704250D01*
X85659651Y-64684038D01*
X85668830Y-64664632D01*
X85679866Y-64646219D01*
X85692654Y-64628976D01*
X85707070Y-64613070D01*
X85722976Y-64598654D01*
X85740219Y-64585866D01*
X85758632Y-64574830D01*
X85778038Y-64565651D01*
X85798250Y-64558419D01*
X85819074Y-64553203D01*
X85840309Y-64550053D01*
X85861750Y-64549000D01*
X86299250Y-64549000D01*
X86320691Y-64550053D01*
X86320691Y-64550053D01*
G37*
D11*
X86080500Y-65024000D03*
D19*
X68740000Y-79050000D03*
X68740000Y-79850000D03*
X68740000Y-80650000D03*
X68740000Y-81450000D03*
X68740000Y-82250000D03*
D20*
X68640000Y-76200000D03*
X63190000Y-76200000D03*
X68640000Y-85100000D03*
X63190000Y-85100000D03*
D10*
G36*
X81557691Y-66619553D02*
G01*
X81578926Y-66622703D01*
X81599750Y-66627919D01*
X81619962Y-66635151D01*
X81639368Y-66644330D01*
X81657781Y-66655366D01*
X81675024Y-66668154D01*
X81690930Y-66682570D01*
X81705346Y-66698476D01*
X81718134Y-66715719D01*
X81729170Y-66734132D01*
X81738349Y-66753538D01*
X81745581Y-66773750D01*
X81750797Y-66794574D01*
X81753947Y-66815809D01*
X81755000Y-66837250D01*
X81755000Y-67274750D01*
X81753947Y-67296191D01*
X81750797Y-67317426D01*
X81745581Y-67338250D01*
X81738349Y-67358462D01*
X81729170Y-67377868D01*
X81718134Y-67396281D01*
X81705346Y-67413524D01*
X81690930Y-67429430D01*
X81675024Y-67443846D01*
X81657781Y-67456634D01*
X81639368Y-67467670D01*
X81619962Y-67476849D01*
X81599750Y-67484081D01*
X81578926Y-67489297D01*
X81557691Y-67492447D01*
X81536250Y-67493500D01*
X81023750Y-67493500D01*
X81002309Y-67492447D01*
X80981074Y-67489297D01*
X80960250Y-67484081D01*
X80940038Y-67476849D01*
X80920632Y-67467670D01*
X80902219Y-67456634D01*
X80884976Y-67443846D01*
X80869070Y-67429430D01*
X80854654Y-67413524D01*
X80841866Y-67396281D01*
X80830830Y-67377868D01*
X80821651Y-67358462D01*
X80814419Y-67338250D01*
X80809203Y-67317426D01*
X80806053Y-67296191D01*
X80805000Y-67274750D01*
X80805000Y-66837250D01*
X80806053Y-66815809D01*
X80809203Y-66794574D01*
X80814419Y-66773750D01*
X80821651Y-66753538D01*
X80830830Y-66734132D01*
X80841866Y-66715719D01*
X80854654Y-66698476D01*
X80869070Y-66682570D01*
X80884976Y-66668154D01*
X80902219Y-66655366D01*
X80920632Y-66644330D01*
X80940038Y-66635151D01*
X80960250Y-66627919D01*
X80981074Y-66622703D01*
X81002309Y-66619553D01*
X81023750Y-66618500D01*
X81536250Y-66618500D01*
X81557691Y-66619553D01*
X81557691Y-66619553D01*
G37*
D11*
X81280000Y-67056000D03*
D10*
G36*
X81557691Y-65044553D02*
G01*
X81578926Y-65047703D01*
X81599750Y-65052919D01*
X81619962Y-65060151D01*
X81639368Y-65069330D01*
X81657781Y-65080366D01*
X81675024Y-65093154D01*
X81690930Y-65107570D01*
X81705346Y-65123476D01*
X81718134Y-65140719D01*
X81729170Y-65159132D01*
X81738349Y-65178538D01*
X81745581Y-65198750D01*
X81750797Y-65219574D01*
X81753947Y-65240809D01*
X81755000Y-65262250D01*
X81755000Y-65699750D01*
X81753947Y-65721191D01*
X81750797Y-65742426D01*
X81745581Y-65763250D01*
X81738349Y-65783462D01*
X81729170Y-65802868D01*
X81718134Y-65821281D01*
X81705346Y-65838524D01*
X81690930Y-65854430D01*
X81675024Y-65868846D01*
X81657781Y-65881634D01*
X81639368Y-65892670D01*
X81619962Y-65901849D01*
X81599750Y-65909081D01*
X81578926Y-65914297D01*
X81557691Y-65917447D01*
X81536250Y-65918500D01*
X81023750Y-65918500D01*
X81002309Y-65917447D01*
X80981074Y-65914297D01*
X80960250Y-65909081D01*
X80940038Y-65901849D01*
X80920632Y-65892670D01*
X80902219Y-65881634D01*
X80884976Y-65868846D01*
X80869070Y-65854430D01*
X80854654Y-65838524D01*
X80841866Y-65821281D01*
X80830830Y-65802868D01*
X80821651Y-65783462D01*
X80814419Y-65763250D01*
X80809203Y-65742426D01*
X80806053Y-65721191D01*
X80805000Y-65699750D01*
X80805000Y-65262250D01*
X80806053Y-65240809D01*
X80809203Y-65219574D01*
X80814419Y-65198750D01*
X80821651Y-65178538D01*
X80830830Y-65159132D01*
X80841866Y-65140719D01*
X80854654Y-65123476D01*
X80869070Y-65107570D01*
X80884976Y-65093154D01*
X80902219Y-65080366D01*
X80920632Y-65069330D01*
X80940038Y-65060151D01*
X80960250Y-65052919D01*
X80981074Y-65047703D01*
X81002309Y-65044553D01*
X81023750Y-65043500D01*
X81536250Y-65043500D01*
X81557691Y-65044553D01*
X81557691Y-65044553D01*
G37*
D11*
X81280000Y-65481000D03*
D10*
G36*
X84097691Y-65044553D02*
G01*
X84118926Y-65047703D01*
X84139750Y-65052919D01*
X84159962Y-65060151D01*
X84179368Y-65069330D01*
X84197781Y-65080366D01*
X84215024Y-65093154D01*
X84230930Y-65107570D01*
X84245346Y-65123476D01*
X84258134Y-65140719D01*
X84269170Y-65159132D01*
X84278349Y-65178538D01*
X84285581Y-65198750D01*
X84290797Y-65219574D01*
X84293947Y-65240809D01*
X84295000Y-65262250D01*
X84295000Y-65699750D01*
X84293947Y-65721191D01*
X84290797Y-65742426D01*
X84285581Y-65763250D01*
X84278349Y-65783462D01*
X84269170Y-65802868D01*
X84258134Y-65821281D01*
X84245346Y-65838524D01*
X84230930Y-65854430D01*
X84215024Y-65868846D01*
X84197781Y-65881634D01*
X84179368Y-65892670D01*
X84159962Y-65901849D01*
X84139750Y-65909081D01*
X84118926Y-65914297D01*
X84097691Y-65917447D01*
X84076250Y-65918500D01*
X83563750Y-65918500D01*
X83542309Y-65917447D01*
X83521074Y-65914297D01*
X83500250Y-65909081D01*
X83480038Y-65901849D01*
X83460632Y-65892670D01*
X83442219Y-65881634D01*
X83424976Y-65868846D01*
X83409070Y-65854430D01*
X83394654Y-65838524D01*
X83381866Y-65821281D01*
X83370830Y-65802868D01*
X83361651Y-65783462D01*
X83354419Y-65763250D01*
X83349203Y-65742426D01*
X83346053Y-65721191D01*
X83345000Y-65699750D01*
X83345000Y-65262250D01*
X83346053Y-65240809D01*
X83349203Y-65219574D01*
X83354419Y-65198750D01*
X83361651Y-65178538D01*
X83370830Y-65159132D01*
X83381866Y-65140719D01*
X83394654Y-65123476D01*
X83409070Y-65107570D01*
X83424976Y-65093154D01*
X83442219Y-65080366D01*
X83460632Y-65069330D01*
X83480038Y-65060151D01*
X83500250Y-65052919D01*
X83521074Y-65047703D01*
X83542309Y-65044553D01*
X83563750Y-65043500D01*
X84076250Y-65043500D01*
X84097691Y-65044553D01*
X84097691Y-65044553D01*
G37*
D11*
X83820000Y-65481000D03*
D10*
G36*
X84097691Y-66619553D02*
G01*
X84118926Y-66622703D01*
X84139750Y-66627919D01*
X84159962Y-66635151D01*
X84179368Y-66644330D01*
X84197781Y-66655366D01*
X84215024Y-66668154D01*
X84230930Y-66682570D01*
X84245346Y-66698476D01*
X84258134Y-66715719D01*
X84269170Y-66734132D01*
X84278349Y-66753538D01*
X84285581Y-66773750D01*
X84290797Y-66794574D01*
X84293947Y-66815809D01*
X84295000Y-66837250D01*
X84295000Y-67274750D01*
X84293947Y-67296191D01*
X84290797Y-67317426D01*
X84285581Y-67338250D01*
X84278349Y-67358462D01*
X84269170Y-67377868D01*
X84258134Y-67396281D01*
X84245346Y-67413524D01*
X84230930Y-67429430D01*
X84215024Y-67443846D01*
X84197781Y-67456634D01*
X84179368Y-67467670D01*
X84159962Y-67476849D01*
X84139750Y-67484081D01*
X84118926Y-67489297D01*
X84097691Y-67492447D01*
X84076250Y-67493500D01*
X83563750Y-67493500D01*
X83542309Y-67492447D01*
X83521074Y-67489297D01*
X83500250Y-67484081D01*
X83480038Y-67476849D01*
X83460632Y-67467670D01*
X83442219Y-67456634D01*
X83424976Y-67443846D01*
X83409070Y-67429430D01*
X83394654Y-67413524D01*
X83381866Y-67396281D01*
X83370830Y-67377868D01*
X83361651Y-67358462D01*
X83354419Y-67338250D01*
X83349203Y-67317426D01*
X83346053Y-67296191D01*
X83345000Y-67274750D01*
X83345000Y-66837250D01*
X83346053Y-66815809D01*
X83349203Y-66794574D01*
X83354419Y-66773750D01*
X83361651Y-66753538D01*
X83370830Y-66734132D01*
X83381866Y-66715719D01*
X83394654Y-66698476D01*
X83409070Y-66682570D01*
X83424976Y-66668154D01*
X83442219Y-66655366D01*
X83460632Y-66644330D01*
X83480038Y-66635151D01*
X83500250Y-66627919D01*
X83521074Y-66622703D01*
X83542309Y-66619553D01*
X83563750Y-66618500D01*
X84076250Y-66618500D01*
X84097691Y-66619553D01*
X84097691Y-66619553D01*
G37*
D11*
X83820000Y-67056000D03*
D21*
X86130000Y-63455500D03*
D10*
G36*
X86005961Y-63283245D02*
G01*
X86008806Y-63273866D01*
X86013427Y-63265221D01*
X86019645Y-63257645D01*
X86169645Y-63107645D01*
X86177221Y-63101427D01*
X86185866Y-63096806D01*
X86195245Y-63093961D01*
X86205000Y-63093000D01*
X86214755Y-63093961D01*
X86224134Y-63096806D01*
X86232779Y-63101427D01*
X86240355Y-63107645D01*
X86246573Y-63115221D01*
X86251194Y-63123866D01*
X86254039Y-63133245D01*
X86255000Y-63143000D01*
X86255000Y-63768000D01*
X86254039Y-63777755D01*
X86251194Y-63787134D01*
X86246573Y-63795779D01*
X86240355Y-63803355D01*
X86232779Y-63809573D01*
X86224134Y-63814194D01*
X86214755Y-63817039D01*
X86205000Y-63818000D01*
X86055000Y-63818000D01*
X86045245Y-63817039D01*
X86035866Y-63814194D01*
X86027221Y-63809573D01*
X86019645Y-63803355D01*
X86013427Y-63795779D01*
X86008806Y-63787134D01*
X86005961Y-63777755D01*
X86005000Y-63768000D01*
X86005000Y-63293000D01*
X86005961Y-63283245D01*
X86005961Y-63283245D01*
G37*
G36*
X86698626Y-62993301D02*
G01*
X86704693Y-62994201D01*
X86710643Y-62995691D01*
X86716418Y-62997758D01*
X86721962Y-63000380D01*
X86727223Y-63003533D01*
X86732150Y-63007187D01*
X86736694Y-63011306D01*
X86740813Y-63015850D01*
X86744467Y-63020777D01*
X86747620Y-63026038D01*
X86750242Y-63031582D01*
X86752309Y-63037357D01*
X86753799Y-63043307D01*
X86754699Y-63049374D01*
X86755000Y-63055500D01*
X86755000Y-63755500D01*
X86754699Y-63761626D01*
X86753799Y-63767693D01*
X86752309Y-63773643D01*
X86750242Y-63779418D01*
X86747620Y-63784962D01*
X86744467Y-63790223D01*
X86740813Y-63795150D01*
X86736694Y-63799694D01*
X86732150Y-63803813D01*
X86727223Y-63807467D01*
X86721962Y-63810620D01*
X86716418Y-63813242D01*
X86710643Y-63815309D01*
X86704693Y-63816799D01*
X86698626Y-63817699D01*
X86692500Y-63818000D01*
X86567500Y-63818000D01*
X86561374Y-63817699D01*
X86555307Y-63816799D01*
X86549357Y-63815309D01*
X86543582Y-63813242D01*
X86538038Y-63810620D01*
X86532777Y-63807467D01*
X86527850Y-63803813D01*
X86523306Y-63799694D01*
X86519187Y-63795150D01*
X86515533Y-63790223D01*
X86512380Y-63784962D01*
X86509758Y-63779418D01*
X86507691Y-63773643D01*
X86506201Y-63767693D01*
X86505301Y-63761626D01*
X86505000Y-63755500D01*
X86505000Y-63055500D01*
X86505301Y-63049374D01*
X86506201Y-63043307D01*
X86507691Y-63037357D01*
X86509758Y-63031582D01*
X86512380Y-63026038D01*
X86515533Y-63020777D01*
X86519187Y-63015850D01*
X86523306Y-63011306D01*
X86527850Y-63007187D01*
X86532777Y-63003533D01*
X86538038Y-63000380D01*
X86543582Y-62997758D01*
X86549357Y-62995691D01*
X86555307Y-62994201D01*
X86561374Y-62993301D01*
X86567500Y-62993000D01*
X86692500Y-62993000D01*
X86698626Y-62993301D01*
X86698626Y-62993301D01*
G37*
D22*
X86630000Y-63405500D03*
D10*
G36*
X87198626Y-62993301D02*
G01*
X87204693Y-62994201D01*
X87210643Y-62995691D01*
X87216418Y-62997758D01*
X87221962Y-63000380D01*
X87227223Y-63003533D01*
X87232150Y-63007187D01*
X87236694Y-63011306D01*
X87240813Y-63015850D01*
X87244467Y-63020777D01*
X87247620Y-63026038D01*
X87250242Y-63031582D01*
X87252309Y-63037357D01*
X87253799Y-63043307D01*
X87254699Y-63049374D01*
X87255000Y-63055500D01*
X87255000Y-63755500D01*
X87254699Y-63761626D01*
X87253799Y-63767693D01*
X87252309Y-63773643D01*
X87250242Y-63779418D01*
X87247620Y-63784962D01*
X87244467Y-63790223D01*
X87240813Y-63795150D01*
X87236694Y-63799694D01*
X87232150Y-63803813D01*
X87227223Y-63807467D01*
X87221962Y-63810620D01*
X87216418Y-63813242D01*
X87210643Y-63815309D01*
X87204693Y-63816799D01*
X87198626Y-63817699D01*
X87192500Y-63818000D01*
X87067500Y-63818000D01*
X87061374Y-63817699D01*
X87055307Y-63816799D01*
X87049357Y-63815309D01*
X87043582Y-63813242D01*
X87038038Y-63810620D01*
X87032777Y-63807467D01*
X87027850Y-63803813D01*
X87023306Y-63799694D01*
X87019187Y-63795150D01*
X87015533Y-63790223D01*
X87012380Y-63784962D01*
X87009758Y-63779418D01*
X87007691Y-63773643D01*
X87006201Y-63767693D01*
X87005301Y-63761626D01*
X87005000Y-63755500D01*
X87005000Y-63055500D01*
X87005301Y-63049374D01*
X87006201Y-63043307D01*
X87007691Y-63037357D01*
X87009758Y-63031582D01*
X87012380Y-63026038D01*
X87015533Y-63020777D01*
X87019187Y-63015850D01*
X87023306Y-63011306D01*
X87027850Y-63007187D01*
X87032777Y-63003533D01*
X87038038Y-63000380D01*
X87043582Y-62997758D01*
X87049357Y-62995691D01*
X87055307Y-62994201D01*
X87061374Y-62993301D01*
X87067500Y-62993000D01*
X87192500Y-62993000D01*
X87198626Y-62993301D01*
X87198626Y-62993301D01*
G37*
D22*
X87130000Y-63405500D03*
D10*
G36*
X87698626Y-62993301D02*
G01*
X87704693Y-62994201D01*
X87710643Y-62995691D01*
X87716418Y-62997758D01*
X87721962Y-63000380D01*
X87727223Y-63003533D01*
X87732150Y-63007187D01*
X87736694Y-63011306D01*
X87740813Y-63015850D01*
X87744467Y-63020777D01*
X87747620Y-63026038D01*
X87750242Y-63031582D01*
X87752309Y-63037357D01*
X87753799Y-63043307D01*
X87754699Y-63049374D01*
X87755000Y-63055500D01*
X87755000Y-63755500D01*
X87754699Y-63761626D01*
X87753799Y-63767693D01*
X87752309Y-63773643D01*
X87750242Y-63779418D01*
X87747620Y-63784962D01*
X87744467Y-63790223D01*
X87740813Y-63795150D01*
X87736694Y-63799694D01*
X87732150Y-63803813D01*
X87727223Y-63807467D01*
X87721962Y-63810620D01*
X87716418Y-63813242D01*
X87710643Y-63815309D01*
X87704693Y-63816799D01*
X87698626Y-63817699D01*
X87692500Y-63818000D01*
X87567500Y-63818000D01*
X87561374Y-63817699D01*
X87555307Y-63816799D01*
X87549357Y-63815309D01*
X87543582Y-63813242D01*
X87538038Y-63810620D01*
X87532777Y-63807467D01*
X87527850Y-63803813D01*
X87523306Y-63799694D01*
X87519187Y-63795150D01*
X87515533Y-63790223D01*
X87512380Y-63784962D01*
X87509758Y-63779418D01*
X87507691Y-63773643D01*
X87506201Y-63767693D01*
X87505301Y-63761626D01*
X87505000Y-63755500D01*
X87505000Y-63055500D01*
X87505301Y-63049374D01*
X87506201Y-63043307D01*
X87507691Y-63037357D01*
X87509758Y-63031582D01*
X87512380Y-63026038D01*
X87515533Y-63020777D01*
X87519187Y-63015850D01*
X87523306Y-63011306D01*
X87527850Y-63007187D01*
X87532777Y-63003533D01*
X87538038Y-63000380D01*
X87543582Y-62997758D01*
X87549357Y-62995691D01*
X87555307Y-62994201D01*
X87561374Y-62993301D01*
X87567500Y-62993000D01*
X87692500Y-62993000D01*
X87698626Y-62993301D01*
X87698626Y-62993301D01*
G37*
D22*
X87630000Y-63405500D03*
D10*
G36*
X88198626Y-62993301D02*
G01*
X88204693Y-62994201D01*
X88210643Y-62995691D01*
X88216418Y-62997758D01*
X88221962Y-63000380D01*
X88227223Y-63003533D01*
X88232150Y-63007187D01*
X88236694Y-63011306D01*
X88240813Y-63015850D01*
X88244467Y-63020777D01*
X88247620Y-63026038D01*
X88250242Y-63031582D01*
X88252309Y-63037357D01*
X88253799Y-63043307D01*
X88254699Y-63049374D01*
X88255000Y-63055500D01*
X88255000Y-63755500D01*
X88254699Y-63761626D01*
X88253799Y-63767693D01*
X88252309Y-63773643D01*
X88250242Y-63779418D01*
X88247620Y-63784962D01*
X88244467Y-63790223D01*
X88240813Y-63795150D01*
X88236694Y-63799694D01*
X88232150Y-63803813D01*
X88227223Y-63807467D01*
X88221962Y-63810620D01*
X88216418Y-63813242D01*
X88210643Y-63815309D01*
X88204693Y-63816799D01*
X88198626Y-63817699D01*
X88192500Y-63818000D01*
X88067500Y-63818000D01*
X88061374Y-63817699D01*
X88055307Y-63816799D01*
X88049357Y-63815309D01*
X88043582Y-63813242D01*
X88038038Y-63810620D01*
X88032777Y-63807467D01*
X88027850Y-63803813D01*
X88023306Y-63799694D01*
X88019187Y-63795150D01*
X88015533Y-63790223D01*
X88012380Y-63784962D01*
X88009758Y-63779418D01*
X88007691Y-63773643D01*
X88006201Y-63767693D01*
X88005301Y-63761626D01*
X88005000Y-63755500D01*
X88005000Y-63055500D01*
X88005301Y-63049374D01*
X88006201Y-63043307D01*
X88007691Y-63037357D01*
X88009758Y-63031582D01*
X88012380Y-63026038D01*
X88015533Y-63020777D01*
X88019187Y-63015850D01*
X88023306Y-63011306D01*
X88027850Y-63007187D01*
X88032777Y-63003533D01*
X88038038Y-63000380D01*
X88043582Y-62997758D01*
X88049357Y-62995691D01*
X88055307Y-62994201D01*
X88061374Y-62993301D01*
X88067500Y-62993000D01*
X88192500Y-62993000D01*
X88198626Y-62993301D01*
X88198626Y-62993301D01*
G37*
D22*
X88130000Y-63405500D03*
D10*
G36*
X88698626Y-62993301D02*
G01*
X88704693Y-62994201D01*
X88710643Y-62995691D01*
X88716418Y-62997758D01*
X88721962Y-63000380D01*
X88727223Y-63003533D01*
X88732150Y-63007187D01*
X88736694Y-63011306D01*
X88740813Y-63015850D01*
X88744467Y-63020777D01*
X88747620Y-63026038D01*
X88750242Y-63031582D01*
X88752309Y-63037357D01*
X88753799Y-63043307D01*
X88754699Y-63049374D01*
X88755000Y-63055500D01*
X88755000Y-63755500D01*
X88754699Y-63761626D01*
X88753799Y-63767693D01*
X88752309Y-63773643D01*
X88750242Y-63779418D01*
X88747620Y-63784962D01*
X88744467Y-63790223D01*
X88740813Y-63795150D01*
X88736694Y-63799694D01*
X88732150Y-63803813D01*
X88727223Y-63807467D01*
X88721962Y-63810620D01*
X88716418Y-63813242D01*
X88710643Y-63815309D01*
X88704693Y-63816799D01*
X88698626Y-63817699D01*
X88692500Y-63818000D01*
X88567500Y-63818000D01*
X88561374Y-63817699D01*
X88555307Y-63816799D01*
X88549357Y-63815309D01*
X88543582Y-63813242D01*
X88538038Y-63810620D01*
X88532777Y-63807467D01*
X88527850Y-63803813D01*
X88523306Y-63799694D01*
X88519187Y-63795150D01*
X88515533Y-63790223D01*
X88512380Y-63784962D01*
X88509758Y-63779418D01*
X88507691Y-63773643D01*
X88506201Y-63767693D01*
X88505301Y-63761626D01*
X88505000Y-63755500D01*
X88505000Y-63055500D01*
X88505301Y-63049374D01*
X88506201Y-63043307D01*
X88507691Y-63037357D01*
X88509758Y-63031582D01*
X88512380Y-63026038D01*
X88515533Y-63020777D01*
X88519187Y-63015850D01*
X88523306Y-63011306D01*
X88527850Y-63007187D01*
X88532777Y-63003533D01*
X88538038Y-63000380D01*
X88543582Y-62997758D01*
X88549357Y-62995691D01*
X88555307Y-62994201D01*
X88561374Y-62993301D01*
X88567500Y-62993000D01*
X88692500Y-62993000D01*
X88698626Y-62993301D01*
X88698626Y-62993301D01*
G37*
D22*
X88630000Y-63405500D03*
D21*
X89130000Y-63455500D03*
D10*
G36*
X89005961Y-63133245D02*
G01*
X89008806Y-63123866D01*
X89013427Y-63115221D01*
X89019645Y-63107645D01*
X89027221Y-63101427D01*
X89035866Y-63096806D01*
X89045245Y-63093961D01*
X89055000Y-63093000D01*
X89064755Y-63093961D01*
X89074134Y-63096806D01*
X89082779Y-63101427D01*
X89090355Y-63107645D01*
X89240355Y-63257645D01*
X89246573Y-63265221D01*
X89251194Y-63273866D01*
X89254039Y-63283245D01*
X89255000Y-63293000D01*
X89255000Y-63768000D01*
X89254039Y-63777755D01*
X89251194Y-63787134D01*
X89246573Y-63795779D01*
X89240355Y-63803355D01*
X89232779Y-63809573D01*
X89224134Y-63814194D01*
X89214755Y-63817039D01*
X89205000Y-63818000D01*
X89055000Y-63818000D01*
X89045245Y-63817039D01*
X89035866Y-63814194D01*
X89027221Y-63809573D01*
X89019645Y-63803355D01*
X89013427Y-63795779D01*
X89008806Y-63787134D01*
X89005961Y-63777755D01*
X89005000Y-63768000D01*
X89005000Y-63143000D01*
X89005961Y-63133245D01*
X89005961Y-63133245D01*
G37*
D21*
X89617500Y-62968000D03*
D10*
G36*
X89255961Y-62883245D02*
G01*
X89258806Y-62873866D01*
X89263427Y-62865221D01*
X89269645Y-62857645D01*
X89277221Y-62851427D01*
X89285866Y-62846806D01*
X89295245Y-62843961D01*
X89305000Y-62843000D01*
X89930000Y-62843000D01*
X89939755Y-62843961D01*
X89949134Y-62846806D01*
X89957779Y-62851427D01*
X89965355Y-62857645D01*
X89971573Y-62865221D01*
X89976194Y-62873866D01*
X89979039Y-62883245D01*
X89980000Y-62893000D01*
X89980000Y-63043000D01*
X89979039Y-63052755D01*
X89976194Y-63062134D01*
X89971573Y-63070779D01*
X89965355Y-63078355D01*
X89957779Y-63084573D01*
X89949134Y-63089194D01*
X89939755Y-63092039D01*
X89930000Y-63093000D01*
X89455000Y-63093000D01*
X89445245Y-63092039D01*
X89435866Y-63089194D01*
X89427221Y-63084573D01*
X89419645Y-63078355D01*
X89269645Y-62928355D01*
X89263427Y-62920779D01*
X89258806Y-62912134D01*
X89255961Y-62902755D01*
X89255000Y-62893000D01*
X89255961Y-62883245D01*
X89255961Y-62883245D01*
G37*
G36*
X89923626Y-62343301D02*
G01*
X89929693Y-62344201D01*
X89935643Y-62345691D01*
X89941418Y-62347758D01*
X89946962Y-62350380D01*
X89952223Y-62353533D01*
X89957150Y-62357187D01*
X89961694Y-62361306D01*
X89965813Y-62365850D01*
X89969467Y-62370777D01*
X89972620Y-62376038D01*
X89975242Y-62381582D01*
X89977309Y-62387357D01*
X89978799Y-62393307D01*
X89979699Y-62399374D01*
X89980000Y-62405500D01*
X89980000Y-62530500D01*
X89979699Y-62536626D01*
X89978799Y-62542693D01*
X89977309Y-62548643D01*
X89975242Y-62554418D01*
X89972620Y-62559962D01*
X89969467Y-62565223D01*
X89965813Y-62570150D01*
X89961694Y-62574694D01*
X89957150Y-62578813D01*
X89952223Y-62582467D01*
X89946962Y-62585620D01*
X89941418Y-62588242D01*
X89935643Y-62590309D01*
X89929693Y-62591799D01*
X89923626Y-62592699D01*
X89917500Y-62593000D01*
X89217500Y-62593000D01*
X89211374Y-62592699D01*
X89205307Y-62591799D01*
X89199357Y-62590309D01*
X89193582Y-62588242D01*
X89188038Y-62585620D01*
X89182777Y-62582467D01*
X89177850Y-62578813D01*
X89173306Y-62574694D01*
X89169187Y-62570150D01*
X89165533Y-62565223D01*
X89162380Y-62559962D01*
X89159758Y-62554418D01*
X89157691Y-62548643D01*
X89156201Y-62542693D01*
X89155301Y-62536626D01*
X89155000Y-62530500D01*
X89155000Y-62405500D01*
X89155301Y-62399374D01*
X89156201Y-62393307D01*
X89157691Y-62387357D01*
X89159758Y-62381582D01*
X89162380Y-62376038D01*
X89165533Y-62370777D01*
X89169187Y-62365850D01*
X89173306Y-62361306D01*
X89177850Y-62357187D01*
X89182777Y-62353533D01*
X89188038Y-62350380D01*
X89193582Y-62347758D01*
X89199357Y-62345691D01*
X89205307Y-62344201D01*
X89211374Y-62343301D01*
X89217500Y-62343000D01*
X89917500Y-62343000D01*
X89923626Y-62343301D01*
X89923626Y-62343301D01*
G37*
D22*
X89567500Y-62468000D03*
D10*
G36*
X89923626Y-61843301D02*
G01*
X89929693Y-61844201D01*
X89935643Y-61845691D01*
X89941418Y-61847758D01*
X89946962Y-61850380D01*
X89952223Y-61853533D01*
X89957150Y-61857187D01*
X89961694Y-61861306D01*
X89965813Y-61865850D01*
X89969467Y-61870777D01*
X89972620Y-61876038D01*
X89975242Y-61881582D01*
X89977309Y-61887357D01*
X89978799Y-61893307D01*
X89979699Y-61899374D01*
X89980000Y-61905500D01*
X89980000Y-62030500D01*
X89979699Y-62036626D01*
X89978799Y-62042693D01*
X89977309Y-62048643D01*
X89975242Y-62054418D01*
X89972620Y-62059962D01*
X89969467Y-62065223D01*
X89965813Y-62070150D01*
X89961694Y-62074694D01*
X89957150Y-62078813D01*
X89952223Y-62082467D01*
X89946962Y-62085620D01*
X89941418Y-62088242D01*
X89935643Y-62090309D01*
X89929693Y-62091799D01*
X89923626Y-62092699D01*
X89917500Y-62093000D01*
X89217500Y-62093000D01*
X89211374Y-62092699D01*
X89205307Y-62091799D01*
X89199357Y-62090309D01*
X89193582Y-62088242D01*
X89188038Y-62085620D01*
X89182777Y-62082467D01*
X89177850Y-62078813D01*
X89173306Y-62074694D01*
X89169187Y-62070150D01*
X89165533Y-62065223D01*
X89162380Y-62059962D01*
X89159758Y-62054418D01*
X89157691Y-62048643D01*
X89156201Y-62042693D01*
X89155301Y-62036626D01*
X89155000Y-62030500D01*
X89155000Y-61905500D01*
X89155301Y-61899374D01*
X89156201Y-61893307D01*
X89157691Y-61887357D01*
X89159758Y-61881582D01*
X89162380Y-61876038D01*
X89165533Y-61870777D01*
X89169187Y-61865850D01*
X89173306Y-61861306D01*
X89177850Y-61857187D01*
X89182777Y-61853533D01*
X89188038Y-61850380D01*
X89193582Y-61847758D01*
X89199357Y-61845691D01*
X89205307Y-61844201D01*
X89211374Y-61843301D01*
X89217500Y-61843000D01*
X89917500Y-61843000D01*
X89923626Y-61843301D01*
X89923626Y-61843301D01*
G37*
D22*
X89567500Y-61968000D03*
D10*
G36*
X89923626Y-61343301D02*
G01*
X89929693Y-61344201D01*
X89935643Y-61345691D01*
X89941418Y-61347758D01*
X89946962Y-61350380D01*
X89952223Y-61353533D01*
X89957150Y-61357187D01*
X89961694Y-61361306D01*
X89965813Y-61365850D01*
X89969467Y-61370777D01*
X89972620Y-61376038D01*
X89975242Y-61381582D01*
X89977309Y-61387357D01*
X89978799Y-61393307D01*
X89979699Y-61399374D01*
X89980000Y-61405500D01*
X89980000Y-61530500D01*
X89979699Y-61536626D01*
X89978799Y-61542693D01*
X89977309Y-61548643D01*
X89975242Y-61554418D01*
X89972620Y-61559962D01*
X89969467Y-61565223D01*
X89965813Y-61570150D01*
X89961694Y-61574694D01*
X89957150Y-61578813D01*
X89952223Y-61582467D01*
X89946962Y-61585620D01*
X89941418Y-61588242D01*
X89935643Y-61590309D01*
X89929693Y-61591799D01*
X89923626Y-61592699D01*
X89917500Y-61593000D01*
X89217500Y-61593000D01*
X89211374Y-61592699D01*
X89205307Y-61591799D01*
X89199357Y-61590309D01*
X89193582Y-61588242D01*
X89188038Y-61585620D01*
X89182777Y-61582467D01*
X89177850Y-61578813D01*
X89173306Y-61574694D01*
X89169187Y-61570150D01*
X89165533Y-61565223D01*
X89162380Y-61559962D01*
X89159758Y-61554418D01*
X89157691Y-61548643D01*
X89156201Y-61542693D01*
X89155301Y-61536626D01*
X89155000Y-61530500D01*
X89155000Y-61405500D01*
X89155301Y-61399374D01*
X89156201Y-61393307D01*
X89157691Y-61387357D01*
X89159758Y-61381582D01*
X89162380Y-61376038D01*
X89165533Y-61370777D01*
X89169187Y-61365850D01*
X89173306Y-61361306D01*
X89177850Y-61357187D01*
X89182777Y-61353533D01*
X89188038Y-61350380D01*
X89193582Y-61347758D01*
X89199357Y-61345691D01*
X89205307Y-61344201D01*
X89211374Y-61343301D01*
X89217500Y-61343000D01*
X89917500Y-61343000D01*
X89923626Y-61343301D01*
X89923626Y-61343301D01*
G37*
D22*
X89567500Y-61468000D03*
D10*
G36*
X89923626Y-60843301D02*
G01*
X89929693Y-60844201D01*
X89935643Y-60845691D01*
X89941418Y-60847758D01*
X89946962Y-60850380D01*
X89952223Y-60853533D01*
X89957150Y-60857187D01*
X89961694Y-60861306D01*
X89965813Y-60865850D01*
X89969467Y-60870777D01*
X89972620Y-60876038D01*
X89975242Y-60881582D01*
X89977309Y-60887357D01*
X89978799Y-60893307D01*
X89979699Y-60899374D01*
X89980000Y-60905500D01*
X89980000Y-61030500D01*
X89979699Y-61036626D01*
X89978799Y-61042693D01*
X89977309Y-61048643D01*
X89975242Y-61054418D01*
X89972620Y-61059962D01*
X89969467Y-61065223D01*
X89965813Y-61070150D01*
X89961694Y-61074694D01*
X89957150Y-61078813D01*
X89952223Y-61082467D01*
X89946962Y-61085620D01*
X89941418Y-61088242D01*
X89935643Y-61090309D01*
X89929693Y-61091799D01*
X89923626Y-61092699D01*
X89917500Y-61093000D01*
X89217500Y-61093000D01*
X89211374Y-61092699D01*
X89205307Y-61091799D01*
X89199357Y-61090309D01*
X89193582Y-61088242D01*
X89188038Y-61085620D01*
X89182777Y-61082467D01*
X89177850Y-61078813D01*
X89173306Y-61074694D01*
X89169187Y-61070150D01*
X89165533Y-61065223D01*
X89162380Y-61059962D01*
X89159758Y-61054418D01*
X89157691Y-61048643D01*
X89156201Y-61042693D01*
X89155301Y-61036626D01*
X89155000Y-61030500D01*
X89155000Y-60905500D01*
X89155301Y-60899374D01*
X89156201Y-60893307D01*
X89157691Y-60887357D01*
X89159758Y-60881582D01*
X89162380Y-60876038D01*
X89165533Y-60870777D01*
X89169187Y-60865850D01*
X89173306Y-60861306D01*
X89177850Y-60857187D01*
X89182777Y-60853533D01*
X89188038Y-60850380D01*
X89193582Y-60847758D01*
X89199357Y-60845691D01*
X89205307Y-60844201D01*
X89211374Y-60843301D01*
X89217500Y-60843000D01*
X89917500Y-60843000D01*
X89923626Y-60843301D01*
X89923626Y-60843301D01*
G37*
D22*
X89567500Y-60968000D03*
D10*
G36*
X89923626Y-60343301D02*
G01*
X89929693Y-60344201D01*
X89935643Y-60345691D01*
X89941418Y-60347758D01*
X89946962Y-60350380D01*
X89952223Y-60353533D01*
X89957150Y-60357187D01*
X89961694Y-60361306D01*
X89965813Y-60365850D01*
X89969467Y-60370777D01*
X89972620Y-60376038D01*
X89975242Y-60381582D01*
X89977309Y-60387357D01*
X89978799Y-60393307D01*
X89979699Y-60399374D01*
X89980000Y-60405500D01*
X89980000Y-60530500D01*
X89979699Y-60536626D01*
X89978799Y-60542693D01*
X89977309Y-60548643D01*
X89975242Y-60554418D01*
X89972620Y-60559962D01*
X89969467Y-60565223D01*
X89965813Y-60570150D01*
X89961694Y-60574694D01*
X89957150Y-60578813D01*
X89952223Y-60582467D01*
X89946962Y-60585620D01*
X89941418Y-60588242D01*
X89935643Y-60590309D01*
X89929693Y-60591799D01*
X89923626Y-60592699D01*
X89917500Y-60593000D01*
X89217500Y-60593000D01*
X89211374Y-60592699D01*
X89205307Y-60591799D01*
X89199357Y-60590309D01*
X89193582Y-60588242D01*
X89188038Y-60585620D01*
X89182777Y-60582467D01*
X89177850Y-60578813D01*
X89173306Y-60574694D01*
X89169187Y-60570150D01*
X89165533Y-60565223D01*
X89162380Y-60559962D01*
X89159758Y-60554418D01*
X89157691Y-60548643D01*
X89156201Y-60542693D01*
X89155301Y-60536626D01*
X89155000Y-60530500D01*
X89155000Y-60405500D01*
X89155301Y-60399374D01*
X89156201Y-60393307D01*
X89157691Y-60387357D01*
X89159758Y-60381582D01*
X89162380Y-60376038D01*
X89165533Y-60370777D01*
X89169187Y-60365850D01*
X89173306Y-60361306D01*
X89177850Y-60357187D01*
X89182777Y-60353533D01*
X89188038Y-60350380D01*
X89193582Y-60347758D01*
X89199357Y-60345691D01*
X89205307Y-60344201D01*
X89211374Y-60343301D01*
X89217500Y-60343000D01*
X89917500Y-60343000D01*
X89923626Y-60343301D01*
X89923626Y-60343301D01*
G37*
D22*
X89567500Y-60468000D03*
D21*
X89617500Y-59968000D03*
D10*
G36*
X89255961Y-60033245D02*
G01*
X89258806Y-60023866D01*
X89263427Y-60015221D01*
X89269645Y-60007645D01*
X89419645Y-59857645D01*
X89427221Y-59851427D01*
X89435866Y-59846806D01*
X89445245Y-59843961D01*
X89455000Y-59843000D01*
X89930000Y-59843000D01*
X89939755Y-59843961D01*
X89949134Y-59846806D01*
X89957779Y-59851427D01*
X89965355Y-59857645D01*
X89971573Y-59865221D01*
X89976194Y-59873866D01*
X89979039Y-59883245D01*
X89980000Y-59893000D01*
X89980000Y-60043000D01*
X89979039Y-60052755D01*
X89976194Y-60062134D01*
X89971573Y-60070779D01*
X89965355Y-60078355D01*
X89957779Y-60084573D01*
X89949134Y-60089194D01*
X89939755Y-60092039D01*
X89930000Y-60093000D01*
X89305000Y-60093000D01*
X89295245Y-60092039D01*
X89285866Y-60089194D01*
X89277221Y-60084573D01*
X89269645Y-60078355D01*
X89263427Y-60070779D01*
X89258806Y-60062134D01*
X89255961Y-60052755D01*
X89255000Y-60043000D01*
X89255961Y-60033245D01*
X89255961Y-60033245D01*
G37*
D21*
X89130000Y-59480500D03*
D10*
G36*
X89005961Y-59158245D02*
G01*
X89008806Y-59148866D01*
X89013427Y-59140221D01*
X89019645Y-59132645D01*
X89027221Y-59126427D01*
X89035866Y-59121806D01*
X89045245Y-59118961D01*
X89055000Y-59118000D01*
X89205000Y-59118000D01*
X89214755Y-59118961D01*
X89224134Y-59121806D01*
X89232779Y-59126427D01*
X89240355Y-59132645D01*
X89246573Y-59140221D01*
X89251194Y-59148866D01*
X89254039Y-59158245D01*
X89255000Y-59168000D01*
X89255000Y-59643000D01*
X89254039Y-59652755D01*
X89251194Y-59662134D01*
X89246573Y-59670779D01*
X89240355Y-59678355D01*
X89090355Y-59828355D01*
X89082779Y-59834573D01*
X89074134Y-59839194D01*
X89064755Y-59842039D01*
X89055000Y-59843000D01*
X89045245Y-59842039D01*
X89035866Y-59839194D01*
X89027221Y-59834573D01*
X89019645Y-59828355D01*
X89013427Y-59820779D01*
X89008806Y-59812134D01*
X89005961Y-59802755D01*
X89005000Y-59793000D01*
X89005000Y-59168000D01*
X89005961Y-59158245D01*
X89005961Y-59158245D01*
G37*
G36*
X88698626Y-59118301D02*
G01*
X88704693Y-59119201D01*
X88710643Y-59120691D01*
X88716418Y-59122758D01*
X88721962Y-59125380D01*
X88727223Y-59128533D01*
X88732150Y-59132187D01*
X88736694Y-59136306D01*
X88740813Y-59140850D01*
X88744467Y-59145777D01*
X88747620Y-59151038D01*
X88750242Y-59156582D01*
X88752309Y-59162357D01*
X88753799Y-59168307D01*
X88754699Y-59174374D01*
X88755000Y-59180500D01*
X88755000Y-59880500D01*
X88754699Y-59886626D01*
X88753799Y-59892693D01*
X88752309Y-59898643D01*
X88750242Y-59904418D01*
X88747620Y-59909962D01*
X88744467Y-59915223D01*
X88740813Y-59920150D01*
X88736694Y-59924694D01*
X88732150Y-59928813D01*
X88727223Y-59932467D01*
X88721962Y-59935620D01*
X88716418Y-59938242D01*
X88710643Y-59940309D01*
X88704693Y-59941799D01*
X88698626Y-59942699D01*
X88692500Y-59943000D01*
X88567500Y-59943000D01*
X88561374Y-59942699D01*
X88555307Y-59941799D01*
X88549357Y-59940309D01*
X88543582Y-59938242D01*
X88538038Y-59935620D01*
X88532777Y-59932467D01*
X88527850Y-59928813D01*
X88523306Y-59924694D01*
X88519187Y-59920150D01*
X88515533Y-59915223D01*
X88512380Y-59909962D01*
X88509758Y-59904418D01*
X88507691Y-59898643D01*
X88506201Y-59892693D01*
X88505301Y-59886626D01*
X88505000Y-59880500D01*
X88505000Y-59180500D01*
X88505301Y-59174374D01*
X88506201Y-59168307D01*
X88507691Y-59162357D01*
X88509758Y-59156582D01*
X88512380Y-59151038D01*
X88515533Y-59145777D01*
X88519187Y-59140850D01*
X88523306Y-59136306D01*
X88527850Y-59132187D01*
X88532777Y-59128533D01*
X88538038Y-59125380D01*
X88543582Y-59122758D01*
X88549357Y-59120691D01*
X88555307Y-59119201D01*
X88561374Y-59118301D01*
X88567500Y-59118000D01*
X88692500Y-59118000D01*
X88698626Y-59118301D01*
X88698626Y-59118301D01*
G37*
D22*
X88630000Y-59530500D03*
D10*
G36*
X88198626Y-59118301D02*
G01*
X88204693Y-59119201D01*
X88210643Y-59120691D01*
X88216418Y-59122758D01*
X88221962Y-59125380D01*
X88227223Y-59128533D01*
X88232150Y-59132187D01*
X88236694Y-59136306D01*
X88240813Y-59140850D01*
X88244467Y-59145777D01*
X88247620Y-59151038D01*
X88250242Y-59156582D01*
X88252309Y-59162357D01*
X88253799Y-59168307D01*
X88254699Y-59174374D01*
X88255000Y-59180500D01*
X88255000Y-59880500D01*
X88254699Y-59886626D01*
X88253799Y-59892693D01*
X88252309Y-59898643D01*
X88250242Y-59904418D01*
X88247620Y-59909962D01*
X88244467Y-59915223D01*
X88240813Y-59920150D01*
X88236694Y-59924694D01*
X88232150Y-59928813D01*
X88227223Y-59932467D01*
X88221962Y-59935620D01*
X88216418Y-59938242D01*
X88210643Y-59940309D01*
X88204693Y-59941799D01*
X88198626Y-59942699D01*
X88192500Y-59943000D01*
X88067500Y-59943000D01*
X88061374Y-59942699D01*
X88055307Y-59941799D01*
X88049357Y-59940309D01*
X88043582Y-59938242D01*
X88038038Y-59935620D01*
X88032777Y-59932467D01*
X88027850Y-59928813D01*
X88023306Y-59924694D01*
X88019187Y-59920150D01*
X88015533Y-59915223D01*
X88012380Y-59909962D01*
X88009758Y-59904418D01*
X88007691Y-59898643D01*
X88006201Y-59892693D01*
X88005301Y-59886626D01*
X88005000Y-59880500D01*
X88005000Y-59180500D01*
X88005301Y-59174374D01*
X88006201Y-59168307D01*
X88007691Y-59162357D01*
X88009758Y-59156582D01*
X88012380Y-59151038D01*
X88015533Y-59145777D01*
X88019187Y-59140850D01*
X88023306Y-59136306D01*
X88027850Y-59132187D01*
X88032777Y-59128533D01*
X88038038Y-59125380D01*
X88043582Y-59122758D01*
X88049357Y-59120691D01*
X88055307Y-59119201D01*
X88061374Y-59118301D01*
X88067500Y-59118000D01*
X88192500Y-59118000D01*
X88198626Y-59118301D01*
X88198626Y-59118301D01*
G37*
D22*
X88130000Y-59530500D03*
D10*
G36*
X87698626Y-59118301D02*
G01*
X87704693Y-59119201D01*
X87710643Y-59120691D01*
X87716418Y-59122758D01*
X87721962Y-59125380D01*
X87727223Y-59128533D01*
X87732150Y-59132187D01*
X87736694Y-59136306D01*
X87740813Y-59140850D01*
X87744467Y-59145777D01*
X87747620Y-59151038D01*
X87750242Y-59156582D01*
X87752309Y-59162357D01*
X87753799Y-59168307D01*
X87754699Y-59174374D01*
X87755000Y-59180500D01*
X87755000Y-59880500D01*
X87754699Y-59886626D01*
X87753799Y-59892693D01*
X87752309Y-59898643D01*
X87750242Y-59904418D01*
X87747620Y-59909962D01*
X87744467Y-59915223D01*
X87740813Y-59920150D01*
X87736694Y-59924694D01*
X87732150Y-59928813D01*
X87727223Y-59932467D01*
X87721962Y-59935620D01*
X87716418Y-59938242D01*
X87710643Y-59940309D01*
X87704693Y-59941799D01*
X87698626Y-59942699D01*
X87692500Y-59943000D01*
X87567500Y-59943000D01*
X87561374Y-59942699D01*
X87555307Y-59941799D01*
X87549357Y-59940309D01*
X87543582Y-59938242D01*
X87538038Y-59935620D01*
X87532777Y-59932467D01*
X87527850Y-59928813D01*
X87523306Y-59924694D01*
X87519187Y-59920150D01*
X87515533Y-59915223D01*
X87512380Y-59909962D01*
X87509758Y-59904418D01*
X87507691Y-59898643D01*
X87506201Y-59892693D01*
X87505301Y-59886626D01*
X87505000Y-59880500D01*
X87505000Y-59180500D01*
X87505301Y-59174374D01*
X87506201Y-59168307D01*
X87507691Y-59162357D01*
X87509758Y-59156582D01*
X87512380Y-59151038D01*
X87515533Y-59145777D01*
X87519187Y-59140850D01*
X87523306Y-59136306D01*
X87527850Y-59132187D01*
X87532777Y-59128533D01*
X87538038Y-59125380D01*
X87543582Y-59122758D01*
X87549357Y-59120691D01*
X87555307Y-59119201D01*
X87561374Y-59118301D01*
X87567500Y-59118000D01*
X87692500Y-59118000D01*
X87698626Y-59118301D01*
X87698626Y-59118301D01*
G37*
D22*
X87630000Y-59530500D03*
D10*
G36*
X87198626Y-59118301D02*
G01*
X87204693Y-59119201D01*
X87210643Y-59120691D01*
X87216418Y-59122758D01*
X87221962Y-59125380D01*
X87227223Y-59128533D01*
X87232150Y-59132187D01*
X87236694Y-59136306D01*
X87240813Y-59140850D01*
X87244467Y-59145777D01*
X87247620Y-59151038D01*
X87250242Y-59156582D01*
X87252309Y-59162357D01*
X87253799Y-59168307D01*
X87254699Y-59174374D01*
X87255000Y-59180500D01*
X87255000Y-59880500D01*
X87254699Y-59886626D01*
X87253799Y-59892693D01*
X87252309Y-59898643D01*
X87250242Y-59904418D01*
X87247620Y-59909962D01*
X87244467Y-59915223D01*
X87240813Y-59920150D01*
X87236694Y-59924694D01*
X87232150Y-59928813D01*
X87227223Y-59932467D01*
X87221962Y-59935620D01*
X87216418Y-59938242D01*
X87210643Y-59940309D01*
X87204693Y-59941799D01*
X87198626Y-59942699D01*
X87192500Y-59943000D01*
X87067500Y-59943000D01*
X87061374Y-59942699D01*
X87055307Y-59941799D01*
X87049357Y-59940309D01*
X87043582Y-59938242D01*
X87038038Y-59935620D01*
X87032777Y-59932467D01*
X87027850Y-59928813D01*
X87023306Y-59924694D01*
X87019187Y-59920150D01*
X87015533Y-59915223D01*
X87012380Y-59909962D01*
X87009758Y-59904418D01*
X87007691Y-59898643D01*
X87006201Y-59892693D01*
X87005301Y-59886626D01*
X87005000Y-59880500D01*
X87005000Y-59180500D01*
X87005301Y-59174374D01*
X87006201Y-59168307D01*
X87007691Y-59162357D01*
X87009758Y-59156582D01*
X87012380Y-59151038D01*
X87015533Y-59145777D01*
X87019187Y-59140850D01*
X87023306Y-59136306D01*
X87027850Y-59132187D01*
X87032777Y-59128533D01*
X87038038Y-59125380D01*
X87043582Y-59122758D01*
X87049357Y-59120691D01*
X87055307Y-59119201D01*
X87061374Y-59118301D01*
X87067500Y-59118000D01*
X87192500Y-59118000D01*
X87198626Y-59118301D01*
X87198626Y-59118301D01*
G37*
D22*
X87130000Y-59530500D03*
D10*
G36*
X86698626Y-59118301D02*
G01*
X86704693Y-59119201D01*
X86710643Y-59120691D01*
X86716418Y-59122758D01*
X86721962Y-59125380D01*
X86727223Y-59128533D01*
X86732150Y-59132187D01*
X86736694Y-59136306D01*
X86740813Y-59140850D01*
X86744467Y-59145777D01*
X86747620Y-59151038D01*
X86750242Y-59156582D01*
X86752309Y-59162357D01*
X86753799Y-59168307D01*
X86754699Y-59174374D01*
X86755000Y-59180500D01*
X86755000Y-59880500D01*
X86754699Y-59886626D01*
X86753799Y-59892693D01*
X86752309Y-59898643D01*
X86750242Y-59904418D01*
X86747620Y-59909962D01*
X86744467Y-59915223D01*
X86740813Y-59920150D01*
X86736694Y-59924694D01*
X86732150Y-59928813D01*
X86727223Y-59932467D01*
X86721962Y-59935620D01*
X86716418Y-59938242D01*
X86710643Y-59940309D01*
X86704693Y-59941799D01*
X86698626Y-59942699D01*
X86692500Y-59943000D01*
X86567500Y-59943000D01*
X86561374Y-59942699D01*
X86555307Y-59941799D01*
X86549357Y-59940309D01*
X86543582Y-59938242D01*
X86538038Y-59935620D01*
X86532777Y-59932467D01*
X86527850Y-59928813D01*
X86523306Y-59924694D01*
X86519187Y-59920150D01*
X86515533Y-59915223D01*
X86512380Y-59909962D01*
X86509758Y-59904418D01*
X86507691Y-59898643D01*
X86506201Y-59892693D01*
X86505301Y-59886626D01*
X86505000Y-59880500D01*
X86505000Y-59180500D01*
X86505301Y-59174374D01*
X86506201Y-59168307D01*
X86507691Y-59162357D01*
X86509758Y-59156582D01*
X86512380Y-59151038D01*
X86515533Y-59145777D01*
X86519187Y-59140850D01*
X86523306Y-59136306D01*
X86527850Y-59132187D01*
X86532777Y-59128533D01*
X86538038Y-59125380D01*
X86543582Y-59122758D01*
X86549357Y-59120691D01*
X86555307Y-59119201D01*
X86561374Y-59118301D01*
X86567500Y-59118000D01*
X86692500Y-59118000D01*
X86698626Y-59118301D01*
X86698626Y-59118301D01*
G37*
D22*
X86630000Y-59530500D03*
D21*
X86130000Y-59480500D03*
D10*
G36*
X86005961Y-59158245D02*
G01*
X86008806Y-59148866D01*
X86013427Y-59140221D01*
X86019645Y-59132645D01*
X86027221Y-59126427D01*
X86035866Y-59121806D01*
X86045245Y-59118961D01*
X86055000Y-59118000D01*
X86205000Y-59118000D01*
X86214755Y-59118961D01*
X86224134Y-59121806D01*
X86232779Y-59126427D01*
X86240355Y-59132645D01*
X86246573Y-59140221D01*
X86251194Y-59148866D01*
X86254039Y-59158245D01*
X86255000Y-59168000D01*
X86255000Y-59793000D01*
X86254039Y-59802755D01*
X86251194Y-59812134D01*
X86246573Y-59820779D01*
X86240355Y-59828355D01*
X86232779Y-59834573D01*
X86224134Y-59839194D01*
X86214755Y-59842039D01*
X86205000Y-59843000D01*
X86195245Y-59842039D01*
X86185866Y-59839194D01*
X86177221Y-59834573D01*
X86169645Y-59828355D01*
X86019645Y-59678355D01*
X86013427Y-59670779D01*
X86008806Y-59662134D01*
X86005961Y-59652755D01*
X86005000Y-59643000D01*
X86005000Y-59168000D01*
X86005961Y-59158245D01*
X86005961Y-59158245D01*
G37*
D21*
X85642500Y-59968000D03*
D10*
G36*
X85280961Y-59883245D02*
G01*
X85283806Y-59873866D01*
X85288427Y-59865221D01*
X85294645Y-59857645D01*
X85302221Y-59851427D01*
X85310866Y-59846806D01*
X85320245Y-59843961D01*
X85330000Y-59843000D01*
X85805000Y-59843000D01*
X85814755Y-59843961D01*
X85824134Y-59846806D01*
X85832779Y-59851427D01*
X85840355Y-59857645D01*
X85990355Y-60007645D01*
X85996573Y-60015221D01*
X86001194Y-60023866D01*
X86004039Y-60033245D01*
X86005000Y-60043000D01*
X86004039Y-60052755D01*
X86001194Y-60062134D01*
X85996573Y-60070779D01*
X85990355Y-60078355D01*
X85982779Y-60084573D01*
X85974134Y-60089194D01*
X85964755Y-60092039D01*
X85955000Y-60093000D01*
X85330000Y-60093000D01*
X85320245Y-60092039D01*
X85310866Y-60089194D01*
X85302221Y-60084573D01*
X85294645Y-60078355D01*
X85288427Y-60070779D01*
X85283806Y-60062134D01*
X85280961Y-60052755D01*
X85280000Y-60043000D01*
X85280000Y-59893000D01*
X85280961Y-59883245D01*
X85280961Y-59883245D01*
G37*
G36*
X86048626Y-60343301D02*
G01*
X86054693Y-60344201D01*
X86060643Y-60345691D01*
X86066418Y-60347758D01*
X86071962Y-60350380D01*
X86077223Y-60353533D01*
X86082150Y-60357187D01*
X86086694Y-60361306D01*
X86090813Y-60365850D01*
X86094467Y-60370777D01*
X86097620Y-60376038D01*
X86100242Y-60381582D01*
X86102309Y-60387357D01*
X86103799Y-60393307D01*
X86104699Y-60399374D01*
X86105000Y-60405500D01*
X86105000Y-60530500D01*
X86104699Y-60536626D01*
X86103799Y-60542693D01*
X86102309Y-60548643D01*
X86100242Y-60554418D01*
X86097620Y-60559962D01*
X86094467Y-60565223D01*
X86090813Y-60570150D01*
X86086694Y-60574694D01*
X86082150Y-60578813D01*
X86077223Y-60582467D01*
X86071962Y-60585620D01*
X86066418Y-60588242D01*
X86060643Y-60590309D01*
X86054693Y-60591799D01*
X86048626Y-60592699D01*
X86042500Y-60593000D01*
X85342500Y-60593000D01*
X85336374Y-60592699D01*
X85330307Y-60591799D01*
X85324357Y-60590309D01*
X85318582Y-60588242D01*
X85313038Y-60585620D01*
X85307777Y-60582467D01*
X85302850Y-60578813D01*
X85298306Y-60574694D01*
X85294187Y-60570150D01*
X85290533Y-60565223D01*
X85287380Y-60559962D01*
X85284758Y-60554418D01*
X85282691Y-60548643D01*
X85281201Y-60542693D01*
X85280301Y-60536626D01*
X85280000Y-60530500D01*
X85280000Y-60405500D01*
X85280301Y-60399374D01*
X85281201Y-60393307D01*
X85282691Y-60387357D01*
X85284758Y-60381582D01*
X85287380Y-60376038D01*
X85290533Y-60370777D01*
X85294187Y-60365850D01*
X85298306Y-60361306D01*
X85302850Y-60357187D01*
X85307777Y-60353533D01*
X85313038Y-60350380D01*
X85318582Y-60347758D01*
X85324357Y-60345691D01*
X85330307Y-60344201D01*
X85336374Y-60343301D01*
X85342500Y-60343000D01*
X86042500Y-60343000D01*
X86048626Y-60343301D01*
X86048626Y-60343301D01*
G37*
D22*
X85692500Y-60468000D03*
D10*
G36*
X86048626Y-60843301D02*
G01*
X86054693Y-60844201D01*
X86060643Y-60845691D01*
X86066418Y-60847758D01*
X86071962Y-60850380D01*
X86077223Y-60853533D01*
X86082150Y-60857187D01*
X86086694Y-60861306D01*
X86090813Y-60865850D01*
X86094467Y-60870777D01*
X86097620Y-60876038D01*
X86100242Y-60881582D01*
X86102309Y-60887357D01*
X86103799Y-60893307D01*
X86104699Y-60899374D01*
X86105000Y-60905500D01*
X86105000Y-61030500D01*
X86104699Y-61036626D01*
X86103799Y-61042693D01*
X86102309Y-61048643D01*
X86100242Y-61054418D01*
X86097620Y-61059962D01*
X86094467Y-61065223D01*
X86090813Y-61070150D01*
X86086694Y-61074694D01*
X86082150Y-61078813D01*
X86077223Y-61082467D01*
X86071962Y-61085620D01*
X86066418Y-61088242D01*
X86060643Y-61090309D01*
X86054693Y-61091799D01*
X86048626Y-61092699D01*
X86042500Y-61093000D01*
X85342500Y-61093000D01*
X85336374Y-61092699D01*
X85330307Y-61091799D01*
X85324357Y-61090309D01*
X85318582Y-61088242D01*
X85313038Y-61085620D01*
X85307777Y-61082467D01*
X85302850Y-61078813D01*
X85298306Y-61074694D01*
X85294187Y-61070150D01*
X85290533Y-61065223D01*
X85287380Y-61059962D01*
X85284758Y-61054418D01*
X85282691Y-61048643D01*
X85281201Y-61042693D01*
X85280301Y-61036626D01*
X85280000Y-61030500D01*
X85280000Y-60905500D01*
X85280301Y-60899374D01*
X85281201Y-60893307D01*
X85282691Y-60887357D01*
X85284758Y-60881582D01*
X85287380Y-60876038D01*
X85290533Y-60870777D01*
X85294187Y-60865850D01*
X85298306Y-60861306D01*
X85302850Y-60857187D01*
X85307777Y-60853533D01*
X85313038Y-60850380D01*
X85318582Y-60847758D01*
X85324357Y-60845691D01*
X85330307Y-60844201D01*
X85336374Y-60843301D01*
X85342500Y-60843000D01*
X86042500Y-60843000D01*
X86048626Y-60843301D01*
X86048626Y-60843301D01*
G37*
D22*
X85692500Y-60968000D03*
D10*
G36*
X86048626Y-61343301D02*
G01*
X86054693Y-61344201D01*
X86060643Y-61345691D01*
X86066418Y-61347758D01*
X86071962Y-61350380D01*
X86077223Y-61353533D01*
X86082150Y-61357187D01*
X86086694Y-61361306D01*
X86090813Y-61365850D01*
X86094467Y-61370777D01*
X86097620Y-61376038D01*
X86100242Y-61381582D01*
X86102309Y-61387357D01*
X86103799Y-61393307D01*
X86104699Y-61399374D01*
X86105000Y-61405500D01*
X86105000Y-61530500D01*
X86104699Y-61536626D01*
X86103799Y-61542693D01*
X86102309Y-61548643D01*
X86100242Y-61554418D01*
X86097620Y-61559962D01*
X86094467Y-61565223D01*
X86090813Y-61570150D01*
X86086694Y-61574694D01*
X86082150Y-61578813D01*
X86077223Y-61582467D01*
X86071962Y-61585620D01*
X86066418Y-61588242D01*
X86060643Y-61590309D01*
X86054693Y-61591799D01*
X86048626Y-61592699D01*
X86042500Y-61593000D01*
X85342500Y-61593000D01*
X85336374Y-61592699D01*
X85330307Y-61591799D01*
X85324357Y-61590309D01*
X85318582Y-61588242D01*
X85313038Y-61585620D01*
X85307777Y-61582467D01*
X85302850Y-61578813D01*
X85298306Y-61574694D01*
X85294187Y-61570150D01*
X85290533Y-61565223D01*
X85287380Y-61559962D01*
X85284758Y-61554418D01*
X85282691Y-61548643D01*
X85281201Y-61542693D01*
X85280301Y-61536626D01*
X85280000Y-61530500D01*
X85280000Y-61405500D01*
X85280301Y-61399374D01*
X85281201Y-61393307D01*
X85282691Y-61387357D01*
X85284758Y-61381582D01*
X85287380Y-61376038D01*
X85290533Y-61370777D01*
X85294187Y-61365850D01*
X85298306Y-61361306D01*
X85302850Y-61357187D01*
X85307777Y-61353533D01*
X85313038Y-61350380D01*
X85318582Y-61347758D01*
X85324357Y-61345691D01*
X85330307Y-61344201D01*
X85336374Y-61343301D01*
X85342500Y-61343000D01*
X86042500Y-61343000D01*
X86048626Y-61343301D01*
X86048626Y-61343301D01*
G37*
D22*
X85692500Y-61468000D03*
D10*
G36*
X86048626Y-61843301D02*
G01*
X86054693Y-61844201D01*
X86060643Y-61845691D01*
X86066418Y-61847758D01*
X86071962Y-61850380D01*
X86077223Y-61853533D01*
X86082150Y-61857187D01*
X86086694Y-61861306D01*
X86090813Y-61865850D01*
X86094467Y-61870777D01*
X86097620Y-61876038D01*
X86100242Y-61881582D01*
X86102309Y-61887357D01*
X86103799Y-61893307D01*
X86104699Y-61899374D01*
X86105000Y-61905500D01*
X86105000Y-62030500D01*
X86104699Y-62036626D01*
X86103799Y-62042693D01*
X86102309Y-62048643D01*
X86100242Y-62054418D01*
X86097620Y-62059962D01*
X86094467Y-62065223D01*
X86090813Y-62070150D01*
X86086694Y-62074694D01*
X86082150Y-62078813D01*
X86077223Y-62082467D01*
X86071962Y-62085620D01*
X86066418Y-62088242D01*
X86060643Y-62090309D01*
X86054693Y-62091799D01*
X86048626Y-62092699D01*
X86042500Y-62093000D01*
X85342500Y-62093000D01*
X85336374Y-62092699D01*
X85330307Y-62091799D01*
X85324357Y-62090309D01*
X85318582Y-62088242D01*
X85313038Y-62085620D01*
X85307777Y-62082467D01*
X85302850Y-62078813D01*
X85298306Y-62074694D01*
X85294187Y-62070150D01*
X85290533Y-62065223D01*
X85287380Y-62059962D01*
X85284758Y-62054418D01*
X85282691Y-62048643D01*
X85281201Y-62042693D01*
X85280301Y-62036626D01*
X85280000Y-62030500D01*
X85280000Y-61905500D01*
X85280301Y-61899374D01*
X85281201Y-61893307D01*
X85282691Y-61887357D01*
X85284758Y-61881582D01*
X85287380Y-61876038D01*
X85290533Y-61870777D01*
X85294187Y-61865850D01*
X85298306Y-61861306D01*
X85302850Y-61857187D01*
X85307777Y-61853533D01*
X85313038Y-61850380D01*
X85318582Y-61847758D01*
X85324357Y-61845691D01*
X85330307Y-61844201D01*
X85336374Y-61843301D01*
X85342500Y-61843000D01*
X86042500Y-61843000D01*
X86048626Y-61843301D01*
X86048626Y-61843301D01*
G37*
D22*
X85692500Y-61968000D03*
D10*
G36*
X86048626Y-62343301D02*
G01*
X86054693Y-62344201D01*
X86060643Y-62345691D01*
X86066418Y-62347758D01*
X86071962Y-62350380D01*
X86077223Y-62353533D01*
X86082150Y-62357187D01*
X86086694Y-62361306D01*
X86090813Y-62365850D01*
X86094467Y-62370777D01*
X86097620Y-62376038D01*
X86100242Y-62381582D01*
X86102309Y-62387357D01*
X86103799Y-62393307D01*
X86104699Y-62399374D01*
X86105000Y-62405500D01*
X86105000Y-62530500D01*
X86104699Y-62536626D01*
X86103799Y-62542693D01*
X86102309Y-62548643D01*
X86100242Y-62554418D01*
X86097620Y-62559962D01*
X86094467Y-62565223D01*
X86090813Y-62570150D01*
X86086694Y-62574694D01*
X86082150Y-62578813D01*
X86077223Y-62582467D01*
X86071962Y-62585620D01*
X86066418Y-62588242D01*
X86060643Y-62590309D01*
X86054693Y-62591799D01*
X86048626Y-62592699D01*
X86042500Y-62593000D01*
X85342500Y-62593000D01*
X85336374Y-62592699D01*
X85330307Y-62591799D01*
X85324357Y-62590309D01*
X85318582Y-62588242D01*
X85313038Y-62585620D01*
X85307777Y-62582467D01*
X85302850Y-62578813D01*
X85298306Y-62574694D01*
X85294187Y-62570150D01*
X85290533Y-62565223D01*
X85287380Y-62559962D01*
X85284758Y-62554418D01*
X85282691Y-62548643D01*
X85281201Y-62542693D01*
X85280301Y-62536626D01*
X85280000Y-62530500D01*
X85280000Y-62405500D01*
X85280301Y-62399374D01*
X85281201Y-62393307D01*
X85282691Y-62387357D01*
X85284758Y-62381582D01*
X85287380Y-62376038D01*
X85290533Y-62370777D01*
X85294187Y-62365850D01*
X85298306Y-62361306D01*
X85302850Y-62357187D01*
X85307777Y-62353533D01*
X85313038Y-62350380D01*
X85318582Y-62347758D01*
X85324357Y-62345691D01*
X85330307Y-62344201D01*
X85336374Y-62343301D01*
X85342500Y-62343000D01*
X86042500Y-62343000D01*
X86048626Y-62343301D01*
X86048626Y-62343301D01*
G37*
D22*
X85692500Y-62468000D03*
D21*
X85642500Y-62968000D03*
D10*
G36*
X85280961Y-62883245D02*
G01*
X85283806Y-62873866D01*
X85288427Y-62865221D01*
X85294645Y-62857645D01*
X85302221Y-62851427D01*
X85310866Y-62846806D01*
X85320245Y-62843961D01*
X85330000Y-62843000D01*
X85955000Y-62843000D01*
X85964755Y-62843961D01*
X85974134Y-62846806D01*
X85982779Y-62851427D01*
X85990355Y-62857645D01*
X85996573Y-62865221D01*
X86001194Y-62873866D01*
X86004039Y-62883245D01*
X86005000Y-62893000D01*
X86004039Y-62902755D01*
X86001194Y-62912134D01*
X85996573Y-62920779D01*
X85990355Y-62928355D01*
X85840355Y-63078355D01*
X85832779Y-63084573D01*
X85824134Y-63089194D01*
X85814755Y-63092039D01*
X85805000Y-63093000D01*
X85330000Y-63093000D01*
X85320245Y-63092039D01*
X85310866Y-63089194D01*
X85302221Y-63084573D01*
X85294645Y-63078355D01*
X85288427Y-63070779D01*
X85283806Y-63062134D01*
X85280961Y-63052755D01*
X85280000Y-63043000D01*
X85280000Y-62893000D01*
X85280961Y-62883245D01*
X85280961Y-62883245D01*
G37*
D23*
X67235000Y-56625000D03*
D24*
X66735000Y-56575000D03*
X66235000Y-56575000D03*
X66235000Y-57725000D03*
X66735000Y-57725000D03*
X67235000Y-57725000D03*
D25*
X73050000Y-80010000D03*
D26*
X79350000Y-80010000D03*
X79350000Y-77710000D03*
X79350000Y-82310000D03*
D10*
G36*
X84097691Y-68651553D02*
G01*
X84118926Y-68654703D01*
X84139750Y-68659919D01*
X84159962Y-68667151D01*
X84179368Y-68676330D01*
X84197781Y-68687366D01*
X84215024Y-68700154D01*
X84230930Y-68714570D01*
X84245346Y-68730476D01*
X84258134Y-68747719D01*
X84269170Y-68766132D01*
X84278349Y-68785538D01*
X84285581Y-68805750D01*
X84290797Y-68826574D01*
X84293947Y-68847809D01*
X84295000Y-68869250D01*
X84295000Y-69306750D01*
X84293947Y-69328191D01*
X84290797Y-69349426D01*
X84285581Y-69370250D01*
X84278349Y-69390462D01*
X84269170Y-69409868D01*
X84258134Y-69428281D01*
X84245346Y-69445524D01*
X84230930Y-69461430D01*
X84215024Y-69475846D01*
X84197781Y-69488634D01*
X84179368Y-69499670D01*
X84159962Y-69508849D01*
X84139750Y-69516081D01*
X84118926Y-69521297D01*
X84097691Y-69524447D01*
X84076250Y-69525500D01*
X83563750Y-69525500D01*
X83542309Y-69524447D01*
X83521074Y-69521297D01*
X83500250Y-69516081D01*
X83480038Y-69508849D01*
X83460632Y-69499670D01*
X83442219Y-69488634D01*
X83424976Y-69475846D01*
X83409070Y-69461430D01*
X83394654Y-69445524D01*
X83381866Y-69428281D01*
X83370830Y-69409868D01*
X83361651Y-69390462D01*
X83354419Y-69370250D01*
X83349203Y-69349426D01*
X83346053Y-69328191D01*
X83345000Y-69306750D01*
X83345000Y-68869250D01*
X83346053Y-68847809D01*
X83349203Y-68826574D01*
X83354419Y-68805750D01*
X83361651Y-68785538D01*
X83370830Y-68766132D01*
X83381866Y-68747719D01*
X83394654Y-68730476D01*
X83409070Y-68714570D01*
X83424976Y-68700154D01*
X83442219Y-68687366D01*
X83460632Y-68676330D01*
X83480038Y-68667151D01*
X83500250Y-68659919D01*
X83521074Y-68654703D01*
X83542309Y-68651553D01*
X83563750Y-68650500D01*
X84076250Y-68650500D01*
X84097691Y-68651553D01*
X84097691Y-68651553D01*
G37*
D11*
X83820000Y-69088000D03*
D10*
G36*
X84097691Y-70226553D02*
G01*
X84118926Y-70229703D01*
X84139750Y-70234919D01*
X84159962Y-70242151D01*
X84179368Y-70251330D01*
X84197781Y-70262366D01*
X84215024Y-70275154D01*
X84230930Y-70289570D01*
X84245346Y-70305476D01*
X84258134Y-70322719D01*
X84269170Y-70341132D01*
X84278349Y-70360538D01*
X84285581Y-70380750D01*
X84290797Y-70401574D01*
X84293947Y-70422809D01*
X84295000Y-70444250D01*
X84295000Y-70881750D01*
X84293947Y-70903191D01*
X84290797Y-70924426D01*
X84285581Y-70945250D01*
X84278349Y-70965462D01*
X84269170Y-70984868D01*
X84258134Y-71003281D01*
X84245346Y-71020524D01*
X84230930Y-71036430D01*
X84215024Y-71050846D01*
X84197781Y-71063634D01*
X84179368Y-71074670D01*
X84159962Y-71083849D01*
X84139750Y-71091081D01*
X84118926Y-71096297D01*
X84097691Y-71099447D01*
X84076250Y-71100500D01*
X83563750Y-71100500D01*
X83542309Y-71099447D01*
X83521074Y-71096297D01*
X83500250Y-71091081D01*
X83480038Y-71083849D01*
X83460632Y-71074670D01*
X83442219Y-71063634D01*
X83424976Y-71050846D01*
X83409070Y-71036430D01*
X83394654Y-71020524D01*
X83381866Y-71003281D01*
X83370830Y-70984868D01*
X83361651Y-70965462D01*
X83354419Y-70945250D01*
X83349203Y-70924426D01*
X83346053Y-70903191D01*
X83345000Y-70881750D01*
X83345000Y-70444250D01*
X83346053Y-70422809D01*
X83349203Y-70401574D01*
X83354419Y-70380750D01*
X83361651Y-70360538D01*
X83370830Y-70341132D01*
X83381866Y-70322719D01*
X83394654Y-70305476D01*
X83409070Y-70289570D01*
X83424976Y-70275154D01*
X83442219Y-70262366D01*
X83460632Y-70251330D01*
X83480038Y-70242151D01*
X83500250Y-70234919D01*
X83521074Y-70229703D01*
X83542309Y-70226553D01*
X83563750Y-70225500D01*
X84076250Y-70225500D01*
X84097691Y-70226553D01*
X84097691Y-70226553D01*
G37*
D11*
X83820000Y-70663000D03*
D10*
G36*
X90701691Y-55723053D02*
G01*
X90722926Y-55726203D01*
X90743750Y-55731419D01*
X90763962Y-55738651D01*
X90783368Y-55747830D01*
X90801781Y-55758866D01*
X90819024Y-55771654D01*
X90834930Y-55786070D01*
X90849346Y-55801976D01*
X90862134Y-55819219D01*
X90873170Y-55837632D01*
X90882349Y-55857038D01*
X90889581Y-55877250D01*
X90894797Y-55898074D01*
X90897947Y-55919309D01*
X90899000Y-55940750D01*
X90899000Y-56378250D01*
X90897947Y-56399691D01*
X90894797Y-56420926D01*
X90889581Y-56441750D01*
X90882349Y-56461962D01*
X90873170Y-56481368D01*
X90862134Y-56499781D01*
X90849346Y-56517024D01*
X90834930Y-56532930D01*
X90819024Y-56547346D01*
X90801781Y-56560134D01*
X90783368Y-56571170D01*
X90763962Y-56580349D01*
X90743750Y-56587581D01*
X90722926Y-56592797D01*
X90701691Y-56595947D01*
X90680250Y-56597000D01*
X90167750Y-56597000D01*
X90146309Y-56595947D01*
X90125074Y-56592797D01*
X90104250Y-56587581D01*
X90084038Y-56580349D01*
X90064632Y-56571170D01*
X90046219Y-56560134D01*
X90028976Y-56547346D01*
X90013070Y-56532930D01*
X89998654Y-56517024D01*
X89985866Y-56499781D01*
X89974830Y-56481368D01*
X89965651Y-56461962D01*
X89958419Y-56441750D01*
X89953203Y-56420926D01*
X89950053Y-56399691D01*
X89949000Y-56378250D01*
X89949000Y-55940750D01*
X89950053Y-55919309D01*
X89953203Y-55898074D01*
X89958419Y-55877250D01*
X89965651Y-55857038D01*
X89974830Y-55837632D01*
X89985866Y-55819219D01*
X89998654Y-55801976D01*
X90013070Y-55786070D01*
X90028976Y-55771654D01*
X90046219Y-55758866D01*
X90064632Y-55747830D01*
X90084038Y-55738651D01*
X90104250Y-55731419D01*
X90125074Y-55726203D01*
X90146309Y-55723053D01*
X90167750Y-55722000D01*
X90680250Y-55722000D01*
X90701691Y-55723053D01*
X90701691Y-55723053D01*
G37*
D11*
X90424000Y-56159500D03*
D10*
G36*
X90701691Y-54148053D02*
G01*
X90722926Y-54151203D01*
X90743750Y-54156419D01*
X90763962Y-54163651D01*
X90783368Y-54172830D01*
X90801781Y-54183866D01*
X90819024Y-54196654D01*
X90834930Y-54211070D01*
X90849346Y-54226976D01*
X90862134Y-54244219D01*
X90873170Y-54262632D01*
X90882349Y-54282038D01*
X90889581Y-54302250D01*
X90894797Y-54323074D01*
X90897947Y-54344309D01*
X90899000Y-54365750D01*
X90899000Y-54803250D01*
X90897947Y-54824691D01*
X90894797Y-54845926D01*
X90889581Y-54866750D01*
X90882349Y-54886962D01*
X90873170Y-54906368D01*
X90862134Y-54924781D01*
X90849346Y-54942024D01*
X90834930Y-54957930D01*
X90819024Y-54972346D01*
X90801781Y-54985134D01*
X90783368Y-54996170D01*
X90763962Y-55005349D01*
X90743750Y-55012581D01*
X90722926Y-55017797D01*
X90701691Y-55020947D01*
X90680250Y-55022000D01*
X90167750Y-55022000D01*
X90146309Y-55020947D01*
X90125074Y-55017797D01*
X90104250Y-55012581D01*
X90084038Y-55005349D01*
X90064632Y-54996170D01*
X90046219Y-54985134D01*
X90028976Y-54972346D01*
X90013070Y-54957930D01*
X89998654Y-54942024D01*
X89985866Y-54924781D01*
X89974830Y-54906368D01*
X89965651Y-54886962D01*
X89958419Y-54866750D01*
X89953203Y-54845926D01*
X89950053Y-54824691D01*
X89949000Y-54803250D01*
X89949000Y-54365750D01*
X89950053Y-54344309D01*
X89953203Y-54323074D01*
X89958419Y-54302250D01*
X89965651Y-54282038D01*
X89974830Y-54262632D01*
X89985866Y-54244219D01*
X89998654Y-54226976D01*
X90013070Y-54211070D01*
X90028976Y-54196654D01*
X90046219Y-54183866D01*
X90064632Y-54172830D01*
X90084038Y-54163651D01*
X90104250Y-54156419D01*
X90125074Y-54151203D01*
X90146309Y-54148053D01*
X90167750Y-54147000D01*
X90680250Y-54147000D01*
X90701691Y-54148053D01*
X90701691Y-54148053D01*
G37*
D11*
X90424000Y-54584500D03*
D10*
G36*
X64527691Y-54136053D02*
G01*
X64548926Y-54139203D01*
X64569750Y-54144419D01*
X64589962Y-54151651D01*
X64609368Y-54160830D01*
X64627781Y-54171866D01*
X64645024Y-54184654D01*
X64660930Y-54199070D01*
X64675346Y-54214976D01*
X64688134Y-54232219D01*
X64699170Y-54250632D01*
X64708349Y-54270038D01*
X64715581Y-54290250D01*
X64720797Y-54311074D01*
X64723947Y-54332309D01*
X64725000Y-54353750D01*
X64725000Y-54866250D01*
X64723947Y-54887691D01*
X64720797Y-54908926D01*
X64715581Y-54929750D01*
X64708349Y-54949962D01*
X64699170Y-54969368D01*
X64688134Y-54987781D01*
X64675346Y-55005024D01*
X64660930Y-55020930D01*
X64645024Y-55035346D01*
X64627781Y-55048134D01*
X64609368Y-55059170D01*
X64589962Y-55068349D01*
X64569750Y-55075581D01*
X64548926Y-55080797D01*
X64527691Y-55083947D01*
X64506250Y-55085000D01*
X64068750Y-55085000D01*
X64047309Y-55083947D01*
X64026074Y-55080797D01*
X64005250Y-55075581D01*
X63985038Y-55068349D01*
X63965632Y-55059170D01*
X63947219Y-55048134D01*
X63929976Y-55035346D01*
X63914070Y-55020930D01*
X63899654Y-55005024D01*
X63886866Y-54987781D01*
X63875830Y-54969368D01*
X63866651Y-54949962D01*
X63859419Y-54929750D01*
X63854203Y-54908926D01*
X63851053Y-54887691D01*
X63850000Y-54866250D01*
X63850000Y-54353750D01*
X63851053Y-54332309D01*
X63854203Y-54311074D01*
X63859419Y-54290250D01*
X63866651Y-54270038D01*
X63875830Y-54250632D01*
X63886866Y-54232219D01*
X63899654Y-54214976D01*
X63914070Y-54199070D01*
X63929976Y-54184654D01*
X63947219Y-54171866D01*
X63965632Y-54160830D01*
X63985038Y-54151651D01*
X64005250Y-54144419D01*
X64026074Y-54139203D01*
X64047309Y-54136053D01*
X64068750Y-54135000D01*
X64506250Y-54135000D01*
X64527691Y-54136053D01*
X64527691Y-54136053D01*
G37*
D11*
X64287500Y-54610000D03*
D10*
G36*
X62952691Y-54136053D02*
G01*
X62973926Y-54139203D01*
X62994750Y-54144419D01*
X63014962Y-54151651D01*
X63034368Y-54160830D01*
X63052781Y-54171866D01*
X63070024Y-54184654D01*
X63085930Y-54199070D01*
X63100346Y-54214976D01*
X63113134Y-54232219D01*
X63124170Y-54250632D01*
X63133349Y-54270038D01*
X63140581Y-54290250D01*
X63145797Y-54311074D01*
X63148947Y-54332309D01*
X63150000Y-54353750D01*
X63150000Y-54866250D01*
X63148947Y-54887691D01*
X63145797Y-54908926D01*
X63140581Y-54929750D01*
X63133349Y-54949962D01*
X63124170Y-54969368D01*
X63113134Y-54987781D01*
X63100346Y-55005024D01*
X63085930Y-55020930D01*
X63070024Y-55035346D01*
X63052781Y-55048134D01*
X63034368Y-55059170D01*
X63014962Y-55068349D01*
X62994750Y-55075581D01*
X62973926Y-55080797D01*
X62952691Y-55083947D01*
X62931250Y-55085000D01*
X62493750Y-55085000D01*
X62472309Y-55083947D01*
X62451074Y-55080797D01*
X62430250Y-55075581D01*
X62410038Y-55068349D01*
X62390632Y-55059170D01*
X62372219Y-55048134D01*
X62354976Y-55035346D01*
X62339070Y-55020930D01*
X62324654Y-55005024D01*
X62311866Y-54987781D01*
X62300830Y-54969368D01*
X62291651Y-54949962D01*
X62284419Y-54929750D01*
X62279203Y-54908926D01*
X62276053Y-54887691D01*
X62275000Y-54866250D01*
X62275000Y-54353750D01*
X62276053Y-54332309D01*
X62279203Y-54311074D01*
X62284419Y-54290250D01*
X62291651Y-54270038D01*
X62300830Y-54250632D01*
X62311866Y-54232219D01*
X62324654Y-54214976D01*
X62339070Y-54199070D01*
X62354976Y-54184654D01*
X62372219Y-54171866D01*
X62390632Y-54160830D01*
X62410038Y-54151651D01*
X62430250Y-54144419D01*
X62451074Y-54139203D01*
X62472309Y-54136053D01*
X62493750Y-54135000D01*
X62931250Y-54135000D01*
X62952691Y-54136053D01*
X62952691Y-54136053D01*
G37*
D11*
X62712500Y-54610000D03*
D10*
G36*
X81557691Y-70226553D02*
G01*
X81578926Y-70229703D01*
X81599750Y-70234919D01*
X81619962Y-70242151D01*
X81639368Y-70251330D01*
X81657781Y-70262366D01*
X81675024Y-70275154D01*
X81690930Y-70289570D01*
X81705346Y-70305476D01*
X81718134Y-70322719D01*
X81729170Y-70341132D01*
X81738349Y-70360538D01*
X81745581Y-70380750D01*
X81750797Y-70401574D01*
X81753947Y-70422809D01*
X81755000Y-70444250D01*
X81755000Y-70881750D01*
X81753947Y-70903191D01*
X81750797Y-70924426D01*
X81745581Y-70945250D01*
X81738349Y-70965462D01*
X81729170Y-70984868D01*
X81718134Y-71003281D01*
X81705346Y-71020524D01*
X81690930Y-71036430D01*
X81675024Y-71050846D01*
X81657781Y-71063634D01*
X81639368Y-71074670D01*
X81619962Y-71083849D01*
X81599750Y-71091081D01*
X81578926Y-71096297D01*
X81557691Y-71099447D01*
X81536250Y-71100500D01*
X81023750Y-71100500D01*
X81002309Y-71099447D01*
X80981074Y-71096297D01*
X80960250Y-71091081D01*
X80940038Y-71083849D01*
X80920632Y-71074670D01*
X80902219Y-71063634D01*
X80884976Y-71050846D01*
X80869070Y-71036430D01*
X80854654Y-71020524D01*
X80841866Y-71003281D01*
X80830830Y-70984868D01*
X80821651Y-70965462D01*
X80814419Y-70945250D01*
X80809203Y-70924426D01*
X80806053Y-70903191D01*
X80805000Y-70881750D01*
X80805000Y-70444250D01*
X80806053Y-70422809D01*
X80809203Y-70401574D01*
X80814419Y-70380750D01*
X80821651Y-70360538D01*
X80830830Y-70341132D01*
X80841866Y-70322719D01*
X80854654Y-70305476D01*
X80869070Y-70289570D01*
X80884976Y-70275154D01*
X80902219Y-70262366D01*
X80920632Y-70251330D01*
X80940038Y-70242151D01*
X80960250Y-70234919D01*
X80981074Y-70229703D01*
X81002309Y-70226553D01*
X81023750Y-70225500D01*
X81536250Y-70225500D01*
X81557691Y-70226553D01*
X81557691Y-70226553D01*
G37*
D11*
X81280000Y-70663000D03*
D10*
G36*
X81557691Y-68651553D02*
G01*
X81578926Y-68654703D01*
X81599750Y-68659919D01*
X81619962Y-68667151D01*
X81639368Y-68676330D01*
X81657781Y-68687366D01*
X81675024Y-68700154D01*
X81690930Y-68714570D01*
X81705346Y-68730476D01*
X81718134Y-68747719D01*
X81729170Y-68766132D01*
X81738349Y-68785538D01*
X81745581Y-68805750D01*
X81750797Y-68826574D01*
X81753947Y-68847809D01*
X81755000Y-68869250D01*
X81755000Y-69306750D01*
X81753947Y-69328191D01*
X81750797Y-69349426D01*
X81745581Y-69370250D01*
X81738349Y-69390462D01*
X81729170Y-69409868D01*
X81718134Y-69428281D01*
X81705346Y-69445524D01*
X81690930Y-69461430D01*
X81675024Y-69475846D01*
X81657781Y-69488634D01*
X81639368Y-69499670D01*
X81619962Y-69508849D01*
X81599750Y-69516081D01*
X81578926Y-69521297D01*
X81557691Y-69524447D01*
X81536250Y-69525500D01*
X81023750Y-69525500D01*
X81002309Y-69524447D01*
X80981074Y-69521297D01*
X80960250Y-69516081D01*
X80940038Y-69508849D01*
X80920632Y-69499670D01*
X80902219Y-69488634D01*
X80884976Y-69475846D01*
X80869070Y-69461430D01*
X80854654Y-69445524D01*
X80841866Y-69428281D01*
X80830830Y-69409868D01*
X80821651Y-69390462D01*
X80814419Y-69370250D01*
X80809203Y-69349426D01*
X80806053Y-69328191D01*
X80805000Y-69306750D01*
X80805000Y-68869250D01*
X80806053Y-68847809D01*
X80809203Y-68826574D01*
X80814419Y-68805750D01*
X80821651Y-68785538D01*
X80830830Y-68766132D01*
X80841866Y-68747719D01*
X80854654Y-68730476D01*
X80869070Y-68714570D01*
X80884976Y-68700154D01*
X80902219Y-68687366D01*
X80920632Y-68676330D01*
X80940038Y-68667151D01*
X80960250Y-68659919D01*
X80981074Y-68654703D01*
X81002309Y-68651553D01*
X81023750Y-68650500D01*
X81536250Y-68650500D01*
X81557691Y-68651553D01*
X81557691Y-68651553D01*
G37*
D11*
X81280000Y-69088000D03*
M02*
