M48
; DRILL file {KiCad 5.1.2-f72e74a~84~ubuntu18.04.1} date So 19 Mai 2019 10:24:23 CEST
; FORMAT={-:-/ absolute / inch / decimal}
; #@! TF.CreationDate,2019-05-19T10:24:23+02:00
; #@! TF.GenerationSoftware,Kicad,Pcbnew,5.1.2-f72e74a~84~ubuntu18.04.1
FMAT,2
INCH
T1C0.0157
T2C0.0197
T3C0.0394
T4C0.1260
%
G90
G05
T1
X2.44Y-2.38
X2.44Y-2.44
X2.5Y-2.48
X2.5Y-2.78
X2.56Y-2.36
X2.5926Y-2.2664
X2.6Y-2.96
X2.62Y-2.32
X2.64Y-2.5
X2.66Y-2.44
X2.68Y-2.32
X2.72Y-2.34
X2.74Y-3.6
X2.76Y-2.34
X2.76Y-2.48
X2.8Y-2.02
X2.8Y-3.06
X2.8143Y-2.7792
X2.84Y-2.22
X2.84Y-2.84
X2.86Y-2.02
X2.9125Y-2.8029
X2.94Y-2.02
X2.94Y-2.34
X2.94Y-2.66
X2.94Y-2.86
X2.98Y-2.22
X2.98Y-2.74
X3.0Y-2.98
X3.0Y-3.45
X3.007Y-2.1072
X3.02Y-2.76
X3.03Y-2.34
X3.1Y-2.26
X3.1Y-2.54
X3.12Y-2.4
X3.14Y-2.66
X3.16Y-2.36
X3.1678Y-3.0667
X3.1941Y-2.9967
X3.2315Y-3.0419
X3.24Y-2.56
X3.2474Y-2.8072
X3.2602Y-2.3398
X3.2749Y-2.5123
X3.28Y-2.4505
X3.28Y-3.6
X3.2978Y-2.9392
X3.3099Y-2.9029
X3.3136Y-2.5194
X3.3202Y-2.3602
X3.3519Y-2.5288
X3.4Y-2.68
X3.4117Y-2.2228
X3.42Y-3.28
X3.425Y-2.075
X3.4602Y-2.8402
X3.48Y-2.7
X3.4807Y-2.2873
X3.4889Y-2.2125
X3.4992Y-2.8463
X3.5Y-2.5715
X3.5356Y-2.2873
X3.5838Y-2.34
X3.6Y-2.9
X3.6081Y-2.2426
T2
X2.84Y-2.38
X2.84Y-2.4548
T3
X2.6Y-3.0886
X2.6Y-3.2618
T4
X3.0118Y-2.45
X3.4646Y-3.5433
X2.5591Y-3.5433
T0
M30
